<?xml version="1.0" encoding="UTF-8"?>
<svg id="Calque_1" data-name="Calque 1" xmlns="http://www.w3.org/2000/svg" viewBox="0 0 25 25">
  <defs>
    <style>
      .cls-1 {
        fill: #fff;
      }
    </style>
  </defs>
  <circle class="cls-1" cx="12.5" cy="12.5" r="2.05"/>
  <path class="cls-1" d="M17.28,8.88c-.11-.29-.24-.49-.46-.71-.21-.21-.42-.35-.71-.46-.22-.08-.54-.18-1.14-.21-.65-.03-.84-.04-2.48-.04s-1.83,0-2.48.04c-.6.03-.92.13-1.14.21-.29.11-.49.24-.71.46-.21.21-.35.42-.46.71-.08.22-.18.54-.21,1.14-.03.65-.04.84-.04,2.48s0,1.83.04,2.48c.03.6.13.92.21,1.14.11.29.24.49.46.71.21.21.42.35.71.46.22.08.54.18,1.14.21.65.03.84.04,2.48.04s1.83,0,2.48-.04c.6-.03.92-.13,1.14-.21.29-.11.49-.24.71-.46.21-.21.35-.42.46-.71.08-.22.18-.54.21-1.14.03-.65.04-.84.04-2.48s0-1.83-.04-2.48c-.03-.6-.13-.92-.21-1.14ZM12.5,15.65c-1.74,0-3.15-1.41-3.15-3.15s1.41-3.15,3.15-3.15,3.15,1.41,3.15,3.15-1.41,3.15-3.15,3.15ZM15.78,9.96c-.41,0-.74-.33-.74-.74s.33-.74.74-.74.74.33.74.74-.33.74-.74.74Z"/>
  <path class="cls-1" d="M12.5,0C5.6,0,0,5.6,0,12.5s5.6,12.5,12.5,12.5,12.5-5.6,12.5-12.5S19.4,0,12.5,0ZM18.6,15.03c-.03.65-.13,1.1-.29,1.49-.16.4-.37.75-.71,1.09-.34.34-.68.55-1.09.71-.39.15-.84.26-1.49.29-.65.03-.86.04-2.53.04s-1.88,0-2.53-.04c-.65-.03-1.1-.13-1.49-.29-.4-.16-.75-.37-1.09-.71-.34-.34-.55-.68-.71-1.09-.15-.39-.26-.84-.29-1.49-.03-.65-.04-.86-.04-2.53s0-1.88.04-2.53c.03-.65.13-1.1.29-1.49.16-.4.37-.75.71-1.09.34-.34.68-.55,1.09-.71.39-.15.84-.26,1.49-.29.65-.03.86-.04,2.53-.04s1.88,0,2.53.04c.65.03,1.1.13,1.49.29.4.16.75.37,1.09.71.34.34.55.68.71,1.09.15.39.26.84.29,1.49.03.65.04.86.04,2.53s0,1.88-.04,2.53Z"/>
</svg>