<?xml version="1.0" encoding="UTF-8"?>
<svg id="Calque_1" data-name="Calque 1" xmlns="http://www.w3.org/2000/svg" viewBox="0 0 25 25">
  <defs>
    <style>
      .cls-1 {
        fill: #fff;
      }
    </style>
  </defs>
  <path class="cls-1" d="M23.53,21.32H1.47c-.81,0-1.47-.66-1.47-1.47s.66-1.47,1.47-1.47h22.06c.81,0,1.47.66,1.47,1.47s-.66,1.47-1.47,1.47ZM23.53,13.97H1.47c-.81,0-1.47-.66-1.47-1.47s.66-1.47,1.47-1.47h22.06c.81,0,1.47.66,1.47,1.47s-.66,1.47-1.47,1.47ZM23.53,6.62H1.47c-.81,0-1.47-.66-1.47-1.47s.66-1.47,1.47-1.47h22.06c.81,0,1.47.66,1.47,1.47s-.66,1.47-1.47,1.47Z"/>
</svg>