<?xml version="1.0" encoding="UTF-8"?>
<svg id="Calque_1" data-name="Calque 1" xmlns="http://www.w3.org/2000/svg" viewBox="0 0 25 25">
  <defs>
    <style>
      .cls-1 {
        fill: #fff;
      }
    </style>
  </defs>
  <path class="cls-1" d="M12.5,0C5.6,0,0,5.6,0,12.5s5.6,12.5,12.5,12.5,12.5-5.6,12.5-12.5S19.4,0,12.5,0ZM9.14,18.64h-2.53v-8.18h2.53v8.18ZM7.86,9.38c-.83,0-1.5-.68-1.5-1.51s.67-1.51,1.5-1.51,1.5.68,1.5,1.51-.67,1.51-1.5,1.51ZM18.64,18.64h-2.52v-4.3c0-1.18-.45-1.84-1.38-1.84-1.01,0-1.54.69-1.54,1.84v4.3h-2.43v-8.18h2.43v1.1s.73-1.35,2.47-1.35,2.98,1.06,2.98,3.25v5.18Z"/>
</svg>