<?xml version="1.0" encoding="UTF-8"?>
<svg id="Calque_1" data-name="Calque 1" xmlns="http://www.w3.org/2000/svg" viewBox="0 0 8 8">
  <defs>
    <style>
      .cls-1 {
        fill: #cc2936;
      }
    </style>
  </defs>
  <path d="M4.61,0h2.38v4.75c0,.37.06.62.18.74s.35.18.71.18h.12v2.32h-.63c-.87,0-1.54-.25-2.03-.76s-.73-1.21-.73-2.11V0Z"/>
  <path class="cls-1" d="M5.34,7.24c-.39-.41-.62-.95-.69-1.62-.2.08-.43.13-.68.13-.47,0-.86-.16-1.17-.49-.31-.33-.46-.74-.46-1.24s.16-.94.47-1.28c.31-.33.71-.5,1.2-.5.23,0,.43.05.62.13V.05C4.43.03,4.25,0,4.05,0,2.91,0,1.95.39,1.17,1.16c-.78.77-1.17,1.73-1.17,2.86s.38,2.07,1.15,2.83,1.71,1.14,2.85,1.14c.69,0,1.28-.14,1.81-.39-.17-.1-.33-.22-.46-.37Z"/>
</svg>