<?xml version="1.0" encoding="UTF-8"?>
<svg xmlns="http://www.w3.org/2000/svg" viewBox="0 0 414.98 432.63">
  <defs>
    <style>
      .cls-1 {
        fill: #fafafa;
      }

      .cls-2 {
        opacity: .05;
      }

      .cls-3 {
        fill: #263238;
      }

      .cls-4 {
        fill: #f0f0f0;
      }

      .cls-5, .cls-6 {
        opacity: .3;
      }

      .cls-7, .cls-8, .cls-9, .cls-6, .cls-10, .cls-11 {
        fill: #fff;
      }

      .cls-7, .cls-12 {
        opacity: .45;
      }

      .cls-13 {
        fill: #37474f;
      }

      .cls-14 {
        fill: #ff9f1c;
      }

      .cls-15 {
        opacity: .25;
      }

      .cls-9, .cls-16, .cls-17 {
        opacity: .5;
      }

      .cls-18, .cls-10 {
        opacity: .4;
      }

      .cls-19 {
        fill: #e0e0e0;
      }

      .cls-20 {
        opacity: .55;
      }

      .cls-21 {
        fill: #455a64;
      }

      .cls-16, .cls-22 {
        fill: #006d77;
      }

      .cls-23 {
        fill: #cbf3f0;
      }

      .cls-24 {
        opacity: .15;
      }

      .cls-25 {
        opacity: .65;
      }

      .cls-26 {
        opacity: .2;
      }

      .cls-27 {
        fill: #ebebeb;
      }

      .cls-28 {
        fill: #f5f5f5;
      }

      .cls-29 {
        opacity: .1;
      }

      .cls-11 {
        opacity: .6;
      }

      .cls-30 {
        fill: #e6e6e6;
      }
    </style>
  </defs>
  <g id="Window">
    <circle class="cls-16" cx="207.49" cy="207.49" r="207.49"/>
  </g>
  <g id="Chart">
    <g id="Chart-2" data-name="Chart">
      <g>
        <g>
          <path class="cls-22" d="M12.56,275.15l-.58-.33c-.92-.53-1.67-1.82-1.67-2.88v-142.89c0-1.06.75-2.35,1.67-2.88L206.61,13.54c.92-.53,2.41-.53,3.33,0l.57.33c.92.53,1.67,1.82,1.67,2.88v142.89c0,1.06-.75,2.35-1.67,2.88L15.89,275.15c-.92.53-2.41.53-3.33,0Z"/>
          <path class="cls-10" d="M12.56,275.15l-.58-.33c-.92-.53-1.67-1.82-1.67-2.88v-142.89c0-1.06.75-2.35,1.67-2.88L206.61,13.54c.92-.53,2.41-.53,3.33,0l.57.33c.92.53,1.67,1.82,1.67,2.88v142.89c0,1.06-.75,2.35-1.67,2.88L15.89,275.15c-.92.53-2.41.53-3.33,0Z"/>
          <path class="cls-26" d="M10.33,129.04v142.9c0,1.07.74,2.35,1.66,2.89l.57.33c.81.45,2.06.52,2.96.17-.76.21-1.3-.21-1.3-1.14v-142.9c0-.52.19-1.11.5-1.64l-3.91-2.25c-.28.52-.47,1.11-.47,1.64Z"/>
          <g>
            <path class="cls-8" d="M210.51,15.8L15.89,128.41c-.92.53-1.67,1.82-1.67,2.88v142.89c0,1.06.75,1.49,1.67.96l194.62-112.61c.92-.53,1.67-1.82,1.67-2.88V16.76c0-1.06-.75-1.49-1.67-.96Z"/>
            <path class="cls-22" d="M210.42,17.89v141.76c0,.43-.41,1.14-.79,1.36L15.99,273.05v-141.76c0-.43.41-1.14.79-1.36L210.42,17.89M211.26,15.57c-.22,0-.48.07-.74.23L15.89,128.41c-.92.53-1.67,1.82-1.67,2.88v142.89c0,.75.38,1.19.92,1.19.22,0,.48-.07.74-.23l194.62-112.61c.92-.53,1.67-1.82,1.67-2.88V16.76c0-.75-.38-1.19-.92-1.19h0Z"/>
          </g>
        </g>
        <g>
          <path class="cls-23" d="M25.16,247.29s.03-.01.05-.02c1.36-.79,2.47-2.54,2.47-3.92,0-.39-.1-.71-.26-.96l15.35-30.41c.39.6,1.24.68,2.22.11,1.36-.78,2.47-2.54,2.47-3.91,0-.56-.19-.98-.51-1.2l15.85-21.12c.45.35,1.17.33,1.97-.14,1.36-.79,2.47-2.55,2.47-3.92,0-.2-.02-.39-.07-.56l14.99-34.06c.27.94,1.23,1.17,2.4.51,1.36-.79,2.47-2.55,2.47-3.92,0-.39-.1-.71-.27-.96l15.36-16.61c.39.59,1.23.66,2.2.1.69-.39,1.3-1.03,1.75-1.73l16.28,6.99c-.44.71-.72,1.49-.72,2.18,0,1.38,1.11,1.85,2.47,1.07,1.36-.79,2.47-2.55,2.47-3.92,0-.2-.02-.39-.07-.56l14.99-12.43c.27.94,1.24,1.17,2.4.5,1.36-.78,2.47-2.54,2.47-3.91,0-.79-.37-1.28-.94-1.4h0s16.7-30.66,16.7-30.66c.43.1.96,0,1.55-.35,1.36-.79,2.47-2.53,2.47-3.91h0s14.83-8.57,14.83-8.57c0,1.37,1.11,1.85,2.48,1.06,1.36-.79,2.47-2.54,2.47-3.92,0-.79-.36-1.28-.93-1.41l16.63-30.54c.43.13.99.02,1.61-.33v119.14L25.16,256.45v-9.16Z"/>
          <path class="cls-9" d="M25.49,247.03s.03-.01.05-.02c1.36-.79,2.47-2.54,2.47-3.92,0-.39-.1-.71-.26-.96l15.35-30.41c.39.6,1.24.68,2.22.11,1.36-.78,2.47-2.54,2.47-3.91,0-.56-.19-.98-.51-1.2l15.85-21.12c.45.35,1.17.33,1.97-.14,1.36-.79,2.47-2.55,2.47-3.92,0-.2-.02-.39-.07-.56l14.99-34.06c.27.94,1.23,1.17,2.4.51,1.36-.79,2.47-2.55,2.47-3.92,0-.39-.1-.71-.27-.96l15.36-16.61c.39.59,1.23.66,2.2.1.69-.39,1.3-1.03,1.75-1.73l16.28,6.99c-.44.71-.72,1.49-.72,2.18,0,1.38,1.11,1.85,2.47,1.07,1.36-.79,2.47-2.55,2.47-3.92,0-.2-.02-.39-.07-.56l14.99-12.43c.27.94,1.24,1.17,2.4.5,1.36-.78,2.47-2.54,2.47-3.91,0-.79-.37-1.28-.94-1.4h0s16.7-30.66,16.7-30.66c.43.1.96,0,1.55-.35,1.36-.79,2.47-2.53,2.47-3.91h0s14.83-8.57,14.83-8.57c0,1.37,1.11,1.85,2.48,1.06,1.36-.79,2.47-2.54,2.47-3.92,0-.79-.36-1.28-.93-1.41l16.63-30.54c.43.13.99.02,1.61-.33v119.14L25.49,256.19v-9.16Z"/>
          <path class="cls-14" d="M202.04,35.41l-1.36.1-15.96,29.3c-.49,0-1.03.14-1.58.46-1.47.85-2.63,2.62-2.75,4.13l-13.78,7.96c-.16-.46-.45-.81-.89-.99-.66-.28-1.5-.17-2.36.33-1.56.9-2.78,2.83-2.78,4.4,0,.76.3,1.32.81,1.64l-16.24,29.81c-.49,0-1.03.14-1.58.46-1.56.9-2.78,2.83-2.78,4.4,0,.15.03.28.05.41l-14.12,11.7c-.16-.18-.34-.34-.58-.44-.66-.29-1.5-.17-2.36.33-.61.35-1.17.87-1.62,1.46l-15.29-6.57c.32-.64.52-1.32.52-1.93,0-.86-.36-1.49-1.03-1.78-.66-.28-1.5-.17-2.36.33-1.56.9-2.78,2.83-2.78,4.4,0,.36.08.66.2.93l-14.66,15.84c-.06-.04-.11-.09-.18-.12-.66-.29-1.5-.17-2.36.33-1.56.9-2.78,2.83-2.78,4.4,0,.27.05.5.11.72l-14.43,32.79c-.1-.08-.21-.15-.33-.21-.66-.28-1.5-.17-2.36.33-1.56.9-2.78,2.83-2.78,4.4,0,.52.15.95.4,1.27l-15.25,20.32c-.63-.19-1.38-.07-2.16.38-1.56.9-2.78,2.83-2.78,4.4,0,.41.09.77.25,1.07l-14.85,29.4s-.03-.02-.04-.03c-.66-.29-1.5-.17-2.36.33-1.56.9-2.78,2.83-2.78,4.4,0,.86.37,1.49,1.03,1.78.29.12.61.17.95.15.44-.03.93-.19,1.41-.47,1.56-.9,2.78-2.83,2.78-4.4,0-.34-.07-.64-.18-.9l14.92-29.52c.27.1.55.15.86.12.44-.03.92-.19,1.41-.47,1.56-.9,2.78-2.83,2.78-4.4,0-.47-.12-.86-.32-1.18l15.29-20.38c.2.04.4.07.62.05.45-.03.92-.19,1.41-.47,1.56-.9,2.78-2.83,2.78-4.4,0-.17-.03-.33-.05-.48l14.5-32.95c.07.04.12.09.2.13.29.12.61.17.95.15.44-.03.92-.19,1.41-.47,1.56-.9,2.78-2.83,2.78-4.4,0-.3-.06-.56-.14-.8l14.71-15.9s.05.04.08.05c.29.12.61.17.95.15.44-.03.92-.19,1.41-.47.63-.36,1.19-.9,1.65-1.5l15.28,6.56c-.34.66-.54,1.35-.54,1.98,0,.86.37,1.49,1.03,1.78.29.12.61.17.95.15.44-.03.92-.19,1.41-.47,1.56-.9,2.78-2.83,2.78-4.4,0-.1-.02-.19-.03-.28l14.17-11.75c.14.14.31.27.51.36.29.12.61.17.95.15.45-.03.93-.19,1.41-.47,1.56-.9,2.78-2.83,2.78-4.4,0-.7-.25-1.23-.69-1.57l16.27-29.88s0,0,.01,0c.45-.03.92-.19,1.41-.47,1.44-.83,2.57-2.53,2.74-4.02l13.82-7.98c.17.41.45.73.86.91.29.12.61.17.95.15.45-.03.92-.19,1.41-.47,1.56-.9,2.78-2.83,2.78-4.4,0-.7-.25-1.23-.69-1.57l16.2-29.75ZM24.9,246.84c-.46.26-.87.35-1.14.23-.27-.12-.42-.44-.42-.91,0-1.18.99-2.76,2.17-3.43.29-.17.57-.26.8-.28.13,0,.24,0,.34.05.27.11.42.44.42.91,0,1.18-.99,2.76-2.17,3.43ZM44.68,211.67c-.46.26-.87.35-1.14.23-.04-.02-.08-.05-.11-.08-.03-.1-.08-.19-.18-.25,0,0-.02,0-.02-.01-.07-.15-.1-.34-.1-.56,0-1.18.99-2.75,2.17-3.43.46-.26.87-.35,1.14-.23.27.11.42.45.42.91,0,1.18-.99,2.76-2.17,3.43ZM64.46,185.29c-.44.25-.84.34-1.1.24-.04-.04-.08-.09-.14-.12-.02-.01-.05-.01-.08-.02-.15-.16-.24-.43-.24-.77,0-1.18.99-2.76,2.17-3.44.46-.26.87-.35,1.14-.23.27.11.42.44.42.9,0,1.18-.99,2.76-2.17,3.43ZM84.24,147.27c-.46.26-.87.35-1.14.23-.11-.05-.2-.15-.27-.27.02-.14-.02-.28-.12-.39-.01-.08-.02-.16-.02-.24,0-1.18.99-2.76,2.17-3.43.46-.26.88-.35,1.14-.23.27.11.42.44.42.9,0,1.18-.99,2.76-2.17,3.44ZM104.02,125.89c-.46.26-.87.35-1.14.23-.04-.02-.06-.04-.1-.07-.03-.1-.08-.2-.18-.27-.01,0-.03,0-.04-.02-.06-.15-.1-.34-.1-.55,0-1.18.99-2.76,2.17-3.44.29-.17.57-.27.8-.28.13,0,.24,0,.34.05.27.11.42.44.42.9,0,1.18-.99,2.76-2.17,3.43ZM123.8,134.38c-.46.26-.87.35-1.14.23-.27-.11-.42-.44-.42-.91,0-.54.22-1.17.56-1.75.06-.05.12-.09.16-.15.04-.07.07-.14.08-.22.38-.54.85-1.01,1.37-1.31.29-.17.57-.26.8-.28.13,0,.24,0,.34.05.27.11.42.44.42.9,0,1.18-.99,2.76-2.17,3.44ZM143.58,117.98c-.46.26-.87.35-1.14.23-.12-.05-.21-.15-.28-.28.01-.13-.03-.25-.12-.35-.01-.09-.02-.18-.02-.27,0-1.18.99-2.76,2.17-3.44.46-.26.87-.35,1.14-.23.27.12.42.44.42.9,0,1.18-.99,2.76-2.17,3.43ZM163.36,81.67c-.46.26-.88.35-1.14.23-.27-.11-.42-.44-.42-.9,0-1.18.99-2.76,2.17-3.44.46-.26.87-.35,1.14-.24.27.12.42.45.42.91,0,1.18-.99,2.76-2.17,3.43ZM183.14,70.25c-.46.26-.87.35-1.14.23-.22-.09-.36-.34-.4-.68.07-.14.07-.29,0-.43.1-1.15,1.04-2.59,2.15-3.23.46-.26.87-.35,1.14-.23.27.11.42.44.42.9,0,1.18-.99,2.76-2.17,3.43Z"/>
          <path class="cls-14" d="M202.44,41.07c-.36.03-.66-.21-.66-.52v-5.06l-5.26,2.48c-.33.16-.72.06-.87-.22-.15-.28,0-.63.33-.78l6.19-2.91c.21-.1.44-.1.63,0,.19.09.3.26.3.46v5.95c0,.32-.29.59-.66.62Z"/>
        </g>
      </g>
    </g>
  </g>
  <g id="Target">
    <g id="Target-2" data-name="Target">
      <g id="Target-3" data-name="Target">
        <g>
          <path class="cls-14" d="M301.4,49.48c-6.41-3.71-15.26-3.18-25.05,2.47-19.56,11.29-35.41,38.76-35.41,61.34,0,11.33,4,19.28,10.45,22.96,1.68.96,8.46,5.05,10.15,6.03,6.41,3.7,15.26,3.18,25.04-2.47,19.56-11.29,35.41-38.75,35.41-61.34,0-11.29-3.96-19.21-10.36-22.91"/>
          <path class="cls-25" d="M240.94,113.28h0c0,11.33,4,19.28,10.45,22.96,1.68.96,8.46,5.05,10.15,6.03,6.41,3.7,15.25,3.18,25.03-2.47l-45.63-26.52Z"/>
          <path class="cls-20" d="M246.11,89.02c-3.28,8.09-5.17,16.47-5.17,24.26l45.63,26.52s0,0,0,0c6.75-3.9,13.05-9.72,18.42-16.6l-58.89-34.17Z"/>
          <path class="cls-18" d="M305,123.19c10.19-13.06,16.99-29.94,16.99-44.74,0-11.29-3.96-19.21-10.36-22.91l-10.22-6.07c-6.41-3.71-15.26-3.18-25.05,2.47-12.81,7.4-24.02,21.72-30.24,37.08l58.89,34.17Z"/>
        </g>
        <path class="cls-14" d="M286.57,58.01c-19.55,11.3-35.41,38.76-35.41,61.34,0,22.58,15.86,31.74,35.41,20.45,19.56-11.29,35.43-38.75,35.41-61.34-.02-22.58-15.87-31.73-35.41-20.45Z"/>
        <path class="cls-26" d="M286.57,58.01c-19.55,11.3-35.41,38.76-35.41,61.34,0,22.58,15.86,31.74,35.41,20.45,19.56-11.29,35.43-38.75,35.41-61.34-.02-22.58-15.87-31.73-35.41-20.45Z"/>
        <path class="cls-1" d="M286.57,68.23c-14.67,8.47-26.56,29.07-26.56,46.01,0,16.94,11.9,23.81,26.56,15.34,14.67-8.47,26.56-29.07,26.56-46.01s-11.89-23.81-26.56-15.34Z"/>
        <path class="cls-14" d="M286.57,77.53c-10.22,5.9-18.51,20.26-18.51,32.06,0,11.8,8.29,16.59,18.51,10.69,10.22-5.9,18.51-20.26,18.51-32.06s-8.29-16.59-18.51-10.69Z"/>
        <path class="cls-26" d="M286.57,77.53c-10.22,5.9-18.51,20.26-18.51,32.06,0,11.8,8.29,16.59,18.51,10.69,10.22-5.9,18.51-20.26,18.51-32.06s-8.29-16.59-18.51-10.69Z"/>
        <path class="cls-1" d="M286.57,87.07c-5.66,3.27-10.25,11.21-10.24,17.75,0,6.53,4.59,9.18,10.25,5.92,5.66-3.27,10.24-11.21,10.24-17.75s-4.59-9.18-10.25-5.92Z"/>
        <path class="cls-22" d="M286.57,93.91c-2.39,1.38-4.32,4.73-4.32,7.49,0,2.76,1.94,3.87,4.32,2.5,2.39-1.38,4.32-4.73,4.32-7.49s-1.94-3.87-4.32-2.5Z"/>
      </g>
      <g id="Arrow">
        <g>
          <path class="cls-14" d="M361.97,142.83s.82,10.39,5.62,13.16c4.8,2.77,7.4-5.64,4.29-7.43l-9.91-5.72Z"/>
          <g>
            <path class="cls-14" d="M361.97,142.83s9.41-4.48,14.2-1.71c4.8,2.77-1.18,9.23-4.29,7.43l-9.91-5.72Z"/>
            <path class="cls-9" d="M361.97,142.83s9.41-4.48,14.2-1.71c4.8,2.77-1.18,9.23-4.29,7.43l-9.91-5.72Z"/>
          </g>
        </g>
        <polygon class="cls-13" points="298.89 107.6 378.95 153.85 379.99 152.01 298.72 105.07 298.89 107.6"/>
        <path class="cls-3" d="M377.66,149.93c-1.49.86-1.99,2.76-1.14,4.24s2.76,1.99,4.24,1.14c1.49-.86,1.99-2.76,1.14-4.24-.86-1.49-2.76-1.99-4.24-1.14Z"/>
        <g>
          <path class="cls-14" d="M300.73,107.44c2.54,3.36-2.06,9.16-2.06,9.16l-11.99-17.28,14.05,8.11Z"/>
          <path class="cls-14" d="M300.73,107.44c2.54,3.36-2.06,9.16-2.06,9.16l-11.99-17.28,14.05,8.11Z"/>
          <path class="cls-14" d="M307.63,101.08s-2.72,6.89-6.9,6.37l-14.05-8.11,20.96,1.75Z"/>
          <path class="cls-9" d="M307.63,101.08s-2.72,6.89-6.9,6.37l-14.05-8.11,20.96,1.75Z"/>
        </g>
      </g>
    </g>
  </g>
  <g id="Desk">
    <g id="Calculator">
      <g id="Calculator-2" data-name="Calculator">
        <path class="cls-13" d="M392.85,213.15c.55.32.82.73.82,1.14,0,.42.02,3.92,0,4.34,0,.41-.28.82-.82,1.13l-30.22,17.45c-1.1.63-2.88.63-3.98,0l-53.93-31.14c-.55-.32-.82-.73-.82-1.15s0-3.89,0-4.3c0-.42.27-.84.82-1.16l30.22-17.45c1.1-.63,2.88-.63,3.98,0l53.93,31.14Z"/>
        <path class="cls-13" d="M304.72,201.76l53.93,31.14c1.1.63,2.88.63,3.98,0l30.22-17.45c1.1-.63,1.1-1.66,0-2.3l-53.93-31.14c-1.1-.63-2.88-.63-3.98,0l-30.22,17.45c-1.1.63-1.1,1.66,0,2.3Z"/>
        <g>
          <g>
            <g>
              <path class="cls-14" d="M333.94,210c0,.08-.05.16-.14.21l-4.44,2.56c-.25.15-.78.08-1.17-.14l-3.76-2.17c-.25-.14-.38-.32-.39-.46,0-.08,0-.93,0-1.08,0-.08.04-.16.14-.21l4.44-2.56c.25-.15.78-.08,1.17.14l3.76,2.17c.25.15.39.32.38.47,0,.08,0,.93,0,1.07Z"/>
              <path class="cls-15" d="M324.05,208.9s0,0,0,.01c0,.15,0,.99,0,1.08,0,.14.14.32.38.46l3.76,2.17c.21.12.45.19.67.21v-1.08c-.22-.02-.46-.09-.67-.21l-3.76-2.17c-.26-.15-.39-.33-.39-.48Z"/>
              <path class="cls-9" d="M333.95,208.93c0,.08-.05.15-.14.2l-4.44,2.56c-.12.07-.3.09-.5.07v1.08c.2.02.38,0,.5-.07l4.44-2.56c.09-.05.14-.13.14-.21,0-.15,0-.96,0-1.07Z"/>
              <path class="cls-14" d="M328.63,206.14l-4.44,2.56c-.25.15-.14.45.25.68l3.76,2.17c.39.23.92.29,1.17.14l4.44-2.56c.25-.15.14-.45-.25-.68l-3.76-2.17c-.39-.23-.92-.29-1.17-.14Z"/>
            </g>
            <g>
              <path class="cls-14" d="M341.87,205.42c0,.08-.05.16-.14.21l-4.44,2.56c-.25.15-.78.08-1.17-.14l-3.76-2.17c-.25-.14-.38-.32-.39-.46,0-.08,0-.93,0-1.08,0-.08.04-.16.14-.21l4.44-2.56c.25-.15.78-.08,1.17.14l3.76,2.17c.25.15.39.32.38.47,0,.08,0,.93,0,1.07Z"/>
              <path class="cls-15" d="M331.98,204.32s0,0,0,.01c0,.15,0,.99,0,1.08,0,.14.14.32.38.46l3.76,2.17c.21.12.45.19.67.21v-1.08c-.22-.02-.46-.09-.67-.21l-3.76-2.17c-.26-.15-.39-.33-.39-.48Z"/>
              <path class="cls-9" d="M341.87,204.35c0,.08-.05.15-.14.2l-4.44,2.56c-.12.07-.3.09-.5.07v1.08c.2.02.38,0,.5-.07l4.44-2.56c.09-.05.14-.13.14-.21,0-.14,0-.96,0-1.07Z"/>
              <path class="cls-14" d="M336.56,201.56l-4.44,2.56c-.25.15-.14.45.25.68l3.76,2.17c.39.23.92.29,1.17.14l4.44-2.56c.25-.15.14-.45-.25-.68l-3.76-2.17c-.39-.23-.92-.29-1.17-.14Z"/>
            </g>
            <g>
              <path class="cls-14" d="M349.8,200.84c0,.08-.05.16-.14.21l-4.44,2.56c-.25.15-.78.08-1.17-.14l-3.76-2.17c-.25-.14-.38-.32-.39-.46,0-.08,0-.93,0-1.08,0-.08.04-.16.14-.21l4.44-2.56c.25-.15.78-.08,1.17.14l3.76,2.17c.25.15.39.32.38.47,0,.08,0,.93,0,1.07Z"/>
              <path class="cls-15" d="M339.91,199.74s0,0,0,.01c0,.15,0,.99,0,1.08,0,.14.14.32.38.46l3.77,2.17c.21.12.45.19.67.21v-1.08c-.22-.02-.46-.09-.67-.21l-3.76-2.17c-.26-.15-.39-.33-.39-.48Z"/>
              <path class="cls-9" d="M349.8,199.78c0,.08-.05.15-.14.2l-4.44,2.56c-.12.07-.3.09-.5.07v1.08c.2.02.38,0,.5-.07l4.44-2.56c.09-.05.14-.13.14-.21,0-.14,0-.96,0-1.07Z"/>
              <path class="cls-14" d="M344.48,196.98l-4.44,2.56c-.25.15-.14.45.25.68l3.76,2.17c.39.23.92.29,1.17.14l4.44-2.56c.25-.15.14-.45-.25-.68l-3.76-2.17c-.39-.23-.92-.29-1.17-.14Z"/>
            </g>
            <g>
              <g>
                <path class="cls-19" d="M381.55,219.18c0,.08-.05.16-.14.21l-4.44,2.56c-.25.15-.78.08-1.17-.14l-3.76-2.17c-.25-.14-.38-.32-.38-.46,0-.08,0-.93,0-1.08,0-.08.04-.16.14-.21l4.44-2.56c.25-.15.78-.08,1.17.14l3.76,2.17c.25.15.39.32.39.47,0,.08,0,.93,0,1.07Z"/>
                <path class="cls-4" d="M381.56,218.11c0,.08-.05.15-.14.2l-4.44,2.56c-.12.07-.3.09-.5.07v1.08c.2.02.38,0,.5-.07l4.44-2.56c.09-.05.14-.13.14-.21,0-.14,0-.96,0-1.07Z"/>
                <path class="cls-26" d="M371.66,218.07s0,0,0,.01c0,.15,0,.99,0,1.08,0,.14.14.32.38.46l3.76,2.17c.21.12.45.19.67.21v-1.08c-.22-.02-.46-.09-.67-.21l-3.76-2.17c-.26-.15-.39-.33-.39-.48Z"/>
              </g>
              <g>
                <path class="cls-19" d="M349.81,210c0,.08-.04.16-.14.21l-4.44,2.56c-.25.15-.78.08-1.17-.14l-3.76-2.17c-.25-.14-.38-.32-.38-.46,0-.08,0-.93,0-1.08,0-.08.04-.16.14-.21l4.44-2.56c.25-.15.78-.08,1.17.14l3.76,2.17c.25.15.39.32.38.47,0,.08,0,.93,0,1.07Z"/>
                <path class="cls-4" d="M349.81,208.94c0,.08-.05.15-.14.2l-4.44,2.56c-.12.07-.3.09-.5.07v1.08c.2.02.38,0,.5-.07l4.44-2.56c.09-.05.14-.13.14-.21,0-.14,0-.96,0-1.07Z"/>
                <path class="cls-26" d="M339.92,208.9s0,0,0,.01c0,.15,0,.99,0,1.08,0,.14.14.32.38.46l3.76,2.17c.21.12.45.19.67.21v-1.08c-.22-.02-.46-.09-.67-.21l-3.76-2.17c-.26-.15-.39-.33-.39-.48Z"/>
              </g>
              <g>
                <path class="cls-19" d="M341.88,214.58c0,.08-.05.16-.14.21l-4.44,2.56c-.25.15-.78.08-1.17-.14l-3.76-2.17c-.25-.14-.38-.32-.38-.46,0-.08,0-.93,0-1.08,0-.08.04-.16.14-.21l4.44-2.56c.25-.15.78-.08,1.17.14l3.76,2.17c.25.15.39.32.39.47,0,.08,0,.93,0,1.07Z"/>
                <path class="cls-4" d="M341.88,213.51c0,.08-.05.15-.14.2l-4.44,2.56c-.12.07-.3.09-.5.07v1.08c.2.02.38,0,.5-.07l4.44-2.56c.09-.05.14-.13.14-.21,0-.14,0-.96,0-1.07Z"/>
                <path class="cls-26" d="M331.99,213.48s0,0,0,.01c0,.15,0,.99,0,1.08,0,.14.14.32.38.46l3.76,2.17c.21.12.45.19.67.21v-1.08c-.22-.02-.46-.09-.67-.21l-3.76-2.17c-.26-.15-.39-.33-.39-.48Z"/>
              </g>
              <g>
                <path class="cls-19" d="M357.74,205.43c0,.08-.05.16-.14.21l-4.44,2.56c-.25.15-.78.08-1.17-.14l-3.76-2.17c-.25-.14-.38-.32-.38-.46,0-.08,0-.93,0-1.08,0-.08.04-.16.14-.21l4.44-2.56c.25-.15.78-.08,1.17.14l3.76,2.17c.25.15.39.32.38.47,0,.08,0,.93,0,1.07Z"/>
                <path class="cls-4" d="M357.74,204.36c0,.08-.05.15-.14.2l-4.44,2.56c-.12.07-.3.09-.5.07v1.08c.2.02.38,0,.5-.07l4.44-2.56c.09-.05.14-.13.14-.21,0-.15,0-.96,0-1.07Z"/>
                <path class="cls-26" d="M347.84,204.33s0,0,0,.01c0,.15,0,.99,0,1.08,0,.14.14.32.38.46l3.76,2.17c.21.12.45.19.67.21v-1.08c-.22-.02-.46-.09-.67-.21l-3.76-2.17c-.26-.15-.39-.33-.39-.48Z"/>
              </g>
              <g>
                <path class="cls-19" d="M357.75,214.58c0,.08-.04.16-.14.21l-4.44,2.56c-.25.15-.78.08-1.17-.14l-3.76-2.17c-.25-.14-.38-.32-.38-.46,0-.08,0-.93,0-1.08,0-.08.04-.16.14-.21l4.44-2.56c.25-.15.78-.08,1.17.14l3.76,2.17c.25.15.39.32.38.47,0,.08,0,.93,0,1.07Z"/>
                <path class="cls-4" d="M357.75,213.52c0,.08-.05.15-.14.2l-4.44,2.56c-.12.07-.3.09-.5.07v1.08c.2.02.38,0,.5-.07l4.44-2.56c.09-.05.14-.13.14-.21,0-.14,0-.96,0-1.07Z"/>
                <path class="cls-26" d="M347.85,213.48s0,0,0,.01c0,.15,0,.99,0,1.08,0,.14.14.32.38.46l3.77,2.17c.21.12.45.19.67.21v-1.08c-.22-.02-.46-.09-.67-.21l-3.76-2.17c-.26-.15-.39-.33-.39-.48Z"/>
              </g>
              <g>
                <path class="cls-19" d="M349.82,219.16c0,.08-.05.16-.14.21l-4.44,2.56c-.25.15-.78.08-1.17-.14l-3.76-2.17c-.25-.14-.38-.32-.38-.46,0-.08,0-.93,0-1.08,0-.08.04-.16.14-.21l4.44-2.56c.25-.15.78-.08,1.17.14l3.76,2.17c.25.15.39.32.38.47,0,.08,0,.93,0,1.07Z"/>
                <path class="cls-4" d="M349.82,218.1c0,.08-.05.15-.14.2l-4.44,2.56c-.12.07-.3.09-.5.07v1.08c.2.02.38,0,.5-.07l4.44-2.56c.09-.05.14-.13.14-.21,0-.15,0-.96,0-1.07Z"/>
                <path class="cls-26" d="M339.92,218.06s0,0,0,.01c0,.15,0,.99,0,1.08,0,.14.14.32.38.46l3.76,2.17c.21.12.45.19.67.21v-1.08c-.22-.02-.46-.09-.67-.21l-3.76-2.17c-.26-.15-.39-.33-.39-.48Z"/>
              </g>
              <g>
                <path class="cls-19" d="M365.67,210.01c0,.08-.05.16-.14.21l-4.44,2.56c-.25.15-.78.08-1.17-.14l-3.76-2.17c-.25-.14-.38-.32-.38-.46,0-.08,0-.93,0-1.08,0-.08.04-.16.14-.21l4.44-2.56c.25-.15.78-.08,1.17.14l3.76,2.17c.25.15.39.32.38.47,0,.08,0,.93,0,1.07Z"/>
                <path class="cls-4" d="M365.68,208.94c0,.08-.05.15-.14.2l-4.44,2.56c-.12.07-.3.09-.5.07v1.08c.2.02.38,0,.5-.07l4.44-2.56c.09-.05.14-.13.14-.21,0-.15,0-.96,0-1.07Z"/>
                <path class="cls-26" d="M355.78,208.91s0,0,0,.01c0,.15,0,.99,0,1.08,0,.14.14.32.39.46l3.76,2.17c.21.12.45.19.67.21v-1.08c-.22-.02-.46-.09-.67-.21l-3.76-2.17c-.26-.15-.39-.33-.39-.48Z"/>
              </g>
              <g>
                <path class="cls-19" d="M365.68,219.17c0,.08-.05.16-.14.21l-4.44,2.56c-.25.15-.78.08-1.17-.14l-3.76-2.17c-.25-.14-.38-.32-.39-.46,0-.08,0-.93,0-1.08,0-.08.04-.16.14-.21l4.44-2.56c.25-.15.78-.08,1.17.14l3.76,2.17c.25.15.39.32.38.47,0,.08,0,.93,0,1.07Z"/>
                <path class="cls-4" d="M365.68,218.1c0,.08-.05.15-.14.2l-4.44,2.56c-.12.07-.3.09-.5.07v1.08c.2.02.38,0,.5-.07l4.44-2.56c.09-.05.14-.13.14-.21,0-.14,0-.96,0-1.07Z"/>
                <path class="cls-26" d="M355.79,218.07s0,0,0,.01c0,.15,0,.99,0,1.08,0,.14.14.32.38.46l3.76,2.17c.21.12.45.19.67.21v-1.08c-.22-.02-.46-.09-.67-.21l-3.76-2.17c-.26-.15-.39-.33-.38-.48Z"/>
              </g>
              <g>
                <path class="cls-19" d="M357.75,223.74c0,.08-.05.16-.14.21l-4.44,2.56c-.25.15-.78.08-1.17-.14l-3.76-2.17c-.25-.14-.38-.32-.38-.46,0-.08,0-.93,0-1.08,0-.08.04-.16.14-.21l4.44-2.56c.25-.15.78-.08,1.17.14l3.76,2.17c.25.15.39.32.38.47,0,.08,0,.93,0,1.07Z"/>
                <path class="cls-4" d="M357.76,222.68c0,.08-.05.15-.14.2l-4.44,2.56c-.12.07-.3.09-.5.07v1.08c.2.02.38,0,.5-.07l4.44-2.56c.09-.05.14-.13.14-.21,0-.14,0-.96,0-1.07Z"/>
                <path class="cls-26" d="M347.86,222.64s0,0,0,.01c0,.15,0,.99,0,1.08,0,.14.14.32.38.46l3.76,2.17c.21.12.45.19.67.21v-1.08c-.22-.02-.46-.09-.67-.21l-3.76-2.17c-.26-.15-.39-.33-.39-.48Z"/>
              </g>
              <g>
                <path class="cls-19" d="M373.61,214.59c0,.08-.05.16-.14.21l-4.44,2.56c-.25.15-.78.08-1.17-.14l-3.76-2.17c-.25-.14-.38-.32-.39-.46,0-.08,0-.93,0-1.08,0-.08.04-.16.14-.21l4.44-2.56c.25-.15.78-.08,1.17.14l3.76,2.17c.25.15.39.32.38.47,0,.08,0,.93,0,1.07Z"/>
                <path class="cls-4" d="M373.61,213.52c0,.08-.05.15-.14.2l-4.44,2.56c-.12.07-.3.09-.5.07v1.08c.2.02.38,0,.5-.07l4.44-2.56c.09-.05.14-.13.14-.21,0-.15,0-.96,0-1.07Z"/>
                <path class="cls-26" d="M363.72,213.49s0,0,0,.01c0,.15,0,.99,0,1.08,0,.14.14.32.38.46l3.77,2.17c.21.12.45.19.67.21v-1.08c-.22-.02-.46-.09-.67-.21l-3.76-2.17c-.26-.15-.39-.33-.38-.48Z"/>
              </g>
            </g>
            <g>
              <path class="cls-14" d="M357.73,196.27c0,.08-.05.16-.14.21l-4.44,2.56c-.25.15-.78.08-1.17-.14l-3.76-2.17c-.25-.14-.38-.32-.39-.46,0-.08,0-.93,0-1.08,0-.08.04-.16.14-.21l4.44-2.56c.25-.15.78-.08,1.17.14l3.76,2.17c.25.15.39.32.38.47,0,.08,0,.93,0,1.07Z"/>
              <path class="cls-15" d="M347.84,195.17s0,0,0,.01c0,.15,0,.99,0,1.08,0,.14.14.32.38.46l3.76,2.17c.21.12.45.19.67.21v-1.08c-.22-.02-.46-.09-.67-.21l-3.76-2.17c-.26-.15-.39-.33-.38-.48Z"/>
              <path class="cls-9" d="M357.73,195.2c0,.08-.05.15-.14.2l-4.44,2.56c-.12.07-.3.09-.5.07v1.08c.2.02.38,0,.5-.07l4.44-2.56c.09-.05.14-.13.14-.21,0-.14,0-.96,0-1.07Z"/>
              <path class="cls-14" d="M352.41,192.4l-4.44,2.56c-.25.15-.14.45.25.68l3.76,2.17c.39.23.92.29,1.17.14l4.44-2.56c.25-.15.14-.45-.25-.68l-3.76-2.17c-.39-.23-.92-.29-1.17-.14Z"/>
            </g>
            <g>
              <path class="cls-14" d="M389.48,214.6c0,.08-.05.16-.14.21l-4.44,2.56c-.25.15-.78.08-1.17-.14l-3.76-2.17c-.25-.14-.38-.32-.39-.46,0-.08,0-.93,0-1.08,0-.08.04-.16.14-.21l4.44-2.56c.25-.15.78-.08,1.17.14l3.76,2.17c.25.15.39.32.38.47,0,.08,0,.93,0,1.07Z"/>
              <path class="cls-15" d="M379.59,213.5s0,0,0,.01c0,.15,0,.99,0,1.08,0,.14.14.32.38.46l3.76,2.17c.21.12.45.19.67.21v-1.08c-.22-.02-.46-.09-.67-.21l-3.76-2.17c-.26-.15-.39-.33-.39-.48Z"/>
              <path class="cls-9" d="M389.48,213.53c0,.08-.05.15-.14.2l-4.44,2.56c-.12.07-.3.09-.5.07v1.08c.2.02.38,0,.5-.07l4.44-2.56c.09-.05.14-.13.14-.21,0-.15,0-.96,0-1.07Z"/>
              <path class="cls-14" d="M384.16,210.74l-4.44,2.56c-.25.15-.14.45.25.68l3.76,2.17c.39.23.92.29,1.17.14l4.44-2.56c.25-.15.14-.45-.25-.68l-3.76-2.17c-.39-.23-.92-.29-1.17-.14Z"/>
            </g>
            <g>
              <path class="cls-14" d="M373.62,223.75c0,.08-.05.16-.14.21l-4.44,2.56c-.25.15-.78.08-1.17-.14l-3.76-2.17c-.25-.14-.38-.32-.39-.46,0-.08,0-.93,0-1.08,0-.08.04-.16.14-.21l4.44-2.56c.25-.15.78-.08,1.17.14l3.76,2.17c.25.15.39.32.38.47,0,.08,0,.93,0,1.07Z"/>
              <path class="cls-15" d="M363.73,222.65s0,0,0,.01c0,.15,0,.99,0,1.08,0,.14.14.32.38.46l3.76,2.17c.21.12.45.19.67.21v-1.08c-.22-.02-.46-.09-.67-.21l-3.76-2.17c-.26-.15-.39-.33-.39-.48Z"/>
              <path class="cls-9" d="M373.63,222.69c0,.08-.05.15-.14.2l-4.44,2.56c-.12.07-.3.09-.5.07v1.08c.2.02.38,0,.5-.07l4.44-2.56c.09-.05.14-.13.14-.21,0-.15,0-.96,0-1.07Z"/>
              <path class="cls-14" d="M368.31,219.89l-4.44,2.56c-.25.15-.14.45.25.68l3.76,2.17c.39.23.92.29,1.17.14l4.44-2.56c.25-.15.14-.45-.25-.68l-3.76-2.17c-.39-.23-.92-.29-1.17-.14Z"/>
            </g>
            <g>
              <path class="cls-14" d="M365.7,228.33c0,.08-.05.16-.14.21l-4.44,2.56c-.25.15-.78.08-1.17-.14l-3.76-2.17c-.25-.14-.38-.32-.39-.46,0-.08,0-.93,0-1.08,0-.08.04-.16.14-.21l4.44-2.56c.25-.15.78-.08,1.17.14l3.76,2.17c.25.15.39.32.38.47,0,.08,0,.93,0,1.07Z"/>
              <path class="cls-15" d="M355.8,227.23s0,0,0,.01c0,.15,0,.99,0,1.08,0,.14.14.32.38.46l3.76,2.17c.21.12.45.19.67.21v-1.08c-.22-.02-.46-.09-.67-.21l-3.76-2.17c-.26-.15-.39-.33-.39-.48Z"/>
              <path class="cls-9" d="M365.7,227.26c0,.08-.05.15-.14.2l-4.44,2.56c-.12.07-.3.09-.5.07v1.08c.2.02.38,0,.5-.07l4.44-2.56c.09-.05.14-.13.14-.21,0-.15,0-.96,0-1.07Z"/>
              <path class="cls-14" d="M360.38,224.47l-4.44,2.56c-.25.15-.14.45.25.68l3.76,2.17c.39.23.92.29,1.17.14l4.44-2.56c.25-.15.14-.45-.25-.68l-3.76-2.17c-.39-.23-.92-.29-1.17-.14Z"/>
            </g>
            <g>
              <path class="cls-14" d="M365.67,200.85c0,.08-.05.16-.14.21l-4.44,2.56c-.25.15-.78.08-1.17-.14l-3.76-2.17c-.25-.14-.38-.32-.38-.46,0-.08,0-.93,0-1.08,0-.08.04-.16.14-.21l4.44-2.56c.25-.15.78-.08,1.17.14l3.76,2.17c.25.15.39.32.38.47,0,.08,0,.93,0,1.07Z"/>
              <path class="cls-15" d="M355.77,199.75s0,0,0,.01c0,.15,0,.99,0,1.08,0,.14.14.32.38.46l3.76,2.17c.21.12.45.19.67.21v-1.08c-.22-.02-.46-.09-.67-.21l-3.76-2.17c-.26-.15-.39-.33-.38-.48Z"/>
              <path class="cls-9" d="M365.67,199.78c0,.08-.05.15-.14.2l-4.44,2.56c-.12.07-.3.09-.5.07v1.08c.2.02.38,0,.5-.07l4.44-2.56c.09-.05.14-.13.14-.21,0-.15,0-.96,0-1.07Z"/>
              <path class="cls-14" d="M360.35,196.99l-4.44,2.56c-.25.15-.14.45.25.68l3.76,2.17c.39.23.92.29,1.17.14l4.44-2.56c.25-.15.14-.45-.25-.68l-3.76-2.17c-.39-.23-.92-.29-1.17-.14Z"/>
            </g>
            <g>
              <path class="cls-14" d="M373.61,205.43c0,.08-.04.16-.14.21l-4.44,2.56c-.25.15-.78.08-1.17-.14l-3.76-2.17c-.25-.14-.38-.32-.38-.46,0-.08,0-.93,0-1.08,0-.08.04-.16.14-.21l4.44-2.56c.25-.15.78-.08,1.17.14l3.76,2.17c.25.15.39.32.39.47,0,.08,0,.93,0,1.07Z"/>
              <path class="cls-15" d="M363.71,204.33s0,0,0,.01c0,.15,0,.99,0,1.08,0,.14.14.32.38.46l3.76,2.17c.21.12.45.19.67.21v-1.08c-.22-.02-.46-.09-.67-.21l-3.76-2.17c-.26-.15-.39-.33-.39-.48Z"/>
              <path class="cls-9" d="M373.61,204.36c0,.08-.05.15-.14.2l-4.44,2.56c-.12.07-.3.09-.5.07v1.08c.2.02.38,0,.5-.07l4.44-2.56c.09-.05.14-.13.14-.21,0-.15,0-.96,0-1.07Z"/>
              <path class="cls-14" d="M368.29,201.57l-4.44,2.56c-.25.15-.14.45.25.68l3.76,2.17c.39.23.92.29,1.17.14l4.44-2.56c.25-.15.14-.45-.25-.68l-3.76-2.17c-.39-.23-.92-.29-1.17-.14Z"/>
            </g>
            <g>
              <path class="cls-14" d="M381.54,210.01c0,.08-.05.16-.14.21l-4.44,2.56c-.25.15-.78.08-1.17-.14l-3.76-2.17c-.25-.14-.38-.32-.39-.46,0-.08,0-.93,0-1.08,0-.08.04-.16.14-.21l4.44-2.56c.25-.15.78-.08,1.17.14l3.76,2.17c.25.15.39.32.38.47,0,.08,0,.93,0,1.07Z"/>
              <path class="cls-15" d="M371.65,208.91s0,0,0,.01c0,.15,0,.99,0,1.08,0,.14.14.32.38.46l3.76,2.17c.21.12.45.19.67.21v-1.08c-.22-.02-.46-.09-.67-.21l-3.76-2.17c-.26-.15-.39-.33-.38-.48Z"/>
              <path class="cls-9" d="M381.55,208.95c0,.08-.05.15-.14.2l-4.44,2.56c-.12.07-.3.09-.5.07v1.08c.2.02.38,0,.5-.07l4.44-2.56c.09-.05.14-.13.14-.21,0-.14,0-.96,0-1.07Z"/>
              <path class="cls-14" d="M376.23,206.15l-4.44,2.56c-.25.15-.14.45.25.68l3.76,2.17c.39.23.92.29,1.17.14l4.44-2.56c.25-.15.14-.45-.25-.68l-3.76-2.17c-.39-.23-.92-.29-1.17-.14Z"/>
            </g>
          </g>
          <g>
            <path class="cls-21" d="M337.6,214.41s-.02-.01-.03-.03l-1.18-1.32-.77.44s-.04.02-.08.01c-.03,0-.06-.01-.09-.03l-.37-.21s-.04-.03-.04-.05c0-.02,0-.03.02-.04l1.24-.71s.04-.02.08-.01c.03,0,.06.01.09.03l.32.18s.08.06.13.13l1.18,1.33s.02.03.03.05c0,.02,0,.03-.02.04l-.36.21s-.04.01-.07.01c-.03,0-.05-.01-.08-.02Z"/>
            <path class="cls-21" d="M343.61,209.09c-.11-.06-.2-.14-.25-.21-.05-.08-.08-.15-.08-.23,0-.08.02-.15.08-.22.05-.07.13-.14.22-.19.1-.06.21-.1.33-.13.12-.03.25-.04.39-.04.13,0,.27.02.4.05.13.03.25.08.37.14.09.05.16.11.22.17.05.06.09.12.11.18.12,0,.24.02.35.05.12.03.23.07.33.13.11.06.2.14.25.21.05.08.08.15.08.23,0,.08-.03.15-.09.23-.06.07-.14.14-.24.2-.11.06-.22.11-.35.14-.13.03-.26.05-.4.05-.14,0-.27-.01-.4-.04-.13-.03-.26-.08-.37-.14-.1-.06-.18-.12-.23-.19-.05-.07-.08-.13-.09-.2-.11-.01-.21-.03-.31-.06-.1-.03-.2-.07-.29-.13ZM345.02,209.39c.07.04.15.06.24.06.09,0,.19-.03.28-.09.1-.06.15-.11.15-.16,0-.05-.03-.1-.1-.14-.07-.04-.15-.06-.24-.06-.09,0-.19.03-.28.09-.1.06-.15.11-.15.16,0,.05.03.1.1.14ZM344.08,208.81c.07.04.14.06.23.06.09,0,.17-.02.25-.07.08-.04.12-.09.12-.14,0-.05-.03-.1-.1-.13-.07-.04-.14-.06-.23-.06-.09,0-.17.02-.25.07-.08.04-.12.09-.11.14,0,.05.03.1.1.13Z"/>
            <path class="cls-21" d="M351.63,204.59c-.13-.08-.23-.16-.3-.24-.06-.09-.1-.17-.1-.25,0-.08.02-.16.07-.24.05-.08.13-.14.22-.2.1-.06.21-.1.34-.13.13-.03.27-.04.41-.04.14,0,.29.02.44.06s.29.09.42.17c.07.04.12.08.17.12.04.04.08.08.11.12.03.04.06.08.08.12.02.04.04.08.06.11l.42.81s0,.03.01.04c0,.02,0,.03-.03.04l-.41.24s-.04.01-.06,0c-.02,0-.05-.01-.07-.02-.01,0-.02-.01-.02-.02,0,0,0-.01,0-.02l-.29-.55c-.1.04-.21.07-.33.09s-.25.02-.38.02c-.13,0-.26-.03-.39-.07-.13-.04-.26-.09-.38-.16ZM352.66,204s-.1-.05-.15-.06c-.05-.01-.11-.02-.16-.02-.05,0-.1,0-.15.02-.05.01-.09.03-.13.05-.04.02-.06.05-.08.07-.02.03-.03.06-.03.09,0,.03.01.06.03.09.02.03.06.06.1.09.05.03.1.05.15.06.05.01.11.02.16.02.05,0,.1,0,.15-.02.05-.01.09-.03.13-.05.04-.02.06-.05.08-.07.02-.03.03-.06.03-.09,0-.03-.01-.06-.03-.09-.02-.03-.06-.06-.1-.09Z"/>
            <path class="cls-21" d="M346.16,218.73s-.04.02-.08.01c-.03,0-.06-.01-.09-.03l-.35-.2-.81.47s-.04.01-.08.01c-.03,0-.06-.01-.09-.03l-.37-.21c-.06-.03-.1-.07-.11-.11l-.53-1.2s-.01-.04,0-.05c0-.01.02-.02.04-.04l.39-.23s.04-.02.08-.01c.03,0,.06.01.09.03l1.32.76.22-.13s.04-.02.08-.01c.03,0,.06.01.09.03l.37.21s.04.03.04.05c0,.02,0,.03-.02.04l-.22.13.35.2s.04.03.04.05c0,.02,0,.03-.02.04l-.34.2ZM345.11,218.19l-.63-.37.26.58.38-.22Z"/>
            <path class="cls-21" d="M352.96,213.96s.07,0,.11.01c.04,0,.08,0,.12,0,.04,0,.08,0,.13-.01.04,0,.08-.02.12-.05.04-.02.06-.04.08-.07.02-.03.03-.05.03-.08,0-.03-.01-.06-.03-.09-.02-.03-.06-.06-.11-.09-.08-.05-.16-.07-.26-.07-.09,0-.18.02-.26.07-.02.01-.04.03-.05.05-.01.02-.02.03-.03.05,0,.02-.01.03-.02.05,0,.01-.01.02-.03.03l-.4.23s-.05.02-.08.01c-.03,0-.06-.01-.08-.03l-1.15-.75s-.04-.03-.04-.05c0-.02,0-.03.02-.04l1.11-.64s.04-.02.08-.01c.03,0,.06.01.09.03l.37.21s.04.03.04.05c0,.02,0,.03-.02.04l-.75.43.29.19s.02-.06.05-.09c.03-.03.06-.06.11-.09.1-.06.21-.1.33-.13.12-.03.25-.04.38-.04.13,0,.27.02.4.06s.27.09.4.17c.14.08.24.16.31.24.07.08.1.17.11.25,0,.08-.02.16-.08.23-.05.07-.13.14-.24.2-.12.07-.24.12-.37.15-.13.03-.26.04-.4.04-.13,0-.26-.02-.38-.05-.12-.03-.23-.07-.33-.13-.02-.01-.03-.03-.04-.04,0-.02,0-.03.02-.04l.33-.19s.06-.02.08-.02c.03,0,.05,0,.06,0Z"/>
            <path class="cls-21" d="M361.81,208.71c.14.08.24.16.3.25s.1.17.1.25c0,.08-.02.16-.07.24-.05.08-.13.15-.23.21-.1.06-.22.1-.35.14s-.27.05-.42.04c-.14,0-.29-.02-.44-.06-.15-.04-.29-.1-.43-.17-.07-.04-.13-.08-.18-.12s-.08-.08-.12-.12c-.03-.04-.06-.08-.08-.12-.02-.04-.04-.07-.06-.11l-.4-.8s0-.03-.01-.04c0-.02,0-.03.03-.04l.41-.24s.04-.01.06,0c.02,0,.05.01.07.02.01,0,.02.01.02.02,0,0,0,.01,0,.02l.27.54c.11-.04.22-.08.35-.1.12-.02.25-.03.39-.02.13,0,.27.03.4.07.13.04.26.09.38.16ZM360.75,209.33c.05.03.1.05.16.06.06.01.11.02.17.02s.11,0,.15-.02c.05-.01.09-.03.13-.05.04-.02.07-.05.09-.07.02-.03.03-.06.03-.09s-.01-.06-.03-.09c-.02-.03-.06-.06-.11-.09-.05-.03-.1-.05-.16-.06-.06-.01-.11-.02-.16-.02-.05,0-.1,0-.15.02-.05.01-.09.03-.13.05-.04.02-.07.05-.09.07s-.03.06-.03.09c0,.03,0,.06.03.1.02.03.06.06.11.09Z"/>
            <path class="cls-21" d="M351.81,222.75s-.06-.02-.08-.03c-.02-.02-.03-.03-.03-.05v-.65s-.01-.03-.01-.06c0-.02.01-.04.04-.06l.32-.18s.04-.01.08-.01c.03,0,.06.01.09.03l2.23,1.28s.04.03.04.05c0,.02,0,.03-.02.04l-.34.2s-.04.02-.08.01c-.03,0-.06-.01-.09-.03l-1.51-.87v.36s0,.03-.03.04c-.02,0-.05.01-.08,0l-.52-.08Z"/>
            <path class="cls-21" d="M360.99,217.46c.07.04.13.08.18.12.05.04.09.09.13.14.03.05.06.1.08.16.02.06.03.12.02.19v.42s.65-.37.65-.37c.02-.01.04-.02.08-.01.03,0,.06.01.09.03l.37.21s.04.03.04.05c0,.02,0,.03-.02.04l-1.36.79s-.04.02-.08.01c-.03,0-.06-.01-.09-.03l-.3-.17s-.07-.05-.09-.07c-.03-.03-.04-.06-.03-.09l.04-.87c0-.07-.02-.12-.05-.16-.03-.04-.07-.07-.12-.1-.02,0-.04-.02-.07-.04-.03-.01-.07-.02-.12-.03-.04,0-.09,0-.14,0-.05,0-.1.02-.15.05-.05.03-.08.06-.09.09,0,.03,0,.06,0,.08.01.03.03.05.05.07.02.02.04.04.05.05.02.02.03.04.02.06,0,.02-.02.03-.05.05l-.32.18s-.04.01-.06.01c-.03,0-.05,0-.07-.02-.09-.06-.18-.12-.24-.19-.07-.07-.11-.15-.13-.23-.02-.08,0-.16.03-.24.04-.08.12-.15.24-.22.11-.07.24-.11.37-.13.13-.02.26-.03.4-.02.13,0,.26.03.39.07.13.04.24.09.35.15Z"/>
            <path class="cls-21" d="M368.01,212.47s.04-.01.08-.01c.03,0,.06.01.09.03l.37.21s.04.03.05.05c0,.02.01.04.02.05l.11.42c.18-.05.37-.07.56-.06.19.01.38.07.56.18.26.15.39.3.38.45,0,.15-.13.3-.37.44-.12.07-.25.12-.39.16-.13.03-.27.05-.4.05-.13,0-.25-.01-.37-.04-.12-.03-.22-.06-.31-.11-.02-.01-.03-.03-.04-.04,0-.01,0-.03.02-.04l.33-.19s.07-.03.12-.03c.04,0,.09,0,.13,0,.05,0,.1,0,.16-.01.06,0,.12-.03.19-.07.08-.05.13-.1.15-.15.02-.05-.01-.1-.09-.15-.08-.05-.17-.06-.26-.05-.09.01-.18.04-.26.09l-.21.12s-.04.02-.08.01c-.03,0-.06-.01-.09-.03l-.3-.17s-.04-.03-.05-.05c0-.02-.01-.04-.02-.05l-.09-.37-.67.39s-.04.02-.08.01c-.03,0-.06-.01-.09-.03l-.37-.21s-.04-.03-.04-.05c0-.02,0-.03.02-.04l1.23-.71Z"/>
            <path class="cls-21" d="M367.39,221.98c.13-.07.27-.12.41-.15.14-.02.29-.03.43-.02.15.01.29.04.43.09.14.05.28.11.41.18.1.06.21.11.32.18s.21.12.3.18c.12.07.22.15.3.24.08.08.14.17.16.25.02.08.01.17-.03.25-.04.08-.13.16-.26.24-.13.07-.27.12-.41.15-.14.02-.29.03-.43.02-.15-.01-.29-.04-.43-.09-.14-.05-.28-.11-.41-.18-.1-.05-.2-.11-.31-.17-.11-.06-.21-.12-.3-.18-.12-.07-.22-.15-.3-.24-.08-.08-.14-.17-.16-.25-.02-.08-.01-.17.03-.25.04-.08.13-.16.26-.24ZM369.2,222.7c-.19-.12-.38-.23-.58-.33-.06-.03-.12-.06-.18-.08-.06-.02-.11-.04-.17-.05-.06,0-.11,0-.17,0-.06,0-.11.03-.16.06-.05.03-.08.06-.1.09-.01.03-.01.06,0,.1.01.03.04.07.08.1s.08.07.14.1c.18.11.37.23.58.33.06.03.12.06.18.08.06.02.12.04.17.05.06,0,.11,0,.17,0,.06,0,.11-.03.16-.06.05-.03.08-.06.1-.09.01-.03.01-.06,0-.1-.01-.03-.04-.07-.08-.1s-.09-.07-.14-.1Z"/>
          </g>
          <g>
            <g>
              <path class="cls-1" d="M328.61,209.83s-.06,0-.09-.01l-.81-.19,1.14.66s.04.03.04.05c0,.02,0,.03-.02.04l-.34.2s-.04.02-.08.01c-.03,0-.06-.01-.09-.03l-2.23-1.28s-.04-.03-.04-.05c0-.02,0-.03.02-.04l.3-.17s.07-.03.12-.02c.04,0,.07,0,.09.01l1.37.31-.54-.79s-.01-.03-.02-.05c0-.02,0-.05.04-.07l.3-.17s.04-.01.08-.01c.03,0,.06.01.09.03l2.23,1.28s.04.03.04.05c0,.02,0,.03-.02.04l-.34.2s-.04.01-.08.01c-.03,0-.06-.01-.09-.03l-1.14-.66.33.47s.02.03.02.05c0,.02,0,.04-.03.05l-.17.1s-.06.02-.09.02Z"/>
              <path class="cls-1" d="M329.54,208.27s.07.04.12.07c.05.03.11.06.16.1.06.03.11.06.17.09.05.03.1.05.13.07.06.03.11.05.17.07.06.02.12.03.18.04.06,0,.12,0,.19,0,.06-.01.12-.03.18-.07.06-.03.1-.07.12-.1.02-.03.03-.06.03-.09s-.01-.06-.03-.08c-.02-.03-.04-.05-.06-.07-.03-.03-.04-.05-.05-.06,0-.01,0-.03.04-.05l.34-.2s.04-.01.06-.01c.03,0,.05,0,.07.02.12.07.2.14.27.23.06.08.09.17.1.25,0,.09-.02.17-.07.25-.05.08-.14.16-.25.22-.12.07-.26.12-.41.15-.15.03-.3.04-.45.03-.15,0-.31-.04-.46-.08s-.29-.1-.42-.17c-.1-.05-.2-.11-.31-.17s-.21-.12-.3-.18c-.12-.07-.22-.16-.3-.24-.08-.09-.12-.18-.14-.26-.02-.09,0-.18.05-.26.05-.09.14-.16.26-.24.11-.07.24-.11.38-.14.14-.03.29-.04.44-.04.15,0,.29.02.44.06.14.04.28.09.4.15.02.01.03.03.04.04,0,.02,0,.03-.02.04l-.34.2s-.06.02-.08.02c-.03,0-.06-.01-.11-.03-.03-.01-.07-.02-.12-.03-.04-.01-.09-.02-.14-.02-.05,0-.1,0-.16.01-.06.01-.11.03-.17.07-.06.03-.1.07-.11.1-.02.04-.02.07-.01.11.01.04.03.07.07.11.04.03.08.07.13.1Z"/>
            </g>
            <g>
              <path class="cls-1" d="M336.55,205.24s-.06,0-.09-.01l-.81-.19,1.14.66s.04.03.04.05c0,.02,0,.03-.02.04l-.34.2s-.04.02-.08.01c-.03,0-.06-.01-.09-.03l-2.23-1.28s-.04-.03-.04-.05c0-.02,0-.03.02-.04l.3-.17s.07-.03.12-.02c.04,0,.07,0,.09.01l1.37.31-.54-.79s-.01-.03-.02-.05c0-.02,0-.05.04-.07l.3-.17s.04-.01.08-.01c.03,0,.06.01.09.03l2.23,1.28s.04.03.04.05c0,.02,0,.03-.02.04l-.34.2s-.04.02-.08.01-.06-.01-.09-.03l-1.14-.66.33.47s.02.03.02.05c0,.02,0,.04-.03.05l-.17.1s-.06.02-.09.02Z"/>
              <path class="cls-1" d="M336.92,202.95c.11-.07.23-.12.35-.15.12-.03.25-.05.37-.05s.26.02.39.06c.13.04.27.1.4.17.17.1.29.2.35.29.06.1.07.19.03.28l1.14.29s.03.01.05.02c.02.01.03.03.04.04,0,.01,0,.03-.02.04l-.35.2s-.07.03-.1.02-.07,0-.1-.02l-1.02-.26-.24.14.74.43s.04.03.04.05c0,.02,0,.03-.02.04l-.34.2s-.04.01-.08.01c-.03,0-.06-.01-.09-.03l-2.23-1.28s-.04-.03-.04-.05c0-.02,0-.03.02-.04l.7-.4ZM337.67,203.72l.29-.17c.07-.04.11-.09.12-.14.01-.05-.03-.1-.13-.16-.1-.06-.19-.08-.27-.07s-.16.03-.23.07l-.29.17.51.29Z"/>
            </g>
            <g>
              <path class="cls-1" d="M344.78,200.49s-.06,0-.09-.01l-.81-.19,1.14.66s.04.03.04.05c0,.02,0,.03-.02.04l-.34.2s-.04.01-.08.01c-.03,0-.06-.01-.09-.03l-2.23-1.28s-.04-.03-.04-.05c0-.02,0-.03.02-.04l.3-.17s.07-.03.12-.02c.04,0,.07,0,.09.01l1.37.31-.54-.79s-.01-.03-.02-.05c0-.02,0-.05.04-.07l.3-.17s.04-.02.08-.01c.03,0,.06.01.09.03l2.23,1.28s.04.03.04.05c0,.02,0,.03-.02.04l-.34.2s-.04.02-.08.01c-.03,0-.06-.01-.09-.03l-1.14-.66.33.47s.02.03.02.05c0,.02,0,.04-.03.05l-.17.1s-.06.02-.09.02Z"/>
              <path class="cls-1" d="M346.05,199.57s-.04.02-.08.01c-.03,0-.06-.01-.09-.03l-.35-.2s-.04-.03-.04-.05,0-.03.02-.04l.81-.47s.04-.01.08-.01c.03,0,.06.01.09.03l.35.2s.04.03.04.05c0,.02,0,.03-.02.04l-.81.47Z"/>
            </g>
            <g>
              <path class="cls-1" d="M352.51,196.03s-.06,0-.09-.01l-.81-.19,1.14.66s.04.03.04.05c0,.02,0,.03-.02.04l-.34.2s-.04.01-.08.01c-.03,0-.06-.01-.09-.03l-2.23-1.28s-.04-.03-.04-.05c0-.02,0-.03.02-.04l.3-.17s.07-.03.12-.02c.04,0,.07,0,.09.01l1.37.31-.54-.79s-.01-.03-.02-.05c0-.02,0-.05.04-.07l.3-.17s.04-.01.08-.01c.03,0,.06.01.09.03l2.23,1.28s.04.03.04.05c0,.02,0,.03-.02.04l-.34.2s-.04.02-.08.01c-.03,0-.06-.01-.09-.03l-1.14-.66.33.47s.02.03.02.05c0,.02,0,.04-.03.05l-.17.1s-.06.02-.09.02Z"/>
              <path class="cls-1" d="M354.6,194.64l.57.33s.04.03.04.05c0,.02,0,.03-.02.04l-.33.19s-.04.01-.08.01c-.03,0-.06-.01-.09-.03l-.57-.33-.4.23s-.04.02-.08.01c-.03,0-.06-.01-.09-.03l-.35-.2s-.04-.03-.04-.05c0-.02,0-.03.02-.04l.4-.23-.57-.33s-.04-.03-.04-.05c0-.02,0-.03.02-.04l.33-.19s.04-.01.08-.01c.03,0,.06.01.09.03l.57.33.4-.23s.04-.01.08-.01c.03,0,.06.01.09.03l.35.2s.04.03.04.05,0,.03-.02.04l-.4.23Z"/>
            </g>
            <g>
              <path class="cls-1" d="M360.31,200.29s-.04.02-.08.01c-.03,0-.06-.01-.09-.03l-.35-.2s-.04-.03-.04-.05c0-.02,0-.03.02-.04l1.54-.89s.04-.01.08-.01c.03,0,.06.01.09.03l.35.2s.04.03.04.05,0,.03-.02.04l-1.54.89Z"/>
              <path class="cls-1" d="M360.1,198.99c.19.11.23.26.09.34-.14.08-.41.06-.6-.05-.19-.11-.23-.26-.09-.34.14-.08.41-.06.6.05Z"/>
              <path class="cls-1" d="M362.07,200.12c-.19-.11-.46-.13-.6-.05s-.1.24.09.34c.19.11.46.13.6.05.14-.08.1-.24-.09-.34Z"/>
            </g>
            <path class="cls-1" d="M368.44,204.48l-.78-.07s-.06-.01-.09-.03c-.03-.01-.04-.03-.04-.05l-.08-.31s0-.03.02-.04c.02-.01.04-.01.08-.01l.78.07-.11-.45s0-.03.02-.04c.02-.01.04-.02.08-.01l.54.04s.06.01.09.03c.03.01.04.03.04.05l.11.45.77.06s.06.01.09.03c.03.01.04.03.04.05l.08.31s0,.03-.02.04c-.02.01-.04.01-.08.01l-.77-.06.11.45s0,.03-.02.04c-.02.01-.04.02-.08.01l-.54-.04s-.06-.01-.09-.03c-.03-.01-.04-.03-.04-.05l-.11-.45Z"/>
            <path class="cls-1" d="M376.2,209.47s-.04.02-.08.01c-.03,0-.06-.01-.09-.03l-.35-.2s-.04-.03-.04-.05c0-.02,0-.03.02-.04l1.54-.89s.04-.02.08-.01c.03,0,.06.01.09.03l.35.2s.04.03.04.05,0,.03-.02.04l-1.54.89Z"/>
            <g>
              <path class="cls-1" d="M359,226.86s.07-.03.12-.02c.04,0,.08.01.11.02l2.73.93s.05.02.06.02c.02.01.03.03.04.04,0,.02,0,.03-.02.04l-.33.19s-.07.03-.1.03c-.03,0-.06,0-.08-.02l-.36-.12-.69.4.21.21s.03.03.03.05c0,.02,0,.04-.04.06l-.33.19s-.04.01-.06.01c-.03,0-.05,0-.07-.02-.01,0-.03-.02-.04-.04l-1.61-1.58s-.03-.04-.04-.07c0-.03,0-.05.04-.07l.42-.24ZM360.09,227.97l.42-.24-1.04-.36.62.6Z"/>
              <path class="cls-1" d="M361.19,226.66s.07.04.12.07c.05.03.11.06.16.1.06.03.11.06.17.09.05.03.1.05.13.07.06.03.11.05.17.07.06.02.12.03.18.04.06,0,.12,0,.19,0,.06-.01.12-.03.18-.07s.1-.07.12-.1c.02-.03.03-.06.03-.09,0-.03-.01-.06-.03-.08-.02-.03-.04-.05-.06-.07-.03-.03-.04-.05-.05-.06s0-.03.04-.05l.34-.2s.04-.01.06-.01c.03,0,.05,0,.07.02.12.07.2.14.27.23s.09.17.1.25c0,.09-.02.17-.07.25-.05.08-.14.16-.25.22-.12.07-.26.12-.41.15-.15.03-.3.04-.45.03-.15,0-.31-.04-.46-.08s-.29-.1-.42-.17c-.1-.05-.2-.11-.31-.17-.11-.06-.21-.12-.3-.18-.12-.07-.22-.16-.3-.24-.08-.09-.12-.18-.14-.26-.02-.09,0-.17.05-.26.05-.09.14-.16.26-.24.11-.07.24-.11.38-.14.14-.03.29-.04.44-.04.15,0,.29.02.44.06.14.04.28.09.4.15.02.01.03.03.04.04,0,.02,0,.03-.02.04l-.34.2s-.06.02-.08.02c-.03,0-.06-.01-.11-.03-.03-.01-.07-.02-.12-.03-.05-.01-.09-.02-.14-.02-.05,0-.1,0-.16.01-.06.01-.11.03-.17.07-.06.03-.1.07-.11.1-.02.04-.02.07-.01.11.01.04.03.07.07.11.04.03.08.07.13.1Z"/>
            </g>
            <path class="cls-1" d="M375.82,218.36s-.04.02-.08.01c-.03,0-.06-.01-.09-.03l-.35-.2s-.04-.03-.04-.05c0-.02,0-.03.02-.04l1.47-.85s.04-.01.08-.01c.03,0,.06.01.09.03l.35.2s.04.03.04.05c0,.02,0,.03-.02.04l-1.47.85ZM376.67,218.85s-.04.02-.08.01c-.03,0-.06-.01-.09-.03l-.35-.2s-.04-.03-.04-.05c0-.02,0-.03.02-.04l1.47-.85s.04-.01.08-.01c.03,0,.06.01.09.03l.35.2s.04.03.04.05c0,.02,0,.03-.02.04l-1.47.85Z"/>
            <path class="cls-1" d="M385.14,213.47l.57.33s.04.03.04.05c0,.02,0,.03-.02.04l-.33.19s-.04.02-.08.01-.06-.01-.09-.03l-.57-.33-.4.23s-.04.02-.08.01c-.03,0-.06-.01-.09-.03l-.35-.2s-.04-.03-.04-.05c0-.02,0-.03.02-.04l.4-.23-.57-.33s-.04-.03-.04-.05c0-.02,0-.03.02-.04l.33-.19s.04-.02.08-.01c.03,0,.06.01.09.03l.57.33.4-.23s.04-.02.08-.01c.03,0,.06.01.09.03l.35.2s.04.03.04.05,0,.03-.02.04l-.4.23Z"/>
          </g>
        </g>
        <path class="cls-3" d="M360.66,233.37c-.73,0-1.45-.16-2-.48l-53.93-31.14c-.53-.31-.81-.71-.82-1.12,0,.48.01,3.87,0,4.28,0,.41.28.83.83,1.15l53.93,31.14c.55.32,1.27.48,1.99.48v-4.31Z"/>
        <path class="cls-21" d="M393.68,214.29s0-.02,0-.02c.01.42-.26.85-.82,1.18l-30.22,17.45c-.55.32-1.26.47-1.97.48v4.31c.72,0,1.44-.16,1.98-.48l30.22-17.45c.54-.31.82-.72.82-1.13,0-.42,0-3.92-.01-4.34Z"/>
        <path class="cls-21" d="M336.92,184.04h0c-.18,0-.36.04-.5.12l-27.61,15.94c-.27.16-.27.42,0,.58l11.19,6.46c.27.16.72.16.99,0l15.91-9.19.02-13.9Z"/>
        <path class="cls-3" d="M348.6,190.62l-11.19-6.46c-.14-.08-.32-.12-.5-.12l-.02,13.9,11.27-6.5.43-.25c.28-.16.28-.42,0-.58Z"/>
        <path class="cls-14" d="M348.17,191.44l-10.75-6.21c-.27-.16-.72-.16-1,0l-27.17,15.69,10.75,6.21c.27.16.72.16.99,0l27.18-15.69Z"/>
        <path class="cls-24" d="M348.17,191.44l-10.75-6.21c-.27-.16-.72-.16-1,0l-27.17,15.69,10.75,6.21c.27.16.72.16.99,0l27.18-15.69Z"/>
        <g class="cls-17">
          <path d="M322.44,202.48l-.97.56c-.27.15-.62.21-1.06.18-.44-.04-.84-.16-1.2-.36-.09-.05-.14-.11-.16-.17-.02-.06,0-.12.08-.15.07-.04.16-.05.27-.04.11.01.21.04.3.09.18.1.38.16.6.18.22.02.4-.01.53-.09l.97-.56c.13-.08.19-.18.16-.31-.03-.13-.13-.24-.31-.35l-.82-.47c-.03.16-.14.28-.31.38l-.97.56c-.27.15-.62.21-1.06.18-.44-.04-.84-.16-1.2-.36l-.65-.37c-.36-.21-.57-.44-.63-.69-.06-.25.04-.46.31-.61l.97-.56c.27-.16.63-.22,1.07-.18.44.04.84.16,1.2.36l2.58,1.49c.36.21.57.44.63.69.06.26-.04.46-.31.62ZM319.05,199.96c-.18-.1-.38-.16-.6-.18-.22-.02-.4.01-.54.09l-.97.56c-.13.08-.18.18-.15.31.03.13.14.24.31.35l.65.37c.18.1.38.16.6.18.22.02.4-.01.53-.09l.97-.56c.13-.08.19-.18.16-.31-.03-.13-.13-.24-.31-.35l-.65-.37Z"/>
          <path d="M321.47,199.12s.09.04.15.04c.06,0,.1,0,.13-.02l1.33-.77c.27-.15.62-.21,1.06-.18.44.04.84.16,1.2.36l.65.37c.36.21.57.44.63.69.06.26-.04.46-.31.61l-.97.56c-.27.15-.62.21-1.06.18-.44-.04-.84-.16-1.2-.36-.09-.05-.14-.11-.16-.17-.01-.06.01-.11.08-.15.07-.04.15-.05.26-.04.11,0,.21.04.3.09.18.1.38.16.6.18.22.02.4-.01.53-.09l.97-.56c.13-.08.18-.18.15-.31s-.14-.24-.31-.35l-.65-.37c-.18-.1-.38-.16-.6-.18-.22-.02-.4.01-.53.09l-1.45.84c-.13.08-.31.11-.53.09s-.42-.08-.6-.18l-1.62-.93c-.09-.05-.14-.11-.16-.17-.02-.06.01-.11.08-.15l2.42-1.4c.07-.04.15-.05.26-.04.11,0,.21.04.3.09.09.05.14.11.15.17.01.06-.01.11-.08.15l-2.06,1.19s-.04.04-.04.08c0,.03.04.06.08.09l.97.56Z"/>
          <path d="M330.19,198l-.97.56c-.27.15-.62.21-1.06.18-.44-.04-.84-.16-1.2-.36l-2.58-1.49c-.36-.21-.57-.44-.63-.69-.06-.25.04-.46.31-.61l.97-.56c.27-.15.62-.21,1.06-.18.44.04.84.16,1.2.36l2.58,1.49c.36.21.57.44.63.69.06.25-.04.46-.31.61ZM328.58,198.19l.97-.56c.08-.05.13-.11.15-.18l-4.78-.81,2.53,1.46c.18.1.38.16.6.18.22.02.4-.01.53-.09ZM325.67,195.39l-.97.56c-.08.05-.13.11-.15.18l4.78.81-2.53-1.46c-.18-.1-.38-.16-.6-.18s-.4.01-.53.09Z"/>
          <path d="M333.82,195.9l-1.45.84c-.07.04-.15.05-.26.04-.11,0-.21-.04-.3-.09-.09-.05-.14-.11-.16-.17-.02-.06,0-.12.07-.15l.48-.28-3.23-1.87c-.18-.1-.38-.16-.59-.18-.22-.02-.39,0-.53.08,0,0,0,0,0,0-.07.04-.16.05-.27.05-.11,0-.21-.04-.3-.09-.09-.05-.14-.11-.16-.17s0-.12.08-.15h0s0,0,0,0c.27-.15.62-.21,1.06-.18.44.04.84.16,1.2.36l3.23,1.87.48-.28c.07-.04.16-.05.27-.04.11,0,.21.04.3.09.09.05.14.11.15.17.01.06-.01.11-.08.15Z"/>
          <path d="M336.97,194.08l-.97.56c-.27.15-.62.21-1.06.18-.44-.04-.84-.16-1.2-.36l-2.58-1.49c-.36-.21-.57-.44-.63-.69-.06-.26.04-.46.31-.61l.97-.56c.27-.15.62-.21,1.06-.18.44.04.84.16,1.2.36l2.58,1.49c.36.21.57.44.63.69.06.26-.04.46-.31.61ZM335.36,194.27l.97-.56c.08-.05.13-.11.15-.18l-4.78-.81,2.53,1.46c.18.1.38.16.6.18.22.02.4-.01.53-.09ZM332.45,191.47l-.97.56c-.08.05-.13.11-.15.18l4.78.81-2.53-1.46c-.18-.1-.38-.16-.6-.18s-.4.01-.53.09Z"/>
          <path d="M341.65,191.27c.02.06,0,.12-.08.15-.07.04-.15.05-.26.04-.11,0-.21-.04-.3-.09l-1.79-1.03c-.03.16-.14.28-.31.38l-.97.56c-.27.15-.62.21-1.06.18s-.84-.16-1.2-.36l-1.62-.93c-.09-.05-.14-.11-.16-.17-.02-.06,0-.12.07-.15.07-.04.16-.05.27-.04.11,0,.21.04.3.09l1.62.93c.18.1.38.16.6.18.22.02.4-.01.53-.09l.97-.56c.13-.08.19-.18.15-.31-.03-.13-.14-.24-.31-.35l-1.62-.93c-.09-.05-.14-.11-.16-.17-.02-.06,0-.12.07-.15.07-.04.16-.05.27-.04.11,0,.21.04.3.09l4.52,2.61c.09.05.14.11.16.17Z"/>
        </g>
      </g>
    </g>
    <g id="Device">
      <g id="Laptop">
        <g>
          <g>
            <path class="cls-13" d="M52.86,369.14c0,1.74,1.31,2.86,2.92,3.79l66,38.11c1.61.93,4.22.93,5.83,0l106.48-61.47c1.61-.93,2.92-2.13,2.92-3.87,0-1.74-1.31-2.82-2.92-3.75l-66-38.11c-1.61-.93-4.22-.93-5.83,0l-106.48,61.47c-1.61.93-2.92,2.09-2.92,3.83Z"/>
            <path class="cls-21" d="M55.77,368.67l66,38.11c1.61.93,4.22.93,5.83,0l106.48-61.47c1.61-.93,1.61-2.44,0-3.37l-66-38.11c-1.61-.93-4.22-.93-5.83,0l-106.48,61.47c-1.61.93-1.61,2.44,0,3.37Z"/>
            <path class="cls-3" d="M124.69,407.48v4.25c-1.06,0-2.11-.23-2.92-.69l-66-38.11c-1.61-.93-2.92-2.05-2.92-3.79,0-1.64,1.17-2.78,2.69-3.7-1.25.88-1.27,2.37.23,3.24l66,38.11c.8.46,1.86.7,2.92.7Z"/>
          </g>
          <path class="cls-3" d="M64.78,365.8l97.85-56.49c.76-.44,1.99-.44,2.75,0l3.56,2c.76.44.76,1.15,0,1.59l-97.86,56.48c-.76.44-1.99.44-2.75,0l-3.55-1.99c-.76-.44-.76-1.15,0-1.59Z"/>
          <g>
            <path class="cls-3" d="M74.39,371.47l97.85-56.49c.76-.44,1.88-.5,2.51-.14l25.47,14.7c.63.36.52,1.01-.24,1.45l-97.73,56.42c-.76.44-1.89.5-2.52.14l-25.58-14.64c-.63-.36-.53-1.01.23-1.45Z"/>
            <path class="cls-21" d="M159.17,338.7l3.06-1.77c.13-.08.14-.19.03-.26l-2.93-1.69c-.12-.07-.32-.06-.45.02l-3.06,1.77c-.13.08-.14.19-.03.26l2.93,1.69c.12.07.31.06.44-.02ZM154.7,332.58l-3.06,1.77c-.13.08-.14.19-.03.26l2.93,1.69c.12.07.31.06.44-.02l3.06-1.77c.13-.08.14-.19.03-.26l-2.93-1.69c-.12-.07-.31-.06-.45.02ZM144.8,338.3l-5.18,2.99c-.13.07-.14.19-.03.26l2.93,1.69c.12.07.32.06.45-.02l5.18-2.99c.13-.08.14-.19.03-.26l-2.93-1.69c-.12-.07-.31-.06-.45.02ZM150.22,335.17l-3.06,1.77c-.13.07-.14.19-.03.26l2.93,1.69c.12.07.31.06.44-.02l3.06-1.77c.13-.08.14-.19.03-.26l-2.93-1.69c-.12-.07-.31-.06-.45.01ZM138.2,342.11l-3.06,1.77c-.13.08-.14.19-.03.26l2.93,1.69c.12.07.31.06.45-.01l3.06-1.77c.13-.07.14-.19.03-.26l-2.93-1.69c-.12-.07-.31-.06-.44.01ZM133.73,344.69l-3.06,1.77c-.13.08-.14.19-.03.26l2.93,1.69c.12.07.31.06.45-.02l3.06-1.77c.13-.08.14-.19.03-.26l-2.93-1.69c-.12-.07-.31-.06-.45.02ZM145.21,351.6l3.06-1.77c.13-.07.14-.19.03-.26l-2.93-1.69c-.12-.07-.32-.06-.45.02l-3.06,1.77c-.13.08-.14.19-.03.26l2.93,1.69c.12.07.32.06.45-.02ZM140.74,354.18l3.06-1.77c.13-.08.14-.19.03-.26l-2.93-1.69c-.12-.07-.31-.06-.45.01l-3.06,1.77c-.13.08-.14.19-.03.26l2.93,1.69c.12.07.31.06.45-.02ZM136.26,356.77l3.06-1.77c.13-.07.14-.19.03-.26l-2.93-1.69c-.12-.07-.31-.06-.45.02l-3.06,1.77c-.13.08-.14.19-.03.26l2.93,1.69c.12.07.31.06.44-.02ZM131.78,359.35l3.06-1.77c.13-.08.14-.19.03-.26l-2.93-1.69c-.12-.07-.31-.06-.45.02l-3.06,1.77c-.13.08-.14.19-.03.26l2.93,1.69c.12.07.31.06.45-.02ZM154.7,341.29l3.06-1.77c.13-.08.14-.19.03-.26l-2.93-1.69c-.12-.07-.31-.06-.44.02l-3.06,1.77c-.13.08-.14.19-.03.26l2.93,1.69c.12.07.31.06.45-.02ZM149.69,349.01l6.83-3.95c.13-.08.14-.19.03-.26l-7.12-4.11c-.12-.07-.32-.06-.45.02l-3.53,2.04c-.13.08-.14.19-.03.26l3.77,2.18c.12.07.1.18-.03.26l-2.83,1.63c-.13.07-.14.19-.03.26l2.93,1.69c.12.07.31.06.45-.02ZM129.25,347.28l-3.06,1.77c-.13.07-.14.19-.03.26l2.93,1.69c.12.07.31.06.45-.02l3.06-1.77c.13-.08.14-.19.03-.26l-2.93-1.69c-.12-.07-.31-.06-.44.02ZM124.77,349.86l-3.06,1.77c-.13.08-.14.19-.03.26l2.93,1.69c.12.07.32.06.45-.02l3.06-1.77c.13-.07.14-.19.03-.26l-2.93-1.69c-.12-.07-.31-.06-.45.02ZM99.99,377.46c.12.07.31.06.45-.02l3.06-1.77c.13-.08.14-.19.03-.26l-2.93-1.69c-.12-.07-.32-.06-.45.02l-3.06,1.77c-.13.08-.14.19-.03.26l2.93,1.69ZM88.95,370.54l-3.06,1.77c-.13.08-.14.19-.03.26l2.93,1.69c.12.07.31.06.45-.02l3.06-1.77c.13-.08.14-.19.03-.26l-2.93-1.69c-.12-.07-.31-.06-.45.01ZM94.63,375.73c.12.07.31.06.44-.02l3.06-1.77c.13-.07.14-.19.03-.26l-2.93-1.69c-.12-.07-.31-.06-.45.02l-3.06,1.77c-.13.08-.14.19-.03.26l2.93,1.69ZM106.98,378.51l3.06-1.77c.13-.08.14-.19.03-.26l-2.93-1.69c-.12-.07-.31-.06-.45.02l-3.06,1.77c-.13.07-.14.19-.03.26l2.93,1.69c.12.07.31.06.45-.02ZM102.06,381.11c.12.07.31.06.44-.01l3.06-1.77c.13-.07.14-.19.03-.26l-2.93-1.69c-.12-.07-.31-.06-.45.01l-3.06,1.77c-.13.08-.14.19-.03.26l2.93,1.69ZM93.43,367.96l-3.06,1.77c-.13.08-.14.19-.03.26l2.93,1.69c.12.07.31.06.45-.02l3.06-1.77c.13-.08.14-.19.03-.26l-2.93-1.69c-.12-.07-.31-.06-.45.01ZM115.82,355.03l-3.06,1.77c-.13.08-.14.19-.03.26l2.93,1.69c.12.07.31.06.44-.01l3.06-1.77c.13-.07.14-.19.03-.26l-2.93-1.69c-.12-.07-.31-.06-.44.02ZM97.91,365.37l-3.06,1.77c-.13.07-.14.19-.03.26l2.93,1.69c.12.07.31.06.45-.02l3.06-1.77c.13-.08.14-.19.03-.26l-2.93-1.69c-.12-.07-.31-.06-.45.02ZM120.29,352.45l-3.06,1.77c-.13.07-.14.19-.03.26l2.93,1.69c.12.07.31.06.45-.02l3.06-1.77c.13-.08.14-.19.03-.26l-2.93-1.69c-.12-.07-.32-.06-.45.02ZM111.34,357.62l-3.06,1.77c-.13.07-.14.19-.03.26l2.93,1.69c.12.07.31.06.45-.02l3.06-1.77c.13-.07.14-.19.03-.26l-2.93-1.69c-.12-.07-.31-.06-.44.02ZM106.86,360.2l-3.06,1.77c-.13.07-.14.19-.03.26l2.93,1.69c.12.07.31.06.45-.02l3.06-1.77c.13-.08.14-.19.03-.26l-2.93-1.69c-.12-.07-.32-.06-.45.02ZM102.38,362.79l-3.06,1.77c-.13.08-.14.19-.03.26l2.93,1.69c.12.07.32.06.45-.02l3.06-1.77c.13-.08.14-.19.03-.26l-2.93-1.69c-.12-.07-.31-.06-.45.02ZM122.83,364.52l3.06-1.77c.13-.07.14-.19.03-.26l-2.93-1.69c-.12-.07-.32-.06-.45.02l-3.06,1.77c-.13.08-.14.19-.03.26l2.93,1.69c.12.07.31.06.45-.02ZM164.6,326.87l-3.06,1.77c-.13.08-.14.19-.03.26l2.93,1.69c.12.07.32.06.45-.02l3.06-1.77c.13-.08.14-.19.03-.26l-2.93-1.69c-.12-.07-.31-.06-.45.02ZM159.18,330l-3.06,1.77c-.13.07-.14.19-.03.26l2.93,1.69c.12.07.32.06.45-.02l3.06-1.77c.13-.08.14-.19.03-.26l-2.93-1.69c-.12-.07-.31-.06-.45.02ZM169.07,324.28l-3.06,1.77c-.13.07-.14.19-.03.26l2.93,1.69c.12.07.31.06.44-.02l3.06-1.77c.13-.08.14-.19.03-.26l-2.93-1.69c-.12-.07-.31-.06-.45.02ZM144.33,347.28l3.06-1.77c.13-.08.14-.19.03-.26l-2.93-1.69c-.12-.07-.31-.06-.45.02l-3.06,1.77c-.13.07-.14.19-.03.26l2.93,1.69c.12.07.31.06.45-.02ZM174,321.68c-.12-.07-.31-.06-.45.01l-3.06,1.77c-.13.08-.14.19-.03.26l2.93,1.69c.12.07.31.06.44-.02l3.06-1.77c.13-.08.14-.19.03-.26l-2.93-1.69ZM127.3,361.94l3.06-1.77c.13-.08.14-.19.03-.26l-2.93-1.69c-.12-.07-.31-.06-.45.01l-3.06,1.77c-.13.07-.14.19-.03.26l2.93,1.69c.12.07.31.06.45-.02ZM182.21,330.24l3.06-1.77c.13-.07.14-.19.03-.26l-2.93-1.69c-.12-.07-.31-.06-.45.02l-3.06,1.77c-.13.07-.14.19-.03.26l2.93,1.69c.12.07.31.06.45-.02ZM173.55,330.4l3.06-1.77c.13-.07.14-.19.03-.26l-2.93-1.69c-.12-.07-.31-.06-.44.01l-3.06,1.77c-.13.08-.14.19-.03.26l2.93,1.69c.12.07.31.06.45-.02ZM178.18,324.1c-.12-.07-.31-.06-.44.02l-3.06,1.77c-.13.08-.14.19-.03.26l2.93,1.69c.12.07.31.06.44-.02l3.06-1.77c.13-.08.14-.19.03-.26l-2.93-1.69ZM179.13,323.56l7.12,4.11c.12.07.31.06.45-.02l3.06-1.77c.13-.08.14-.19.03-.26l-7.12-4.11c-.12-.07-.31-.06-.45.02l-3.06,1.77c-.13.08-.14.19-.03.26ZM168.78,329.29l-3.06,1.77c-.13.07-.14.19-.03.26l2.93,1.69c.12.07.32.06.45-.02l3.06-1.77c.13-.08.14-.19.03-.26l-2.93-1.69c-.12-.07-.32-.06-.45.02ZM135.08,348.74l-3.06,1.77c-.13.07-.14.19-.03.26l2.93,1.69c.12.07.31.06.45-.01l3.06-1.77c.13-.08.14-.19.03-.26l-2.93-1.69c-.12-.07-.32-.06-.45.02ZM177.29,332.84c.12.07.31.06.45-.02l3.06-1.77c.13-.08.14-.19.03-.26l-2.93-1.69c-.12-.07-.31-.06-.44.02l-3.06,1.77c-.13.07-.14.19-.03.26l2.93,1.69ZM139.56,346.16l-3.06,1.77c-.13.08-.14.19-.03.26l2.93,1.69c.12.07.31.06.44-.02l3.06-1.77c.13-.08.14-.19.03-.26l-2.93-1.69c-.12-.07-.32-.06-.45.01ZM104.47,374.88c.12.07.32.06.45-.02l3.06-1.77c.13-.08.14-.19.03-.26l-2.93-1.69c-.12-.07-.31-.06-.44.02l-3.06,1.77c-.13.08-.14.19-.03.26l2.93,1.69ZM99.26,369.42l-3.06,1.77c-.13.08-.14.19-.03.26l2.93,1.69c.12.07.31.06.45-.02l3.06-1.77c.13-.08.14-.19.03-.26l-2.93-1.69c-.12-.07-.31-.06-.45.02ZM109.39,372.28l3.06-1.77c.13-.07.14-.19.03-.26l-2.93-1.69c-.12-.07-.31-.06-.45.02l-3.06,1.77c-.13.08-.14.19-.03.26l2.93,1.69c.12.07.31.06.44-.02ZM113.87,369.69l3.06-1.77c.13-.08.14-.19.03-.26l-2.93-1.69c-.12-.07-.31-.06-.45.02l-3.06,1.77c-.13.08-.14.19-.03.26l2.93,1.69c.12.07.31.06.44-.02ZM118.35,367.11l3.06-1.77c.13-.08.14-.19.03-.26l-2.93-1.69c-.12-.07-.31-.06-.45.02l-3.06,1.77c-.13.07-.14.19-.03.26l2.93,1.69c.12.07.31.06.45-.02ZM103.74,366.84l-3.06,1.77c-.13.08-.14.19-.03.26l2.93,1.69c.12.07.31.06.45-.02l3.06-1.77c.13-.08.14-.19.03-.26l-2.93-1.69c-.12-.07-.31-.06-.45.02ZM108.22,364.25l-3.06,1.77c-.13.08-.14.19-.03.26l2.93,1.69c.12.07.31.06.45-.02l3.06-1.77c.13-.08.14-.19.03-.26l-2.93-1.69c-.12-.07-.32-.06-.45.01ZM126.13,353.91l-3.06,1.77c-.13.08-.14.19-.03.26l2.93,1.69c.12.07.31.06.45-.02l3.06-1.77c.13-.07.14-.19.03-.26l-2.93-1.69c-.12-.07-.31-.06-.45.02ZM121.65,356.5l-3.06,1.77c-.13.08-.14.19-.03.26l2.93,1.69c.12.07.32.06.45-.02l3.06-1.77c.13-.08.14-.19.03-.26l-2.93-1.69c-.12-.07-.31-.06-.45.02ZM130.61,351.33l-3.06,1.77c-.13.08-.14.19-.03.26l2.93,1.69c.12.07.31.06.45-.02l3.06-1.77c.13-.08.14-.19.03-.26l-2.93-1.69c-.12-.07-.31-.06-.45.01ZM112.7,361.67l-3.06,1.77c-.13.07-.14.19-.03.26l2.93,1.69c.12.07.31.06.44-.02l3.06-1.77c.13-.08.14-.19.03-.26l-2.93-1.69c-.12-.07-.31-.06-.44.01ZM117.17,359.08l-3.06,1.77c-.13.08-.14.19-.03.26l2.93,1.69c.12.07.31.06.44-.02l3.06-1.77c.13-.08.14-.19.03-.26l-2.93-1.69c-.12-.07-.31-.06-.45.01ZM111.46,375.92l3.06-1.77c.13-.08.14-.19.03-.26l-2.93-1.69c-.12-.07-.31-.06-.45.02l-3.06,1.77c-.13.08-.14.19-.03.26l2.93,1.69c.12.07.31.06.45-.02ZM87.85,374.81l-2.93-1.69c-.12-.07-.31-.06-.45.02l-3.06,1.77c-.13.07-.14.19-.03.26l2.93,1.69c.12.07.31.06.45-.02l3.06-1.77c.13-.08.14-.19.03-.26ZM93.68,376.27l-2.93-1.69c-.12-.07-.31-.06-.44.02l-4.71,2.72c-.13.08-.14.19-.03.26l2.93,1.69c.12.07.31.06.44-.02l4.71-2.72c.13-.08.14-.19.03-.26ZM83.47,371.46l-2.93-1.69c-.12-.07-.31-.06-.45.01l-3.77,2.18c-.13.07-.14.19-.03.26l2.93,1.69c.12.07.32.06.45-.02l3.77-2.18c.13-.07.14-.19.03-.26ZM86.36,369.8c.12.07.31.06.44-.02l3.06-1.77c.13-.07.14-.19.03-.26l-2.93-1.69c-.12-.07-.31-.06-.45.02l-3.06,1.77c-.13.08-.14.19-.03.26l2.93,1.69ZM99.05,378.01l-2.93-1.69c-.12-.07-.31-.06-.45.02l-5.89,3.4c-.13.08-.14.19-.03.26l2.93,1.69c.12.07.31.06.45-.01l5.89-3.4c.13-.08.14-.19.03-.26ZM101.12,381.65l-2.93-1.69c-.12-.07-.31-.06-.44.02l-3.77,2.18c-.13.07-.14.19-.03.26l2.93,1.69c.12.07.31.06.45-.02l3.77-2.18c.13-.07.14-.19.03-.26ZM119.66,350.58c.12.07.31.06.44-.01l3.06-1.77c.13-.07.14-.19.03-.26l-2.93-1.69c-.12-.07-.32-.06-.45.02l-3.06,1.77c-.13.08-.14.19-.03.26l2.93,1.69ZM110.7,355.75c.12.07.31.06.45-.02l3.06-1.77c.13-.07.14-.19.03-.26l-2.93-1.69c-.12-.07-.31-.06-.45.02l-3.06,1.77c-.13.08-.14.19-.03.26l2.93,1.69ZM90.84,367.21c.12.07.32.06.45-.02l3.06-1.77c.13-.08.14-.19.03-.26l-2.93-1.69c-.12-.07-.31-.06-.45.02l-3.06,1.77c-.13.08-.14.19-.03.26l2.93,1.69ZM115.18,353.16c.12.07.31.06.44-.02l3.06-1.77c.13-.07.14-.19.03-.26l-2.93-1.69c-.12-.07-.31-.06-.45.02l-3.06,1.77c-.13.07-.14.19-.03.26l2.93,1.69ZM106.22,358.33c.12.07.32.06.45-.02l3.06-1.77c.13-.07.14-.19.03-.26l-2.93-1.69c-.12-.07-.31-.06-.45.02l-3.06,1.77c-.13.08-.14.19-.03.26l2.93,1.69ZM103.32,381.83c-.12-.07-.31-.06-.45.01l-4.71,2.72c-.13.08-.14.19-.03.26l2.93,1.69c.12.07.31.06.44-.02l4.71-2.72c.13-.08.14-.19.03-.26l-2.93-1.69ZM99.8,362.04c.12.07.31.06.45-.02l3.06-1.77c.13-.08.14-.19.03-.26l-2.93-1.69c-.12-.07-.31-.06-.45.02l-3.06,1.77c-.13.07-.14.19-.03.26l2.93,1.69ZM95.32,364.63c.12.07.31.06.45-.02l3.06-1.77c.13-.07.14-.19.03-.26l-2.93-1.69c-.12-.07-.31-.06-.45.02l-3.06,1.77c-.13.08-.14.19-.03.26l2.93,1.69ZM186.27,333.94c-.12-.07-.31-.06-.45.02l-7.54,4.35c-.13.08-.14.19-.03.26l2.93,1.69c.12.07.31.06.45-.02l7.54-4.35c.13-.08.14-.19.03-.26l-2.93-1.69ZM176.37,339.65c-.12-.07-.31-.06-.44.02l-3.06,1.77c-.13.08-.14.19-.03.26l2.93,1.69c.12.07.31.06.45-.02l3.06-1.77c.13-.07.14-.19.03-.26l-2.93-1.69ZM115.94,373.34l3.06-1.77c.13-.08.14-.19.03-.26l-2.93-1.69c-.12-.07-.31-.06-.45.02l-3.06,1.77c-.13.08-.14.19-.03.26l2.93,1.69c.12.07.31.06.45-.02ZM167.41,344.82c-.12-.07-.31-.06-.45.02l-3.06,1.77c-.13.08-.14.19-.03.26l2.93,1.69c.12.07.31.06.45-.02l3.06-1.77c.13-.08.14-.19.03-.26l-2.93-1.69ZM190.75,331.35c-.12-.07-.31-.06-.44.01l-3.06,1.77c-.13.07-.14.19-.03.26l2.93,1.69c.12.07.32.06.45-.02l3.06-1.77c.13-.08.14-.19.03-.26l-2.93-1.69ZM198.15,330.46l-7.12-4.11c-.12-.07-.31-.06-.45.02l-3.06,1.77c-.13.08-.14.19-.03.26l7.12,4.11c.12.07.31.06.45-.01l3.06-1.77c.13-.08.14-.19.03-.26ZM150.68,354.48c-.12-.07-.31-.06-.44.02l-3.77,2.18c-.13.07-.14.19-.03.26l2.93,1.69c.12.07.31.06.45-.02l3.77-2.18c.13-.07.14-.19.03-.26l-2.93-1.69ZM162,347.95c-.12-.07-.32-.06-.45.02l-4.71,2.72c-.13.08-.14.19-.03.26l2.93,1.69c.12.07.31.06.45-.02l4.71-2.72c.13-.08.14-.19.03-.26l-2.93-1.69ZM140.31,360.47c-.12-.07-.31-.06-.45.02l-25.22,14.56c-.13.07-.14.19-.03.26l2.93,1.69c.12.07.31.06.45-.01l25.22-14.56c.13-.08.14-.19.03-.26l-2.93-1.69ZM113.68,375.84c-.12-.07-.32-.06-.45.02l-3.77,2.18c-.13.07-.14.19-.03.26l2.93,1.69c.12.07.32.06.45-.02l3.77-2.18c.13-.07.14-.19.03-.26l-2.93-1.69ZM145.5,357.48c-.12-.07-.31-.06-.45.02l-3.77,2.18c-.13.08-.14.19-.03.26l2.93,1.69c.12.07.31.06.45-.01l3.77-2.18c.13-.07.14-.19.03-.26l-2.93-1.69ZM108.5,378.84c-.12-.07-.31-.06-.45.02l-3.77,2.18c-.13.08-.14.19-.03.26l2.93,1.69c.12.07.31.06.44-.02l3.77-2.18c.13-.08.14-.19.03-.26l-2.93-1.69ZM155.87,351.49c-.12-.07-.31-.06-.45.02l-3.77,2.18c-.13.07-.14.19-.03.26l2.93,1.69c.12.07.31.06.44-.02l3.77-2.18c.13-.07.14-.19.03-.26l-2.93-1.69ZM171.89,342.24c-.12-.07-.31-.06-.45.02l-3.06,1.77c-.13.08-.14.19-.03.26l2.93,1.69c.12.07.31.06.44-.02l3.06-1.77c.13-.08.14-.19.03-.26l-2.93-1.69ZM181.92,335.24l3.06-1.77c.13-.08.14-.19.03-.26l-2.93-1.69c-.12-.07-.31-.06-.45.02l-3.06,1.77c-.13.08-.14.19-.03.26l2.93,1.69c.12.07.31.06.44-.01ZM163.65,336.12l3.06-1.77c.13-.07.14-.19.03-.26l-2.93-1.69c-.12-.07-.31-.06-.45.02l-3.06,1.77c-.13.08-.14.19-.03.26l2.93,1.69c.12.07.31.06.45-.02ZM151.76,352.65l8.96-5.17c.13-.08.14-.19.03-.26l-2.93-1.69c-.12-.07-.31-.06-.45.02l-8.96,5.17c-.13.07-.14.19-.03.26l2.93,1.69c.12.07.31.06.45-.02ZM177,337.84c.12.07.32.06.44-.02l3.06-1.77c.13-.08.14-.19.03-.26l-2.93-1.69c-.12-.07-.31-.06-.44.02l-3.06,1.77c-.13.07-.14.19-.03.26l2.93,1.69ZM173.26,335.41l3.06-1.77c.13-.07.14-.19.03-.26l-2.93-1.69c-.12-.07-.32-.06-.44.02l-3.06,1.77c-.13.08-.14.19-.03.26l2.93,1.69c.12.07.31.06.44-.02ZM147.28,355.24l3.06-1.77c.13-.08.14-.19.03-.26l-2.93-1.69c-.12-.07-.31-.06-.45.02l-3.06,1.77c-.13.08-.14.19-.03.26l2.93,1.69c.12.07.31.06.45-.02ZM167.1,343.55c.12.07.31.06.45-.02l3.06-1.77c.13-.08.14-.19.03-.26l-2.93-1.69c-.12-.07-.31-.06-.45.02l-3.06,1.77c-.13.08-.14.19-.03.26l2.93,1.69ZM124.89,368.17l3.06-1.77c.13-.08.14-.19.03-.26l-2.93-1.69c-.12-.07-.31-.06-.45.02l-3.06,1.77c-.13.08-.14.19-.03.26l2.93,1.69c.12.07.31.06.45-.02ZM129.37,365.58l3.06-1.77c.13-.08.14-.19.03-.26l-2.93-1.69c-.12-.07-.31-.06-.44.02l-3.06,1.77c-.13.07-.14.19-.03.26l2.93,1.69c.12.07.32.06.45-.02ZM120.41,370.75l3.06-1.77c.13-.08.14-.19.03-.26l-2.93-1.69c-.12-.07-.31-.06-.45.02l-3.06,1.77c-.13.07-.14.19-.03.26l2.93,1.69c.12.07.31.06.45-.02ZM138.32,360.41l3.06-1.77c.13-.08.14-.19.03-.26l-2.93-1.69c-.12-.07-.31-.06-.45.02l-3.06,1.77c-.13.08-.14.19-.03.26l2.93,1.69c.12.07.32.06.45-.02ZM133.85,363l3.06-1.77c.13-.07.14-.19.03-.26l-2.93-1.69c-.12-.07-.31-.06-.45.02l-3.06,1.77c-.13.08-.14.19-.03.26l2.93,1.69c.12.07.31.06.44-.02ZM142.8,357.82l3.06-1.77c.13-.07.14-.19.03-.26l-2.93-1.69c-.12-.07-.31-.06-.45.02l-3.06,1.77c-.13.07-.14.19-.03.26l2.93,1.69c.12.07.31.06.45-.02ZM167.24,321.86c.12.07.32.06.45-.02l3.06-1.77c.13-.08.14-.19.03-.26l-.78-.45c-.12-.07-.31-.06-.45.02l-3.06,1.77c-.13.07-.14.19-.03.26l.78.45ZM144.98,335.95c.12.07.31.06.44-.02l3.06-1.77c.13-.07.14-.19.03-.26l-2.93-1.69c-.12-.07-.32-.06-.45.01l-3.06,1.77c-.13.08-.14.19-.03.26l2.93,1.69ZM153.94,330.78c.12.07.31.06.44-.02l3.06-1.77c.13-.08.14-.19.03-.26l-2.93-1.69c-.12-.07-.31-.06-.44.02l-3.06,1.77c-.13.07-.14.19-.03.26l2.93,1.69ZM139.51,339.11c.12.07.31.06.45-.02l3.06-1.77c.13-.07.14-.19.03-.26l-2.93-1.69c-.12-.07-.31-.06-.45.02l-3.06,1.77c-.13.08-.14.19-.03.26l2.93,1.69ZM149.46,333.37c.12.07.31.06.45-.02l3.06-1.77c.13-.08.14-.19.03-.26l-2.93-1.69c-.12-.07-.31-.06-.44.01l-3.06,1.77c-.13.08-.14.19-.03.26l2.93,1.69ZM130.56,344.28c.12.07.31.06.45-.02l3.06-1.77c.13-.08.14-.19.03-.26l-2.93-1.69c-.12-.07-.31-.06-.45.02l-3.06,1.77c-.13.08-.14.19-.03.26l2.93,1.69ZM135.04,341.69c.12.07.31.06.45-.02l3.06-1.77c.13-.08.14-.19.03-.26l-2.93-1.69c-.12-.07-.31-.06-.45.02l-3.06,1.77c-.13.08-.14.19-.03.26l2.93,1.69ZM158.28,327.03c.12.07.31.06.45-.02l3.06-1.77c.13-.07.14-.19.03-.26l-.78-.45c-.12-.07-.31-.06-.44.02l-3.06,1.77c-.13.07-.14.19-.03.26l.78.45ZM171.71,319.28c.12.07.31.06.45-.02l3.06-1.77c.13-.08.14-.19.03-.26l-.78-.45c-.12-.07-.31-.06-.45.02l-3.06,1.77c-.13.08-.14.19-.03.26l.78.45ZM177.87,322.83c.12.07.31.06.45-.02l3.06-1.77c.13-.08.14-.19.03-.26l-2.93-1.69c-.12-.07-.31-.06-.45.02l-3.06,1.77c-.13.08-.14.19-.03.26l2.93,1.69ZM186.4,332.65l3.06-1.77c.13-.07.14-.19.03-.26l-2.93-1.69c-.12-.07-.31-.06-.45.02l-3.06,1.77c-.13.08-.14.19-.03.26l2.93,1.69c.12.07.31.06.45-.02ZM162.76,324.45c.12.07.31.06.45-.02l3.06-1.77c.13-.08.14-.19.03-.26l-.78-.45c-.12-.07-.31-.06-.45.01l-3.06,1.77c-.13.08-.14.19-.03.26l.78.45ZM126.08,346.87c.12.07.32.06.45-.02l3.06-1.77c.13-.08.14-.19.03-.26l-2.93-1.69c-.12-.07-.31-.06-.44.01l-3.06,1.77c-.13.07-.14.19-.03.26l2.93,1.69Z"/>
          </g>
          <g id="Tuch_Pad" data-name="Tuch Pad">
            <polygon class="cls-3" points="138.91 372.35 139.57 372.73 157.26 382.94 188.73 364.78 189.39 364.4 171.03 353.81 138.91 372.35"/>
            <polygon class="cls-13" points="188.33 365.01 171.03 355.03 139.98 372.96 157.26 382.94 188.33 365.01"/>
          </g>
        </g>
        <g>
          <path class="cls-13" d="M51.59,365.76c-1.28-.59-1.63-1.6-1.75-3.39l-5.72-83.71c-.12-1.79,1.08-3.99,2.69-4.92l106.48-61.47c1.61-.93,2.79-1.43,4.28-.42,1.56,1.06,1.52,1.58,1.64,3.37l5.72,83.71c.12,1.79-1.08,3.99-2.69,4.92l-106.48,61.47c-1.61.93-2.52,1.2-4.17.44Z"/>
          <path class="cls-21" d="M159.21,215.21c-.12-1.79-1.53-2.48-3.14-1.56l-106.48,61.48c-.8.47-1.51,1.25-1.99,2.14l-2.78-1.4h0c.49-.89,1.2-1.68,2-2.14l106.47-61.47c1.61-.93,2.8-1.44,4.28-.42,1.56,1.08,1.52,1.58,1.64,3.37Z"/>
          <path class="cls-3" d="M55.54,365.44c-1.47.87-2.39.97-3.95.32-1.19-.5-1.62-1.6-1.75-3.39l-5.72-83.71c-.06-.89.21-1.89.7-2.78l2.78,1.39h0c-.49.9-.76,1.89-.7,2.79l5.72,83.71c.11,1.66,1.55,2.49,2.92,1.68Z"/>
          <path d="M51.45,278.33l102.47-59.14c.97-.56,1.81-.14,1.88.93l5.34,78.09c.07,1.07-.65,2.4-1.62,2.95l-102.47,59.14c-.97.56-1.81.14-1.88-.93l-5.34-78.09c-.07-1.07.65-2.4,1.62-2.95Z"/>
          <path class="cls-8" d="M51.45,278.33c-.97.56-1.69,1.88-1.62,2.95l5.25,76.79,101.3-58.47c.97-.56,1.69-1.88,1.62-2.95l-5.25-76.79-101.3,58.47Z"/>
        </g>
      </g>
      <g id="Spreadsheets">
        <g>
          <path class="cls-30" d="M176.33,228.37l-4.95-2.48-109.01,64.89,4.8,70.31c.1,1.5.74,2.55,1.69,3.02h0s0,0,0,0h0s3.15,1.57,3.15,1.57h0c.96.47,2.23.38,3.58-.41l100.99-58.32c2.71-1.57,4.74-5.28,4.54-8.29l-4.8-70.31Z"/>
          <path class="cls-24" d="M63.23,303.41l3.93,57.69c.1,1.5.74,2.55,1.7,3.02h0s0,0,0,0h0s3.15,1.57,3.15,1.57c.4.2.85.29,1.34.28l-3.05-3.31-3.94-57.75-3.14-1.51Z"/>
          <g>
            <path class="cls-1" d="M73.32,365.44c.6-.01,1.27-.23,1.94-.61l100.99-58.32c2.55-1.47,4.47-4.98,4.28-7.81l-4.73-69.37-109.68,63.33,4.77,70c.12,1.77,1.03,2.81,2.42,2.78Z"/>
            <path class="cls-19" d="M175.28,230.29l4.67,68.42c.18,2.62-1.66,5.97-4.01,7.33l-100.99,58.32c-.59.34-1.16.52-1.65.53-1.48.03-1.75-1.56-1.8-2.25l-4.75-69.68,108.54-62.67M176.33,228.37l-110.81,63.98,4.8,70.31c.15,2.14,1.38,3.35,3.05,3.31.69-.01,1.44-.24,2.23-.69l100.99-58.32c2.71-1.57,4.74-5.28,4.54-8.29l-4.8-70.31h0Z"/>
          </g>
          <g>
            <path class="cls-14" d="M171.24,219.57c-.96-.51-2.25-.42-3.63.38l-100.99,58.31c-2.71,1.57-4.74,5.28-4.54,8.29l.29,4.24,3.15,1.57,110.81-63.98-.29-4.24c-.1-1.5-.74-2.54-1.68-3.01-.89-.45-2.26-1.1-3.12-1.55Z"/>
            <path class="cls-14" d="M65.23,288.12c-.21-3.01,1.83-6.72,4.54-8.29l100.99-58.31c2.71-1.57,5.08-.39,5.28,2.62l.29,4.24-110.81,63.98-.29-4.24Z"/>
            <path class="cls-6" d="M65.23,288.12c-.21-3.01,1.83-6.72,4.54-8.29l100.99-58.31c2.71-1.57,5.08-.39,5.28,2.62l.29,4.24-110.81,63.98-.29-4.24Z"/>
            <path class="cls-14" d="M174.41,221.15c-.97-.51-2.26-.44-3.65.37l-100.99,58.31c-1.36.78-2.54,2.11-3.36,3.6l-3.16-1.56c.83-1.5,2.01-2.83,3.37-3.61l100.99-58.32c1.38-.79,2.67-.88,3.63-.37.87.45,2.23,1.11,3.13,1.55.01.01.04.02.05.03Z"/>
            <path class="cls-7" d="M174.41,221.15c-.97-.51-2.26-.44-3.65.37l-100.99,58.31c-1.36.78-2.54,2.11-3.36,3.6l-3.16-1.56c.83-1.5,2.01-2.83,3.37-3.61l100.99-58.32c1.38-.79,2.67-.88,3.63-.37.87.45,2.23,1.11,3.13,1.55.01.01.04.02.05.03Z"/>
            <g>
              <path class="cls-1" d="M158.75,231.85c-.95.55-1.66,1.84-1.58,2.89.07,1.05.9,1.46,1.84.92s1.66-1.84,1.58-2.89c-.07-1.05-.9-1.46-1.84-.92Z"/>
              <path class="cls-1" d="M164.75,228.4c-.95.55-1.66,1.84-1.58,2.89.07,1.05.9,1.46,1.84.92s1.66-1.84,1.58-2.89c-.07-1.05-.9-1.46-1.84-.92Z"/>
              <path class="cls-1" d="M170.75,224.94c-.95.55-1.66,1.84-1.58,2.89.07,1.05.9,1.46,1.84.92.95-.55,1.66-1.84,1.58-2.89-.07-1.05-.9-1.46-1.84-.92Z"/>
            </g>
          </g>
        </g>
        <g>
          <polygon class="cls-27" points="65.52 292.36 66.37 304.92 177.19 240.95 176.33 228.37 65.52 292.36"/>
          <g>
            <polygon class="cls-19" points="70.18 292.92 81.53 286.4 81.96 292.66 70.61 299.21 70.18 292.92"/>
            <g>
              <polygon class="cls-19" points="84.33 284.75 84.5 287.22 90.17 283.95 90 281.48 84.33 284.75"/>
              <polygon class="cls-19" points="84.59 288.57 84.76 291.04 90.43 287.77 90.26 285.3 84.59 288.57"/>
              <polygon class="cls-19" points="92.83 279.84 93 282.32 98.66 279.05 98.49 276.57 92.83 279.84"/>
              <polygon class="cls-19" points="93.09 283.66 93.26 286.14 98.92 282.87 98.75 280.39 93.09 283.66"/>
              <polygon class="cls-19" points="101.32 274.94 101.49 277.41 107.15 274.14 106.98 271.67 101.32 274.94"/>
              <polygon class="cls-19" points="101.58 278.76 101.75 281.23 107.41 277.96 107.24 275.49 101.58 278.76"/>
            </g>
            <g>
              <polygon class="cls-19" points="126.8 260.23 126.97 262.71 132.63 259.44 132.46 256.96 126.8 260.23"/>
              <polygon class="cls-19" points="127.06 264.05 127.23 266.53 132.89 263.26 132.72 260.78 127.06 264.05"/>
              <polygon class="cls-19" points="135.29 255.33 135.46 257.8 141.12 254.53 140.95 252.06 135.29 255.33"/>
              <polygon class="cls-19" points="135.55 259.15 135.72 261.62 141.38 258.35 141.21 255.88 135.55 259.15"/>
              <polygon class="cls-19" points="143.78 250.42 143.95 252.9 149.61 249.63 149.44 247.15 143.78 250.42"/>
              <polygon class="cls-19" points="144.04 254.24 144.21 256.72 149.87 253.45 149.7 250.98 144.04 254.24"/>
            </g>
            <polygon class="cls-19" points="109.81 270.04 123.97 261.87 124.39 268.16 110.24 276.33 109.81 270.04"/>
            <polygon class="cls-19" points="152.28 245.52 163.63 239 164.06 245.26 152.7 251.81 152.28 245.52"/>
            <g>
              <polygon class="cls-19" points="166.43 237.35 166.6 239.82 172.26 236.55 172.09 234.08 166.43 237.35"/>
              <polygon class="cls-19" points="166.69 241.17 166.86 243.64 172.52 240.38 172.35 237.9 166.69 241.17"/>
            </g>
          </g>
          <polygon class="cls-19" points="65.52 292.36 62.37 290.82 63.23 303.41 66.37 304.92 65.52 292.36"/>
        </g>
        <g id="Spreadsheets-2" data-name="Spreadsheets">
          <polygon class="cls-14" points="84.16 303.8 96.86 296.47 97.24 302.1 84.55 309.44 84.16 303.8"/>
          <polygon class="cls-14" points="87.24 348.96 99.94 341.63 100.32 347.26 87.63 354.6 87.24 348.96"/>
          <g>
            <polygon class="cls-14" points="163.47 304.95 176.16 297.62 176.54 303.25 163.85 310.59 163.47 304.95"/>
            <polygon class="cls-6" points="163.47 304.95 176.16 297.62 176.54 303.25 163.85 310.59 163.47 304.95"/>
          </g>
          <g>
            <polygon class="cls-14" points="99.17 330.33 111.86 323 112.25 328.63 99.55 335.97 99.17 330.33"/>
            <polygon class="cls-5" points="99.17 330.33 111.86 323 112.25 328.63 99.55 335.97 99.17 330.33"/>
          </g>
          <g>
            <polygon class="cls-14" points="122.67 287.43 135.36 280.1 135.75 285.73 123.05 293.07 122.67 287.43"/>
            <polygon class="cls-11" points="122.67 287.43 135.36 280.1 135.75 285.73 123.05 293.07 122.67 287.43"/>
          </g>
          <path class="cls-19" d="M70.89,305.23l-.16.09,3.9,57.16.63-.36,25.41-14.66,12.08-6.98.63-.36,12.07-6.97.64-.37,12.07-6.97.63-.37,12.07-6.97.63-.36,12.08-6.98.63-.36,12.08-6.98.61-.34-3.9-57.18-102.11,58.96ZM87.3,354.45l-12.09,6.97-.34-4.95,12.09-6.97.34,4.95ZM86.91,348.8l-12.09,6.97-.34-4.95,12.09-6.97.34,4.95ZM86.53,343.15l-12.08,6.98-.34-4.96,12.09-6.97.34,4.95ZM86.14,337.52l-12.09,6.97-.34-4.96,12.09-6.97.34,4.96ZM85.76,331.87l-12.09,6.97-.34-4.95,12.08-6.98.34,4.96ZM85.37,326.22l-12.09,6.97-.34-4.95,12.09-6.97.34,4.95ZM84.99,320.57l-12.09,6.97-.34-4.95,12.09-6.97.34,4.95ZM84.6,314.92l-12.09,6.97-.34-4.95,12.09-6.97.34,4.95ZM84.22,309.27l-12.09,6.97-.34-4.95,12.09-6.97.34,4.95ZM83.83,303.62l-12.09,6.97-.34-4.94,12.08-6.98.34,4.95ZM100.01,347.11l-12.08,6.98-.34-4.96,12.09-6.97.34,4.95ZM99.63,341.48l-12.09,6.97-.34-4.95,12.08-6.98.34,4.96ZM99.24,335.83l-12.09,6.97-.34-4.95,12.08-6.98.34,4.96ZM98.86,330.18l-12.09,6.97-.34-4.95,12.09-6.97.34,4.95ZM98.47,324.53l-12.09,6.97-.34-4.95,12.09-6.97.34,4.95ZM98.08,318.88l-12.08,6.98-.34-4.96,12.09-6.97.34,4.95ZM97.7,313.23l-12.09,6.97-.34-4.95,12.09-6.97.34,4.95ZM97.31,307.58l-12.08,6.98-.34-4.95,12.08-6.98.34,4.95ZM96.93,301.93l-12.08,6.98-.34-4.96,12.09-6.97.34,4.95ZM96.54,296.3l-12.09,6.97-.34-4.95,12.08-6.98.34,4.96ZM112.71,339.79l-12.09,6.97-.34-4.95,12.08-6.98.34,4.96ZM112.32,334.14l-12.09,6.97-.34-4.95,12.09-6.97.34,4.95ZM111.94,328.49l-12.09,6.97-.34-4.95,12.09-6.97.34,4.95ZM111.55,322.84l-12.08,6.98-.34-4.96,12.09-6.97.34,4.95ZM111.17,317.19l-12.09,6.97-.34-4.95,12.09-6.97.34,4.95ZM110.78,311.54l-12.08,6.98-.34-4.95,12.08-6.98.34,4.95ZM110.4,305.89l-12.08,6.98-.34-4.96,12.09-6.97.34,4.95ZM110.01,300.26l-12.09,6.97-.34-4.95,12.08-6.98.34,4.96ZM109.63,294.61l-12.09,6.97-.34-4.95,12.08-6.98.34,4.96ZM109.24,288.96l-12.09,6.97-.34-4.95,12.09-6.97.34,4.95ZM125.41,332.45l-12.07,6.97-.34-4.95,12.07-6.97.34,4.95ZM125.02,326.8l-12.07,6.97-.34-4.95,12.07-6.97.34,4.95ZM124.63,321.15l-12.07,6.97-.34-4.95,12.07-6.97.34,4.95ZM124.25,315.5l-12.07,6.98-.34-4.96,12.07-6.97.34,4.95ZM123.86,309.85l-12.07,6.98-.34-4.96,12.07-6.97.34,4.95ZM123.48,304.22l-12.07,6.97-.34-4.95,12.07-6.98.34,4.96ZM123.09,298.57l-12.07,6.97-.34-4.95,12.07-6.98.34,4.96ZM122.71,292.92l-12.07,6.97-.34-4.95,12.07-6.97.34,4.95ZM122.32,287.27l-12.07,6.97-.34-4.95,12.07-6.97.34,4.95ZM121.94,281.62l-12.07,6.97-.34-4.95,12.07-6.97.34,4.95ZM138.12,325.11l-12.07,6.97-.34-4.94,12.07-6.98.34,4.95ZM137.73,319.46l-12.07,6.98-.34-4.96,12.07-6.97.34,4.95ZM137.35,313.81l-12.07,6.98-.34-4.95,12.07-6.98.34,4.95ZM136.96,308.18l-12.07,6.97-.34-4.95,12.07-6.98.34,4.96ZM136.58,302.51l-12.07,6.98-.34-4.95,12.07-6.98.34,4.95ZM136.19,296.88l-12.07,6.97-.34-4.95,12.07-6.97.34,4.95ZM135.81,291.23l-12.07,6.97-.34-4.95,12.07-6.97.34,4.95ZM135.42,285.58l-12.07,6.97-.34-4.95,12.07-6.97.34,4.95ZM135.04,279.93l-12.07,6.97-.34-4.94,12.07-6.98.34,4.95ZM134.65,274.28l-12.07,6.98-.34-4.95,12.07-6.98.34,4.95ZM150.82,317.78l-12.07,6.97-.34-4.95,12.07-6.98.34,4.96ZM150.43,312.13l-12.07,6.97-.34-4.95,12.07-6.98.34,4.96ZM150.05,306.49l-12.07,6.97-.34-4.95,12.07-6.97.34,4.95ZM149.66,300.84l-12.07,6.97-.34-4.95,12.07-6.97.34,4.95ZM149.27,295.19l-12.07,6.98-.34-4.96,12.07-6.97.34,4.95ZM148.89,289.54l-12.07,6.97-.34-4.95,12.07-6.97.34,4.95ZM148.5,283.89l-12.07,6.98-.34-4.95,12.07-6.98.34,4.95ZM148.12,278.24l-12.07,6.98-.34-4.96,12.07-6.97.34,4.95ZM147.73,272.59l-12.07,6.98-.34-4.95,12.07-6.98.34,4.95ZM147.35,266.96l-12.07,6.97-.34-4.95,12.07-6.97.34,4.95ZM163.53,310.44l-12.09,6.97-.34-4.95,12.09-6.97.34,4.95ZM163.14,304.8l-12.09,6.97-.34-4.95,12.09-6.97.34,4.95ZM162.76,299.15l-12.09,6.97-.34-4.95,12.09-6.97.34,4.95ZM162.37,293.5l-12.09,6.97-.34-4.95,12.09-6.97.34,4.95ZM161.99,287.85l-12.08,6.98-.34-4.96,12.09-6.97.34,4.95ZM161.6,282.2l-12.08,6.98-.34-4.96,12.09-6.97.34,4.95ZM161.22,276.56l-12.09,6.97-.34-4.95,12.08-6.98.34,4.96ZM160.83,270.9l-12.08,6.98-.34-4.95,12.08-6.98.34,4.95ZM160.45,265.27l-12.09,6.97-.34-4.95,12.09-6.97.34,4.95ZM160.06,259.62l-12.09,6.97-.34-4.95,12.09-6.97.34,4.95ZM176.24,303.11l-12.09,6.97-.34-4.95,12.09-6.97.34,4.95ZM175.85,297.46l-12.09,6.97-.34-4.95,12.09-6.97.34,4.95ZM175.47,291.81l-12.08,6.98-.34-4.96,12.09-6.97.34,4.95ZM175.08,286.16l-12.08,6.98-.34-4.96,12.09-6.97.34,4.95ZM174.7,280.52l-12.09,6.97-.34-4.95,12.08-6.98.34,4.96ZM174.31,274.86l-12.08,6.98-.34-4.95,12.08-6.98.34,4.95ZM173.93,269.22l-12.09,6.97-.34-4.95,12.09-6.97.34,4.95ZM173.54,263.58l-12.09,6.97-.34-4.95,12.08-6.98.34,4.96ZM173.16,257.93l-12.09,6.97-.34-4.95,12.09-6.97.34,4.95ZM172.77,252.28l-12.09,6.97-.34-4.94,12.08-6.98.34,4.95Z"/>
        </g>
      </g>
    </g>
    <g id="Clipboard">
      <g id="Board">
        <g id="Window-2" data-name="Window">
          <path class="cls-14" d="M410.16,297.66l-69.6,40.23c-.72.42-1.89.42-2.6,0l-89.11-51.45c-.72-.42-1.3-1.43-1.3-2.26v-.3c0-.83.59-1.84,1.31-2.26l69.65-40.21c.72-.42,1.89-.42,2.6,0l89.06,51.42c.72.42,1.3,1.43,1.3,2.26v.3c0,.83-.59,1.84-1.31,2.26Z"/>
          <path class="cls-12" d="M410.16,297.66l-69.6,40.23c-.72.42-1.89.42-2.6,0l-89.11-51.45c-.72-.42-1.3-1.43-1.3-2.26v-.3c0-.83.59-1.84,1.31-2.26l69.65-40.21c.72-.42,1.89-.42,2.6,0l89.06,51.42c.72.42,1.3,1.43,1.3,2.26v.3c0,.83-.59,1.84-1.31,2.26Z"/>
          <path class="cls-14" d="M321.04,241.38c-.99-.57-2.03-.24-3.02.34l-68.65,39.64c-.99.57-1,1.5,0,2.08l88.11,50.87h0c1.11.64,2.48.64,3.58,0l68.67-39.63c.8-.46.8-1.62,0-2.08h0l-88.7-51.21Z"/>
          <path class="cls-5" d="M321.04,241.38c-.99-.57-2.03-.24-3.02.34l-68.65,39.64c-.99.57-1,1.5,0,2.08l88.11,50.87h0c1.11.64,2.48.64,3.58,0l68.67-39.63c.8-.46.8-1.62,0-2.08h0l-88.7-51.21Z"/>
          <path class="cls-14" d="M410.18,292.84l-.44-.26c.8.46.8,1.62,0,2.08l-68.67,39.63c-.55.32-1.17.48-1.79.48-.02,0-.03,0-.04,0v3.43c.48,0,.96-.1,1.33-.32l69.6-40.23c.72-.42,1.31-1.43,1.31-2.26v-.3c0-.83-.57-1.84-1.29-2.26Z"/>
          <path class="cls-26" d="M410.18,292.84l-.44-.26c.8.46.8,1.62,0,2.08l-68.67,39.63c-.55.32-1.17.48-1.79.48-.02,0-.03,0-.04,0v3.43c.48,0,.96-.1,1.33-.32l69.6-40.23c.72-.42,1.31-1.43,1.31-2.26v-.3c0-.83-.57-1.84-1.29-2.26Z"/>
        </g>
      </g>
      <path id="Shadow" class="cls-15" d="M327.26,247.64c-1.02-.59-2.09-.25-3.11.35l-64.88,37.46c-1.02.59-1.03,1.55,0,2.14l78.22,45.16h0c1.14.66,2.55.66,3.69,0l64.9-37.46c.82-.48.82-1.67,0-2.14l-1.19-.69-77.63-44.82Z"/>
      <g>
        <g id="Form">
          <g id="Paper">
            <path class="cls-28" d="M340.09,331.81l64.26-37.1c.3-.18.55-.6.55-.95v-.72c0-.35-.25-.78-.55-.95l-79.39-45.81c-.3-.18-.8-.18-1.1,0l-64.26,37.1c-.3.18-.55.6-.55.95v.72c0,.35.25.78.55.95l79.39,45.81c.3.18.8.18,1.1,0Z"/>
            <path class="cls-4" d="M259.48,283.46c-.05.04-.1.09-.15.15-.02.03-.04.06-.06.09-.06.09-.12.19-.16.3-.03.07-.04.14-.05.2,0,.05,0,.09-.01.14v.71c0,.35.24.78.55.95l79.39,45.81c.15.09.35.14.55.13v-1.98c-.2,0-.4-.05-.55-.13l-79.39-45.81c-.26-.15-.3-.38-.12-.55Z"/>
            <path class="cls-19" d="M404.48,292.19c.16.17.12.39-.13.53l-64.26,37.1c-.15.09-.35.13-.55.13v1.98c.2,0,.4-.04.55-.13l64.26-37.1c.3-.17.55-.6.55-.95v-.72c0-.3-.17-.65-.41-.85Z"/>
          </g>
        </g>
        <g id="Forms">
          <g>
            <polygon class="cls-14" points="327.24 251.06 313.51 258.98 314.5 259.56 328.23 251.63 327.24 251.06"/>
            <polygon class="cls-14" points="329.22 252.2 308.63 264.09 309.62 264.66 330.22 252.77 329.22 252.2"/>
            <polygon class="cls-14" points="331.21 253.35 312.9 263.91 313.89 264.49 332.2 253.92 331.21 253.35"/>
          </g>
          <g>
            <g>
              <polygon class="cls-14" points="368.26 274.74 309.42 308.71 311.97 310.18 370.81 276.21 368.26 274.74"/>
              <polygon class="cls-10" points="368.26 274.74 309.42 308.71 311.97 310.18 370.81 276.21 368.26 274.74"/>
            </g>
            <path class="cls-14" d="M312.57,310.11l58.12-33.55,3.37,1.95-58.12,33.55-3.37-1.95M311.97,310.18l3.84,2.22,58.84-33.97-3.84-2.22-58.84,33.97h0Z"/>
            <polygon class="cls-14" points="354.84 289.8 355.08 289.53 351.5 287.46 351.26 287.74 354.84 289.8"/>
            <polygon class="cls-14" points="335.43 301.01 335.68 300.73 332.08 298.65 331.84 298.93 335.43 301.01"/>
            <path class="cls-14" d="M316.17,312.19l58.12-33.55,3.37,1.95-58.12,33.55-3.37-1.95M315.58,312.26l3.84,2.22,58.84-33.97-3.84-2.22-58.84,33.97h0Z"/>
            <polygon class="cls-14" points="358.45 291.88 358.69 291.61 355.11 289.54 354.87 289.82 358.45 291.88"/>
            <polygon class="cls-14" points="339.04 303.09 339.28 302.81 335.69 300.73 335.44 301.01 339.04 303.09"/>
            <path class="cls-14" d="M319.78,314.27l58.12-33.55,3.37,1.95-58.12,33.55-3.37-1.95M319.18,314.35l3.84,2.22,58.84-33.97-3.84-2.22-58.84,33.97h0Z"/>
            <polygon class="cls-14" points="362.05 293.97 362.3 293.69 358.72 291.62 358.47 291.9 362.05 293.97"/>
            <polygon class="cls-14" points="342.65 305.17 342.89 304.89 339.29 302.81 339.05 303.09 342.65 305.17"/>
            <path class="cls-14" d="M323.39,316.36l58.12-33.55,3.37,1.95-58.12,33.55-3.37-1.95M322.79,316.43l3.84,2.22,58.84-33.97-3.84-2.22-58.84,33.97h0Z"/>
            <polygon class="cls-14" points="365.66 296.05 365.9 295.77 362.32 293.7 362.08 293.98 365.66 296.05"/>
            <polygon class="cls-14" points="346.25 307.25 346.5 306.97 342.9 304.9 342.65 305.17 346.25 307.25"/>
          </g>
          <path class="cls-14" d="M329.92,320.13l19.31-11.16,4.47,2.58-19.31,11.16-4.47-2.58M329.24,320.16l5.1,2.94,20.04-11.57-5.1-2.94-20.04,11.57h0Z"/>
          <polygon class="cls-14" points="390.87 287.79 361.15 304.96 363.29 306.2 393.02 289.03 390.87 287.79"/>
          <polygon class="cls-14" points="301.75 268.24 272.03 285.4 274.17 286.64 303.9 269.48 301.75 268.24"/>
          <g>
            <polygon class="cls-14" points="319.31 284.37 293.29 299.4 295.84 300.87 321.86 285.84 319.31 284.37"/>
            <polygon class="cls-10" points="319.31 284.37 293.29 299.4 295.84 300.87 321.86 285.84 319.31 284.37"/>
          </g>
          <path class="cls-14" d="M302.69,301.2l-2.07,1.19-2.03-1.17,2.07-1.19,2.03,1.17ZM300.66,302.13l1.58-.91-1.61-.93-1.58.91,1.61.93Z"/>
          <path class="cls-14" d="M306.48,303.39l-2.07,1.19-2.03-1.17,2.07-1.19,2.03,1.17ZM304.45,304.32l1.58-.91-1.61-.93-1.58.91,1.61.93Z"/>
          <path class="cls-14" d="M310.28,305.58l-2.07,1.19-2.03-1.17,2.07-1.19,2.03,1.17ZM308.24,306.51l1.58-.91-1.61-.93-1.58.91,1.61.93Z"/>
          <g>
            <path class="cls-19" d="M323.19,287.79s-.04.05-.07.07l-20.55,11.86c-.09.05-.19.03-.23-.05-.04-.08,0-.19.09-.24l20.55-11.86c.09-.05.19-.03.23.05.02.05.01.12-.02.17Z"/>
            <path class="cls-19" d="M324.16,288.35s-.04.05-.07.07l-20.55,11.86c-.09.05-.19.03-.23-.05-.04-.08,0-.19.09-.24l20.55-11.86c.09-.05.19-.03.23.05.02.05.01.12-.02.17Z"/>
          </g>
          <g>
            <path class="cls-19" d="M326.98,289.98s-.04.05-.07.07l-20.55,11.86c-.09.05-.19.03-.23-.05s0-.19.09-.24l20.55-11.86c.09-.05.19-.03.23.05.02.05.01.12-.02.17Z"/>
            <path class="cls-19" d="M327.95,290.54s-.04.05-.07.07l-20.55,11.86c-.09.05-.19.03-.23-.05-.04-.08,0-.19.09-.24l20.55-11.86c.09-.05.19-.03.23.05.02.05.01.12-.02.17Z"/>
          </g>
          <g>
            <path class="cls-19" d="M330.78,292.17s-.04.05-.07.07l-20.55,11.86c-.09.05-.19.03-.23-.05s0-.19.09-.24l20.55-11.86c.09-.05.19-.03.23.05.02.05.01.12-.02.17Z"/>
            <path class="cls-19" d="M331.74,292.73s-.04.05-.07.07l-20.55,11.86c-.09.05-.19.03-.23-.05s0-.19.09-.24l20.55-11.86c.09-.05.19-.03.23.05.02.05.01.12-.02.17Z"/>
          </g>
          <g>
            <polygon class="cls-14" points="352.13 265.42 326.11 280.45 328.65 281.92 354.68 266.9 352.13 265.42"/>
            <polygon class="cls-10" points="352.13 265.42 326.11 280.45 328.65 281.92 354.68 266.9 352.13 265.42"/>
          </g>
          <path class="cls-14" d="M335.51,282.25l-2.07,1.19-2.03-1.17,2.07-1.19,2.03,1.17ZM333.48,283.18l1.58-.91-1.61-.93-1.58.91,1.61.93Z"/>
          <path class="cls-14" d="M339.3,284.44l-2.07,1.19-2.03-1.17,2.07-1.19,2.03,1.17ZM337.27,285.37l1.58-.91-1.61-.93-1.58.91,1.61.93Z"/>
          <path class="cls-14" d="M343.1,286.63l-2.07,1.19-2.03-1.17,2.07-1.19,2.03,1.17ZM341.06,287.56l1.58-.91-1.61-.93-1.58.91,1.61.93Z"/>
          <g>
            <path class="cls-19" d="M356.01,268.85s-.04.05-.07.07l-20.55,11.86c-.09.05-.19.03-.23-.05-.04-.08,0-.19.09-.24l20.55-11.86c.09-.05.19-.03.23.05.02.05.01.12-.02.17Z"/>
            <path class="cls-19" d="M356.98,269.4s-.04.05-.07.07l-20.55,11.86c-.09.05-.19.03-.23-.05-.04-.08,0-.19.09-.24l20.55-11.86c.09-.05.19-.03.23.05.02.05.01.12-.02.17Z"/>
          </g>
          <g>
            <path class="cls-19" d="M359.8,271.03s-.04.05-.07.07l-20.55,11.86c-.09.05-.19.03-.23-.05-.04-.08,0-.19.09-.24l20.55-11.86c.09-.05.19-.03.23.05.02.05.01.12-.02.17Z"/>
            <path class="cls-19" d="M360.77,271.59s-.04.05-.07.07l-20.55,11.86c-.09.05-.19.03-.23-.05-.04-.08,0-.19.09-.24l20.55-11.86c.09-.05.19-.03.23.05.02.05.01.12-.02.17Z"/>
          </g>
          <g>
            <path class="cls-19" d="M363.59,273.22s-.04.05-.07.07l-20.55,11.86c-.09.05-.19.03-.23-.05s0-.19.09-.24l20.55-11.86c.09-.05.19-.03.23.05.02.05.01.12-.02.17Z"/>
            <path class="cls-19" d="M364.56,273.78s-.04.05-.07.07l-20.55,11.86c-.09.05-.19.03-.23-.05-.04-.08,0-.19.09-.24l20.55-11.86c.09-.05.19-.03.23.05.02.05.01.12-.02.17Z"/>
          </g>
          <g>
            <polygon class="cls-14" points="342.68 259.97 283.84 293.94 286.39 295.41 345.23 261.44 342.68 259.97"/>
            <polygon class="cls-10" points="342.68 259.97 283.84 293.94 286.39 295.41 345.23 261.44 342.68 259.97"/>
          </g>
          <path class="cls-19" d="M317.53,279.77s-.04.05-.07.07l-27.92,16.12c-.09.05-.19.03-.23-.05s0-.19.09-.24l27.92-16.12c.09-.05.19-.03.23.05.02.05.01.12-.02.17Z"/>
          <path class="cls-19" d="M347.35,264.27s-.04.05-.07.07l-56.25,32.48c-.09.05-.19.03-.23-.05-.04-.08,0-.19.09-.24l56.25-32.48c.09-.05.19-.03.23.05.02.05.01.12-.02.17Z"/>
          <path class="cls-19" d="M348.76,265.09s-.04.05-.07.07l-56.25,32.48c-.09.05-.19.03-.23-.05-.04-.08,0-.19.09-.24l56.25-32.48c.09-.05.19-.03.23.05.02.05.01.12-.02.17Z"/>
          <path class="cls-19" d="M307.72,274.11s-.04.05-.07.07l-27.92,16.12c-.09.05-.19.03-.23-.05-.04-.08,0-.19.09-.24l27.92-16.12c.09-.05.19-.03.23.05.02.05.01.12-.02.17Z"/>
          <path class="cls-19" d="M337.55,258.61s-.04.05-.07.07l-56.25,32.48c-.09.05-.19.03-.23-.05-.04-.08,0-.19.09-.24l56.25-32.48c.09-.05.19-.03.23.05.02.05.01.12-.02.17Z"/>
          <path class="cls-19" d="M338.95,259.42s-.04.05-.07.07l-56.25,32.48c-.09.05-.19.03-.23-.05-.04-.08,0-.19.09-.24l56.25-32.48c.09-.05.19-.03.23.05.02.05.01.12-.02.17Z"/>
        </g>
      </g>
      <g id="Clip">
        <g id="Clip-2" data-name="Clip">
          <g>
            <path class="cls-13" d="M303.23,256.69h0c.29-.17.47-.53.47-1.04,0-1.02-.72-2.26-1.6-2.77-.44-.26-.85-.28-1.14-.11h0s-25.52,14.73-25.52,14.73l2.26,3.92,25.52-14.73Z"/>
            <path class="cls-21" d="M276.57,269.46l26.66-15.39c.29.5.47,1.07.47,1.58,0,.06-.01.11-.02.17l-26.24,15.15-.87-1.51Z"/>
            <path class="cls-3" d="M278.18,270.39c0,1.02-.72,1.43-1.6.92s-1.6-1.75-1.6-2.77.72-1.43,1.6-.92c.88.51,1.6,1.75,1.6,2.77Z"/>
          </g>
        </g>
        <g id="Clip-3" data-name="Clip">
          <path class="cls-26" d="M279.89,278.78c-.49,0-1-.12-1.41-.36l-6.79-3.92c-.46-.27-.73-.65-.73-1.05,0-.35.21-.68.57-.89l4.81-2.78c.19-.11.44-.05.55.15.11.19.05.44-.15.55l-4.81,2.78c-.1.06-.17.13-.17.19,0,.08.1.22.32.35l6.79,3.92c.5.29,1.32.33,1.74.09l13.07-7.54c.97-.56,1.81-1.36,2.51-2.37.67-.98,1.46-1.74,2.28-2.22.63-.37,1.25-.55,1.84-.52,1.37.05,2.8-.33,4.14-1.1l11.86-6.85c.11-.06.17-.13.17-.19,0-.08-.1-.22-.32-.35l-6.79-3.92c-.5-.29-1.32-.33-1.74-.09l-4.24,2.45c-.12-.25-.24-.45-.42-.69l4.25-2.45c.67-.38,1.79-.35,2.55.09l6.79,3.92c.46.26.73.65.73,1.05,0,.35-.21.68-.57.89l-11.86,6.85c-1.47.85-3.06,1.27-4.57,1.21-.43-.01-.91.12-1.41.41-.72.41-1.41,1.1-2.02,1.98-.77,1.12-1.7,2-2.77,2.62l-13.07,7.54c-.31.18-.72.27-1.14.27Z"/>
          <path class="cls-21" d="M279.89,278.06c-.49,0-1-.12-1.41-.36l-6.79-3.92c-.46-.27-.73-.65-.73-1.05,0-.35.21-.68.57-.89l4.81-2.78c.19-.11.44-.05.55.15.11.19.05.44-.15.55l-4.81,2.78c-.1.06-.17.13-.17.18,0,.08.1.22.32.35l6.79,3.92c.5.29,1.32.33,1.74.09l13.07-7.54c.97-.56,1.81-1.36,2.51-2.37.67-.98,1.46-1.74,2.28-2.22.63-.37,1.25-.55,1.84-.52,1.37.05,2.8-.33,4.14-1.1l11.86-6.85c.11-.06.17-.13.17-.19,0-.08-.1-.22-.32-.35l-6.79-3.92c-.5-.29-1.32-.33-1.74-.09l-4.24,2.45c-.12-.25-.24-.45-.42-.69l4.25-2.45c.67-.38,1.79-.35,2.55.09l6.79,3.92c.46.26.73.65.73,1.05,0,.35-.21.68-.57.89l-11.86,6.85c-1.47.85-3.06,1.27-4.57,1.21-.43-.01-.91.12-1.41.41-.72.41-1.41,1.1-2.02,1.98-.77,1.12-1.7,2-2.77,2.62l-13.07,7.54c-.31.18-.72.27-1.14.27Z"/>
        </g>
      </g>
    </g>
    <g id="Chart-3" data-name="Chart">
      <g>
        <g>
          <polygon class="cls-14" points="263.07 236.34 275.41 243.47 275.41 193.61 263.07 186.49 263.07 236.34"/>
          <g>
            <polygon class="cls-14" points="287.74 186.49 275.41 193.61 275.41 243.47 287.74 236.34 287.74 186.49"/>
            <polygon class="cls-6" points="287.74 186.49 275.41 193.61 275.41 243.47 287.74 236.34 287.74 186.49"/>
          </g>
          <g>
            <polygon class="cls-14" points="275.41 179.37 287.74 186.49 275.41 193.61 263.07 186.49 275.41 179.37"/>
            <polygon class="cls-9" points="275.41 179.37 287.74 186.49 275.41 193.61 263.07 186.49 275.41 179.37"/>
          </g>
        </g>
        <g>
          <polygon class="cls-14" points="244.57 247.03 256.9 254.15 256.9 232.78 244.57 225.66 244.57 247.03"/>
          <g>
            <polygon class="cls-14" points="269.24 225.66 256.9 232.78 256.9 254.15 269.24 247.03 269.24 225.66"/>
            <polygon class="cls-6" points="269.24 225.66 256.9 232.78 256.9 254.15 269.24 247.03 269.24 225.66"/>
          </g>
          <g>
            <polygon class="cls-14" points="256.9 218.54 269.24 225.66 256.9 232.78 244.57 225.66 256.9 218.54"/>
            <polygon class="cls-9" points="256.9 218.54 269.24 225.66 256.9 232.78 244.57 225.66 256.9 218.54"/>
          </g>
        </g>
        <g>
          <polygon class="cls-14" points="226.07 257.71 238.4 264.83 238.4 229.22 226.06 222.1 226.07 257.71"/>
          <g>
            <polygon class="cls-14" points="250.73 222.1 238.4 229.22 238.4 264.83 250.73 257.71 250.73 222.1"/>
            <polygon class="cls-6" points="250.73 222.1 238.4 229.22 238.4 264.83 250.73 257.71 250.73 222.1"/>
          </g>
          <g>
            <polygon class="cls-14" points="238.4 214.98 250.73 222.1 238.4 229.22 226.06 222.1 238.4 214.98"/>
            <polygon class="cls-9" points="238.4 214.98 250.73 222.1 238.4 229.22 226.06 222.1 238.4 214.98"/>
          </g>
        </g>
        <g>
          <polygon class="cls-14" points="207.56 268.39 219.9 275.51 219.9 258.13 207.56 251.01 207.56 268.39"/>
          <g>
            <polygon class="cls-14" points="232.23 251.01 219.9 258.13 219.9 275.51 232.23 268.39 232.23 251.01"/>
            <polygon class="cls-6" points="232.23 251.01 219.9 258.13 219.9 275.51 232.23 268.39 232.23 251.01"/>
          </g>
          <g>
            <polygon class="cls-14" points="219.9 243.88 232.23 251.01 219.9 258.13 207.56 251.01 219.9 243.88"/>
            <polygon class="cls-9" points="219.9 243.88 232.23 251.01 219.9 258.13 207.56 251.01 219.9 243.88"/>
          </g>
        </g>
      </g>
      <g>
        <path class="cls-14" d="M267.02,162.36l-6.37,2.3.57,1.57,3.63-1.31-19.45,41.18-20.27-3.9-20.65,32.26,1.41.9,20.04-31.31,20.43,3.93,20.05-42.44,1.36,3.74,1.57-.57-2.3-6.37Z"/>
        <path class="cls-18" d="M267.02,162.36l-6.37,2.3.57,1.57,3.63-1.31-19.45,41.18-20.27-3.9-20.65,32.26,1.41.9,20.04-31.31,20.43,3.93,20.05-42.44,1.36,3.74,1.57-.57-2.3-6.37Z"/>
      </g>
    </g>
    <g id="Pen">
      <g id="Pen-2" data-name="Pen">
        <g>
          <path class="cls-14" d="M236.75,307.24c.1.02.19.05.27.09l-.52-.3s-.06-.03-.09-.05h-.02s-.07-.04-.1-.05l-.05-.02s-.06-.02-.09-.02l-.14-.02s-.1,0-.15,0h0c-.34,0-.71.11-1.11.34-1.37.79-2.49,2.72-2.49,4.31,0,.23.02.43.07.62,0,.04.02.07.03.11,0,.02,0,.04.02.06.01.04.03.08.04.12.05.14.12.26.21.37.02.03.11.17.37.33l.6.34c-.1-.06-.19-.13-.27-.21.4.09.9,0,1.43-.3,1.38-.79,2.49-2.72,2.49-4.31,0-.62-.17-1.1-.46-1.4Z"/>
          <path class="cls-4" d="M294.65,340.63l-3.51,6.1-.59-.34-56.99-32.93c-.1-.06-.19-.13-.27-.21-.29-.3-.46-.78-.46-1.4,0-1.59,1.12-3.52,2.49-4.31.4-.23.78-.34,1.11-.34.11,0,.21.01.32.04.1.02.19.05.27.09.02,0,.03.02.04.02h.02s0,.01,0,.01l57.57,33.26Z"/>
          <path class="cls-14" d="M292.89,340.8c1.37-.79,2.49-.15,2.49,1.44s-1.11,3.52-2.49,4.31c-1.37.79-2.49.15-2.49-1.44s1.11-3.52,2.49-4.31Z"/>
        </g>
        <path class="cls-19" d="M298.24,344.5s-.04-.05-.06-.07l-3.18-3.49s0,0,0,0l-.02-.03s-.04-.04-.06-.06l-.03-.04h0c-.45-.43-1.17-.47-1.99,0-1.37.79-2.49,2.72-2.49,4.31,0,.92.38,1.52.96,1.71h0s.04.01.04.01c.06.02.12.03.18.04h.04s0,0,.01.01l4.6,1c.23.05.51,0,.8-.17.79-.45,1.42-1.56,1.42-2.46,0-.32-.08-.58-.22-.75Z"/>
        <g>
          <path class="cls-21" d="M251.81,318.49s0,0-.02,0l-.08-.05c-.15-.07-.36-.05-.58.08-.49.28-.88.97-.88,1.53,0,.25.08.43.21.53,0,0,0,0,0,0l.11.06,43.57,25.18,2.49-1.44-44.81-25.9Z"/>
          <path class="cls-13" d="M290.62,343.8l3.51,2.03,2.49-1.44-4.75-2.74c-.55.61-1,1.37-1.24,2.15Z"/>
        </g>
        <g>
          <g>
            <path class="cls-14" d="M299.49,346.16h0s0,0,0,0l-2.88-3.17s-.05-.06-.08-.09c-.32-.32-.84-.35-1.42-.01-.97.56-1.76,1.92-1.76,3.05,0,.65.26,1.07.67,1.21.01,0,.02,0,.03,0l.12.02,4.22.92h0c.13.03.29,0,.45-.1.44-.25.8-.88.8-1.39,0-.21-.06-.36-.16-.46Z"/>
            <path class="cls-29" d="M299.49,346.16h0s0,0,0,0l-2.88-3.17s-.05-.06-.08-.09c-.32-.32-.84-.35-1.42-.01-.97.56-1.76,1.92-1.76,3.05,0,.65.26,1.07.67,1.21.01,0,.02,0,.03,0l.12.02,4.22.92h0c.13.03.29,0,.45-.1.44-.25.8-.88.8-1.39,0-.21-.06-.36-.16-.46Z"/>
          </g>
          <g>
            <path class="cls-14" d="M299.65,346.61c0,.51-.36,1.13-.8,1.39-.17.1-.33.13-.45.1h0s-2.13-.46-2.13-.46c-.34-.07-.56-.39-.56-.9,0-.82.57-1.81,1.28-2.22.42-.24.79-.22,1.03,0l.06.06,1.43,1.57h0c.1.1.16.25.16.46Z"/>
            <path class="cls-29" d="M298.85,346.15c.44-.26.8-.05.8.46s-.36,1.13-.8,1.39c-.44.26-.8.05-.8-.46s.36-1.13.8-1.39Z"/>
          </g>
        </g>
        <g>
          <path class="cls-1" d="M242.39,313.05c-.16-.09-.38-.08-.62.06-.49.28-.88.97-.88,1.53,0,.28.1.48.26.57h0l9.3,5.37c-.13-.1-.21-.29-.21-.53,0-.56.4-1.25.88-1.53.22-.13.43-.15.58-.08l-9.32-5.38Z"/>
          <path class="cls-28" d="M242.65,313.62c0,.56-.4,1.24-.88,1.53-.24.14-.46.15-.62.06-.16-.09-.26-.28-.26-.57,0-.56.39-1.24.88-1.53.25-.14.47-.16.62-.06.16.09.26.29.26.57Z"/>
        </g>
        <path class="cls-14" d="M240.68,309.85h0s-.03-.02-.03-.02c-.01,0-.03-.02-.04-.02l-3.67-2.12s-.06-.03-.09-.05h-.02s0,0,0,0c-.4-.2-.93-.15-1.52.19-1.24.71-2.24,2.45-2.24,3.88,0,.72.25,1.22.66,1.45h0s3.72,2.14,3.72,2.14c0,0,.01,0,.02.01h.02s0,.01,0,.01c.4.21.95.17,1.55-.17,1.24-.71,2.24-2.45,2.24-3.88,0-.69-.23-1.17-.61-1.42Z"/>
        <path class="cls-2" d="M240.68,309.85h0s-.03-.02-.03-.02c-.01,0-.03-.02-.04-.02l-3.67-2.12s-.06-.03-.09-.05h-.02s0,0,0,0c-.4-.2-.93-.15-1.52.19-1.24.71-2.24,2.45-2.24,3.88,0,.72.25,1.22.66,1.45h0s3.72,2.14,3.72,2.14c0,0,.01,0,.02.01h.02s0,.01,0,.01c.4.21.95.17,1.55-.17,1.24-.71,2.24-2.45,2.24-3.88,0-.69-.23-1.17-.61-1.42Z"/>
        <path class="cls-29" d="M239.05,309.98c1.24-.71,2.24-.14,2.24,1.29s-1,3.16-2.24,3.88c-1.24.71-2.24.14-2.24-1.29s1-3.16,2.24-3.88Z"/>
        <g>
          <path class="cls-21" d="M300.67,347.49h0l-1.52-.91h0c-.08-.05-.18-.04-.3.02-.23.13-.41.45-.41.71,0,.13.05.22.12.27h0l1.51.92h0c.08.05.18.07.28.07.32,0,.58-.26.58-.58,0-.21-.11-.39-.27-.49Z"/>
          <path class="cls-3" d="M300.75,347.56h0s-.05-.05-.08-.07c0,0,0,0,0,0-.07-.03-.16-.01-.26.05-.23.13-.41.45-.41.71,0,.13.04.22.12.26,0,0,.02.01.03.02,0,0,.03.01.03.01.06.02.12.03.19.03.32,0,.58-.26.58-.58,0-.17-.07-.32-.18-.42Z"/>
        </g>
      </g>
    </g>
  </g>
</svg>