<?xml version="1.0" encoding="UTF-8"?>
<svg xmlns="http://www.w3.org/2000/svg" viewBox="0 0 414.98 414.98">
  <defs>
    <style>
      .cls-1, .cls-2, .cls-3, .cls-4, .cls-5, .cls-6 {
        fill: #fff;
      }

      .cls-1, .cls-7 {
        opacity: .2;
      }

      .cls-8 {
        fill: #fafafa;
      }

      .cls-9 {
        stroke: #e0e0e0;
        stroke-miterlimit: 10;
      }

      .cls-9, .cls-10 {
        fill: #e0e0e0;
      }

      .cls-11 {
        opacity: .75;
      }

      .cls-12 {
        opacity: .05;
      }

      .cls-13 {
        fill: #263238;
      }

      .cls-14, .cls-4, .cls-15 {
        opacity: .3;
      }

      .cls-16 {
        fill: #37474f;
      }

      .cls-3, .cls-17 {
        opacity: .5;
      }

      .cls-18, .cls-19 {
        opacity: .4;
      }

      .cls-20 {
        fill: #455a64;
      }

      .cls-21, .cls-15, .cls-19 {
        fill: #cc2936;
      }

      .cls-22 {
        opacity: .15;
      }

      .cls-5, .cls-23 {
        opacity: .35;
      }

      .cls-24 {
        fill: #ebebeb;
      }

      .cls-25 {
        fill: #f5f5f5;
      }

      .cls-26 {
        opacity: .1;
      }

      .cls-27 {
        fill: #e6e6e6;
      }

      .cls-28 {
        opacity: .7;
      }

      .cls-6 {
        opacity: .55;
      }
    </style>
  </defs>
  <g id="Device">
    <circle class="cls-22" cx="207.49" cy="207.49" r="207.49"/>
    <g>
      <path class="cls-25" d="M207.52,388.59l44.61-25.8c4.6-2.66,6.9-6.13,6.9-9.61,0-3.48.02-6.21.02-6.21l-41.98-23.83c-2.45-1.42-4.44-4.86-4.44-7.69v-55.01l-77.93,45.03v55.01c0,2.83,1.99,6.28,4.44,7.69l35.07,20.42c9.2,5.31,24.11,5.31,33.31,0Z"/>
      <path class="cls-22" d="M153.41,370.22v6.18l-14.28-8.23c-2.44-1.41-4.44-4.85-4.44-7.69v-55l14.85-8.56c.31,3.77.64,7.67.95,11.46l-10.41,6.03v42.97c0,2.85,1.97,6.28,4.44,7.69l8.9,5.15Z"/>
      <path class="cls-27" d="M140.07,357.39c0,2.83,1.99,6.28,4.44,7.69l29.69,17.31c9.2,5.31,24.11,5.31,33.31,0l44.64-25.79c9.2-5.31,9.2-13.92,0-19.23l-29.71-17.32c-2.45-1.42-4.44-4.86-4.44-7.69v-42.98s-77.93,45.03-77.93,45.03v42.98Z"/>
      <path class="cls-22" d="M231.49,325.28h0s-9.05-5.23-9.05-5.23c-2.45-1.42-4.44-4.86-4.44-7.69v-42.98l-77.93,45.03v42.98c0,2.83,1.99,6.28,4.44,7.69l8.89,5.13,78.08-44.93Z"/>
    </g>
    <path class="cls-2" d="M47.24,391.31c2.88,1.66,7.69,1.57,10.76-.2,38.31-22.12,218.08-125.91,256.38-148.02,3.07-1.77,5.55-6.07,5.55-9.61V18.78c0-3.54-2.33-7.76-5.21-9.42s-7.69-1.57-10.76.2L47.59,157.58c-3.07,1.77-5.55,6.08-5.55,9.62v214.69c0,3.54,2.33,7.76,5.2,9.42Z"/>
    <path class="cls-12" d="M58,391.1l256.38-148.02c3.07-1.77,5.55-6.08,5.55-9.62V18.77c0-3.54-2.48-4.98-5.55-3.2L58.01,163.59c-3.07,1.77-5.55,6.07-5.55,9.62v214.69c0,3.54,2.48,4.97,5.55,3.2Z"/>
    <path class="cls-24" d="M52.45,369.01v18.89c0,3.54,2.49,4.97,5.55,3.2l256.38-148.02c3.07-1.77,5.55-6.08,5.55-9.62v-18.89L52.45,369.01Z"/>
    <path class="cls-21" d="M59.79,351.44v-175.76c0-2.18,1.53-4.82,3.42-5.91L309.18,27.75c1.89-1.09,3.41-.21,3.41,1.97v175.77c.01,2.18-1.52,4.82-3.4,5.91L63.2,353.41c-1.89,1.09-3.41.21-3.41-1.97Z"/>
    <path class="cls-10" d="M59.79,351.44v-175.76c0-2.18,1.53-4.82,3.42-5.91L309.18,27.75c1.89-1.09,3.41-.21,3.41,1.97v175.77c.01,2.18-1.52,4.82-3.4,5.91L63.2,353.41c-1.89,1.09-3.41.21-3.41-1.97Z"/>
    <path class="cls-12" d="M43.67,161.71l10.41,6c-1,1.74-1.62,3.72-1.64,5.49v214.7c0,3.23,2.19,5.04,5.56,3.21-3.36,1.95-8.14,1.71-10.76.2-2.87-1.67-5.21-5.18-5.21-8.75v-215.36c0-1.77.64-3.74,1.64-5.49Z"/>
    <path class="cls-21" d="M181.33,305.14l12.56-7.21c1.12-.65,2.04-.19,2.04,1.03,0,1.22-.91,2.73-2.04,3.38l-12.56,7.21c-1.12.65-2.04.19-2.04-1.03s.91-2.73,2.04-3.38Z"/>
  </g>
  <g id="Speech_Bubble" data-name="Speech Bubble">
    <g id="Clock">
      <g>
        <path class="cls-16" d="M77,50.3h0s-.06-.03-.06-.03c0,0,0,0,0,0l-4.62-2.75s0,0-.01,0l-.08-.04h0c-6.32-3.2-14.77-2.26-23.87,3.6-18.27,11.77-32.23,38.91-31.18,60.61.53,10.82,4.68,18.25,10.98,21.52h0s.06.03.06.03c0,0,0,0,0,0l4.62,2.75s0,0,0,0l.07.03h0c6.33,3.21,14.78,2.27,23.88-3.59,18.27-11.77,32.23-38.91,31.18-60.61-.53-10.82-4.68-18.25-10.98-21.52Z"/>
        <path class="cls-13" d="M32.38,135.74l-4.15-2.51h-.01s-.06-.04-.06-.04c-6.3-3.28-10.45-10.71-10.98-21.51-.47-9.68,2.05-20.44,6.6-30.42l4.62,2.75c-4.55,9.98-7.07,20.74-6.6,30.42.51,10.59,4.51,17.92,10.58,21.31Z"/>
        <path class="cls-20" d="M56.8,132.44c18.27-11.77,32.23-38.91,31.18-60.61-1.05-21.71-16.72-29.77-35-18-18.27,11.77-32.23,38.91-31.18,60.61,1.05,21.71,16.72,29.77,35,18Z"/>
      </g>
      <path class="cls-8" d="M41.49,130.93c-10.77.52-12.53-11.59-12.78-16.82-.93-19.15,11.9-44.09,28.02-54.47,4.1-2.64,8.1-4.13,11.57-4.3,10.77-.52,12.53,11.59,12.78,16.82.93,19.15-11.9,44.09-28.02,54.47-4.1,2.64-8.1,4.13-11.57,4.3h0Z"/>
      <g>
        <path class="cls-16" d="M57.01,96.72c-.13,0-.26-.02-.38-.06-.47-.16-.79-.61-.79-1.11v-27.7c0-.65.52-1.17,1.17-1.17s1.17.53,1.17,1.17v24.29l12.92-16.59c.4-.51,1.13-.6,1.65-.21.51.4.6,1.14.21,1.65l-15.02,19.29c-.23.29-.57.45-.93.45Z"/>
        <g>
          <path class="cls-21" d="M50.39,117.18c-.05,0-.11,0-.16-.02-.26-.08-.41-.35-.33-.61l6.5-21.91c.08-.26.35-.41.61-.33.26.08.41.35.33.61l-6.5,21.91c-.06.21-.25.34-.45.35Z"/>
          <path class="cls-21" d="M56.7,91.45c1.48-.95,2.75-.3,2.84,1.46.09,1.76-1.05,3.96-2.53,4.92-1.48.95-2.75.3-2.84-1.46-.09-1.76,1.05-3.96,2.53-4.92Z"/>
        </g>
      </g>
    </g>
    <g id="Folder">
      <path class="cls-21" d="M106.43,98.59c-.26,0-.51-.07-.74-.2-.46-.27-.74-.75-.74-1.29v-60.19c0-.56.18-1.18.51-1.75.33-.56.77-1.03,1.25-1.31l18-10.39c.63-.37,1.33-.39,1.91-.06.46.26.77.68.93,1.18l1.45,4.85c.08.25.22.43.41.51.19.08.42.04.64-.08l42.34-24.43c.53-.31,1.07-.37,1.51-.17l.19.1c.43.28.68.8.68,1.44v50.51c0,1.15-.78,2.49-1.77,3.06l-65.86,38.02c-.23.13-.49.2-.74.2ZM125.74,24.4c-.13,0-.27.04-.42.13l-18,10.39c-.29.17-.59.49-.81.87-.22.38-.34.79-.34,1.13v60.19c0,.13.08.2.13.23.05.03.15.06.26,0l65.86-38.02c.62-.36,1.15-1.29,1.15-2V6.8c0-.24-.07-.36-.11-.4l-.08-.04s-.16.01-.36.13l-42.35,24.43c-.55.32-1.17.37-1.7.16-.54-.22-.95-.67-1.14-1.29l-1.46-4.85c-.06-.21-.18-.37-.33-.46-.1-.05-.2-.08-.31-.08Z"/>
      <g>
        <path class="cls-21" d="M183.25,12.22c0-.45-.15-.77-.4-.93h0s-.02-.01-.02-.01c0,0-.02-.01-.03-.02l-2.73-1.58s0,0,0,0h0s0,0,0,0c-.26-.15-.63-.13-1.03.1l-41.88,24.16-1.13-3.76c-.11-.37-.34-.65-.61-.81h0s-2.75-1.59-2.75-1.59h0c-.38-.22-.87-.23-1.34.04l-18,10.39c-.81.47-1.46,1.6-1.46,2.53v60.01c0,.45.15.76.4.92h0s.03.02.03.02c0,0,0,0,.01,0l2.72,1.57s.02.01.03.02h.02s0,0,0,0c.26.13.61.11,1-.12l65.7-37.93c.81-.47,1.46-1.6,1.46-2.53V12.22Z"/>
        <path class="cls-3" d="M183.25,12.22c0-.45-.15-.77-.4-.93h0s-.02-.01-.02-.01c0,0-.02-.01-.03-.02l-2.73-1.58s0,0,0,0h0s0,0,0,0c-.26-.15-.63-.13-1.03.1l-41.88,24.16-1.13-3.76c-.11-.37-.34-.65-.61-.81h0s-2.75-1.59-2.75-1.59h0c-.38-.22-.87-.23-1.34.04l-18,10.39c-.81.47-1.46,1.6-1.46,2.53v60.01c0,.45.15.76.4.92h0s.03.02.03.02c0,0,0,0,.01,0l2.72,1.57s.02.01.03.02h.02s0,0,0,0c.26.13.61.11,1-.12l65.7-37.93c.81-.47,1.46-1.6,1.46-2.53V12.22Z"/>
        <g class="cls-18">
          <path class="cls-2" d="M135.39,29.35c-.38-.21-.85-.2-1.31.06l-18,10.39c-.4.24-.76.64-1.03,1.09l-2.74-1.59c.26-.46.63-.86,1.03-1.09l18-10.39c.47-.27.96-.26,1.34-.03h0s2.72,1.56,2.72,1.56Z"/>
          <path class="cls-2" d="M182.75,11.23c-.26-.11-.59-.07-.96.14l-42.34,24.43c-.81.47-1.68.12-1.95-.78l-.32-1.08,41.88-24.16c.23-.14.45-.2.65-.2.14,0,.27.03.38.09h0l2.67,1.55Z"/>
        </g>
        <path class="cls-15" d="M114.83,103.08c.04.06.09.11.14.16l-2.66-1.53s0,0-.01,0l-.03-.02c-.1-.07-.18-.16-.25-.28-.03-.05-.05-.11-.07-.17-.05-.14-.07-.29-.07-.47v-60.02c0-.06,0-.11,0-.18.01-.12.03-.24.06-.36.01-.06.03-.12.05-.18.06-.18.13-.37.22-.54.03-.06.06-.12.09-.18l2.74,1.59c-.26.45-.43.97-.43,1.44v60.02c0,.09,0,.18.02.26,0,.05.01.09.03.14,0,.03.01.05.02.07.01.03.03.07.04.09.02.06.05.11.09.17Z"/>
      </g>
    </g>
    <g id="Files">
      <g>
        <path class="cls-21" d="M411.92,275.84c.51-.3.77-.68.77-1.07,0-.39,0-1.65,0-1.65l-91.4-51.74c-1.03-.59-2.69-.59-3.72,0l-71.87,41.49,94.38,54.45,71.84-41.48Z"/>
        <path class="cls-1" d="M411.92,275.84c.51-.3.77-.68.77-1.07,0-.39,0-1.65,0-1.65l-91.4-51.74c-1.03-.59-2.69-.59-3.72,0l-71.87,41.49,94.38,54.45,71.84-41.48Z"/>
        <path class="cls-21" d="M411.92,274.23c1.03-.59,1.03-1.56,0-2.15l-90.63-52.32c-1.03-.59-2.69-.59-3.72,0l-71.87,41.49,94.38,54.45,71.84-41.48Z"/>
        <path class="cls-17" d="M411.92,274.23c1.03-.59,1.03-1.56,0-2.15l-90.63-52.32c-1.03-.59-2.69-.59-3.72,0l-71.87,41.49,94.38,54.45,71.84-41.48Z"/>
        <g>
          <path class="cls-24" d="M262.25,250.4l53.21-30.7c1.03-.59,2.69-.59,3.72,0l84.48,48.77,6.92-4.03v8.19s-.13.08-.13.08c.23.5.04,1.06-.64,1.46l-60.94,35.17-94.38-54.45v-8.95l7.76,4.48Z"/>
          <path class="cls-8" d="M409.81,265.22c1.03-.59,1.03-1.56,0-2.15l-90.63-52.32c-1.03-.59-2.69-.59-3.72,0l-60.97,35.18,94.38,54.45,60.94-35.17Z"/>
          <polygon class="cls-27" points="348.87 300.38 348.87 309.34 254.49 254.88 254.49 245.93 348.87 300.38"/>
          <path class="cls-13" d="M347.88,296.89c.22.11.43.19.69.24.37.09.77.09,1.1-.02.13-.02.24-.06.34-.13.56-.3.49-.86-.15-1.22-.28-.15-.62-.26-.97-.28-.43-.04-.86.02-1.16.19-.04.02-.09.04-.11.09-.43.32-.34.8.26,1.14Z"/>
          <path class="cls-13" d="M338.49,303.89c0,1.27.32,2.32.95,3.09.64.82,1.59,1.27,2.66,1.27h.02c.82,0,1.7-.26,2.58-.77.15-.09.32-.17.47-.28l-1.05-.6c-2.54,1.42-4.56.21-4.56-2.71,0-2.92,2.06-6.51,4.6-7.97,1.38-.8,2.62-.82,3.46-.17.43.28.75.75.95,1.38.37.09.77.09,1.1-.02-.15-.64-.41-1.2-.77-1.63-.64-.79-1.57-1.25-2.66-1.25-.84,0-1.7.26-2.6.77-2.88,1.65-5.14,5.56-5.14,8.9Z"/>
        </g>
        <path class="cls-21" d="M341.16,295.43l71.53-34.96v1.17c0,.59-.42,1.31-.93,1.61l-70.6,33.8v-1.62Z"/>
        <path class="cls-1" d="M341.16,295.43l71.53-34.96v1.17c0,.59-.42,1.31-.93,1.61l-70.6,33.8v-1.62Z"/>
        <path class="cls-21" d="M411.92,261.54c1.03-.59,1.03-1.56,0-2.15l-90.63-52.32c-1.03-.59-2.69-.59-3.72,0l-71.87,34.51,94.38,54.45,71.84-34.49Z"/>
        <path class="cls-7" d="M411.92,261.54c1.03-.59,1.03-1.56,0-2.15l-90.63-52.32c-1.03-.59-2.69-.59-3.72,0l-71.87,34.51,94.38,54.45,71.84-34.49Z"/>
        <g>
          <polygon class="cls-21" points="340.09 317.31 245.7 262.86 245.7 241.55 340.08 296.04 340.09 317.31"/>
          <g>
            <path class="cls-20" d="M323.72,303.65c1.08,0,2.03-.45,2.68-1.27.62-.77.94-1.84.94-3.1,0-3.33-2.26-7.24-5.15-8.91-.89-.51-1.76-.77-2.6-.77-2.17,0-3.62,1.75-3.62,4.36,0,3.33,2.26,7.24,5.15,8.91.89.51,1.76.77,2.59.77h0Z"/>
            <path class="cls-25" d="M326.27,299.28c0,2.94-2.06,4.13-4.61,2.66-2.55-1.47-4.61-5.04-4.61-7.98,0-2.94,2.06-4.13,4.61-2.66,2.54,1.47,4.61,5.04,4.61,7.98Z"/>
          </g>
          <path class="cls-25" d="M309.54,288.56v1.61c0,3.23-2.27,4.53-5.06,2.92l-47.38-27.36c-2.79-1.61-5.06-5.54-5.06-8.76v-1.61c0-3.23,2.27-4.53,5.06-2.92l47.38,27.36c2.79,1.61,5.06,5.54,5.06,8.76Z"/>
          <polygon class="cls-21" points="341.19 316.67 341.19 295.5 340.08 296.04 340.09 317.31 341.19 316.67"/>
          <polygon class="cls-1" points="341.19 316.67 341.19 295.5 340.08 296.04 340.09 317.31 341.19 316.67"/>
        </g>
      </g>
      <g>
        <g>
          <path class="cls-21" d="M246.47,236.97c0,.45.36,1.02.81,1.28l92.76,53.52c.45.26,1.17.26,1.62,0l72.89-36.87v-1.62s-94.35-54.47-94.35-54.47l-72.92,36.88c-.45.26-.81.83-.81,1.28Z"/>
          <path class="cls-17" d="M414.55,253.28l-72.88,36.87c-.23.14-.54.19-.82.19-.3,0-.58-.05-.82-.19l-92.75-53.54c-.44-.26-.44-.68,0-.94l72.92-36.87,94.34,54.47Z"/>
          <path class="cls-1" d="M414.55,253.28v1.62s-72.88,36.87-72.88,36.87c-.23.14-.54.19-.82.19v-1.61c.28,0,.58-.05.82-.19l72.88-36.87Z"/>
        </g>
        <g>
          <polygon class="cls-21" points="413.44 253.93 319.06 199.47 319.06 178.16 413.44 232.86 413.44 253.93"/>
          <polygon class="cls-28" points="413.44 253.93 319.06 199.47 319.06 178.16 413.44 232.86 413.44 253.93"/>
        </g>
        <g>
          <path class="cls-24" d="M247.48,225.51c-.56.32-1.01,1.11-1.01,1.75v4.31c0,.65.45,1.43,1.01,1.75l92.36,53.29c.56.32,1.46.32,2.02,0l61.78-33.42v-6.65s-94.35-54.47-94.35-54.47l-61.82,33.43Z"/>
          <path class="cls-8" d="M309.29,192.07l-61.82,33.43c-.56.32-.56.85,0,1.17l92.36,53.29c.56.32,1.47.32,2.02,0l61.79-33.42-94.35-54.47Z"/>
          <path class="cls-13" d="M395.77,247.08c.22.11.43.19.69.24.37.09.77.09,1.1-.02.13-.02.24-.06.34-.13.56-.3.49-.86-.15-1.22-.28-.15-.62-.26-.97-.28-.43-.04-.86.02-1.16.19-.04.02-.09.04-.11.09-.43.32-.34.8.26,1.14Z"/>
          <path class="cls-27" d="M340.86,280.19v6.66c-.37,0-.75-.07-1.03-.23l-92.36-53.28c-.56-.33-1-1.12-1-1.75v-4.32c0-.54.33-1.19.77-1.57-.3.3-.23.7.23.98l92.35,53.28c.28.16.65.26,1.03.23Z"/>
          <path class="cls-13" d="M406.59,237.86c-1.19-.71-2.68-.63-4.19.24-2.53,1.46-4.71,4.82-5.72,8.47.5.07,1.11.16,1.38.2.94-3.24,2.86-6.24,5.03-7.49.48-.28,1.1-.54,1.74-.54.35,0,.71.08,1.05.29,1.11.66,1.72,2.43,1.66,4.72-.13,4.41-2.66,9.41-5.64,11.12-.57.33-1.33.63-2.08.51l-1.51.86s.06.04.09.06c.53.32,1.13.48,1.76.48.77,0,1.6-.24,2.43-.72,3.4-1.96,6.18-7.35,6.32-12.27.09-2.84-.76-5.01-2.32-5.94Z"/>
        </g>
        <g>
          <path class="cls-21" d="M246.47,223.44c0,.45.36,1.02.81,1.28l92.76,53.52c.45.26,1.17.26,1.62,0l72.89-44.54v-1.62s-94.35-54.47-94.35-54.47l-72.92,44.55c-.45.26-.81.83-.81,1.28Z"/>
          <path class="cls-21" d="M414.55,232.08l-72.88,44.55c-.23.14-.54.19-.82.19-.3,0-.58-.05-.82-.19l-92.75-53.54c-.44-.26-.44-.68,0-.93l72.92-44.55,94.34,54.47Z"/>
          <path class="cls-5" d="M414.55,232.08l-72.88,44.55c-.23.14-.54.19-.82.19-.3,0-.58-.05-.82-.19l-92.75-53.54c-.44-.26-.44-.68,0-.93l72.92-44.55,94.34,54.47Z"/>
          <path class="cls-1" d="M414.55,232.08v1.62s-72.88,44.54-72.88,44.54c-.23.14-.54.19-.82.19v-1.61c.28,0,.58-.05.82-.19l72.88-44.55Z"/>
        </g>
        <g>
          <polygon class="cls-21" points="414.55 253.28 414.55 232.11 413.44 232.86 413.44 253.93 414.55 253.28"/>
          <polygon class="cls-1" points="414.55 253.28 414.55 232.11 413.44 232.86 413.44 253.93 414.55 253.28"/>
        </g>
      </g>
    </g>
    <g id="Sheets">
      <polygon id="Shadow" class="cls-19" points="259.47 216.2 321.05 180.64 409.89 232.03 348.3 267.58 259.47 216.2"/>
      <g id="Sheets-2" data-name="Sheets">
        <g id="Character-2" data-name="Character">
          <g>
            <polygon class="cls-10" points="267.35 216.12 348.63 263.14 348.63 213.28 267.34 166.26 267.35 216.12"/>
            <polygon class="cls-24" points="404.98 230.61 348.63 263.14 348.63 213.28 404.99 180.75 404.98 230.61"/>
            <g>
              <polygon class="cls-2" points="268.23 166.26 323.7 134.24 404.1 180.75 348.63 212.77 268.23 166.26"/>
              <path class="cls-24" d="M323.7,134.75l79.52,46-54.58,31.51-79.52-46,54.58-31.51M323.7,133.73l-56.35,32.53,81.29,47.02,56.35-32.53-81.29-47.02h0Z"/>
            </g>
          </g>
        </g>
        <polygon class="cls-26" points="309.71 207.48 348.63 229.96 371.99 216.47 348.63 231.35 309.71 207.48"/>
        <polygon class="cls-26" points="286.35 206.56 348.63 242.52 395.35 215.55 348.63 243.88 286.35 206.56"/>
        <path class="cls-26" d="M275.17,184.76s-1.29,7.27-.64,10.95c0,0,10.19-.25,27.4,4.49l-26.76-15.45Z"/>
        <polygon class="cls-2" points="275.17 184.76 301.92 200.21 272.32 191.66 275.17 184.76"/>
        <path class="cls-26" d="M309.71,227.86l29.33,26.97s.81-3.71,6.44-6.31l-35.78-20.66Z"/>
        <polygon class="cls-2" points="309.71 227.86 337.26 251.05 345.49 248.51 309.71 227.86"/>
        <path class="cls-26" d="M395.6,200.57c-.15-.24-.25-.37-.25-.37l-18.54,10.7,20.86-1.71c.72-3.87-1.34-7.49-2.08-8.62Z"/>
        <polygon class="cls-8" points="376.81 210.91 395.35 200.21 401.52 203.46 376.81 210.91"/>
        <g class="cls-22">
          <path d="M281.67,169.73c-.25,0-.49-.13-.62-.36-.2-.34-.08-.78.26-.98l46.71-26.97c.34-.2.78-.08.98.26.2.34.08.78-.26.98l-46.71,26.97c-.11.07-.24.1-.36.1Z"/>
          <path d="M289.45,174.22c-.25,0-.49-.13-.62-.36-.2-.34-.08-.78.26-.98l46.71-26.97c.34-.2.78-.08.98.26.2.34.08.78-.26.98l-46.71,26.97c-.11.07-.24.1-.36.1Z"/>
          <path d="M297.24,178.72c-.25,0-.49-.13-.62-.36-.2-.34-.08-.78.26-.98l46.71-26.97c.34-.2.78-.08.98.26.2.34.08.78-.26.98l-46.71,26.97c-.11.07-.24.1-.36.1Z"/>
          <path d="M305.02,183.21c-.25,0-.49-.13-.62-.36-.2-.34-.08-.78.26-.98l46.71-26.97c.34-.2.78-.08.98.26.2.34.08.78-.26.98l-46.71,26.97c-.11.07-.24.1-.36.1Z"/>
          <path d="M312.81,187.71c-.25,0-.49-.13-.62-.36-.2-.34-.08-.78.26-.98l46.71-26.97c.34-.2.78-.08.98.26.2.34.08.78-.26.98l-46.71,26.97c-.11.07-.24.1-.36.1Z"/>
          <path d="M320.6,192.2c-.25,0-.49-.13-.62-.36-.2-.34-.08-.78.26-.98l46.71-26.97c.34-.2.78-.08.98.26.2.34.08.78-.26.98l-46.71,26.97c-.11.07-.24.1-.36.1Z"/>
          <path d="M328.38,196.7c-.25,0-.49-.13-.62-.36-.2-.34-.08-.78.26-.98l46.71-26.97c.34-.2.78-.08.98.26.2.34.08.78-.26.98l-46.71,26.97c-.11.07-.24.1-.36.1Z"/>
          <path d="M336.17,201.19c-.25,0-.49-.13-.62-.36-.2-.34-.08-.78.26-.98l46.71-26.97c.34-.2.78-.08.98.26.2.34.08.78-.26.98l-46.71,26.97c-.11.07-.24.1-.36.1Z"/>
          <path d="M343.95,205.69c-.25,0-.49-.13-.62-.36-.2-.34-.08-.78.26-.98l46.71-26.97c.34-.2.78-.08.98.26.2.34.08.78-.26.98l-46.71,26.97c-.11.07-.24.1-.36.1Z"/>
        </g>
      </g>
      <polygon class="cls-26" points="396.52 179.37 345.2 211.29 345.2 220.13 267.34 175.69 267.34 166.26 321.19 135.17 396.52 179.37"/>
      <g id="Sheets-3" data-name="Sheets">
        <g id="Character-3" data-name="Character">
          <g>
            <polygon class="cls-10" points="256.54 165 337.83 212.02 337.83 162.16 256.54 115.14 256.54 165"/>
            <polygon class="cls-24" points="394.18 179.49 337.83 212.02 337.83 162.16 394.18 129.63 394.18 179.49"/>
            <g>
              <polygon class="cls-2" points="257.42 115.14 312.89 83.12 393.29 129.63 337.83 161.65 257.42 115.14"/>
              <path class="cls-24" d="M312.89,83.63l79.52,46-54.58,31.51-79.52-46,54.58-31.51M312.89,82.61l-56.35,32.53,81.29,47.02,56.35-32.53-81.29-47.02h0Z"/>
            </g>
          </g>
        </g>
        <polygon class="cls-26" points="298.9 156.37 337.83 178.84 361.18 165.36 337.83 180.23 298.9 156.37"/>
        <polygon class="cls-26" points="275.54 155.44 337.83 191.4 384.54 164.43 337.83 192.76 275.54 155.44"/>
        <path class="cls-26" d="M264.36,133.64s-1.29,7.27-.64,10.95c0,0,10.19-.25,27.4,4.49l-26.76-15.45Z"/>
        <polygon class="cls-2" points="264.36 133.64 291.11 149.09 261.51 140.54 264.36 133.64"/>
        <path class="cls-26" d="M298.9,176.74l29.33,26.97s.81-3.71,6.44-6.31l-35.78-20.66Z"/>
        <polygon class="cls-8" points="298.9 176.74 326.45 199.94 334.68 197.4 298.9 176.74"/>
        <path class="cls-26" d="M384.79,149.46c-.15-.24-.25-.37-.25-.37l-18.54,10.7,20.86-1.71c.72-3.87-1.34-7.49-2.08-8.62Z"/>
        <polygon class="cls-8" points="366 159.79 384.54 149.09 390.71 152.35 366 159.79"/>
        <g class="cls-22">
          <path d="M270.86,118.61c-.25,0-.49-.13-.62-.36-.2-.34-.08-.78.26-.98l46.71-26.97c.34-.2.78-.08.98.26.2.34.08.78-.26.98l-46.71,26.97c-.11.07-.24.1-.36.1Z"/>
          <path d="M278.64,123.11c-.25,0-.49-.13-.62-.36-.2-.34-.08-.78.26-.98l46.71-26.97c.34-.2.78-.08.98.26.2.34.08.78-.26.98l-46.71,26.97c-.11.07-.24.1-.36.1Z"/>
          <path d="M286.43,127.6c-.25,0-.49-.13-.62-.36-.2-.34-.08-.78.26-.98l46.71-26.97c.34-.2.78-.08.98.26.2.34.08.78-.26.98l-46.71,26.97c-.11.07-.24.1-.36.1Z"/>
          <path d="M294.22,132.1c-.25,0-.49-.13-.62-.36-.2-.34-.08-.78.26-.98l46.71-26.97c.34-.2.78-.08.98.26.2.34.08.78-.26.98l-46.71,26.97c-.11.07-.24.1-.36.1Z"/>
          <path d="M302,136.59c-.25,0-.49-.13-.62-.36-.2-.34-.08-.78.26-.98l46.71-26.97c.34-.2.78-.08.98.26.2.34.08.78-.26.98l-46.71,26.97c-.11.07-.24.1-.36.1Z"/>
          <path d="M309.79,141.09c-.25,0-.49-.13-.62-.36-.2-.34-.08-.78.26-.98l46.71-26.97c.34-.2.78-.08.98.26.2.34.08.78-.26.98l-46.71,26.97c-.11.07-.24.1-.36.1Z"/>
          <path d="M317.57,145.58c-.25,0-.49-.13-.62-.36-.2-.34-.08-.78.26-.98l46.71-26.97c.34-.2.78-.08.98.26.2.34.08.78-.26.98l-46.71,26.97c-.11.07-.24.1-.36.1Z"/>
          <path d="M325.36,150.08c-.25,0-.49-.13-.62-.36-.2-.34-.08-.78.26-.98l46.71-26.97c.34-.2.78-.08.98.26.2.34.08.78-.26.98l-46.71,26.97c-.11.07-.24.1-.36.1Z"/>
          <path d="M333.14,154.57c-.25,0-.49-.13-.62-.36-.2-.34-.08-.78.26-.98l46.71-26.97c.34-.2.78-.08.98.26.2.34.08.78-.26.98l-46.71,26.97c-.11.07-.24.1-.36.1Z"/>
        </g>
      </g>
    </g>
    <g id="Note">
      <polygon class="cls-26" points="341.02 184.48 341.02 241.89 388.58 214.43 388.58 157.02 341.02 184.48"/>
      <g>
        <path class="cls-21" d="M395.03,216.98c-2.97,1.72-21.27,12.28-34.16,19.71-3.63-1.76-12.37-5.5-14.66-9.96l-3.27-32.49,47.56-27.46,4.54,50.2Z"/>
        <path class="cls-1" d="M395.03,216.98c-2.97,1.72-21.27,12.28-34.16,19.71-3.63-1.76-12.37-5.5-14.66-9.96l-3.27-32.49,47.56-27.46,4.54,50.2Z"/>
        <g>
          <path class="cls-8" d="M386.24,182.23c-.65.86-1.46,2.18-2.65,2.28-.32.03-.66-.06-.95-.23.08-.69-.12-1.64-.99-1.5-.05,0-.12.07-.14.12-.13.59.1,1.12.5,1.5-.29,1.18-.78,2.32-1.46,3.33-.33.49-.71,1.03-1.24,1.33-.3.17-.67.25-.97.03-.12-.09-.21-.21-.25-.34.03-.16.06-.31.09-.47.04-.23-.35-.6-.52-.33-.01.02-.02.04-.03.06,0,0,0,0,0,0,0,0,0,.01,0,.02-.09.18-.13.36-.11.54-.15.74-.34,1.46-.6,2.17-.26.69-.64,1.76-1.46,1.95-.87.2-1.19-.9-1.19-1.55,0-.95.3-1.86,0-2.79-.07-.2-.44-.43-.55-.14-.89,2.38-1.79,4.76-2.68,7.15-.31.83-.73,2.61-1.98,2.27-.61-.17-.93-.68-1.1-1.27.25-.51.48-1.03.7-1.55.25-.59.49-1.18.71-1.78.23-.62.54-1.29.61-1.95.05-.43-.11-.88-.53-1.07-.44-.2-.86.05-1.15.38-.38.44-.57,1.07-.73,1.62-.19.67-.31,1.37-.35,2.07-.03.66-.02,1.42.15,2.11-.43.91-.88,1.92-1.57,2.64-.44.46-1.05.85-1.62.37-.29-.24-.54-.6-.94-.66-.42-.07-.64.26-.77.61-.23.64-.43,1.3-.63,1.95-.45-.43-.35-1.54-1.17-1.57-.5-.02-.68.47-.83.85-.2.52-.4,1.04-.6,1.56-.09-.69-.18-1.38-.26-2.08-.02-.18-.35-.43-.47-.19-.51,1.01-1.03,2.02-1.54,3.04-.24.48-.49.96-.73,1.43-.13.26-.37.96-.7,1.27.46-1.68.78-3.39.91-5.13.06-.81.18-1.71.03-2.52-.1-.54-.42-1.03-.99-1.13-.69-.13-1.46.33-2.01.7-.58.39-1.09.9-1.49,1.46-.82,1.14-1.22,2.5-1.15,3.9,0,.14.23.25.23.06-.02-1.26.39-2.5,1.13-3.52.68-.94,1.83-1.99,3.03-2.14,1.03-.13.88,1.12.85,1.79-.03.79-.11,1.57-.21,2.36-.19,1.51-.51,3-.94,4.46-.05.16.14.31.27.34.43.11.73-.18.95-.53.35-.57.62-1.21.93-1.81.51-1,1.02-2.01,1.53-3.01.1.75.19,1.51.29,2.26.02.17.38.44.48.19.25-.64.49-1.28.74-1.92.08-.21.45-1.52.8-1.06.4.54.36,1.26,1.08,1.55.08.03.23.02.26-.08.24-.72.43-1.47.71-2.17.08-.2.11-.46.43-.37.1.03.23.2.31.27.19.18.37.36.61.48,1,.48,1.96-.51,2.45-1.28.32-.51.61-1.05.89-1.59.1.2.22.39.38.56.68.75,1.85.96,2.58.16.45-.49.64-1.18.87-1.78l.93-2.47c.47-1.25.94-2.5,1.41-3.76-.06.69-.2,1.39-.02,2.08.19.72.7,1.44,1.5,1.5.89.07,1.5-.72,1.85-1.44.37-.76.63-1.59.83-2.42.2.18.44.31.7.36,1.14.21,1.99-1.01,2.51-1.83.62-.96,1.09-2.04,1.36-3.15.32.16.67.27,1.01.28,1.45.04,2.42-1.35,3.02-2.49.09-.17-.17-.53-.32-.32ZM367.75,194.56c.01-1.14.23-2.36.74-3.4.1-.21.28-.5.5-.62.44-.23.42.3.35.59-.13.54-.34,1.08-.53,1.61-.31.86-.66,1.7-1.04,2.53-.01-.25-.02-.5-.02-.71Z"/>
          <path class="cls-8" d="M386.01,198.04c-.23.19-.55.21-.77,0-.13-.13-.44-.24-.58-.05-.55.74-.72,1.61-1.04,2.45-.28.74-1,1.86-1.95,1.52-.6-.21-.91-.92-1.04-1.54.29-1.08.49-2.19.58-3.31.03-.36-.57-.52-.72-.2-.51,1.03-.8,2.24-.61,3.39,0,0,0,0,0,0-.3,1.12-.71,2.2-1.22,3.25-.25.52-.53,1.03-.83,1.52-.28.45-.58,1.03-1.07,1.3-.81.45-1.46-.11-1.87-.8.26-.57.52-1.15.77-1.72.64-1.43,1.39-2.87,1.77-4.4.21-.87.58-3.18-.89-3.17-1.17,0-1.9,1.6-2.29,2.49-.55,1.26-.82,2.66-.76,4.04.04.9.18,1.94.61,2.79-.22.52-.52,1.37-1.19,1.22-.75-.16-.91-1.15-1.03-1.76-.04-.22-.5-.5-.63-.2-.56,1.33-1.1,2.67-1.69,3.98-.17.39-.39.68-.83.4-.24-.16-.46-.38-.66-.59-.5-.53-.89-1.16-1.16-1.84-.09-.23-.53-.39-.62-.07-.64,2.3-1.66,4.45-3,6.42-.69-1.09-.92-2.4-.67-3.65.12-.37.24-.74.34-1.1.08-.3-.42-.58-.56-.26-.17.38-.29.78-.37,1.18-.56,1.67-1.29,3.3-2.26,4.77-.52.79-1.18,1.57-2.08,1.93-.84.34-1.89.26-2.52-.44-.2-.22-.36.07-.2.26.59.68,1.49.92,2.36.79,1.04-.16,1.87-.85,2.51-1.65.88-1.12,1.58-2.42,2.14-3.76.14.93.5,1.82,1.09,2.57.12.15.4.29.54.08,1.35-1.9,2.37-3.99,3.07-6.21.24.43.52.84.86,1.21.44.48,1.13,1.22,1.86,1.07.74-.16.97-1.3,1.22-1.89.29-.68.58-1.37.87-2.05.33.84.92,1.59,1.94,1.39.59-.11.89-.63,1.12-1.12.06.06.11.13.17.19.92.86,2.28.9,3.11-.09,1.01-1.21,1.72-2.82,2.26-4.29.07-.19.13-.39.19-.59.25.42.59.78,1.03.98.93.41,1.89-.01,2.46-.79.67-.91.75-2.08,1.31-3.03.48.22,1.03.18,1.47-.19.31-.26-.29-.67-.58-.44ZM375.27,198.39c.23-.42.48-.88.84-1.2.25-.22.58-.45.74-.03.12.3.08.74.06,1.06-.08,1.19-.54,2.3-1.02,3.38-.46,1.03-.92,2.06-1.38,3.09-.01-.03-.02-.07-.03-.1-.55-2.07-.23-4.33.79-6.2Z"/>
          <path class="cls-8" d="M383.47,212.59c-.86.7-2.06.9-2.89,1.65-.45.4-.68.95-1.02,1.44-.18.26-.41.5-.71.61-.39.14-.57-.1-.81-.36-.85-.92-1.92-.41-2.44.58-.53,1.01-1.03,3.23-2.63,2.75-.58-.17-1.12-.53-1.75-.35-.59.17-.91.72-1.17,1.24-.16.33.46.66.62.34.17-.33.36-.76.71-.94.41-.22.84.04,1.23.18.7.27,1.37.26,2-.18.62-.43.97-1.1,1.26-1.78.22-.51.86-2.32,1.62-1.49.47.5.95.87,1.67.64.7-.22,1.07-.81,1.43-1.4.44-.72.96-1.08,1.71-1.43.34-.15.69-.3.99-.52.28-.2.31-.36.44-.65.06-.12-.12-.42-.26-.31Z"/>
          <path class="cls-8" d="M387.7,210.77s-.04-.09-.08-.12c-.02-.02-.04-.03-.06-.05-.04-.03-.08-.04-.12-.05-.03,0-.06,0-.09,0-.03,0-.05.02-.07.04-.03.03-.04.06-.05.1,0,.04,0,.08.02.12v.04s.05.09.08.13c.03.03.06.06.09.08.03.02.06.03.09.04.03,0,.06,0,.08-.02,0,0,.01,0,.02-.01.01,0,.02-.01.03-.02.03-.02.05-.07.05-.1,0,0,0,0,0-.01,0-.02,0-.04,0-.05,0-.04,0-.08-.02-.12Z"/>
        </g>
        <path class="cls-21" d="M346.21,226.73c1.16,2.53,10.01,3.36,14.1,1.53,0,0-1.35,6.07.57,8.43,0,0-3.51.12-8.93-3.41-5.42-3.53-5.73-6.55-5.73-6.55Z"/>
        <polygon class="cls-21" points="390.49 166.78 342.93 194.24 342.93 185.43 390.49 157.97 390.49 166.78"/>
      </g>
    </g>
    <g id="Window">
      <g>
        <path class="cls-10" d="M314.22,37.45c-.5,0-1.08.16-1.68.51L68.26,179.04c-2.09,1.21-3.78,4.14-3.78,6.55v196.63c0,1.9,1.06,3.52,2.54,3.52.39,0,.81-.12,1.24-.37l244.27-141.14c2.09-1.2,3.78-4.13,3.78-6.54V40.14c0-1.71-.85-2.69-2.09-2.69ZM315.04,237.69c0,1.97-1.44,4.45-3.14,5.43l-244.27,141.15c-.23.13-.43.19-.61.19-.67,0-1.26-1.05-1.26-2.24v-196.63c0-1.97,1.44-4.46,3.14-5.44L313.17,39.06c.5-.28.85-.34,1.05-.34.71,0,.82.89.82,1.42v197.55Z"/>
        <path class="cls-8" d="M315.04,40.14v197.55c0,1.97-1.44,4.45-3.14,5.43l-244.27,141.15c-.23.13-.43.19-.61.19-.67,0-1.26-1.05-1.26-2.24v-196.63c0-1.97,1.44-4.46,3.14-5.44L313.17,39.06c.5-.28.85-.34,1.05-.34.71,0,.82.89.82,1.42Z"/>
        <path class="cls-24" d="M61.24,382.76c.41.22,3.35,1.89,4.63,2.63-.87-.62-1.33-1.68-1.39-3.17v-184.27l-4.84-2.83v184.37c0,1.46.63,2.77,1.59,3.28Z"/>
        <path class="cls-26" d="M61.24,382.76c.41.22,3.35,1.89,4.63,2.63-.87-.62-1.33-1.68-1.39-3.17v-184.27l-4.84-2.83v184.37c0,1.46.63,2.77,1.59,3.28Z"/>
      </g>
      <g>
        <g>
          <path class="cls-21" d="M316.31,40.11c-.01-2.39-1.7-3.35-3.77-2.15L68.26,179.04c-2.09,1.2-3.78,4.13-3.78,6.54v12.36S316.31,52.51,316.31,52.51v-12.4Z"/>
          <g>
            <path class="cls-8" d="M292.51,55.36c1.12-.65,2.03-.12,2.03,1.17s-.91,2.87-2.03,3.52c-1.12.65-2.03.12-2.03-1.17s.91-2.87,2.03-3.52Z"/>
            <path class="cls-8" d="M300.64,50.67c1.12-.65,2.03-.12,2.03,1.17s-.91,2.87-2.03,3.52c-1.12.65-2.03.12-2.03-1.17s.91-2.87,2.03-3.52Z"/>
            <path class="cls-8" d="M308.76,45.98c1.12-.65,2.03-.12,2.03,1.17s-.91,2.87-2.03,3.52c-1.12.65-2.03.12-2.03-1.17s.91-2.87,2.03-3.52Z"/>
          </g>
          <g>
            <path class="cls-21" d="M59.65,195.12v-12.28c0-1.22.45-2.58,1.15-3.78l4.81,2.77c-.7,1.19-1.13,2.53-1.13,3.75v12.35l-4.84-2.82Z"/>
            <path class="cls-22" d="M59.65,195.12v-12.28c0-1.22.45-2.58,1.15-3.78l4.81,2.77c-.7,1.19-1.13,2.53-1.13,3.75v12.35l-4.84-2.82Z"/>
          </g>
          <g>
            <path class="cls-21" d="M312.53,37.96L68.26,179.04c-1.03.61-1.98,1.63-2.66,2.8l-4.8-2.78c.68-1.16,1.6-2.17,2.63-2.76L307.71,35.22c1.08-.63,2.04-.64,2.74-.23.68.42,3.81,2.2,4.61,2.63-.67-.32-1.56-.23-2.53.33Z"/>
            <path class="cls-4" d="M312.53,37.96L68.26,179.04c-1.03.61-1.98,1.63-2.66,2.8l-4.8-2.78c.68-1.16,1.6-2.17,2.63-2.76L307.71,35.22c1.08-.63,2.04-.64,2.74-.23.68.42,3.81,2.2,4.61,2.63-.67-.32-1.56-.23-2.53.33Z"/>
          </g>
        </g>
        <g>
          <g>
            <polygon class="cls-21" points="64.5 197.52 64.5 219.77 316.32 74.37 316.32 52.09 64.5 197.52"/>
            <polygon class="cls-6" points="64.5 197.52 64.5 219.77 316.32 74.37 316.32 52.09 64.5 197.52"/>
          </g>
          <polygon class="cls-21" points="64.48 197.94 59.65 195.11 59.65 216.99 64.48 219.77 64.48 197.94"/>
          <polygon class="cls-4" points="64.48 197.94 59.65 195.11 59.65 216.99 64.48 219.77 64.48 197.94"/>
          <g class="cls-11">
            <polygon class="cls-2" points="76.94 196.29 96.29 185.17 96.29 196.26 76.94 207.44 76.94 196.29"/>
            <g>
              <polygon class="cls-2" points="101.07 182.35 101.07 186.74 110.72 181.17 110.72 176.78 101.07 182.35"/>
              <polygon class="cls-2" points="101.07 189.12 101.07 193.51 110.72 187.94 110.72 183.55 101.07 189.12"/>
              <polygon class="cls-2" points="115.55 173.99 115.55 178.38 125.2 172.8 125.2 168.42 115.55 173.99"/>
              <polygon class="cls-2" points="115.55 180.76 115.55 185.15 125.2 179.57 125.2 175.19 115.55 180.76"/>
              <polygon class="cls-2" points="130.03 165.63 130.03 170.02 139.68 164.44 139.68 160.06 130.03 165.63"/>
              <polygon class="cls-2" points="130.03 172.4 130.03 176.79 139.68 171.21 139.68 166.83 130.03 172.4"/>
            </g>
            <g>
              <polygon class="cls-2" points="173.46 140.56 173.46 144.95 183.11 139.37 183.11 134.99 173.46 140.56"/>
              <polygon class="cls-2" points="173.46 147.33 173.46 151.72 183.11 146.14 183.11 141.76 173.46 147.33"/>
              <polygon class="cls-2" points="187.93 132.2 187.94 136.59 197.59 131.01 197.59 126.63 187.93 132.2"/>
              <polygon class="cls-2" points="187.93 138.97 187.94 143.36 197.59 137.78 197.59 133.4 187.93 138.97"/>
              <polygon class="cls-2" points="202.41 123.84 202.41 128.23 212.07 122.65 212.07 118.27 202.41 123.84"/>
              <polygon class="cls-2" points="202.41 130.61 202.41 134.99 212.07 129.42 212.07 125.04 202.41 130.61"/>
            </g>
            <polygon class="cls-2" points="144.5 157.28 168.63 143.35 168.63 154.49 144.51 168.42 144.5 157.28"/>
            <polygon class="cls-2" points="216.9 115.48 236.25 104.37 236.25 115.46 216.89 126.63 216.9 115.48"/>
            <g>
              <polygon class="cls-2" points="241.03 101.55 241.03 105.94 250.68 100.36 250.68 95.98 241.03 101.55"/>
              <polygon class="cls-2" points="241.03 108.32 241.03 112.71 250.68 107.13 250.68 102.75 241.03 108.32"/>
              <polygon class="cls-2" points="255.5 93.19 255.51 97.58 265.16 92 265.16 87.62 255.5 93.19"/>
              <polygon class="cls-2" points="255.5 99.96 255.51 104.35 265.16 98.77 265.16 94.39 255.5 99.96"/>
              <polygon class="cls-2" points="269.98 84.83 269.98 89.22 279.64 83.64 279.64 79.26 269.98 84.83"/>
              <polygon class="cls-2" points="269.98 91.6 269.98 95.99 279.64 90.41 279.64 86.03 269.98 91.6"/>
            </g>
            <polygon class="cls-2" points="284.46 76.48 308.59 62.55 308.59 73.69 284.47 87.62 284.46 76.48"/>
          </g>
        </g>
        <g>
          <path class="cls-25" d="M207.61,107.61v.82c0,1.31.92,1.84,2.06,1.19l58.62-33.85c1.14-.66,2.06-2.25,2.06-3.56v-.82c0-1.31-.92-1.84-2.06-1.19l-58.62,33.85c-1.14.66-2.06,2.25-2.06,3.56Z"/>
          <path class="cls-20" d="M270.35,72.21v-.82c0-1.31-.92-1.84-2.06-1.19l-7.59,4.39h0v5.57h0l7.59-4.38c1.14-.66,2.06-2.25,2.06-3.56Z"/>
        </g>
      </g>
      <g>
        <path class="cls-10" d="M308.83,188.21c-4.1,1.86-7.06,3.21-8.23,5.78-1.19,2.61-.56,5.06.34,6.38.72,1.04.87,2.21.87,3.01,0,2.83-1.99,6.29-4.44,7.7-2.45,1.41-4.44.26-4.44-2.57,0-.8.15-2.14.87-4.01.9-2.35,1.52-5.53.33-6.76-1.14-1.18-3.46.47-6.97,2.98-1.94,1.39-4.34,3.1-7.08,4.7.02-2.69.08-5.24.13-7.49.17-7.78.29-12.92-1.14-14.19-1.25-1.11-3.08.91-4.27,2.98-.95,1.65-1.76,2.35-2.28,2.65-1.84,1.06-3.34-1.14-3.34-4.91s1.5-7.7,3.34-8.76c.52-.3,1.34-.54,2.28.02,1.19.7,3.02.61,4.27-1.95,1.66-3.4,1.34-10.08.9-19.33-.05-1.03-.1-2.09-.15-3.18,1.59-.92,3.08-1.83,4.52-2.7,5.15-3.13,8.87-5.39,10.12-4.09.98,1.02.41,3.78-.37,5.84-.79,2.08-.96,3.6-.96,4.51,0,3.24,2.2,4.6,4.91,3.03,2.71-1.56,4.91-5.47,4.91-8.71,0-.91-.17-2.24-.96-3.4-.79-1.15-1.36-3.25-.37-5.41,1.26-2.76,4.8-4.7,9.7-7.39,1.4-.77,2.84-1.56,4.4-2.46v-.73c-1.56.9-3,1.69-4.39,2.46-5.02,2.75-8.65,4.74-10.05,7.82-1.19,2.61-.56,5.06.34,6.38.72,1.04.87,2.22.87,3.01,0,2.83-1.99,6.29-4.44,7.7s-4.44.26-4.44-2.57c0-.8.15-2.14.87-4.01.9-2.35,1.53-5.53.34-6.76-1.39-1.44-5.2.87-10.48,4.07-1.45.88-2.94,1.78-4.54,2.71-.41-9.36-.69-19.54,1.07-23.14,1.03-2.11,2.61-2.15,3.65-1.54,1.05.62,1.98.34,2.57,0,2.1-1.21,3.81-5.6,3.81-9.77s-1.71-6.58-3.81-5.37c-.59.34-1.52,1.13-2.57,2.97-1.04,1.81-2.62,3.6-3.65,2.68-1.71-1.52-1.34-10.13-.88-21.02l-.48.23c-.49,11.52-.84,19.85,1.03,21.52,1.25,1.11,3.08-.91,4.27-2.98.95-1.65,1.76-2.35,2.28-2.65,1.84-1.06,3.34,1.14,3.34,4.91s-1.5,7.7-3.34,8.76c-.52.3-1.34.54-2.28-.02-1.19-.7-3.02-.61-4.27,1.95-1.72,3.52-1.75,11.71-1.22,23.76-1.46.85-2.81,1.66-4.03,2.39-5.03,3.02-8.06,4.85-9.34,3.52-.98-1.02-.42-3.78.37-5.83.8-2.08.96-3.6.96-4.51,0-3.24-2.2-4.6-4.91-3.03-2.71,1.56-4.91,5.47-4.91,8.71,0,.91.17,2.24.96,3.4.79,1.15,1.36,3.25.37,5.41-1.26,2.77-5.28,4.98-10.36,7.77-1.35.74-2.75,1.51-4.2,2.35-.45-10.14-.64-18.17,1.07-21.68,1.03-2.11,2.61-2.15,3.65-1.54,1.05.62,1.98.34,2.57,0,2.1-1.21,3.81-5.6,3.81-9.77s-1.71-6.58-3.81-5.37c-.59.34-1.52,1.13-2.57,2.97-1.04,1.81-2.62,3.6-3.65,2.68-1.76-1.57-1.31-12.16-.88-22.4l-.48.23c-.54,12.79-.76,21.29,1.03,22.89,1.25,1.11,3.08-.91,4.27-2.98.95-1.65,1.76-2.35,2.28-2.65,1.84-1.06,3.34,1.14,3.34,4.91s-1.5,7.7-3.34,8.76c-.52.3-1.34.54-2.28-.02-1.19-.7-3.02-.61-4.27,1.95-1.86,3.81-1.69,11.64-1.22,22.29-2.74,1.6-5.18,3.34-7.16,4.75-3.38,2.41-5.83,4.15-6.81,3.13-.98-1.02-.41-3.78.37-5.84.79-2.08.96-3.6.96-4.51,0-3.24-2.2-4.6-4.91-3.03-2.71,1.56-4.91,5.47-4.91,8.71,0,.91.17,2.24.96,3.4.79,1.15,1.36,3.25.37,5.41-1,2.19-3.43,3.26-6.81,4.76-1.98.88-4.23,1.88-6.79,3.34,0-1.08.02-2.14.03-3.16.09-10.16.16-17.51-1.51-19-1.25-1.11-3.08.91-4.27,2.98-.95,1.65-1.76,2.35-2.28,2.65-1.84,1.06-3.34-1.14-3.34-4.91s1.5-7.7,3.34-8.76c.52-.3,1.34-.54,2.28.02,1.19.7,3.02.61,4.27-1.95,1.88-3.84,1.93-11.95,1.44-22.95l-.48.32c.42,9.34.55,18.51-1.3,22.28-1.03,2.11-2.61,2.15-3.65,1.54-1.05-.62-1.98-.34-2.57,0-2.1,1.21-3.81,5.6-3.81,9.77s1.71,6.58,3.81,5.36c.59-.34,1.52-1.13,2.57-2.97,1.04-1.81,2.62-3.6,3.65-2.68,1.52,1.36,1.46,8.57,1.37,18.54,0,1.03-.02,2.08-.03,3.16-1.45.83-2.84,1.6-4.18,2.33-5.4,2.97-9.31,5.11-10.72,8.2-1.19,2.61-.56,5.06.34,6.38.72,1.04.87,2.22.87,3.01,0,2.83-1.99,6.29-4.44,7.7-2.45,1.41-4.44.26-4.44-2.57,0-.8.15-2.14.87-4.01.9-2.35,1.53-5.53.34-6.76-1.41-1.46-4.51.41-9.63,3.5-1.27.77-2.67,1.61-4.19,2.49,0-1.13.02-2.22.03-3.27.09-9.93.15-15.93-1.52-17.41-1.25-1.11-3.08.91-4.27,2.98-.95,1.65-1.76,2.35-2.28,2.65-1.84,1.06-3.34-1.14-3.34-4.91s1.5-7.7,3.34-8.76c.52-.3,1.34-.54,2.28.02,1.19.7,3.02.6,4.27-1.95,1.58-3.24,2.04-10.98,1.44-24.36l-.48.32c.58,12.97.15,20.72-1.3,23.69-1.03,2.11-2.61,2.15-3.65,1.54-1.05-.62-1.98-.34-2.57,0-2.1,1.21-3.81,5.6-3.81,9.77s1.71,6.58,3.81,5.37c.59-.34,1.52-1.13,2.57-2.97,1.04-1.81,2.62-3.6,3.65-2.68,1.51,1.35,1.46,7.56,1.37,16.96-.01,1.05-.02,2.15-.03,3.28-1.61.93-3.1,1.84-4.55,2.72-5.14,3.12-8.85,5.38-10.1,4.09-.98-1.02-.42-3.78.37-5.84.79-2.08.96-3.6.96-4.51,0-3.24-2.2-4.6-4.91-3.03-2.71,1.56-4.91,5.47-4.91,8.71,0,.91.17,2.24.96,3.4.79,1.15,1.36,3.25.37,5.41-1.26,2.75-4.69,4.64-9.44,7.24-1.25.69-2.67,1.46-4.15,2.32,0-1.07.02-2.13.03-3.15.09-10.16.16-17.51-1.51-19-1.25-1.11-3.08.91-4.27,2.98-.95,1.65-1.76,2.35-2.28,2.65-1.84,1.06-3.34-1.14-3.34-4.91s1.5-7.7,3.34-8.76c.52-.3,1.34-.54,2.28.02,1.19.7,3.02.61,4.27-1.95,1.88-3.84,1.93-11.95,1.44-22.95l-.48.32c.42,9.34.55,18.51-1.3,22.28-1.03,2.11-2.61,2.15-3.65,1.54-1.05-.62-1.98-.34-2.57,0-2.1,1.21-3.81,5.6-3.81,9.77s1.71,6.58,3.81,5.36c.59-.34,1.52-1.13,2.57-2.97,1.04-1.81,2.62-3.6,3.65-2.68,1.52,1.36,1.46,8.57,1.37,18.54,0,1.03-.02,2.08-.03,3.16-1.45.83-2.84,1.6-4.18,2.33-5.4,2.97-9.31,5.11-10.72,8.2-1.19,2.61-.56,5.06.34,6.38.72,1.04.87,2.22.87,3.01,0,2.83-1.99,6.29-4.44,7.7s-4.44.26-4.44-2.57c0-.8.15-2.14.87-4.01.9-2.35,1.53-5.53.34-6.76-1.39-1.44-4.64.54-9.56,3.54-1.35.82-2.87,1.75-4.5,2.69-.11-2.35-.24-4.57-.37-6.72-.45-7.39-.8-13.23.49-15.87,1.03-2.11,2.61-2.15,3.65-1.54,1.05.62,1.98.34,2.57,0,2.1-1.21,3.81-5.6,3.81-9.77s-1.71-6.58-3.81-5.37c-.59.34-1.52,1.13-2.57,2.97-1.04,1.81-2.62,3.6-3.65,2.68-1.21-1.07-.88-6.01-.43-12.84.17-2.62.37-5.59.5-8.74l-.48.23c-.13,3.13-.33,6.09-.5,8.71-.47,7.05-.8,12.14.57,13.36,1.25,1.11,3.08-.91,4.27-2.98.95-1.65,1.76-2.35,2.28-2.65,1.84-1.06,3.34,1.14,3.34,4.91s-1.5,7.7-3.34,8.76c-.52.3-1.34.54-2.28-.02-1.19-.7-3.02-.61-4.27,1.95-1.46,2.98-1.11,8.67-.64,16.55.13,2.13.26,4.33.37,6.66-1.49.86-2.92,1.64-4.29,2.39-5.34,2.92-9.19,5.03-10.58,8.09-1.19,2.61-.56,5.06.34,6.38.72,1.05.87,2.22.87,3.01,0,2.83-1.99,6.29-4.44,7.7s-4.44.26-4.44-2.57c0-.8.15-2.14.87-4.01.9-2.35,1.53-5.53.34-6.76-1.39-1.44-4.74.6-9.82,3.69-1.42.86-3.03,1.84-4.74,2.83v.73c1.72-.99,3.33-1.97,4.75-2.83,4.95-3.01,8.22-5,9.47-3.71.98,1.02.41,3.78-.37,5.84-.79,2.08-.96,3.6-.96,4.51,0,3.24,2.2,4.6,4.91,3.03,2.71-1.56,4.91-5.47,4.91-8.71,0-.91-.17-2.24-.96-3.4-.79-1.15-1.36-3.25-.37-5.41,1.25-2.74,5.22-4.91,10.23-7.66,1.39-.76,2.83-1.55,4.34-2.42h0s0,0,0,0c.09,1.88.18,3.67.27,5.35.41,7.67.71,13.21-.65,16.01-1.03,2.11-2.61,2.15-3.65,1.54-1.05-.62-1.98-.34-2.57,0-2.1,1.21-3.81,5.6-3.81,9.77s1.71,6.58,3.81,5.36c.59-.34,1.52-1.13,2.57-2.97,1.04-1.81,2.62-3.6,3.65-2.68,1.28,1.14,1.16,6.73.99,14.46-.05,2.28-.1,4.85-.13,7.51l-.32.15s0,.03,0,.04l-1.12.65c-6.71,3.89-12,6.96-13.5,5.4-.98-1.02-.41-3.78.37-5.84.79-2.08.96-3.6.96-4.51,0-3.24-2.2-4.6-4.91-3.03-2.71,1.56-4.91,5.47-4.91,8.71,0,.91.17,2.24.96,3.4.79,1.15,1.36,3.25.37,5.41-1.53,3.34-6.61,6.26-13.03,9.97l-1.28.74v.73l1.28-.74c.42-.24.82-.47,1.22-.71,6.16-3.56,10.59-6.26,12.15-9.69,1.19-2.61.56-5.06-.34-6.38-.72-1.04-.87-2.21-.87-3.01,0-2.83,1.99-6.29,4.44-7.7,2.45-1.41,4.44-.26,4.44,2.57,0,.8-.15,2.14-.87,4.01-.9,2.35-1.53,5.53-.34,6.76,1.64,1.7,6.76-1.26,13.85-5.38l1.09-.63c-.47,11.11-.76,19.1,1.06,20.73,1.25,1.11,3.08-.91,4.27-2.98.95-1.65,1.76-2.35,2.28-2.65,1.84-1.06,3.34,1.14,3.34,4.91s-1.5,7.7-3.34,8.76c-.52.3-1.34.54-2.28-.01-1.19-.7-3.02-.61-4.27,1.95-1.88,3.84-1.69,14.4-1.2,25.23l.48-.32c-.45-10.15-.68-21.01,1.06-24.57,1.03-2.11,2.61-2.15,3.65-1.54,1.05.62,1.98.34,2.57,0,2.1-1.21,3.81-5.59,3.81-9.77s-1.71-6.58-3.81-5.37c-.59.34-1.52,1.13-2.57,2.97-1.04,1.81-2.62,3.6-3.65,2.68-1.67-1.49-1.36-9.74-.91-20.28l.11-.06h0s1.29-.74,1.29-.74c.42-.24.82-.48,1.23-.71,6.16-3.56,10.58-6.26,12.15-9.68,1.19-2.61.56-5.06-.34-6.38-.72-1.04-.87-2.22-.87-3.01,0-2.83,1.99-6.29,4.44-7.7s4.44-.26,4.44,2.57c0,.8-.15,2.14-.87,4.01-.9,2.35-1.53,5.53-.34,6.76,1.64,1.7,5.7-.65,12.42-4.55l1.6-.92c.39,9.11.48,17.94-1.32,21.62-1.03,2.11-2.61,2.15-3.65,1.54-1.05-.62-1.98-.34-2.57,0-2.1,1.21-3.81,5.6-3.81,9.77s1.71,6.58,3.81,5.37c.59-.34,1.52-1.13,2.57-2.97,1.04-1.81,2.62-3.6,3.65-2.68,1.53,1.36,1.45,9.9,1.36,19.78,0,1.12-.02,2.26-.03,3.43l.48-.27c0-1.16.02-2.3.03-3.42.09-10.47.17-18.74-1.51-20.24-1.25-1.11-3.08.91-4.27,2.98-.95,1.65-1.76,2.35-2.28,2.65-1.84,1.06-3.34-1.14-3.34-4.91s1.5-7.7,3.34-8.76c.52-.3,1.34-.54,2.28.02,1.19.7,3.02.61,4.27-1.95,1.83-3.75,1.93-11.59,1.47-22.21,2.05-1.17,3.93-2.11,5.59-2.95,1.42-.71,2.68-1.34,3.77-1.97,2.11-1.22,3.59-2.43,4.42-4.24,1.19-2.61.56-5.06-.34-6.38-.72-1.05-.87-2.22-.87-3.01,0-2.83,1.99-6.29,4.44-7.7s4.44-.26,4.44,2.57c0,.8-.15,2.14-.87,4.01-.9,2.35-1.53,5.53-.34,6.76,1.24,1.28,4.14-.62,8.54-3.51,1.93-1.27,4.12-2.7,6.51-4.08h0s.07-.04.11-.06c.54,12.62.11,20.19-1.32,23.11-1.03,2.11-2.61,2.15-3.65,1.54-1.05-.62-1.98-.34-2.57,0-2.1,1.21-3.81,5.6-3.81,9.77s1.71,6.58,3.81,5.37c.59-.34,1.52-1.13,2.57-2.97,1.04-1.81,2.62-3.6,3.65-2.68,1.44,1.29,1.37,7.84,1.26,16.91-.02,1.58-.04,3.23-.05,4.95l.48-.27c.01-1.72.03-3.37.05-4.95.11-9.61.18-15.95-1.41-17.37-1.25-1.11-3.08.91-4.27,2.98-.95,1.65-1.76,2.35-2.28,2.65-1.84,1.06-3.34-1.14-3.34-4.91s1.5-7.7,3.34-8.76c.52-.3,1.34-.54,2.28.02,1.19.7,3.02.61,4.27-1.95,1.56-3.18,2.02-10.74,1.47-23.72,1.33-.76,2.59-1.46,3.81-2.13,1.2-.66,2.33-1.28,3.36-1.87,3.39-1.96,5.82-3.7,6.9-6.06,1.19-2.61.56-5.06-.34-6.38-.72-1.05-.87-2.22-.87-3.01,0-2.83,1.99-6.29,4.44-7.7,2.45-1.41,4.44-.26,4.44,2.57,0,.8-.15,2.14-.87,4.01-.9,2.35-1.53,5.53-.34,6.76,1.37,1.42,4.67-.59,9.67-3.65,1.39-.85,2.97-1.81,4.64-2.78-.09,2.03-.19,3.97-.28,5.79-.43,8.29-.73,14.27.79,15.63,1.25,1.11,3.08-.91,4.27-2.98.95-1.65,1.76-2.35,2.28-2.65,1.84-1.06,3.34,1.14,3.34,4.91s-1.5,7.7-3.34,8.76c-.52.3-1.34.54-2.28-.01-1.19-.7-3.02-.61-4.27,1.95-1.26,2.59-1.03,7.32-.71,13.87.16,3.18.34,6.79.36,10.7l.48-.28c-.03-3.93-.21-7.56-.36-10.75-.3-6.12-.54-10.94.56-13.2,1.03-2.11,2.61-2.15,3.65-1.54,1.05.62,1.98.34,2.57,0,2.1-1.21,3.81-5.6,3.81-9.77s-1.71-6.58-3.81-5.37c-.59.34-1.52,1.13-2.57,2.97-1.04,1.81-2.62,3.6-3.65,2.68-1.36-1.21-1.06-7.05-.64-15.12.09-1.84.19-3.8.28-5.86,1.49-.86,2.92-1.64,4.18-2.33,1.18-.65,2.26-1.24,3.25-1.81,3.25-1.88,5.46-3.5,6.54-5.85,1.19-2.61.56-5.06-.34-6.38-.72-1.05-.87-2.22-.87-3.01,0-2.83,1.99-6.29,4.44-7.7,2.45-1.41,4.44-.26,4.44,2.57,0,.8-.15,2.14-.87,4.01-.9,2.35-1.53,5.53-.34,6.76,1.39,1.44,4.73-.6,9.79-3.68,1.37-.83,2.91-1.77,4.55-2.72.13,2.87.32,5.51.49,7.84.45,6.25.77,10.76-.43,13.22-1.03,2.11-2.61,2.15-3.65,1.54-1.05-.62-1.98-.34-2.57,0-2.1,1.21-3.81,5.6-3.81,9.77s1.71,6.58,3.81,5.37c.59-.34,1.52-1.13,2.57-2.97,1.04-1.81,2.62-3.6,3.65-2.68,1.34,1.2.96,8.6.51,17.17-.11,2.17-.23,4.42-.33,6.68l.48-.23c.1-2.26.21-4.51.33-6.67.48-9.13.85-16.33-.65-17.68-1.25-1.11-3.08.91-4.27,2.98-.95,1.65-1.76,2.35-2.28,2.65-1.84,1.06-3.34-1.14-3.34-4.91s1.5-7.7,3.34-8.76c.52-.3,1.34-.54,2.28.01,1.19.7,3.02.61,4.27-1.95,1.37-2.81,1.06-7.23.58-13.92-.17-2.31-.35-4.92-.48-7.76l1.03-.59c.42-.24.82-.48,1.23-.71,6.16-3.56,10.58-6.26,12.15-9.68,1.19-2.61.56-5.06-.33-6.38-.72-1.04-.87-2.22-.87-3.01,0-2.83,1.99-6.29,4.44-7.7s4.44-.26,4.44,2.57c0,.8-.15,2.14-.87,4.01-.9,2.35-1.53,5.53-.33,6.76,1.64,1.7,6.57-1.16,13.37-5.1l1.45-.84c.08,1.77.17,3.47.25,5.06.41,7.86.71,13.54-.67,16.37-1.03,2.11-2.61,2.15-3.65,1.54-1.05-.62-1.98-.34-2.57,0-2.1,1.21-3.81,5.6-3.81,9.77s1.71,6.58,3.81,5.36c.59-.34,1.52-1.13,2.57-2.97,1.04-1.81,2.62-3.6,3.65-2.68,1.4,1.25,1.02,9.07.58,18.12-.09,1.83-.18,3.71-.26,5.61l.48-.23c.08-1.89.17-3.77.26-5.6.47-9.63.84-17.23-.72-18.63-1.25-1.11-3.08.91-4.27,2.98-.95,1.65-1.76,2.35-2.28,2.65-1.84,1.06-3.34-1.14-3.34-4.91s1.5-7.7,3.34-8.76c.52-.3,1.34-.54,2.28.01,1.19.7,3.02.61,4.27-1.95,1.55-3.17,1.24-8.99.82-17.05-.08-1.58-.17-3.25-.25-5.01,2.75-1.61,5.16-3.33,7.11-4.72,3.37-2.41,5.6-4,6.58-2.98.98,1.02.41,3.78-.37,5.83-.8,2.08-.96,3.6-.96,4.51,0,3.24,2.2,4.6,4.91,3.03,2.71-1.56,4.91-5.47,4.91-8.71,0-.91-.17-2.24-.96-3.4-.79-1.15-1.35-3.25-.37-5.41,1.02-2.23,4.03-3.6,7.85-5.33,2.17-.99,4.62-2.1,7.21-3.59v-.73c-2.56,1.48-5.01,2.59-7.17,3.58ZM135.38,289.26c-6.59,3.82-10.58,6.13-12.08,4.58-.98-1.02-.41-3.78.37-5.84.79-2.08.96-3.6.96-4.51,0-3.24-2.2-4.6-4.91-3.03-2.71,1.56-4.91,5.47-4.91,8.71,0,.91.17,2.24.96,3.4.79,1.15,1.36,3.25.37,5.41-1.53,3.34-6.6,6.26-13.03,9.96l-1.04.6c.02-2.66.08-5.22.13-7.49.17-7.93.3-13.65-1.14-14.93-1.25-1.11-3.08.91-4.27,2.98-.95,1.65-1.76,2.35-2.28,2.65-1.84,1.06-3.34-1.14-3.34-4.91s1.5-7.7,3.34-8.76c.52-.3,1.34-.54,2.28.02,1.19.7,3.02.61,4.27-1.95,1.53-3.14,1.24-8.53.8-16.69-.09-1.66-.18-3.43-.27-5.3,1.63-.94,3.14-1.86,4.48-2.68,4.8-2.92,7.96-4.84,9.2-3.56.98,1.02.41,3.78-.37,5.84-.79,2.08-.96,3.6-.96,4.51,0,3.24,2.2,4.6,4.91,3.03,2.71-1.56,4.91-5.47,4.91-8.71,0-.91-.17-2.24-.96-3.4-.79-1.15-1.36-3.25-.37-5.41,1.27-2.77,5.28-4.98,10.36-7.77,1.34-.73,2.72-1.5,4.17-2.33-.12,2.81-.29,5.5-.45,8.09-.5,7.95-.86,13.7.55,14.95,1.25,1.11,3.08-.91,4.27-2.98.95-1.65,1.76-2.35,2.28-2.65,1.84-1.06,3.34,1.14,3.34,4.91s-1.5,7.7-3.34,8.76c-.52.3-1.34.54-2.28-.01-1.19-.7-3.02-.61-4.27,1.95-1.43,2.92-1.12,7.65-.67,14.8.13,2.08.28,4.43.4,6.94l-1.42.82ZM166.22,271.7c-4.11,2.7-7.08,4.65-8.17,3.52-.98-1.02-.41-3.78.37-5.84.79-2.08.96-3.6.96-4.51,0-3.24-2.2-4.6-4.91-3.03-2.71,1.56-4.91,5.47-4.91,8.71,0,.91.17,2.24.96,3.4.79,1.15,1.36,3.25.37,5.41-1.1,2.42-3.92,3.83-7.81,5.77-1.68.84-3.57,1.79-5.65,2.98,0,0,0-.01,0-.02l-.15.1s0,0,0,0c-.12-2.55-.27-4.93-.4-7.04-.43-6.7-.74-11.53.52-14.11,1.03-2.11,2.61-2.15,3.65-1.54,1.05.62,1.98.34,2.57,0,2.1-1.21,3.81-5.6,3.81-9.77s-1.71-6.58-3.81-5.37c-.59.34-1.52,1.13-2.57,2.97-1.04,1.81-2.62,3.6-3.65,2.68-1.23-1.1-.87-6.98-.4-14.43.16-2.62.33-5.33.46-8.16,1.49-.85,2.91-1.63,4.16-2.32,1.17-.64,2.26-1.24,3.24-1.81,3.26-1.88,5.48-3.51,6.55-5.87,1.19-2.61.56-5.06-.33-6.38-.72-1.04-.87-2.22-.87-3.01,0-2.83,1.99-6.28,4.44-7.7s4.44-.26,4.44,2.57c0,.8-.15,2.14-.87,4.01-.9,2.35-1.53,5.53-.33,6.76,1.39,1.44,5.19-.87,10.46-4.06,1.44-.87,2.93-1.78,4.52-2.7l-.1,2.33c-.44,10.04-.76,17.29.96,18.82,1.25,1.11,3.08-.91,4.27-2.98.95-1.65,1.76-2.35,2.28-2.65,1.84-1.06,3.34,1.14,3.34,4.91s-1.5,7.7-3.34,8.76c-.52.3-1.34.54-2.28-.02-1.19-.7-3.02-.61-4.27,1.95-1.72,3.52-1.75,11.68-1.22,23.71-2.3,1.34-4.41,2.73-6.28,3.95ZM203.54,249.82c-4.87,2.98-8.09,4.94-9.32,3.67-.98-1.02-.41-3.78.37-5.84.79-2.08.96-3.6.96-4.51,0-3.24-2.2-4.6-4.91-3.03-2.71,1.56-4.91,5.47-4.91,8.71,0,.91.17,2.24.96,3.4.79,1.15,1.36,3.25.37,5.41-1.26,2.76-5.08,4.85-9.9,7.51-1.33.73-2.72,1.49-4.18,2.34-.41-9.33-.68-19.49,1.07-23.09,1.03-2.11,2.61-2.15,3.65-1.54,1.05.62,1.98.34,2.57,0,2.1-1.21,3.81-5.6,3.81-9.77s-1.71-6.58-3.81-5.37c-.59.34-1.52,1.13-2.57,2.97-1.04,1.81-2.62,3.6-3.65,2.68-1.55-1.38-1.24-8.49-.81-18.32l.1-2.39h.01c1.52-.89,2.92-1.74,4.2-2.51,4.82-2.91,8.01-4.83,9.27-3.52.98,1.02.41,3.78-.37,5.84-.79,2.08-.96,3.6-.96,4.51,0,3.24,2.2,4.6,4.91,3.03,2.71-1.56,4.91-5.47,4.91-8.71,0-.91-.17-2.24-.96-3.4-.79-1.15-1.36-3.25-.37-5.41,1.27-2.77,5.28-4.97,10.36-7.77,1.34-.73,2.72-1.5,4.17-2.33-.14,3.19-.36,6.24-.55,8.95-.5,7.03-.86,12.12.49,13.32,1.25,1.11,3.08-.91,4.27-2.98.95-1.65,1.76-2.35,2.28-2.65,1.84-1.06,3.34,1.14,3.34,4.91s-1.5,7.7-3.34,8.76c-.52.3-1.34.54-2.28-.02-1.19-.7-3.02-.61-4.27,1.95-1.44,2.95-1.11,8.26-.65,15.61.13,2.16.27,4.4.39,6.82-1.68.98-3.26,1.94-4.66,2.79ZM243.41,226.64c-1.63.95-3.16,1.88-4.52,2.71-4.94,3-8.2,4.99-9.44,3.7-.98-1.02-.41-3.78.37-5.84.79-2.08.96-3.6.96-4.51,0-3.24-2.2-4.6-4.91-3.03-2.71,1.56-4.91,5.47-4.91,8.71,0,.91.17,2.24.96,3.4.79,1.15,1.36,3.25.37,5.41-1.26,2.75-4.69,4.63-9.43,7.23-1.26.69-2.69,1.48-4.19,2.33-.11-2.44-.25-4.7-.39-6.88-.43-6.88-.77-12.32.51-14.92,1.03-2.11,2.61-2.15,3.65-1.54,1.05.62,1.98.34,2.57,0,2.1-1.21,3.81-5.6,3.81-9.77s-1.71-6.58-3.81-5.37c-.59.34-1.52,1.13-2.57,2.97-1.04,1.81-2.62,3.6-3.65,2.68-1.17-1.05-.81-6.23-.34-12.78.19-2.72.41-5.8.55-9.02,2.54-1.45,4.79-2.45,6.77-3.33,1.52-.67,2.82-1.25,3.9-1.87,1.52-.88,2.62-1.85,3.29-3.33,1.19-2.61.56-5.06-.34-6.38-.72-1.04-.87-2.21-.87-3.01,0-2.83,1.99-6.29,4.44-7.7s4.44-.26,4.44,2.57c0,.8-.15,2.14-.87,4.01-.9,2.35-1.53,5.53-.34,6.76,1.15,1.19,3.55-.53,7.2-3.13,2.07-1.47,4.41-3.14,7.12-4.72l-.04,1.05c-.47,11.06-.85,19.8.94,21.39,1.25,1.11,3.08-.91,4.27-2.98.95-1.65,1.76-2.35,2.28-2.65,1.84-1.06,3.34,1.14,3.34,4.91s-1.5,7.7-3.34,8.76c-.52.3-1.34.54-2.28-.01-1.19-.7-3.02-.61-4.27,1.95-1.86,3.81-1.69,11.62-1.22,22.24ZM279.74,198.17c-.05,2.26-.11,4.82-.13,7.52l-1.44.84c-6.69,3.87-11.53,6.68-13.03,5.13-.98-1.02-.41-3.78.37-5.84.79-2.08.96-3.6.96-4.51,0-3.24-2.2-4.6-4.91-3.03-2.71,1.56-4.91,5.47-4.91,8.71,0,.91.17,2.24.96,3.4.79,1.15,1.35,3.25.37,5.41-1.52,3.34-6.6,6.26-13.03,9.96l-1.06.61c-.45-10.11-.64-18.12,1.07-21.62,1.03-2.11,2.61-2.15,3.65-1.54,1.05.62,1.98.34,2.57,0,2.1-1.21,3.81-5.59,3.81-9.77s-1.71-6.58-3.81-5.37c-.59.34-1.52,1.13-2.57,2.97-1.04,1.81-2.62,3.6-3.65,2.68-1.62-1.45-1.24-10.46-.79-20.89l.05-1.1c1.46-.84,2.85-1.61,4.2-2.35,5.41-2.97,9.31-5.11,10.72-8.2,1.19-2.61.56-5.06-.34-6.38-.72-1.05-.87-2.22-.87-3.01,0-2.83,1.99-6.29,4.44-7.7,2.45-1.41,4.44-.26,4.44,2.57,0,.8-.15,2.14-.87,4.01-.9,2.35-1.53,5.53-.33,6.76,1.12,1.16,3.29.24,6.69-1.72.91-.52,1.91-1.12,2.99-1.78,1.23-.74,2.59-1.56,4.06-2.41.05,1.1.1,2.18.15,3.23.41,8.71.74,15.6-.76,18.66-1.03,2.11-2.61,2.15-3.65,1.54-1.05-.62-1.98-.34-2.57,0-2.1,1.21-3.81,5.6-3.81,9.77s1.71,6.58,3.81,5.37c.59-.34,1.52-1.13,2.57-2.97,1.04-1.81,2.62-3.6,3.65-2.68,1.27,1.14,1.16,6.42.99,13.72Z"/>
        <path class="cls-10" d="M218.35,213.92c0,3.77-1.5,7.7-3.34,8.76-.51.3-1.33.54-2.28-.02-1.19-.69-3.02-.6-4.27,1.95-1.44,2.95-1.11,8.26-.65,15.61.14,2.16.28,4.39.39,6.81-1.69.98-3.26,1.94-4.66,2.8-4.87,2.97-8.08,4.94-9.31,3.67-.99-1.02-.42-3.78.37-5.84.79-2.08.96-3.6.96-4.51,0-3.24-2.2-4.6-4.91-3.03-2.71,1.56-4.92,5.47-4.92,8.7,0,.91.17,2.24.96,3.4.79,1.15,1.36,3.26.38,5.41-1.27,2.76-5.08,4.85-9.91,7.51-1.33.73-2.71,1.49-4.18,2.33-.41-9.33-.69-19.49,1.07-23.09,1.03-2.11,2.61-2.15,3.65-1.54,1.06.62,1.98.34,2.57,0,2.1-1.21,3.81-5.59,3.81-9.77s-1.71-6.57-3.81-5.36c-.59.34-1.51,1.13-2.57,2.96-1.04,1.82-2.62,3.6-3.65,2.68-1.55-1.38-1.24-8.48-.81-18.32l.1-2.38h.02c1.52-.89,2.92-1.74,4.2-2.51,4.82-2.91,8-4.83,9.27-3.52.98,1.02.41,3.78-.37,5.83-.8,2.08-.96,3.6-.96,4.52,0,3.23,2.2,4.59,4.91,3.03,2.71-1.57,4.91-5.47,4.91-8.71,0-.91-.16-2.24-.96-3.4-.78-1.15-1.35-3.25-.37-5.41,1.27-2.77,5.28-4.97,10.37-7.77,1.33-.73,2.72-1.5,4.16-2.33-.14,3.19-.35,6.25-.54,8.95-.5,7.04-.86,12.12.48,13.32,1.25,1.11,3.08-.91,4.27-2.98.95-1.65,1.77-2.36,2.28-2.66,1.84-1.06,3.34,1.14,3.34,4.91Z"/>
        <path class="cls-9" d="M135.66,321.72c1.52,1.36,1.45,9.9,1.36,19.78-.01,1.12-.02,2.27-.03,3.43l-35.41,20.42c-.46-10.15-.68-21.01,1.06-24.57,1.02-2.11,2.6-2.14,3.65-1.53,1.05.61,1.97.34,2.57-.01,2.1-1.21,3.81-5.59,3.81-9.76s-1.71-6.58-3.81-5.37c-.6.34-1.52,1.14-2.57,2.97-1.05,1.81-2.63,3.6-3.65,2.68-1.67-1.49-1.36-9.75-.92-20.29l.11-.06,1.29-.74c.41-.24.82-.47,1.22-.71,6.16-3.55,10.59-6.25,12.15-9.68,1.19-2.61.56-5.06-.34-6.38-.71-1.04-.86-2.21-.86-3.01,0-2.83,1.99-6.28,4.44-7.7,2.44-1.41,4.43-.26,4.43,2.58,0,.79-.15,2.14-.86,4.01-.9,2.35-1.53,5.53-.34,6.76,1.64,1.7,5.71-.65,12.42-4.55l1.6-.92c.39,9.11.48,17.93-1.32,21.62-1.03,2.11-2.61,2.15-3.65,1.54-1.06-.62-1.98-.34-2.57,0-2.11,1.21-3.82,5.6-3.82,9.77s1.71,6.58,3.82,5.36c.59-.34,1.51-1.13,2.57-2.96,1.04-1.81,2.62-3.6,3.65-2.68Z"/>
        <path class="cls-10" d="M290.43,116.37c0,3.77-1.49,7.7-3.33,8.76-.52.3-1.34.54-2.28-.02-1.19-.69-3.02-.6-4.27,1.95-1.72,3.53-1.75,11.71-1.22,23.76-1.46.85-2.81,1.66-4.04,2.4-5.02,3.02-8.05,4.84-9.33,3.52-.99-1.02-.42-3.78.37-5.84.79-2.08.96-3.6.96-4.51,0-3.24-2.2-4.6-4.91-3.03-2.71,1.56-4.92,5.47-4.92,8.71,0,.91.17,2.23.96,3.4.79,1.14,1.36,3.25.38,5.4-1.27,2.77-5.28,4.98-10.37,7.77-1.35.74-2.74,1.51-4.2,2.35-.45-10.14-.64-18.17,1.07-21.67,1.03-2.11,2.61-2.15,3.65-1.54,1.05.62,1.98.34,2.57,0,2.1-1.22,3.81-5.6,3.81-9.77s-1.71-6.58-3.81-5.36c-.59.34-1.52,1.13-2.57,2.96-1.04,1.81-2.62,3.6-3.65,2.68-1.76-1.57-1.32-12.16-.88-22.4l35.1-20.31c-.49,11.52-.84,19.85,1.03,21.52,1.25,1.11,3.08-.91,4.27-2.98.94-1.65,1.76-2.35,2.28-2.65,1.84-1.07,3.33,1.13,3.33,4.9Z"/>
      </g>
    </g>
    <g id="Puzzle_Piece" data-name="Puzzle Piece">
      <path class="cls-21" d="M358.45,380.73s-1.71-1-2.53-1.49c-7.7-4.58-13.79-8.19-17.57-8.14-2.81.04-4.21,1.68-4.55,3.07-.26,1.11-1.03,1.75-1.64,2.11-.41.24-.9.4-1.43.52.08-.17.13-.34.14-.53,0-.02,0-.04,0-.07-.02-1.62,0-9.41,0-9.41.09-2.39-6.4-5.99-15.09-10.4l-2.21,1.23c-7.6,4.4-12.19,7.06-15.74,7.01-2.33-.03-3.49-1.46-3.78-2.68-.29-1.23-1.18-1.96-1.86-2.36-2.42-1.4-6.95-1.07-10.07.74-1.86,1.07-2.81,2.42-2.78,3.63.02.84,0,8.21,0,9.4,0,.86.49,1.66,1.51,2.25.22.13.51.27.87.41-1.64.98-3.45,2.02-5.37,3.13l-1.6,1.01v9.47s13.1,9.14,17.23,9.09c2.82-.04,4.21-1.68,4.54-3.07.27-1.11,1.04-1.75,1.64-2.09.41-.24.9-.4,1.43-.52-.08.17-.12.34-.13.53v9.47c-.1,2.44,8.11,6.93,17.02,11.42l.51-.33,40.9-23.6.56-.32v-9.47Z"/>
      <g class="cls-7">
        <path d="M307.13,384.8c-2.82-1.63-6.84-1.96-8.97-.73-.6.35-1.37.99-1.64,2.1-.26,1.11-1.2,2.38-3,2.86v9.46c1.79-.49,2.74-1.75,3-2.85.27-1.11,1.04-1.75,1.64-2.1.41-.23.9-.4,1.43-.52.58-1.27,3.05-1.91,5.18-2.09,1.92-.15,3.03-.6,3.63-.94,2.13-1.23,1.55-3.56-1.27-5.19Z"/>
        <path d="M330.88,366.8c-.1,1.62-2.92,2.41-5.32,2.6-1.92.16-3.03.6-3.64.95-2.12,1.23-1.55,3.55,1.27,5.18,2.33,1.34,5.47,1.8,7.69,1.24v-.03s-.09.03-.14.04c.08-.16.13-.34.14-.53v-.14c-.02-1.74,0-9.07,0-9.31Z"/>
      </g>
      <polygon class="cls-7" points="316.47 414.45 316.47 404.98 358.45 380.73 358.45 390.2 316.47 414.45"/>
      <g>
        <path class="cls-8" d="M316.44,404.4c-4.79-2.42-16.59-8.41-16.48-10.83.04-1.2,2.54-1.96,4.85-2.15,2.01-.16,3.2-.63,3.85-1.01.99-.57,1.54-1.41,1.54-2.36,0-1.32-1.02-2.66-2.81-3.69-1.7-.98-3.84-1.54-5.88-1.54-1.43,0-2.67.28-3.59.81-.68.4-1.56,1.13-1.87,2.41-.29,1.22-1.52,2.65-4.06,2.69h0c-3.48,0-8.13-3.11-14.01-7.05-.74-.5-1.5-1-2.29-1.52l.95-.6c8.91-5.13,13.54-7.91,13.45-10.18-.08-2.1-3.92-2.57-5.1-2.67-2.03-.16-3.23-.64-3.87-1.01-.57-.33-1.25-.91-1.25-1.81,0-1.05.95-2.23,2.53-3.14,1.69-.98,3.86-1.54,5.94-1.54,1.45,0,2.73.29,3.63.8.6.35,1.37.98,1.63,2.04.34,1.39,1.65,3.03,4.26,3.07h0c3.75,0,8.34-2.66,15.95-7.06l2.01-1.12c5.6,2.84,14.66,7.47,14.58,9.81-.06,1.16-2.49,1.95-4.86,2.14-2.01.16-3.2.64-3.85,1.01-.99.57-1.53,1.41-1.53,2.36,0,1.31,1.02,2.66,2.8,3.68,1.7.98,3.85,1.55,5.9,1.55h0c1.42,0,2.66-.28,3.57-.81.69-.4,1.57-1.14,1.87-2.42.3-1.21,1.54-2.65,4.07-2.68h0c3.74,0,9.73,3.56,17.31,8.06l1.78,1.05-40.71,23.5-.29.19Z"/>
        <path class="cls-10" d="M315.81,357.52c4.59,2.33,14.14,7.24,14.07,9.22-.03.64-1.81,1.47-4.4,1.67-2.1.17-3.37.68-4.06,1.08-1.15.66-1.78,1.65-1.78,2.79,0,1.5,1.11,3,3.05,4.12,1.77,1.02,4.02,1.61,6.15,1.61,1.51,0,2.84-.3,3.82-.87,1.11-.64,1.84-1.59,2.11-2.73.25-1.04,1.35-2.27,3.59-2.3h.07c3.52,0,9.75,3.7,16.98,8l1.04.61-39.97,23.07h-.02s-.02.03-.02.03l-.03.02c-3.63-1.84-8.07-4.14-11.29-6.17-4.58-2.89-4.67-3.94-4.67-4.06.02-.63,1.79-1.45,4.39-1.67,2.11-.16,3.37-.67,4.06-1.07,1.15-.66,1.79-1.66,1.79-2.79,0-1.5-1.11-3-3.06-4.12-1.77-1.02-4-1.61-6.13-1.61-1.52,0-2.85.3-3.84.88-.77.44-1.76,1.28-2.11,2.73-.25,1.04-1.33,2.27-3.58,2.3h-.06c-3.26,0-7.85-3.08-13.67-6.97-.54-.36-1.08-.72-1.64-1.1l.28-.18c9.32-5.37,13.8-8.07,13.69-10.63-.09-2.45-3.92-3.02-5.56-3.15-1.94-.15-3.06-.6-3.66-.94-.67-.39-1.01-.85-1.01-1.37,0-.86.87-1.9,2.28-2.71,1.59-.92,3.72-1.47,5.69-1.47,1.36,0,2.56.26,3.38.73.52.3,1.18.84,1.39,1.72.38,1.56,1.85,3.41,4.74,3.45h.1c3.79,0,8.43-2.68,16.13-7.14l1.74-.97M315.79,356.39l-2.21,1.23c-7.54,4.36-12.12,7.02-15.65,7.02-.03,0-.06,0-.09,0-2.33-.03-3.49-1.46-3.78-2.68-.29-1.23-1.18-1.96-1.86-2.36-1.01-.58-2.39-.87-3.88-.87-2.08,0-4.37.55-6.19,1.6-3.14,1.81-3.7,4.41-1.27,5.81.68.4,1.95.91,4.08,1.08,2.11.17,4.59.84,4.64,2.19.09,2.08-5.79,5.46-13.22,9.74l-1.6,1.01c7.53,4.98,13.04,9.09,17.15,9.09.02,0,.05,0,.07,0,2.82-.04,4.21-1.68,4.54-3.07.27-1.11,1.04-1.75,1.64-2.09.87-.5,2.05-.74,3.34-.74,1.87,0,3.96.51,5.63,1.47,2.82,1.63,3.4,3.96,1.27,5.19-.6.34-1.71.79-3.64.94-2.41.2-5.25,1-5.31,2.62-.1,2.44,8.11,6.93,17.02,11.42l.51-.33,40.9-23.6.56-.32c-.86-.5-1.71-1-2.53-1.49-7.64-4.54-13.7-8.14-17.49-8.14-.03,0-.06,0-.09,0-2.82.04-4.21,1.68-4.55,3.07-.26,1.11-1.03,1.75-1.64,2.11-.86.5-2.04.74-3.32.74-1.87,0-3.97-.51-5.65-1.48-2.82-1.63-3.39-3.95-1.27-5.18.61-.35,1.72-.8,3.64-.95,2.41-.19,5.24-.99,5.32-2.62.09-2.39-6.4-5.99-15.09-10.4h0Z"/>
      </g>
    </g>
    <g id="Puzzle_Piece-2" data-name="Puzzle Piece">
      <path class="cls-21" d="M405.94,340c.63-.18,1.09-.39,1.41-.57.86-.49,1.27-1.17,1.27-1.9h0s0-9.39,0-9.39h0c0-1.08-.88-2.3-2.56-3.27-2.83-1.63-6.84-1.96-8.96-.73-.6.35-1.38.99-1.63,2.1-.34,1.39-1.73,3.03-4.54,3.07-4.22.06-9.91-3.7-17.78-8.89l-40.5,23.42v9.38c6.98,4.62,14.23,9.39,18.2,9.33,2.33-.03,3.49-1.46,3.78-2.68.29-1.23,1.18-1.96,1.86-2.35.96-.56,2.25-.83,3.65-.86-.6.33-1.01.76-1.03,1.29v9.38c-.09,2.23,6.23,5.63,14.55,9.83,1.69-.97,3.32-1.88,4.91-2.77,5.99-3.33,10.7-5.96,10.64-7.69v-9.38c-.02-.53-.43-.95-1.03-1.28,1.4.03,2.69.3,3.65.86.68.39,1.55,1.12,1.86,2.35.29,1.22,1.46,2.65,3.79,2.68,3.02.04,6.47-2.01,12.17-5.41,1.4-.83,2.93-1.75,4.61-2.72v-9.38c-3.21-1.62-6.01-3.09-8.34-4.41Z"/>
      <path class="cls-7" d="M367.85,354.69c-.68.39-1.95.9-4.08,1.07-1.28.1-2.7.39-3.62.9-1.4.03-2.69.3-3.65.86-.68.39-1.57,1.12-1.86,2.35-.21.88-.89,1.86-2.12,2.36v-9.37c1.24-.49,1.91-1.49,2.12-2.37.29-1.23,1.18-1.96,1.86-2.35,2.42-1.41,6.94-1.07,10.07.73,3.13,1.81,3.7,4.42,1.28,5.82Z"/>
      <path class="cls-7" d="M389.22,357.36v9.34c.07,1.73-4.64,4.36-10.63,7.69-1.59.88-3.22,1.8-4.91,2.77v-9.38c1.69-.98,3.32-1.89,4.91-2.77,5.95-3.31,10.63-5.92,10.63-7.65Z"/>
      <path class="cls-7" d="M398.4,333.62c.07-1.62,2.91-2.43,5.32-2.62,1.91-.15,3.03-.6,3.63-.94.81-.47,1.23-1.09,1.28-1.78v9.26c-.01.73-.42,1.4-1.28,1.9-.31.18-.77.38-1.4.56.29.17.59.33.89.5-5.4-2.99-8.5-5.27-8.44-6.88Z"/>
      <path class="cls-7" d="M414.28,344.42v9.38c-1.68.98-3.21,1.89-4.61,2.72-5.71,3.4-9.15,5.45-12.18,5.41-.3,0-.59-.03-.85-.09v-9.38c.26.06.55.08.85.09,3.03.04,6.47-2.01,12.18-5.41,1.4-.83,2.93-1.75,4.61-2.72Z"/>
      <g>
        <path class="cls-8" d="M373.66,367.21c-5.72-2.89-14.12-7.16-14.04-9.24.03-.8,1.79-1.52,4.18-1.71,2.22-.18,3.56-.71,4.29-1.14,1.13-.66,1.75-1.61,1.75-2.68,0-1.44-1.1-2.9-3.03-4.01-1.84-1.06-4.19-1.67-6.44-1.67-1.64,0-3.07.32-4.13.94-.77.44-1.76,1.27-2.1,2.67-.25,1.04-1.27,2.27-3.31,2.3h0c-3.79,0-10.86-4.58-17.24-8.8l39.53-22.86c7.75,5.12,13.38,8.8,17.7,8.8h.1c3.1-.05,4.65-1.89,5.02-3.45.21-.93.88-1.48,1.4-1.78.75-.44,1.84-.68,3.08-.68,1.84,0,3.85.53,5.38,1.41,1.45.84,2.31,1.9,2.31,2.83,0,.74-.56,1.21-1.03,1.49-.56.32-1.6.74-3.42.88-2.74.22-5.69,1.16-5.78,3.1-.08,2.22,3.81,4.98,15.34,10.85-1.38.8-2.65,1.56-3.83,2.26-5.59,3.33-8.97,5.34-11.83,5.34-2.12-.03-3.14-1.25-3.39-2.3-.35-1.41-1.33-2.23-2.09-2.67-1.06-.61-2.49-.94-4.13-.94-2.25,0-4.6.61-6.44,1.67-1.93,1.11-3.03,2.57-3.03,4.01,0,1.07.62,2.02,1.75,2.67.72.42,2.04.95,4.28,1.14,2.36.18,4.16.92,4.2,1.7.05,1.43-5.25,4.38-10.38,7.23-1.52.84-3.07,1.71-4.68,2.64Z"/>
        <path class="cls-10" d="M373.12,321.59c7.69,5.08,13.29,8.71,17.72,8.71h.11c3.39-.05,5.08-2.1,5.5-3.85.14-.6.53-1.09,1.16-1.46.68-.39,1.68-.61,2.83-.61,1.76,0,3.68.5,5.13,1.34,1.52.88,2.06,1.81,2.06,2.4,0,.4-.26.75-.78,1.05-.42.24-1.39.67-3.22.81-1.43.12-6.11.72-6.23,3.58-.09,2.42,3.55,5.13,14.8,10.89-1.08.63-2.09,1.24-3.04,1.8-5.52,3.29-8.85,5.27-11.58,5.27h-.07c-2.27-.03-2.76-1.6-2.83-1.92-.39-1.58-1.48-2.49-2.33-2.98-1.14-.66-2.65-1-4.38-1-2.34,0-4.78.63-6.68,1.74-2.09,1.2-3.28,2.82-3.28,4.45,0,1.26.71,2.36,2,3.11.77.44,2.17,1.01,4.5,1.2,2.39.19,3.72.91,3.73,1.22-.07,1.19-5.88,4.42-10.12,6.78-1.3.72-2.83,1.58-4.45,2.51-4.72-2.39-13.59-6.93-13.52-8.65.01-.32,1.34-1.04,3.72-1.23,2.32-.18,3.73-.75,4.5-1.2,1.29-.75,2-1.85,2-3.11,0-1.62-1.2-3.24-3.28-4.44-1.91-1.1-4.35-1.74-6.69-1.74-1.73,0-3.25.35-4.38,1-.86.49-1.96,1.41-2.33,2.98-.08.31-.57,1.89-2.83,1.92h-.05c-3.46,0-10.09-4.22-16.23-8.28l38.56-22.3M373.15,320.42l-40.5,23.42c6.94,4.59,14.14,9.33,18.13,9.33.02,0,.04,0,.07,0,2.33-.03,3.49-1.46,3.78-2.68.29-1.23,1.18-1.96,1.86-2.35,1.01-.59,2.39-.87,3.88-.87,2.08,0,4.37.55,6.19,1.6,3.13,1.81,3.7,4.41,1.28,5.82-.68.39-1.95.9-4.08,1.07-2.11.17-4.59.84-4.64,2.19-.09,2.23,6.23,5.63,14.55,9.83,1.69-.97,3.32-1.88,4.91-2.77,5.99-3.33,10.7-5.96,10.64-7.69-.06-1.34-2.54-2.02-4.65-2.18-2.13-.18-3.39-.68-4.07-1.07-2.43-1.4-1.85-4.02,1.28-5.82,1.82-1.05,4.11-1.6,6.18-1.6,1.49,0,2.87.28,3.88.87.68.39,1.55,1.12,1.86,2.35.29,1.22,1.46,2.65,3.79,2.68.03,0,.06,0,.08,0,3,0,6.44-2.04,12.09-5.41,1.4-.83,2.93-1.75,4.61-2.72-9.88-5-15.97-8.55-15.88-10.8.07-1.62,2.91-2.43,5.32-2.62,1.91-.15,3.03-.59,3.64-.94,2.13-1.23,1.54-3.55-1.28-5.18-1.67-.97-3.77-1.48-5.63-1.48-1.29,0-2.46.24-3.33.74-.6.35-1.38.99-1.63,2.1-.34,1.39-1.73,3.03-4.54,3.07-.03,0-.06,0-.09,0-4.21,0-9.88-3.74-17.68-8.89h0Z"/>
      </g>
      <path class="cls-14" d="M396.64,352.46v9.38c-1.77-.31-2.69-1.53-2.94-2.59-.3-1.23-1.17-1.96-1.86-2.35-.96-.56-2.25-.83-3.65-.86-.93-.51-2.35-.8-3.62-.9-2.13-.17-3.39-.67-4.07-1.07-2.43-1.4-1.86-4.02,1.28-5.82,3.12-1.81,7.63-2.14,10.06-.73.69.39,1.56,1.12,1.86,2.35.25,1.06,1.17,2.28,2.94,2.59Z"/>
    </g>
    <g id="Coffee">
      <g id="Coffee-2" data-name="Coffee">
        <path class="cls-21" d="M45.16,322.14c16.09-6.13,41.86-6.41,57.54-.64,15.69,5.78,15.79,15.42.24,21.55-15.56,6.12-41.32,6.41-57.54.64-16.22-5.77-16.33-15.42-.24-21.55Z"/>
        <g class="cls-14">
          <path d="M45.16,322.14c16.09-6.13,41.86-6.41,57.54-.64,15.69,5.78,15.79,15.42.24,21.55-15.56,6.12-41.32,6.41-57.54.64-16.22-5.77-16.33-15.42-.24-21.55Z"/>
        </g>
        <path class="cls-8" d="M32.06,302.7l82.89-.82-5.2,97.73h-.08c-.35,3.56-3.64,7.11-9.94,9.89-13.44,5.94-35.7,6.18-49.72.55-6.58-2.64-10.06-6.11-10.5-9.67h-.08s-7.37-97.68-7.37-97.68Z"/>
        <path class="cls-24" d="M114.95,301.88l-1.06,19.85c-1.89,1.34-4.15,2.62-6.88,3.79-17.84,7.62-47.4,7.95-66.02.73-.8-.31-1.48-.65-2.21-.98-2.97-1.36-5.23-2.87-5.23-2.87l-1.48-19.69,82.89-.82Z"/>
        <g>
          <path class="cls-21" d="M26.86,305.65l-.16-14.93,9.66-.11c1.28-.69,2.68-1.36,4.22-2,18.46-7.63,48.02-7.95,66.02-.73,1.5.6,2.83,1.25,4.08,1.91l9.39-.1.17,14.93h0c.05,4.86-4.37,9.78-13.29,13.59-17.84,7.62-47.4,7.95-66.02.73-9.31-3.61-14-8.42-14.05-13.29Z"/>
          <g class="cls-7">
            <path d="M26.86,305.65l-.16-14.93,9.66-.11c1.28-.69,2.68-1.36,4.22-2,18.46-7.63,48.02-7.95,66.02-.73,1.5.6,2.83,1.25,4.08,1.91l9.39-.1.17,14.93h0c.05,4.86-4.37,9.78-13.29,13.59-17.84,7.62-47.4,7.95-66.02.73-9.31-3.61-14-8.42-14.05-13.29Z"/>
          </g>
          <path class="cls-21" d="M40.45,277.12c18.46-7.63,48.02-7.95,66.02-.73,18.01,7.22,18.14,19.26.3,26.88-17.84,7.62-47.4,7.95-66.02.73-18.62-7.22-18.76-19.25-.3-26.88Z"/>
          <g>
            <path class="cls-21" d="M35.23,287.03h-.03s2.85-12.34,2.85-12.34l23.71-.26c7.69-1.04,15.95-1.14,23.58-.26l23.01-.25,3.14,12.28h-.04c1.54,4.46-1.96,9.18-10.57,12.71-14.71,6.03-39.08,6.3-54.43.6-8.99-3.34-12.71-7.98-11.22-12.47Z"/>
            <path class="cls-7" d="M35.23,287.03h-.03s2.85-12.34,2.85-12.34l23.71-.26c7.69-1.04,15.95-1.14,23.58-.26l23.01-.25,3.14,12.28h-.04c1.54,4.46-1.96,9.18-10.57,12.71-14.71,6.03-39.08,6.3-54.43.6-8.99-3.34-12.71-7.98-11.22-12.47Z"/>
            <path class="cls-21" d="M48.3,266.71c13.98-5.26,36.36-5.51,49.99-.55,13.63,4.95,13.72,13.23.2,18.49-13.51,5.26-35.89,5.5-49.99.55-14.09-4.95-14.18-13.22-.2-18.48Z"/>
            <path class="cls-21" d="M42.74,276.03c.03.19.4.85,1.57,1.73,1.1.81,2.94,1.84,5.79,2.85,6.22,2.17,14.81,3.38,23.55,3.29,8.74-.1,17.16-1.48,23.09-3.78,2.78-1.08,4.52-2.16,5.53-3,1.13-.94,1.44-1.62,1.44-1.79,0-.34-1.24-2.49-7.07-4.61-5.98-2.17-14.42-3.36-23.16-3.27-8.74.1-17.3,1.48-23.47,3.81-5.81,2.18-7.24,4.33-7.26,4.77Z"/>
            <g class="cls-17">
              <path d="M42.74,276.03c.03.19.4.85,1.57,1.73,1.1.81,2.94,1.84,5.79,2.85,6.22,2.17,14.81,3.38,23.55,3.29,8.74-.1,17.16-1.48,23.09-3.78,2.78-1.08,4.52-2.16,5.53-3,1.13-.94,1.44-1.62,1.44-1.79,0-.34-1.24-2.49-7.07-4.61-5.98-2.17-14.42-3.36-23.16-3.27-8.74.1-17.3,1.48-23.47,3.81-5.81,2.18-7.24,4.33-7.26,4.77Z"/>
            </g>
            <path class="cls-21" d="M44.31,277.76c1.1.81,2.94,1.84,5.79,2.85,6.22,2.17,14.81,3.38,23.55,3.29,8.74-.1,17.16-1.48,23.09-3.78,2.78-1.08,4.52-2.16,5.53-3-1.03-.81-2.79-1.86-5.6-2.88-5.98-2.17-14.42-3.36-23.16-3.27-8.74.1-17.3,1.48-23.47,3.81-2.83,1.08-4.64,2.12-5.73,2.98Z"/>
            <g class="cls-7">
              <path d="M44.31,277.76c1.1.81,2.94,1.84,5.79,2.85,6.22,2.17,14.81,3.38,23.55,3.29,8.74-.1,17.16-1.48,23.09-3.78,2.78-1.08,4.52-2.16,5.53-3-1.03-.81-2.79-1.86-5.6-2.88-5.98-2.17-14.42-3.36-23.16-3.27-8.74.1-17.3,1.48-23.47,3.81-2.83,1.08-4.64,2.12-5.73,2.98Z"/>
            </g>
            <g class="cls-17">
              <path d="M58.38,277.92c-2.06-1.14-4.55-1.58-5.56-1-1.02.59-.17,1.99,1.89,3.15,2.06,1.15,4.55,1.6,5.56,1,1.02-.6.17-2.01-1.89-3.15Z"/>
            </g>
          </g>
        </g>
        <path class="cls-21" d="M112.57,368.01c.04,3.67-3.6,7.39-10.93,10.27-14.65,5.77-38.93,6.04-54.21.6-7.63-2.71-11.48-6.34-11.53-10.01l-2.75-35.83c.04,3.9,4.13,7.75,12.24,10.64,16.22,5.77,41.99,5.49,57.54-.64,7.78-3.06,11.64-7,11.6-10.9l-1.96,35.86Z"/>
        <g class="cls-23">
          <path class="cls-2" d="M112.57,368.01c.04,3.67-3.6,7.39-10.93,10.27-14.65,5.77-38.93,6.04-54.21.6-7.63-2.71-11.48-6.34-11.53-10.01l-2.75-35.83c.04,3.9,4.13,7.75,12.24,10.64,16.22,5.77,41.99,5.49,57.54-.64,7.78-3.06,11.64-7,11.6-10.9l-1.96,35.86Z"/>
        </g>
        <g>
          <path class="cls-16" d="M87.3,370.41c1.35-1.85,2.08-4.12,3.16-6.12,2.16-3.99,5.28-6.72,9.28-8.36.54-.22,1.2,0,1.47.51,2.08,4.13.9,9.95-3.27,14.22-4.13,4.22-9.87,5.58-14.03,3.67-.24-.11-.31-.56-.12-.68,1.33-.79,2.5-1.85,3.51-3.25Z"/>
          <path class="cls-16" d="M97.48,354.82c-2.16.85-4.18,2.18-5.87,3.7-1.81,1.63-3.2,3.69-4.21,5.9-1.54,3.36-3.02,5.44-5.3,7.19-.5.38-1.27.29-1.62-.23-2.8-4.14-1.78-10.54,2.72-15.14,4.26-4.36,10.23-5.66,14.42-3.48.84.44.76,1.71-.13,2.06Z"/>
        </g>
      </g>
    </g>
    <g id="Character-4" data-name="Character">
      <g id="Top">
        <g id="Puzzle_Piece-3" data-name="Puzzle Piece">
          <path class="cls-20" d="M221.35,216.79c-.23-.14-.48-.21-.74-.21.06-.87.12-1.78.19-2.73.19-2.7.4-5.76.54-8.95l-8.13-4.69c-1.44.83-2.83,1.6-4.16,2.33-5.09,2.8-9.1,5-10.37,7.77-.98,2.16-.41,4.26.37,5.41.8,1.16.96,2.49.96,3.4,0,.18-.03.37-.04.55-.08-.21-.18-.39-.32-.54-.09-.09-.19-.17-.3-.23-1.42-.8-8.02-4.63-8.13-4.69-1.43-.8-4.49,1.05-8.97,3.75-1.28.77-2.68,1.62-4.2,2.5h-.02s-.1,2.39-.1,2.39c-.43,9.84-.74,16.94.81,18.32.05.05.11.09.17.12,1.03.61,8.1,4.67,8.17,4.71.27.14.57.13.88,0-.7,2.18-1.78,3.95-3,4.65-.59.34-1.51.62-2.57,0-1.04-.61-2.62-.57-3.65,1.54-1.76,3.6-1.48,13.76-1.07,23.09l8.13,4.69c1.47-.84,2.85-1.6,4.18-2.33,4.83-2.66,8.64-4.75,9.91-7.51.98-2.15.41-4.26-.38-5.41-.79-1.16-.96-2.49-.96-3.4,0-.18.03-.37.05-.56.08.21.18.41.33.55.08.08.16.15.25.2,1.37.82,8.04,4.63,8.13,4.69,1.38.82,4.49-1.09,9.06-3.87,1.4-.86,2.97-1.82,4.66-2.8-.11-2.42-.25-4.65-.39-6.81-.46-7.35-.79-12.66.65-15.61,1.25-2.55,3.08-2.64,4.27-1.95.95.56,1.77.32,2.28.02,1.84-1.06,3.34-4.99,3.34-8.76,0-2.55-.69-4.38-1.7-4.97-.48-.28-7.11-4.08-8.11-4.67Z"/>
          <g>
            <path class="cls-13" d="M193.08,240.23c-.59.34-1.51,1.13-2.57,2.96-.71,1.25-1.69,2.49-2.56,2.83-.7,2.18-1.78,3.95-3,4.65-.59.34-1.51.62-2.57,0-1.04-.61-2.62-.57-3.65,1.54l8.13,4.69c1.03-2.11,2.61-2.15,3.65-1.54,1.06.62,1.98.34,2.57,0,2.1-1.21,3.81-5.59,3.81-9.77s-1.71-6.57-3.81-5.36Z"/>
            <path class="cls-16" d="M198.31,229.49c0,3.23,2.2,4.59,4.91,3.03,2.71-1.57,4.91-5.47,4.91-8.71,0-.91-.16-2.24-.96-3.4-.75-1.11-1.31-3.11-.46-5.19l-8.12-4.69c-.84,2.08-.3,4.08.45,5.19.8,1.16.96,2.49.96,3.4,0,.17-.03.36-.04.53v.02c.49,1.25-.02,3.54-.69,5.3-.8,2.08-.96,3.6-.96,4.52Z"/>
            <path class="cls-13" d="M208.37,255.67c0-3.24-2.2-4.6-4.91-3.03-2.57,1.48-4.66,5.06-4.88,8.17.09.19.19.37.33.52.08.08.16.15.25.2,1.33.79,7.52,4.34,8.09,4.66-.07-.04-.14-.1-.21-.17-.99-1.02-.42-3.78.37-5.84.79-2.08.96-3.6.96-4.51Z"/>
          </g>
          <g>
            <path class="cls-8" d="M199.96,219.67c-.04-.1-.08-.19-.14-.28.06.08.1.17.14.26v.02Z"/>
            <path class="cls-10" d="M199.82,219.39c.06.09.1.18.14.28v-.02c-.04-.09-.08-.18-.14-.26h0Z"/>
          </g>
          <path class="cls-16" d="M185.79,279.99l1.07-23.09-8.13-4.69c-1.76,3.6-1.48,13.76-1.07,23.09l8.13,4.69h0Z"/>
          <path class="cls-16" d="M178.73,241.18c.05.05.11.09.17.12,1.03.61,8.1,4.67,8.17,4.71l-.92-20.85-8.13-4.69-.1,2.38c-.43,9.84-.74,16.94.81,18.32Z"/>
          <g>
            <path class="cls-8" d="M186.25,279.15c-.38-8.99-.61-18.63,1.06-22.03.51-1.05,1.2-1.6,1.99-1.6.32,0,.66.09.96.27.49.29,1.01.44,1.53.44s1.04-.15,1.54-.43c2.28-1.31,4.06-5.79,4.06-10.2,0-3.69-1.31-6.17-3.25-6.17-.43,0-.87.13-1.31.38-.64.37-1.63,1.21-2.75,3.14-.9,1.58-1.97,2.68-2.59,2.68-.11,0-.2-.04-.3-.12-1.37-1.22-1.04-8.96-.64-17.92l.09-2.11c1.23-.71,2.35-1.39,3.39-2.02l.6-.36c3.58-2.16,6.41-3.87,7.9-3.87.33,0,.57.08.75.27.65.68.45,2.86-.48,5.3-.82,2.13-.99,3.73-.99,4.7,0,2.54,1.29,4.18,3.28,4.18.76,0,1.56-.24,2.38-.71,2.85-1.65,5.16-5.75,5.16-9.14,0-.99-.18-2.43-1.05-3.68-.71-1.04-1.22-2.96-.33-4.92,1.2-2.61,5.13-4.78,10.12-7.52,1.12-.61,2.25-1.24,3.42-1.9-.14,2.81-.32,5.5-.5,8.03-.53,7.44-.88,12.36.65,13.73.33.29.71.44,1.13.44,1.69,0,3.3-2.48,3.91-3.55.94-1.63,1.72-2.25,2.1-2.48.23-.13.45-.2.65-.2.94,0,1.94,1.64,1.94,4.68,0,3.55-1.42,7.36-3.09,8.33-.28.17-.58.25-.87.25s-.61-.09-.91-.27c-.49-.29-1.04-.44-1.58-.44-.79,0-2.28.34-3.39,2.6-1.5,3.07-1.16,8.44-.7,15.86.13,2.07.27,4.2.38,6.5-1.61.94-3.11,1.86-4.41,2.65l-.09.05c-3.61,2.2-6.45,3.94-7.92,3.94-.4,0-.58-.14-.68-.24-.66-.68-.46-2.86.48-5.31.82-2.16.99-3.74.99-4.69,0-2.54-1.29-4.18-3.28-4.18-.76,0-1.56.24-2.39.72-2.85,1.64-5.17,5.74-5.17,9.13,0,.98.18,2.41,1.05,3.68.72,1.04,1.23,2.96.34,4.92-1.2,2.6-4.92,4.65-9.64,7.25-1.16.64-2.32,1.28-3.53,1.96Z"/>
            <path class="cls-10" d="M220.24,206.67c-.13,2.47-.29,4.85-.45,7.11-.6,8.51-.82,12.67.81,14.14.42.37.92.57,1.46.57,1.88,0,3.53-2.38,4.34-3.8.88-1.54,1.58-2.1,1.91-2.29.15-.09.29-.13.4-.13.6,0,1.44,1.45,1.44,4.18,0,3.69-1.5,7.12-2.85,7.9-.2.12-.41.18-.61.18s-.43-.07-.66-.2c-.57-.33-1.2-.5-1.83-.5-.91,0-2.61.37-3.84,2.88-1.56,3.19-1.22,8.61-.75,16.11.12,1.93.25,3.99.36,6.19-1.49.87-2.87,1.71-4.15,2.51l-.09.05c-3.4,2.07-6.33,3.86-7.66,3.86-.24,0-.3-.06-.33-.09-.43-.44-.33-2.4.59-4.79.85-2.23,1.03-3.88,1.03-4.87,0-2.8-1.52-4.68-3.78-4.68-.85,0-1.73.26-2.63.79-3.04,1.75-5.42,5.95-5.42,9.57,0,1.05.2,2.59,1.14,3.97.64.93,1.1,2.65.3,4.43-1.13,2.45-4.79,4.47-9.43,7.02l-.06.03c-.92.5-1.83,1.01-2.77,1.53-.29-6.84-.62-17.58,1.04-20.98.29-.6.8-1.32,1.54-1.32.3,0,.55.11.71.2.57.33,1.17.5,1.78.5s1.21-.17,1.79-.5c2.42-1.39,4.31-6.06,4.31-10.64,0-3.99-1.51-6.67-3.75-6.67-.52,0-1.05.15-1.56.45-1.01.58-1.99,1.7-2.94,3.33-.97,1.7-1.88,2.42-2.12,2.43-1.2-1.06-.83-9.43-.48-17.53l.08-1.83c1.12-.65,2.15-1.28,3.16-1.88l.6-.36c3.37-2.04,6.29-3.8,7.64-3.8.28,0,.36.08.39.11.43.44.32,2.4-.58,4.78-.85,2.21-1.03,3.87-1.03,4.88,0,2.8,1.52,4.68,3.78,4.68.84,0,1.73-.26,2.63-.78,3.03-1.76,5.41-5.96,5.41-9.58,0-1.06-.2-2.61-1.13-3.96-.64-.94-1.09-2.66-.29-4.43,1.13-2.46,5-4.59,9.94-7.31.79-.43,1.67-.92,2.59-1.44M221.33,204.9c-1.44.83-2.83,1.6-4.16,2.33-5.09,2.8-9.1,5-10.37,7.77-.98,2.16-.41,4.26.37,5.41.8,1.16.96,2.49.96,3.4,0,3.24-2.2,7.14-4.91,8.71-.76.44-1.48.65-2.13.65-1.64,0-2.78-1.36-2.78-3.68,0-.92.16-2.44.96-4.52.78-2.05,1.35-4.81.37-5.83-.28-.29-.65-.42-1.11-.42-1.64,0-4.4,1.67-8.16,3.94-1.28.77-2.68,1.62-4.2,2.5h-.02s-.1,2.39-.1,2.39c-.43,9.84-.74,16.94.81,18.32.19.17.41.25.63.25.97,0,2.17-1.45,3.02-2.93,1.06-1.83,1.98-2.62,2.57-2.96.37-.21.72-.31,1.06-.31,1.59,0,2.75,2.24,2.75,5.67,0,4.18-1.71,8.56-3.81,9.77-.34.19-.78.37-1.29.37-.39,0-.82-.1-1.28-.37-.36-.21-.77-.34-1.21-.34-.84,0-1.76.49-2.44,1.88-1.76,3.6-1.48,13.76-1.07,23.09,1.47-.84,2.85-1.6,4.18-2.33,4.83-2.66,8.64-4.75,9.91-7.51.98-2.15.41-4.26-.38-5.41-.79-1.16-.96-2.49-.96-3.4,0-3.23,2.21-7.14,4.92-8.7.76-.44,1.49-.65,2.13-.65,1.64,0,2.78,1.36,2.78,3.68,0,.91-.17,2.43-.96,4.51-.79,2.06-1.36,4.82-.37,5.84.26.27.61.39,1.04.39,1.62,0,4.43-1.72,8.27-4.06,1.4-.86,2.97-1.82,4.66-2.8-.11-2.42-.25-4.65-.39-6.81-.46-7.35-.79-12.66.65-15.61.84-1.72,1.94-2.32,2.94-2.32.48,0,.94.14,1.33.37.42.25.81.34,1.16.34.45,0,.83-.15,1.12-.32,1.84-1.06,3.34-4.99,3.34-8.76,0-3.13-1.03-5.18-2.44-5.18-.29,0-.59.09-.9.27-.51.3-1.33,1.01-2.28,2.66-.96,1.66-2.33,3.3-3.48,3.3-.28,0-.55-.1-.79-.32-1.34-1.2-.98-6.28-.48-13.32.19-2.7.4-5.76.54-8.95h0Z"/>
          </g>
        </g>
      </g>
    </g>
  </g>
</svg>