<?xml version="1.0" encoding="UTF-8"?>
<svg xmlns="http://www.w3.org/2000/svg" viewBox="0 0 414.98 414.98">
  <defs>
    <style>
      .cls-1, .cls-2, .cls-3 {
        opacity: .2;
      }

      .cls-1, .cls-4, .cls-5, .cls-6 {
        fill: #fff;
      }

      .cls-7 {
        fill: #fafafa;
      }

      .cls-8 {
        opacity: .5;
      }

      .cls-8, .cls-9 {
        fill: #e0e0e0;
      }

      .cls-10 {
        opacity: .05;
      }

      .cls-2, .cls-11 {
        fill: #e07f86;
      }

      .cls-12, .cls-6 {
        opacity: .3;
      }

      .cls-13 {
        fill: #eba9af;
        opacity: .75;
      }

      .cls-14, .cls-15, .cls-16 {
        opacity: .4;
      }

      .cls-17 {
        fill: none;
      }

      .cls-5 {
        opacity: .9;
      }

      .cls-18 {
        opacity: .55;
      }

      .cls-18, .cls-15 {
        fill: #cbf3f0;
      }

      .cls-19, .cls-16 {
        fill: #cc2936;
      }

      .cls-20 {
        opacity: .15;
      }

      .cls-21 {
        fill: #f9e5e7;
      }

      .cls-22 {
        fill: #ebebeb;
      }

      .cls-23 {
        opacity: .39;
      }

      .cls-24 {
        fill: #f5f5f5;
      }

      .cls-25 {
        fill: #e6e6e6;
      }

      .cls-26 {
        opacity: .7;
      }
    </style>
  </defs>
  <g id="Device">
    <circle class="cls-20" cx="207.49" cy="207.49" r="207.49"/>
    <g>
      <path class="cls-24" d="M207.52,388.59l44.61-25.8c4.6-2.66,6.9-6.13,6.9-9.61,0-3.48.02-6.21.02-6.21l-41.98-23.83c-2.45-1.42-4.44-4.86-4.44-7.69v-55.01l-77.93,45.03v55.01c0,2.83,1.99,6.28,4.44,7.69l35.07,20.42c9.2,5.31,24.11,5.31,33.31,0Z"/>
      <path class="cls-20" d="M153.41,370.22v6.18l-14.28-8.23c-2.44-1.41-4.44-4.85-4.44-7.69v-55l14.85-8.56c.31,3.77.64,7.67.95,11.46l-10.41,6.03v42.97c0,2.85,1.97,6.28,4.44,7.69l8.9,5.15Z"/>
      <path class="cls-25" d="M140.07,357.39c0,2.83,1.99,6.28,4.44,7.69l29.69,17.31c9.2,5.31,24.11,5.31,33.31,0l44.64-25.79c9.2-5.31,9.2-13.92,0-19.23l-29.71-17.32c-2.45-1.42-4.44-4.86-4.44-7.69v-42.98s-77.93,45.03-77.93,45.03v42.98Z"/>
      <path class="cls-20" d="M231.49,325.28h0s-9.05-5.23-9.05-5.23c-2.45-1.42-4.44-4.86-4.44-7.69v-42.98l-77.93,45.03v42.98c0,2.83,1.99,6.28,4.44,7.69l8.89,5.13,78.08-44.93Z"/>
    </g>
    <path class="cls-4" d="M47.24,391.31c2.88,1.66,7.69,1.57,10.76-.2,38.31-22.12,218.08-125.91,256.38-148.02,3.07-1.77,5.55-6.07,5.55-9.61V18.78c0-3.54-2.33-7.76-5.21-9.42s-7.69-1.57-10.76.2L47.59,157.58c-3.07,1.77-5.55,6.08-5.55,9.62v214.69c0,3.54,2.33,7.76,5.2,9.42Z"/>
    <path class="cls-10" d="M58,391.1l256.38-148.02c3.07-1.77,5.55-6.08,5.55-9.62V18.77c0-3.54-2.48-4.98-5.55-3.2L58.01,163.59c-3.07,1.77-5.55,6.07-5.55,9.62v214.69c0,3.54,2.48,4.97,5.55,3.2Z"/>
    <path class="cls-22" d="M52.45,369.01v18.89c0,3.54,2.49,4.97,5.55,3.2l256.38-148.02c3.07-1.77,5.55-6.08,5.55-9.62v-18.89L52.45,369.01Z"/>
    <path class="cls-19" d="M59.79,351.44v-175.76c0-2.18,1.53-4.82,3.42-5.91L309.18,27.75c1.89-1.09,3.41-.21,3.41,1.97v175.77c.01,2.18-1.52,4.82-3.4,5.91L63.2,353.41c-1.89,1.09-3.41.21-3.41-1.97Z"/>
    <path class="cls-22" d="M59.79,351.44v-175.76c0-2.18,1.53-4.82,3.42-5.91L309.18,27.75c1.89-1.09,3.41-.21,3.41,1.97v175.77c.01,2.18-1.52,4.82-3.4,5.91L63.2,353.41c-1.89,1.09-3.41.21-3.41-1.97Z"/>
    <path class="cls-10" d="M43.67,161.71l10.41,6c-1,1.74-1.62,3.72-1.64,5.49v214.7c0,3.23,2.19,5.04,5.56,3.21-3.36,1.95-8.14,1.71-10.76.2-2.87-1.67-5.21-5.18-5.21-8.75v-215.36c0-1.77.64-3.74,1.64-5.49Z"/>
    <path class="cls-19" d="M181.33,305.14l12.56-7.21c1.12-.65,2.04-.19,2.04,1.03,0,1.22-.91,2.73-2.04,3.38l-12.56,7.21c-1.12.65-2.04.19-2.04-1.03s.91-2.73,2.04-3.38Z"/>
  </g>
  <g id="Speech_Bubble" data-name="Speech Bubble">
    <g>
      <g>
        <path class="cls-19" d="M68.15,390.05l-.34-192.59c-.01-4.28,3-9.51,6.73-11.66L313.36,48.28c1.85-1.07,3.54-1.18,4.76-.49l-7.06-4.09h0c-1.24-.78-2.98-.71-4.91.4L67.34,181.61c-3.73,2.16-6.75,7.38-6.73,11.66l.34,192.59c0,2.02.69,3.47,1.8,4.21h0s0,0,0,0c.12.08.25.15.38.22l6.97,4.06c-1.19-.71-1.93-2.2-1.94-4.31Z"/>
        <path class="cls-6" d="M311.06,43.7h0c-1.24-.78-2.98-.71-4.91.4L67.34,181.61c-2.07,1.2-3.92,3.34-5.16,5.75l7.22,4.17c1.23-2.4,3.08-4.54,5.15-5.74L313.36,48.28c1.85-1.07,3.54-1.18,4.76-.49l-7.06-4.09Z"/>
      </g>
      <path class="cls-1" d="M60.6,193.28l.34,192.59c0,2.02.69,3.47,1.8,4.21h0s0,0,0,0c.12.08.25.15.38.22l6.97,4.06c-1.19-.71-1.93-2.2-1.94-4.31l-.34-192.59c0-1.91.59-4,1.58-5.92l-7.22-4.17c-.99,1.92-1.58,4.01-1.57,5.91Z"/>
      <path class="cls-19" d="M67.83,206.21l.32,183.84c0,2.11.75,3.59,1.94,4.31.04.02.07.04.11.06.02,0,.03.02.05.02,1.22.64,2.87.52,4.68-.53l238.81-137.51c3.73-2.15,6.75-7.38,6.73-11.66l-.32-184.07L67.83,206.21Z"/>
      <path class="cls-3" d="M67.83,206.21l.32,183.84c0,2.11.75,3.59,1.94,4.31.04.02.07.04.11.06.02,0,.03.02.05.02,1.22.64,2.87.52,4.68-.53l238.81-137.51c3.73-2.15,6.75-7.38,6.73-11.66l-.32-184.07L67.83,206.21Z"/>
      <polygon class="cls-5" points="290.45 250.67 290.18 97.89 84.79 215.98 85.05 368.54 290.45 250.67"/>
      <path class="cls-19" d="M320.14,52.14c0-2.11-.75-3.59-1.94-4.31-.01,0-.02-.02-.03-.02-.01,0-.03-.02-.04-.03-1.23-.69-2.91-.58-4.76.49L74.55,185.8c-3.73,2.16-6.75,7.38-6.73,11.66l.02,8.75L320.16,60.66l-.02-8.51Z"/>
      <path class="cls-12" d="M320.14,52.14c0-2.11-.75-3.59-1.94-4.31-.01,0-.02-.02-.03-.02-.01,0-.03-.02-.04-.03-1.23-.69-2.91-.58-4.76.49L74.55,185.8c-3.73,2.16-6.75,7.38-6.73,11.66l.02,8.75L320.16,60.66l-.02-8.51Z"/>
      <g class="cls-23">
        <path class="cls-4" d="M302.25,61.45c1.02-.59,1.84-.12,1.85,1.05,0,1.17-.82,2.59-1.84,3.18-1.02.59-1.84.12-1.85-1.05,0-1.17.82-2.59,1.84-3.18Z"/>
        <path class="cls-4" d="M307.29,58.54c1.02-.59,1.84-.12,1.85,1.05,0,1.17-.82,2.59-1.84,3.18-1.02.59-1.84.12-1.85-1.05,0-1.17.82-2.59,1.84-3.18Z"/>
        <path class="cls-4" d="M312.32,55.64c1.02-.59,1.84-.12,1.85,1.05,0,1.17-.82,2.59-1.84,3.18-1.02.59-1.84.12-1.85-1.05,0-1.17.82-2.59,1.84-3.18Z"/>
      </g>
      <g>
        <polygon class="cls-4" points="303.01 124.23 303.04 133.83 303.01 124.23 303.01 124.23"/>
        <polygon class="cls-4" points="303.05 137.51 311.39 132.69 311.39 132.69 303.05 137.51 303.07 147.11 303.07 147.11 303.05 137.51"/>
        <rect class="cls-4" x="302.44" y="148.38" width="9.64" height="0" transform="translate(-33.02 173.51) rotate(-30)"/>
        <rect class="cls-4" x="302.58" y="196.66" width="9.64" height="0" transform="translate(-57.15 180.05) rotate(-30)"/>
        <polygon class="cls-4" points="311.31 102.46 302.96 107.27 311.31 102.46 311.31 102.46"/>
        <polygon class="cls-4" points="307.79 108.17 302.97 110.95 303 120.55 302.97 110.95 307.79 108.17"/>
        <polygon class="cls-4" points="311.35 115.73 303 120.55 311.35 115.73 311.35 115.73"/>
        <polygon class="cls-4" points="311.38 129.01 303.04 133.83 311.38 129.01 311.38 129.01"/>
        <polygon class="cls-4" points="308.08 209.57 303.26 212.35 303.29 221.94 303.29 221.94 303.26 212.35 308.08 209.57"/>
        <rect class="cls-4" x="302.5" y="170.11" width="9.64" transform="translate(-43.88 176.45) rotate(-30)"/>
        <rect class="cls-4" x="302.54" y="183.39" width="9.64" height="0" transform="translate(-50.52 178.24) rotate(-30)"/>
        <polygon class="cls-4" points="311.36 119.41 303.01 124.23 303.04 133.83 311.38 129.01 311.36 119.41"/>
        <polygon class="cls-4" points="303.07 147.11 311.42 142.29 311.39 132.69 303.05 137.51 303.07 147.11"/>
        <polygon class="cls-4" points="311.53 180.98 303.18 185.8 303.21 195.39 311.56 190.57 311.53 180.98"/>
        <polygon class="cls-4" points="303.25 208.66 311.6 203.84 311.57 194.25 303.22 199.07 303.25 208.66"/>
        <polygon class="cls-4" points="311.49 167.7 303.15 172.52 303.17 182.11 311.52 177.29 311.49 167.7"/>
        <path class="cls-19" d="M314.17,163.06l-13.73,7.93.2,68.88,13.73-7.93-.2-68.88ZM311.57,194.25l.03,9.59-8.35,4.82-.03-9.59h0s8.35-4.82,8.35-4.82h0ZM303.15,172.52h0l8.35-4.82h0l.03,9.59-8.35,4.82-.03-9.59ZM303.18,185.8h0s8.35-4.82,8.35-4.82h0s.03,9.59.03,9.59l-8.35,4.82-.03-9.59ZM303.29,221.94l-.03-9.59,4.82-2.78,3.53-2.04.03,9.59-8.35,4.82h0s0,0,0,0ZM303.32,235.22l-.03-9.59,8.35-4.82.03,9.59-8.35,4.82Z"/>
        <path class="cls-19" d="M313.96,88.21l-13.73,7.93.2,68.89,13.73-7.93-.2-68.89ZM302.93,97.68l8.35-4.82.03,9.59h0l-8.35,4.82-.03-9.59ZM302.97,110.95l4.82-2.78,3.53-2.04.03,9.59h0s-8.35,4.82-8.35,4.82l-.03-9.59ZM303.01,124.23h0l8.35-4.82.03,9.59h0l-8.35,4.82-.03-9.59ZM303.05,137.51l8.35-4.82h0s.03,9.59.03,9.59l-8.35,4.82h0l-.03-9.59ZM303.08,150.79h0s8.35-4.82,8.35-4.82h0s0,0,0,0l.03,9.59-8.35,4.82-.03-9.59Z"/>
        <path class="cls-6" d="M314.17,163.06l-13.73,7.93.2,68.88,13.73-7.93-.2-68.88ZM311.57,194.25l.03,9.59-8.35,4.82-.03-9.59h0s8.35-4.82,8.35-4.82h0ZM303.15,172.52h0l8.35-4.82h0l.03,9.59-8.35,4.82-.03-9.59ZM303.18,185.8h0s8.35-4.82,8.35-4.82h0s.03,9.59.03,9.59l-8.35,4.82-.03-9.59ZM303.29,221.94l-.03-9.59,4.82-2.78,3.53-2.04.03,9.59-8.35,4.82h0s0,0,0,0ZM303.32,235.22l-.03-9.59,8.35-4.82.03,9.59-8.35,4.82Z"/>
        <path class="cls-6" d="M313.96,88.21l-13.73,7.93.2,68.89,13.73-7.93-.2-68.89ZM302.93,97.68l8.35-4.82.03,9.59h0l-8.35,4.82-.03-9.59ZM302.97,110.95l4.82-2.78,3.53-2.04.03,9.59h0s-8.35,4.82-8.35,4.82l-.03-9.59ZM303.01,124.23h0l8.35-4.82.03,9.59h0l-8.35,4.82-.03-9.59ZM303.05,137.51l8.35-4.82h0s.03,9.59.03,9.59l-8.35,4.82h0l-.03-9.59ZM303.08,150.79h0s8.35-4.82,8.35-4.82h0s0,0,0,0l.03,9.59-8.35,4.82-.03-9.59Z"/>
        <polygon class="cls-4" points="311.35 115.73 311.32 106.13 307.79 108.17 302.97 110.95 303 120.55 311.35 115.73 311.35 115.73"/>
        <polygon class="cls-4" points="313.96 88.21 313.95 82.87 300.22 90.79 300.23 96.14 313.96 88.21 313.96 88.21"/>
        <polygon class="cls-4" points="311.31 102.46 311.28 92.86 302.93 97.68 302.96 107.27 311.31 102.46 311.31 102.46"/>
        <polygon class="cls-4" points="311.43 145.97 311.43 145.97 303.08 150.79 303.08 150.79 303.11 160.38 311.46 155.56 311.43 145.97"/>
        <polygon class="cls-4" points="311.63 217.12 311.61 207.53 308.08 209.57 303.26 212.35 303.29 221.94 303.29 221.94 311.63 217.12"/>
        <polygon class="cls-4" points="303.3 225.62 303.32 235.22 311.67 230.4 311.64 220.8 303.3 225.62"/>
      </g>
    </g>
    <g>
      <polygon class="cls-26" points="84.79 273.75 290.3 155.1 290.3 96.98 84.79 215.63 84.79 273.75"/>
      <g>
        <g>
          <path class="cls-7" d="M115.49,207.42l33.35-19.26c.99-.57,1.79-.11,1.78,1.03v.33c-.02,1.14-.82,2.53-1.81,3.1l-33.33,19.24c-.99.57-1.79.11-1.79-1.03v-1.14c0-1.14.8-1.7,1.79-2.27Z"/>
          <g>
            <path class="cls-19" d="M115.49,215.17l21.74-12.55c.99-.57,1.79-.11,1.78,1.03v.33c-.02,1.14-.82,2.53-1.81,3.1l-21.71,12.54c-.99.57-1.79.11-1.79-1.03v-1.14c0-1.14.8-1.7,1.79-2.27Z"/>
            <path class="cls-18" d="M115.49,215.17l21.74-12.55c.99-.57,1.79-.11,1.78,1.03v.33c-.02,1.14-.82,2.53-1.81,3.1l-21.71,12.54c-.99.57-1.79.11-1.79-1.03v-1.14c0-1.14.8-1.7,1.79-2.27Z"/>
          </g>
        </g>
        <g>
          <g>
            <path class="cls-9" d="M113.7,229.26c-.11,0-.21-.06-.27-.15-.09-.15-.03-.34.11-.42l63.79-36.83c.14-.09.34-.04.42.11.09.15.03.34-.11.42l-63.79,36.83s-.1.04-.15.04Z"/>
            <path class="cls-9" d="M113.7,233.14c-.11,0-.21-.06-.27-.15-.09-.15-.03-.34.11-.42l23.5-13.57c.15-.08.34-.03.42.11.09.15.03.34-.11.42l-23.5,13.57s-.1.04-.15.04Z"/>
            <path class="cls-9" d="M140.56,217.63c-.11,0-.21-.06-.27-.15-.09-.15-.03-.34.11-.42l13.43-7.75c.14-.08.34-.04.42.11.09.15.03.34-.11.42l-13.43,7.75s-.1.04-.15.04Z"/>
            <path class="cls-9" d="M157.3,207.96c-.11,0-.21-.06-.27-.15-.09-.15-.03-.34.11-.42l20.18-11.65c.14-.08.34-.04.42.11.09.15.03.34-.11.42l-20.18,11.65s-.1.04-.15.04Z"/>
            <path class="cls-9" d="M113.7,237.01c-.11,0-.21-.06-.27-.15-.09-.15-.03-.34.11-.42l10.07-5.82c.14-.08.34-.04.42.11.09.15.03.34-.11.42l-10.07,5.82s-.1.04-.15.04Z"/>
            <path class="cls-9" d="M127.13,229.26c-.11,0-.21-.06-.27-.15-.09-.15-.03-.34.11-.42l23.5-13.57c.15-.08.34-.04.42.11.09.15.03.34-.11.42l-23.5,13.57s-.1.04-.15.04Z"/>
            <path class="cls-9" d="M153.99,213.75c-.11,0-.21-.06-.27-.15-.09-.15-.03-.34.11-.42l23.5-13.57c.15-.08.34-.03.42.11.09.15.03.34-.11.42l-23.5,13.57s-.1.04-.15.04Z"/>
          </g>
          <g>
            <path class="cls-9" d="M113.7,240.89c-.11,0-.21-.06-.27-.15-.09-.15-.03-.34.11-.42l63.79-36.83c.14-.08.34-.04.42.11.09.15.03.34-.11.42l-63.79,36.83s-.1.04-.15.04Z"/>
            <path class="cls-9" d="M113.7,244.77c-.11,0-.21-.06-.27-.15-.09-.15-.03-.34.11-.42l23.5-13.57c.15-.08.34-.03.42.11.09.15.03.34-.11.42l-23.5,13.57s-.1.04-.15.04Z"/>
            <path class="cls-9" d="M140.56,229.26c-.11,0-.21-.06-.27-.15-.09-.15-.03-.34.11-.42l13.43-7.75c.14-.08.34-.04.42.11.09.15.03.34-.11.42l-13.43,7.75s-.1.04-.15.04Z"/>
            <path class="cls-9" d="M157.3,219.59c-.11,0-.21-.06-.27-.15-.09-.15-.03-.34.11-.42l20.18-11.65c.14-.08.34-.04.42.11.09.15.03.34-.11.42l-20.18,11.65s-.1.04-.15.04Z"/>
            <path class="cls-9" d="M113.7,248.65c-.11,0-.21-.06-.27-.15-.09-.15-.03-.34.11-.42l10.07-5.82c.14-.08.34-.04.42.11.09.15.03.34-.11.42l-10.07,5.82s-.1.04-.15.04Z"/>
            <path class="cls-9" d="M127.13,240.89c-.11,0-.21-.06-.27-.15-.09-.15-.03-.34.11-.42l23.5-13.57c.15-.08.34-.03.42.11.09.15.03.34-.11.42l-23.5,13.57s-.1.04-.15.04Z"/>
            <path class="cls-9" d="M153.99,225.38c-.11,0-.21-.06-.27-.15-.09-.15-.03-.34.11-.42l23.5-13.57c.15-.08.34-.03.42.11.09.15.03.34-.11.42l-23.5,13.57s-.1.04-.15.04Z"/>
          </g>
        </g>
      </g>
      <g id="Image">
        <g id="Dark_Window" data-name="Dark Window">
          <path class="cls-16" d="M262.52,120.3l2.27,1.31c-.41-.19-.92-.19-1.48.02l-46.07,27.13-4.07,2.34-2.04,1.17c-.32.19-.71.4-.98.58-.29.19-.56.42-.8.69-.98,1.03-1.67,2.47-1.71,3.85,0,0-.31,13.53-.46,38.57.1.6.37,1.05.75,1.31l-2.32-1.33h0c-.55-.31-.89-.98-.89-1.94v-37.95c0-1.9,1.34-4.22,2.98-5.17l52.68-30.38c.84-.48,1.6-.51,2.14-.18h0Z"/>
          <path class="cls-13" d="M262.52,120.3l2.27,1.31c-.41-.19-.92-.19-1.48.02l-46.07,27.13-4.07,2.34-2.04,1.17c-.32.19-.71.4-.98.58-.29.19-.56.42-.8.69-.98,1.03-1.67,2.47-1.71,3.85,0,0-.31,13.53-.46,38.57.1.6.37,1.05.75,1.31l-2.32-1.33h0c-.55-.31-.89-.98-.89-1.94v-37.95c0-1.9,1.34-4.22,2.98-5.17l52.68-30.38c.84-.48,1.6-.51,2.14-.18h0Z"/>
          <path class="cls-9" d="M265.77,123.59v37.94c0,1.9-1.33,4.21-2.98,5.16l-52.68,30.38c-1.46.85-2.68.33-2.93-1.13.17-.05.34-.14.53-.24l52.68-30.38c1.64-.95,2.98-3.26,2.98-5.16v-37.94c0-.22-.01-.42-.05-.6,1.4-.52,2.45.28,2.45,1.97Z"/>
          <path class="cls-15" d="M263.32,121.62l-46.07,27.13-4.07,2.34-2.03,1.17c-.32.19-.72.4-.98.58-.29.2-.56.43-.8.68-.97,1.04-1.67,2.47-1.7,3.85,0,0-.32,13.53-.47,38.57-.15-25.04,0-38.58,0-38.58.06-1.76.28-2.76,1.41-4.01.29-.31.62-.59.98-.84.39-.26.69-.41,1.04-.62l2.03-1.18,4.06-2.35,46.61-26.76Z"/>
          <path class="cls-8" d="M263.32,121.62l-46.07,27.13-4.07,2.34-2.03,1.17c-.32.19-.71.4-.98.58-.29.19-.56.42-.8.69-.98,1.03-1.67,2.47-1.71,3.85,0,0-.31,13.53-.47,38.57.17-.05.35-.14.53-.24l52.68-30.38c1.64-.95,2.98-3.26,2.98-5.17v-37.94c0-.22-.02-.42-.05-.6Z"/>
        </g>
        <g>
          <path class="cls-7" d="M216.91,186.9c-.06,0-.12,0-.18-.01-.09-.01-.15-.1-.14-.18.01-.09.1-.15.18-.14.25.03.54-.04.85-.21l.57-.33c.08-.05.18-.02.22.06.04.08.02.18-.06.22l-.57.33c-.31.18-.6.27-.88.27ZM215.92,185.63c-.09,0-.16-.06-.16-.15v-1.67c0-.09.07-.16.16-.16s.16.07.16.16v1.65c0,.09-.07.17-.16.17ZM219.7,185.5c-.06,0-.11-.03-.14-.08-.04-.08-.02-.18.06-.22l1.43-.82c.08-.05.18-.02.22.06.04.08.02.18-.06.22l-1.43.82s-.05.02-.08.02ZM222.56,183.86c-.06,0-.11-.03-.14-.08-.04-.08-.02-.18.06-.22l1.43-.82c.08-.05.18-.02.22.06.04.08.02.18-.06.22l-1.43.82s-.05.02-.08.02ZM215.92,182.32c-.09,0-.16-.07-.16-.16v-1.65c0-.09.07-.16.16-.16s.16.07.16.16v1.65c0,.09-.07.16-.16.16ZM225.42,182.21c-.06,0-.11-.03-.14-.08-.04-.08-.02-.18.06-.22l1.43-.82c.08-.05.18-.02.22.06.04.08.02.18-.06.22l-1.43.82s-.05.02-.08.02ZM228.28,180.56c-.06,0-.11-.03-.14-.08-.04-.08-.02-.18.06-.22l1.43-.82c.08-.05.18-.02.22.06.04.08.02.18-.06.22l-1.43.82s-.05.02-.08.02ZM215.92,179.02c-.09,0-.16-.07-.16-.16v-1.65c0-.09.07-.16.16-.16s.16.07.16.16v1.65c0,.09-.07.16-.16.16ZM231.13,178.92c-.06,0-.11-.03-.14-.08-.04-.08-.02-.18.06-.22l1.43-.82c.08-.05.18-.02.22.06.04.08.02.18-.06.22l-1.43.82s-.05.02-.08.02ZM233.99,177.27c-.06,0-.11-.03-.14-.08-.04-.08-.02-.18.06-.22l1.43-.82c.08-.05.18-.02.22.06.04.08.02.18-.06.22l-1.43.82s-.05.02-.08.02ZM215.92,175.72c-.09,0-.16-.07-.16-.16v-1.65c0-.09.07-.16.16-.16s.16.07.16.16v1.65c0,.09-.07.16-.16.16ZM236.85,175.62c-.06,0-.11-.03-.14-.08-.04-.08-.02-.18.06-.22l1.43-.82c.08-.05.18-.02.22.06.04.08.02.18-.06.22l-1.43.82s-.05.02-.08.02ZM239.71,173.97c-.06,0-.11-.03-.14-.08-.04-.08-.02-.18.06-.22l1.43-.82c.08-.05.18-.02.22.06.04.08.02.18-.06.22l-1.43.82s-.05.02-.08.02ZM215.92,172.43c-.09,0-.16-.07-.16-.16v-1.65c0-.09.07-.16.16-.16s.16.07.16.16v1.65c0,.09-.07.16-.16.16ZM242.56,172.33c-.06,0-.11-.03-.14-.08-.04-.08-.02-.18.06-.22l1.43-.82c.08-.05.18-.02.22.06.04.08.02.18-.06.22l-1.43.82s-.05.02-.08.02ZM245.42,170.68c-.06,0-.11-.03-.14-.08-.04-.08-.02-.18.06-.22l1.43-.82c.08-.05.18-.02.22.06.04.08.02.18-.06.22l-1.43.82s-.05.02-.08.02ZM215.92,169.13c-.09,0-.16-.07-.16-.16v-1.65c0-.09.07-.16.16-.16s.16.07.16.16v1.65c0,.09-.07.16-.16.16ZM248.28,169.03c-.06,0-.11-.03-.14-.08-.04-.08-.02-.18.06-.22l1.43-.82c.08-.05.18-.02.22.06.04.08.02.18-.06.22l-1.43.82s-.05.02-.08.02ZM251.14,167.39c-.06,0-.11-.03-.14-.08-.04-.08-.02-.18.06-.22l1.43-.82c.08-.05.18-.02.22.06.04.08.02.18-.06.22l-1.43.82s-.05.02-.08.02ZM215.92,165.83c-.09,0-.16-.07-.16-.16v-1.65c0-.09.07-.16.16-.16s.16.07.16.16v1.65c0,.09-.07.16-.16.16ZM254,165.74c-.06,0-.11-.03-.14-.08-.04-.08-.02-.18.06-.22l.17-.1c.36-.21.7-.53,1-.95.05-.07.15-.09.23-.04.07.05.09.15.04.23-.32.45-.7.81-1.1,1.04l-.17.1s-.05.02-.08.02ZM255.88,163.15s-.02,0-.03,0c-.09-.02-.14-.11-.13-.19.04-.2.06-.39.06-.57v-1.04c0-.09.07-.16.16-.16s.16.07.16.16v1.04c0,.2-.02.42-.07.64-.02.08-.08.13-.16.13ZM215.92,162.53c-.09,0-.16-.07-.16-.16v-1.65c0-.09.07-.16.16-.16s.16.07.16.16v1.65c0,.09-.07.16-.16.16ZM255.95,159.86c-.09,0-.16-.07-.16-.16v-1.65c0-.09.07-.16.16-.16s.16.07.16.16v1.65c0,.09-.07.16-.16.16ZM215.92,159.23c-.09,0-.16-.07-.16-.16v-1.65c0-.09.07-.16.16-.16s.16.07.16.16v1.65c0,.09-.07.16-.16.16ZM255.95,156.56c-.09,0-.16-.07-.16-.16v-1.65c0-.09.07-.16.16-.16s.16.07.16.16v1.65c0,.09-.07.16-.16.16ZM215.99,155.94s-.02,0-.04,0c-.09-.02-.14-.11-.12-.19.12-.53.37-1.08.7-1.55.05-.07.15-.09.23-.04.07.05.09.15.04.23-.31.44-.54.95-.65,1.43-.02.08-.08.13-.16.13ZM217.89,153.36c-.06,0-.11-.03-.14-.08-.04-.08-.02-.18.06-.22l1.43-.82c.08-.05.18-.02.22.06.04.08.02.18-.06.22l-1.43.82s-.05.02-.08.02ZM255.95,153.26c-.09,0-.16-.07-.16-.16v-1.65c0-.09.07-.16.16-.16s.16.07.16.16v1.65c0,.09-.07.16-.16.16ZM220.74,151.71c-.06,0-.11-.03-.14-.08-.04-.08-.02-.18.06-.22l1.43-.82c.08-.05.18-.02.22.06.04.08.02.18-.06.22l-1.43.82s-.05.02-.08.02ZM223.6,150.07c-.06,0-.11-.03-.14-.08-.04-.08-.02-.18.06-.22l1.43-.82c.08-.05.18-.02.22.06.04.08.02.18-.06.22l-1.43.82s-.05.02-.08.02ZM255.95,149.96c-.09,0-.16-.07-.16-.16v-1.65c0-.09.07-.16.16-.16s.16.07.16.16v1.65c0,.09-.07.16-.16.16ZM226.46,148.42c-.06,0-.11-.03-.14-.08-.04-.08-.02-.18.06-.22l1.43-.82c.08-.05.18-.02.22.06.04.08.02.18-.06.22l-1.43.82s-.05.02-.08.02ZM229.32,146.77c-.06,0-.11-.03-.14-.08-.04-.08-.02-.18.06-.22l1.43-.82c.08-.05.18-.02.22.06.04.08.02.18-.06.22l-1.43.82s-.05.02-.08.02ZM255.95,146.67c-.09,0-.16-.07-.16-.16v-1.65c0-.09.07-.16.16-.16s.16.07.16.16v1.65c0,.09-.07.16-.16.16ZM232.17,145.12c-.06,0-.11-.03-.14-.08-.04-.08-.02-.18.06-.22l1.43-.82c.08-.05.18-.02.22.06.04.08.02.18-.06.22l-1.43.82s-.05.02-.08.02ZM235.03,143.48c-.06,0-.11-.03-.14-.08-.04-.08-.02-.18.06-.22l1.43-.82c.08-.05.18-.02.22.06.04.08.02.18-.06.22l-1.43.82s-.05.02-.08.02ZM255.95,143.37c-.09,0-.16-.07-.16-.16v-1.65c0-.09.07-.16.16-.16s.16.07.16.16v1.65c0,.09-.07.16-.16.16ZM237.89,141.83c-.06,0-.11-.03-.14-.08-.04-.08-.02-.18.06-.22l1.43-.82c.08-.05.18-.02.22.06.04.08.02.18-.06.22l-1.43.82s-.05.02-.08.02ZM240.75,140.18c-.06,0-.11-.03-.14-.08-.04-.08-.02-.18.06-.22l1.43-.82c.08-.05.18-.02.22.06.04.08.02.18-.06.22l-1.43.82s-.05.02-.08.02ZM255.95,140.07c-.09,0-.16-.07-.16-.16v-1.65c0-.09.07-.16.16-.16s.16.07.16.16v1.65c0,.09-.07.16-.16.16ZM243.6,138.54c-.06,0-.11-.03-.14-.08-.04-.08-.02-.18.06-.22l1.43-.82c.08-.05.18-.02.22.06.04.08.02.18-.06.22l-1.43.82s-.05.02-.08.02ZM246.46,136.89c-.06,0-.11-.03-.14-.08-.04-.08-.02-.18.06-.22l1.43-.82c.08-.05.18-.02.22.06.04.08.02.18-.06.22l-1.43.82s-.05.02-.08.02ZM255.95,136.77c-.09,0-.16-.07-.16-.16v-1.65c0-.09.07-.16.16-.16s.16.07.16.16v1.65c0,.09-.07.16-.16.16ZM249.32,135.24c-.06,0-.11-.03-.14-.08-.04-.08-.02-.18.06-.22l1.43-.82c.08-.05.18-.02.22.06.04.08.02.18-.06.22l-1.43.82s-.05.02-.08.02ZM252.18,133.59c-.06,0-.11-.03-.14-.08-.04-.08-.02-.18.06-.22l1.43-.82c.08-.05.18-.02.22.06.04.08.02.18-.06.22l-1.43.82s-.05.02-.08.02ZM255.95,133.47c-.09,0-.16-.07-.16-.16,0-.62-.26-1.03-.69-1.1-.09-.01-.15-.1-.13-.19.01-.09.09-.15.19-.14.59.09.96.64.97,1.42,0,.09-.07.16-.16.16h0Z"/>
          <path class="cls-7" d="M217.58,184.82s-.06,0-.08-.02c-.05-.03-.08-.08-.08-.14v-5.73s0-.07.03-.09l13.68-19.53c.05-.07.14-.09.21-.05l10.76,6.26-2.47-3.07c-.05-.06-.05-.14,0-.2l7.2-9.34c.05-.07.15-.08.22-.04l7.34,4.71s.08.08.08.14v4.66c0,.61-.52,1.5-1.04,1.81l-35.76,20.61s-.05.02-.08.02ZM217.74,178.98v5.4s35.52-20.47,35.52-20.47c.43-.25.88-1.03.88-1.53v-4.57s-7.14-4.58-7.14-4.58l-7.03,9.12,2.93,3.65c.05.06.05.15,0,.21-.05.06-.14.07-.2.03l-11.39-6.63-13.57,19.37Z"/>
          <path class="cls-7" d="M238.18,152.82c-.23,0-.45-.05-.64-.17-.46-.26-.71-.81-.71-1.53,0-1.42,1-3.15,2.23-3.86h0c.63-.36,1.22-.41,1.68-.15.46.26.71.81.71,1.53,0,1.42-1,3.15-2.23,3.86-.36.21-.72.32-1.04.32ZM239.22,147.55c-1.14.66-2.06,2.26-2.06,3.57,0,.6.19,1.04.55,1.25.35.2.83.15,1.35-.15,1.14-.66,2.06-2.26,2.06-3.57,0-.6-.19-1.04-.55-1.25-.35-.2-.83-.15-1.35.15h0Z"/>
        </g>
      </g>
    </g>
    <g>
      <path class="cls-19" d="M290.41,195.18l79.17-45.71c.63-.36,1.19-.39,1.6-.16h0s5.92,4.24,5.92,4.24h0c-.41-.23-.97-.19-1.59.16l-79.17,45.71c-1.25.72-2.26,2.47-2.25,3.91l.31,108.15c0,.69.24,1.18.63,1.43h0s-5.99-4.29-5.99-4.29h0c-.35-.27-.57-.73-.57-1.39l-.31-108.15c0-1.43,1-3.19,2.25-3.91Z"/>
      <path class="cls-19" d="M294.4,311.5l-.31-108.15c0-1.43,1-3.19,2.25-3.91l79.17-45.71c.62-.36,1.18-.39,1.59-.16.42.23.68.74.68,1.46l.31,108.15c0,1.43-1,3.19-2.25,3.91l-79.17,45.71c-.65.37-1.22.39-1.64.13-.39-.25-.63-.73-.63-1.43Z"/>
      <g class="cls-12">
        <path d="M296.35,199.43c-1.25.72-2.26,2.47-2.25,3.91l.02,6.76,48.68-28.1-.03-9.36-46.42,26.8Z"/>
      </g>
      <g>
        <polygon class="cls-17" points="299.98 272.91 299.98 272.91 300.51 271.99 301.51 272.57 300.51 271.99 299.98 272.91"/>
        <polygon class="cls-17" points="299.91 249.28 299.91 249.28 300.44 248.36 301.44 248.93 300.44 248.36 299.91 249.28"/>
        <polygon class="cls-17" points="302.41 237.65 302.95 237.96 302.41 237.65 302.41 237.65"/>
        <polygon class="cls-17" points="344.49 239.41 346.02 236.76 345.48 236.46 346.02 236.76 344.49 239.41 344.49 239.41"/>
        <polygon class="cls-17" points="302.22 299.76 302.59 299.12 303.12 299.43 302.59 299.12 302.22 299.76"/>
        <polygon class="cls-17" points="301.51 272.57 302.51 270.84 303.04 271.14 302.51 270.84 301.51 272.57"/>
        <polygon class="cls-17" points="345.51 246.01 344.52 247.74 343.52 247.16 342.98 248.08 342.98 248.08 343.52 247.16 344.52 247.74 345.51 246.01 346.05 246.31 346.05 246.31 345.51 246.01"/>
        <rect class="cls-17" x="345.71" y="222.22" width="0" height=".62"/>
        <polygon class="cls-17" points="343.06 276.37 343.06 276.37 343.6 275.45 344.6 276.02 343.6 275.45 343.06 276.37"/>
        <polygon class="cls-17" points="346.13 274.6 345.59 274.29 345.59 274.29 346.13 274.6 345.16 276.28 346.13 274.6"/>
        <polygon class="cls-17" points="300.59 300.28 300.06 301.2 300.59 300.28 301.59 300.85 301.59 300.85 300.59 300.28"/>
        <polygon class="cls-17" points="302.98 247.51 302.98 247.51 302.44 247.2 302.98 247.51"/>
        <polygon class="cls-17" points="300.38 226.43 301.38 227 300.38 226.43 300.38 226.43"/>
        <polygon class="cls-4" points="368.93 230.14 374.49 226.93 374.51 233.68 368.95 236.89 368.93 230.14"/>
        <polygon class="cls-4" points="368.91 220.59 374.46 217.38 374.48 224.13 368.93 227.34 368.91 220.59"/>
        <polygon class="cls-4" points="347.16 174.27 374.3 158.6 374.31 161.7 347.17 177.38 347.16 174.27"/>
        <polygon class="cls-4" points="299.85 227.35 300.38 226.43 301.38 227 302.38 225.28 302.91 225.58 301.39 228.23 299.85 227.35"/>
        <polygon class="cls-4" points="368.87 206.51 374.42 203.3 374.44 210.05 368.89 213.26 368.87 206.51"/>
        <polygon class="cls-4" points="368.84 196.96 374.4 193.75 374.42 200.5 368.86 203.71 368.84 196.96"/>
        <polygon class="cls-19" points="374.36 181.37 374.38 188.12 305.12 228.11 305.1 221.36 374.36 181.37"/>
        <path class="cls-19" d="M305.1,221.36l-7.45,4.3.02,6.75,7.45-4.3-.02-6.75ZM302.91,225.58l-1.53,2.65-1.54-.88.53-.92h0l1,.57.99-1.72.54.3Z"/>
        <polygon class="cls-19" points="374.33 171.31 374.35 178.06 305.09 218.05 305.07 211.3 374.33 171.31"/>
        <polygon class="cls-4" points="299.82 217.29 300.35 216.37 301.35 216.94 302.35 215.21 302.89 215.52 301.36 218.16 299.82 217.29"/>
        <path class="cls-19" d="M305.07,211.3l-7.45,4.3.02,6.75,7.45-4.3-.02-6.75ZM302.89,215.52l-1.53,2.64-1.54-.87.53-.93,1,.57.99-1.72.54.31Z"/>
        <polygon class="cls-4" points="342.89 214.9 343.42 213.98 344.42 214.55 345.42 212.82 345.95 213.13 344.43 215.78 342.89 214.9"/>
        <path class="cls-19" d="M348.16,215.66l-.02-6.75-7.45,4.3.02,6.75,7.45-4.3ZM345.95,213.13l-1.53,2.65-1.54-.88.53-.93,1,.58.99-1.73.54.31Z"/>
        <polygon class="cls-19" points="366.06 214.89 348.18 225.21 348.18 225.21 348.18 225.21 348.17 218.46 366.04 208.14 366.06 214.89"/>
        <polygon class="cls-19" points="348.14 208.91 366.01 198.59 366.03 205.34 348.16 215.66 348.14 208.91"/>
        <polygon class="cls-4" points="344.45 225.33 342.91 224.45 343.45 223.53 344.45 224.1 345.44 222.37 345.98 222.68 344.45 225.33"/>
        <path class="cls-19" d="M348.18,225.21l-.02-6.75h0l-7.45,4.3.02,6.75,7.45-4.3h0ZM345.98,222.68h0s-1.53,2.65-1.53,2.65l-1.54-.88.53-.93,1,.57.99-1.72h0l.54.31Z"/>
        <path class="cls-19" d="M305.16,243.29l-7.45,4.3.02,6.75,7.45-4.3-.02-6.75ZM302.98,247.51h0l-1.53,2.65-1.54-.88h0l.53-.93,1,.57.99-1.72.54.31h0Z"/>
        <path class="cls-19" d="M305.2,257.37l-7.45,4.3.02,6.75,7.45-4.3-.02-6.75ZM303.02,261.59l-1.53,2.65-1.54-.88.53-.92,1,.57.99-1.72.54.3Z"/>
        <path class="cls-19" d="M305.23,266.92l-7.45,4.3.02,6.75,7.45-4.3-.02-6.75ZM303.04,271.14l-1.53,2.65-1.54-.88h0l.53-.93,1,.58.99-1.73.54.31Z"/>
        <polygon class="cls-19" points="323.1 256.6 323.12 263.36 305.25 273.67 305.25 273.67 305.23 266.92 323.1 256.6"/>
        <polygon class="cls-19" points="323.07 247.05 323.09 253.8 305.22 264.12 305.2 257.37 323.07 247.05"/>
        <polygon class="cls-19" points="323.03 232.97 323.05 239.72 305.18 250.04 305.16 243.29 323.03 232.97"/>
        <polygon class="cls-19" points="323 223.42 323.02 230.17 305.15 240.49 305.13 233.74 323 223.42"/>
        <polygon class="cls-4" points="299.88 239.73 300.42 238.8 301.42 239.38 302.41 237.65 302.95 237.96 301.42 240.61 299.88 239.73"/>
        <path class="cls-19" d="M305.13,233.74l-7.45,4.3.02,6.75,7.45-4.3-.02-6.75h0ZM302.95,237.96l-1.53,2.65-1.54-.88.53-.93,1,.58.99-1.73h0l.54.31Z"/>
        <polygon class="cls-4" points="331.44 234.88 325.88 238.09 325.86 231.34 331.42 228.13 331.44 234.88"/>
        <polygon class="cls-4" points="325.83 221.79 331.39 218.58 331.41 225.33 325.85 228.54 325.83 221.79"/>
        <polygon class="cls-4" points="301.45 250.16 299.91 249.28 299.91 249.28 300.44 248.36 301.44 248.93 302.44 247.2 302.98 247.51 302.98 247.51 301.45 250.16"/>
        <polygon class="cls-19" points="366.1 228.98 348.22 239.29 348.22 239.29 348.22 239.29 348.21 232.54 366.08 222.22 366.1 228.98"/>
        <path class="cls-19" d="M348.22,239.29l-.02-6.75-7.45,4.3.02,6.75,7.45-4.3h0ZM346.02,236.76l-1.53,2.65h0l-1.54-.88.53-.92,1,.57.99-1.72.54.3Z"/>
        <polygon class="cls-4" points="344.49 239.41 344.49 239.41 342.95 238.53 343.49 237.62 344.49 238.19 345.48 236.46 346.02 236.76 344.49 239.41"/>
        <polygon class="cls-4" points="344.52 247.74 345.51 246.01 346.05 246.31 344.52 248.96 342.98 248.08 343.52 247.16 344.52 247.74"/>
        <path class="cls-19" d="M348.23,242.09h0s-7.45,4.3-7.45,4.3l.02,6.75,7.45-4.3h0l-.02-6.75ZM346.05,246.31h0s-1.53,2.65-1.53,2.65l-1.54-.88h0l.53-.93,1,.58.99-1.73.54.31Z"/>
        <polygon class="cls-4" points="359.28 255.93 359.26 249.17 364.82 245.96 364.84 252.72 359.28 255.93"/>
        <polygon class="cls-19" points="366.12 238.53 348.25 248.85 348.25 248.85 348.23 242.09 348.23 242.09 366.1 231.77 366.12 238.53"/>
        <polygon class="cls-19" points="348.31 270.38 348.31 270.38 374.57 255.22 374.59 261.97 348.33 277.13 348.31 270.38 348.31 270.38"/>
        <polygon class="cls-4" points="345.16 276.28 344.6 277.25 343.06 276.37 343.6 275.45 344.6 276.02 345.59 274.29 346.13 274.6 345.16 276.28"/>
        <path class="cls-19" d="M348.31,270.38l-7.45,4.3.02,6.75,7.45-4.3h0l-.02-6.75h0ZM346.13,274.6l-.97,1.68-.56.97-1.54-.88h0l.53-.93,1,.58.99-1.73h0s.54.31.54.31Z"/>
        <polygon class="cls-19" points="305.31 295.21 331.57 280.05 331.59 286.8 305.33 301.96 305.33 301.96 305.33 301.96 305.31 295.21"/>
        <polygon class="cls-12" points="374.36 181.37 374.38 188.12 305.12 228.11 305.1 221.36 374.36 181.37"/>
        <polygon class="cls-12" points="374.33 171.31 374.35 178.06 305.09 218.05 305.07 211.3 374.33 171.31"/>
        <polygon class="cls-12" points="366.06 214.89 348.18 225.21 348.18 225.21 348.18 225.21 348.17 218.46 366.04 208.14 366.06 214.89"/>
        <polygon class="cls-12" points="348.14 208.91 366.01 198.59 366.03 205.34 348.16 215.66 348.14 208.91"/>
        <polygon class="cls-12" points="323.1 256.6 323.12 263.36 305.25 273.67 305.25 273.67 305.23 266.92 323.1 256.6"/>
        <polygon class="cls-12" points="323.07 247.05 323.09 253.8 305.22 264.12 305.2 257.37 323.07 247.05"/>
        <polygon class="cls-12" points="323.03 232.97 323.05 239.72 305.18 250.04 305.16 243.29 323.03 232.97"/>
        <polygon class="cls-12" points="323 223.42 323.02 230.17 305.15 240.49 305.13 233.74 323 223.42"/>
        <polygon class="cls-12" points="366.1 228.98 348.22 239.29 348.22 239.29 348.22 239.29 348.21 232.54 366.08 222.22 366.1 228.98"/>
        <polygon class="cls-12" points="366.12 238.53 348.25 248.85 348.25 248.85 348.23 242.09 348.23 242.09 366.1 231.77 366.12 238.53"/>
        <polygon class="cls-12" points="348.31 270.38 348.31 270.38 374.57 255.22 374.59 261.97 348.33 277.13 348.31 270.38 348.31 270.38"/>
        <polygon class="cls-12" points="305.31 295.21 331.57 280.05 331.59 286.8 305.33 301.96 305.33 301.96 305.33 301.96 305.31 295.21"/>
        <path class="cls-19" d="M305.31,295.21l-7.45,4.3.02,6.75,7.45-4.3h0l-.02-6.75h0ZM303.12,299.43l-1.53,2.65-1.54-.88.53-.93,1,.58.63-1.1.36-.63.54.31Z"/>
        <path class="cls-14" d="M305.1,221.36l-7.45,4.3.02,6.75,7.45-4.3-.02-6.75ZM302.91,225.58l-1.53,2.65-1.54-.88.53-.92h0l1,.57.99-1.72.54.3Z"/>
        <path class="cls-14" d="M305.07,211.3l-7.45,4.3.02,6.75,7.45-4.3-.02-6.75ZM302.89,215.52l-1.53,2.64-1.54-.87.53-.93,1,.57.99-1.72.54.31Z"/>
        <path class="cls-14" d="M348.16,215.66l-.02-6.75-7.45,4.3.02,6.75,7.45-4.3ZM345.95,213.13l-1.53,2.65-1.54-.88.53-.93,1,.58.99-1.73.54.31Z"/>
        <path class="cls-14" d="M348.18,225.21l-.02-6.75h0l-7.45,4.3.02,6.75,7.45-4.3h0ZM345.98,222.68h0s-1.53,2.65-1.53,2.65l-1.54-.88.53-.93,1,.57.99-1.72h0l.54.31Z"/>
        <path class="cls-14" d="M305.16,243.29l-7.45,4.3.02,6.75,7.45-4.3-.02-6.75ZM302.98,247.51h0l-1.53,2.65-1.54-.88h0l.53-.93,1,.57.99-1.72.54.31h0Z"/>
        <path class="cls-14" d="M305.2,257.37l-7.45,4.3.02,6.75,7.45-4.3-.02-6.75ZM303.02,261.59l-1.53,2.65-1.54-.88.53-.92,1,.57.99-1.72.54.3Z"/>
        <path class="cls-14" d="M305.23,266.92l-7.45,4.3.02,6.75,7.45-4.3-.02-6.75ZM303.04,271.14l-1.53,2.65-1.54-.88h0l.53-.93,1,.58.99-1.73.54.31Z"/>
        <path class="cls-14" d="M305.13,233.74l-7.45,4.3.02,6.75,7.45-4.3-.02-6.75h0ZM302.95,237.96l-1.53,2.65-1.54-.88.53-.93,1,.58.99-1.73h0l.54.31Z"/>
        <path class="cls-14" d="M348.22,239.29l-.02-6.75-7.45,4.3.02,6.75,7.45-4.3h0ZM346.02,236.76l-1.53,2.65h0l-1.54-.88.53-.92,1,.57.99-1.72.54.3Z"/>
        <path class="cls-14" d="M348.23,242.09h0s-7.45,4.3-7.45,4.3l.02,6.75,7.45-4.3h0l-.02-6.75ZM346.05,246.31h0s-1.53,2.65-1.53,2.65l-1.54-.88h0l.53-.93,1,.58.99-1.73.54.31Z"/>
        <path class="cls-14" d="M348.31,270.38l-7.45,4.3.02,6.75,7.45-4.3h0l-.02-6.75h0ZM346.13,274.6l-.97,1.68-.56.97-1.54-.88h0l.53-.93,1,.58.99-1.73h0s.54.31.54.31Z"/>
        <path class="cls-14" d="M305.31,295.21l-7.45,4.3.02,6.75,7.45-4.3h0l-.02-6.75h0ZM303.12,299.43l-1.53,2.65-1.54-.88.53-.93,1,.58.63-1.1.36-.63.54.31Z"/>
        <polygon class="cls-4" points="300.06 301.2 300.59 300.28 301.59 300.85 301.59 300.85 302.22 299.76 302.59 299.12 303.12 299.43 301.59 302.08 300.06 301.2"/>
        <polygon class="cls-4" points="331.5 258.51 325.95 261.72 325.93 254.97 331.49 251.76 331.5 258.51"/>
        <polygon class="cls-4" points="331.48 248.96 325.92 252.17 325.9 245.42 331.46 242.21 331.48 248.96"/>
        <polygon class="cls-4" points="299.95 263.36 300.48 262.44 301.48 263.02 302.48 261.29 303.02 261.59 301.49 264.24 299.95 263.36"/>
        <polygon class="cls-4" points="299.98 272.91 299.98 272.91 300.51 271.99 301.51 272.57 302.51 270.84 303.04 271.14 301.51 273.79 299.98 272.91"/>
        <polygon class="cls-4" points="368.97 243.57 374.53 240.36 374.55 247.11 368.99 250.32 368.97 243.57"/>
        <polygon class="cls-4" points="342.98 265.34 337.42 268.55 337.4 261.8 342.96 258.59 342.98 265.34"/>
        <polygon class="cls-4" points="333.27 270.94 327.71 274.15 327.69 267.4 333.25 264.19 333.27 270.94"/>
        <polygon class="cls-4" points="313.08 275.84 313.1 282.59 307.54 285.8 307.52 279.04 313.08 275.84"/>
        <polygon class="cls-4" points="303.4 288.19 297.83 291.4 297.81 284.65 303.38 281.44 303.4 288.19"/>
        <g>
          <polygon class="cls-4" points="303.05 197.9 303.05 198.78 297.58 201.93 297.58 201.06 303.05 197.9"/>
          <polygon class="cls-4" points="303.07 203.26 297.6 206.42 297.59 205.55 303.06 202.39 303.07 203.26"/>
          <polygon class="cls-4" points="303.06 200.27 297.59 203.43 297.59 202.56 303.05 199.4 303.06 200.27"/>
          <polygon class="cls-4" points="303.06 201.76 297.59 204.92 297.59 204.06 303.06 200.9 303.06 201.76"/>
        </g>
      </g>
      <path class="cls-6" d="M290.41,195.18l79.17-45.71c.63-.36,1.19-.39,1.6-.16h0s5.92,4.24,5.92,4.24h0c-.41-.23-.97-.19-1.59.16l-79.17,45.71c-.7.4-1.31,1.13-1.72,1.94l-6.22-3.57c.37-1.07,1.13-2.11,2.01-2.62Z"/>
      <path class="cls-1" d="M294.62,201.38c-.33.64-.53,1.33-.53,1.97l.31,108.15c0,.69.24,1.18.63,1.43h0s-5.99-4.29-5.99-4.29h0c-.35-.27-.57-.73-.57-1.39l-.31-108.15c0-.41.09-.86.24-1.29l6.22,3.57Z"/>
    </g>
    <g>
      <path class="cls-19" d="M288.4,97.73l79.16-45.7c.59-.34,1.12-.38,1.52-.19h0s.04.02.04.02c.02.01.04.02.07.04l5.86,3.31c-.41-.2-.95-.16-1.54.19l-79.16,45.7c-1.25.72-2.26,2.47-2.26,3.9l.22,76.5c0,.72.26,1.22.67,1.45l-5.9-3.34s-.07-.04-.11-.06h-.02s0-.01,0-.01c-.37-.25-.6-.72-.6-1.4l-.22-76.5c0-1.43,1.01-3.18,2.26-3.9Z"/>
      <path class="cls-19" d="M292.31,181.49l-.22-76.5c0-1.43,1.01-3.18,2.26-3.9l79.16-45.7c.6-.34,1.13-.39,1.54-.19.04.02.08.04.12.07h0c.38.25.61.73.61,1.41l.22,76.5c0,1.43-1.01,3.18-2.26,3.9l-79.16,45.7c-.62.36-1.19.4-1.6.16-.41-.23-.67-.73-.67-1.45Z"/>
      <g class="cls-12">
        <path d="M294.35,101.08c-1.25.72-2.26,2.47-2.26,3.9l.03,8.83,47.33-27.33-.03-11.42-45.07,26.02Z"/>
      </g>
      <g>
        <polygon class="cls-17" points="361.76 98.45 362.25 98.72 361.76 98.45 361.76 98.45"/>
        <polygon class="cls-17" points="362.25 96.72 360.64 95.82 362.25 96.72 361.76 97.57 362.25 96.72"/>
        <polygon class="cls-17" points="360.66 101.48 362.25 98.72 360.66 101.48 360.66 101.48"/>
        <polygon class="cls-17" points="319.13 123.06 320.25 123.7 319.13 123.06 319.13 123.06"/>
        <polygon class="cls-17" points="321.83 120.06 321.35 120.9 321.83 120.06 320.23 119.14 318.64 121.9 320.23 119.14 321.83 120.06"/>
        <polygon class="cls-17" points="359.06 100.56 359.54 99.73 359.06 100.56 359.06 100.56"/>
        <polygon class="cls-17" points="361.84 124.23 362.33 124.5 361.84 124.23 361.84 124.23"/>
        <polygon class="cls-17" points="359.62 125.51 360.73 126.15 360.73 126.15 359.62 125.51"/>
        <polygon class="cls-17" points="360.64 96.93 359.94 98.15 360.64 96.93 360.64 96.93"/>
        <polygon class="cls-17" points="361.83 123.34 362.32 122.51 360.71 121.59 360.71 121.59 362.32 122.51 361.83 123.34 361.83 123.34"/>
        <rect class="cls-17" x="361.47" y="105.45" width="0" height="1.85" transform="translate(91.05 368.76) rotate(-60.53)"/>
        <polygon class="cls-17" points="359.57 109.83 360.68 110.47 360.68 110.47 359.57 109.83"/>
        <rect class="cls-17" x="318.65" y="147" width="2.22" transform="translate(32.58 350.42) rotate(-60)"/>
        <polygon class="cls-17" points="320.32 150.59 321.91 147.84 321.43 147.56 321.91 147.84 320.32 150.59 320.32 150.59"/>
        <polygon class="cls-17" points="321.91 145.84 320.31 144.92 318.72 147.68 318.72 147.68 320.31 144.92 321.91 145.84 321.43 146.67 321.91 145.84"/>
        <polygon class="cls-4" points="370.8 81.8 365.96 84.59 365.95 83.72 370.79 80.93 370.8 81.8"/>
        <polygon class="cls-4" points="370.79 80.29 364.64 83.84 364.63 82.97 370.79 79.41 370.79 80.29"/>
        <polygon class="cls-4" points="365.95 80.69 370.78 77.89 370.79 78.77 365.95 81.56 365.95 80.69"/>
        <polygon class="cls-4" points="370.78 77.25 364.63 80.81 364.63 79.93 370.78 76.38 370.78 77.25"/>
        <polygon class="cls-4" points="365.94 77.65 370.78 74.86 370.78 75.74 365.94 78.53 365.94 77.65"/>
        <polygon class="cls-4" points="344.92 75.73 370.17 61.15 370.18 64.72 344.93 79.3 344.92 75.73"/>
        <polygon class="cls-12" points="357.44 129.79 337.82 141.12 337.8 134.18 357.42 122.85 357.44 129.79"/>
        <polygon class="cls-4" points="363.94 134.71 338.68 149.29 338.67 145.72 363.93 131.14 363.94 134.71"/>
        <polygon class="cls-4" points="351.17 90.74 357.32 87.19 357.32 88.06 351.17 91.62 351.17 90.74"/>
        <polygon class="cls-4" points="352.22 92.53 352.21 91.65 356.29 89.3 356.29 90.18 352.22 92.53"/>
        <polygon class="cls-4" points="356.28 86.27 356.28 87.14 352.21 89.49 352.21 88.62 356.28 86.27"/>
        <polygon class="cls-4" points="351.16 87.71 357.31 84.16 357.31 85.03 351.16 88.58 351.16 87.71"/>
        <polygon class="cls-4" points="356.27 83.24 356.27 84.12 352.2 86.47 352.2 85.59 356.27 83.24"/>
        <path class="cls-14" d="M363.97,93.25l-6.62,3.82.02,6.94,6.62-3.82-.02-6.94ZM362.25,96.72l-.49.84-1.12-.64-.7,1.22-.4.7-.49-.28,1.59-2.75,1.61.91ZM362.25,98.72l-1.6,2.76h0l-1.6-.92h0s.49-.84.49-.84l1.11.64,1.11-1.92h0l.49.27Z"/>
        <polygon class="cls-4" points="360.68 110.47 360.68 110.47 360.68 110.47 361.79 108.55 362.28 108.83 360.68 111.59 359.09 110.68 359.57 109.83 360.68 110.47"/>
        <polygon class="cls-4" points="362.28 106.83 361.79 107.67 360.67 107.04 359.57 108.95 359.08 108.67 360.67 105.92 362.28 106.83"/>
        <path class="cls-14" d="M357.4,114.12l6.62-3.82-.02-6.94-6.62,3.82.02,6.94ZM359.09,110.68l.49-.84,1.11.64h0l1.11-1.92.49.28-1.6,2.76-1.6-.91ZM359.08,108.67l1.59-2.75h0l1.61.91h0s-.49.84-.49.84l-1.12-.64-1.1,1.92-.49-.28Z"/>
        <polygon class="cls-12" points="357.4 114.12 337.77 125.45 337.75 118.51 357.38 107.18 357.4 114.12"/>
        <polygon class="cls-12" points="357.37 104.02 337.74 115.35 337.72 108.41 357.35 97.08 357.37 104.02"/>
        <polygon class="cls-4" points="342.46 95.12 337.69 97.87 337.69 97 342.46 94.25 342.46 95.12"/>
        <polygon class="cls-4" points="343.85 95.84 337.7 99.39 337.7 98.52 343.85 94.97 343.85 95.84"/>
        <polygon class="cls-4" points="343.84 92.81 337.69 96.36 337.69 95.49 343.84 91.93 343.84 92.81"/>
        <polygon class="cls-4" points="342.45 92.1 337.69 94.85 337.68 93.97 342.45 91.22 342.45 92.1"/>
        <polygon class="cls-4" points="342.47 98.16 337.7 100.91 337.7 100.03 342.46 97.28 342.47 98.16"/>
        <polygon class="cls-4" points="330.37 99.07 324.21 102.63 324.21 101.75 330.37 98.19 330.37 99.07"/>
        <polygon class="cls-4" points="330.38 100.58 324.21 104.14 324.21 103.27 330.37 99.71 330.38 100.58"/>
        <polygon class="cls-4" points="330.39 105.13 326.03 107.64 326.03 106.77 330.39 104.26 330.39 105.13"/>
        <polygon class="cls-4" points="330.38 103.62 324.22 107.17 324.22 106.3 330.38 102.74 330.38 103.62"/>
        <polygon class="cls-4" points="330.38 102.1 324.22 105.65 324.22 104.78 330.38 101.22 330.38 102.1"/>
        <polygon class="cls-4" points="310.76 116.46 310.76 115.59 314.77 113.27 314.77 114.15 310.76 116.46"/>
        <polygon class="cls-4" points="310.75 114.08 316.91 110.52 316.91 111.39 310.75 114.95 310.75 114.08"/>
        <polygon class="cls-4" points="310.75 112.56 316.91 109 316.91 109.87 310.75 113.43 310.75 112.56"/>
        <polygon class="cls-4" points="310.74 111.04 316.9 107.49 316.91 108.36 310.75 111.92 310.74 111.04"/>
        <polygon class="cls-4" points="310.74 109.52 316.9 105.97 316.9 106.85 310.74 110.4 310.74 109.52"/>
        <polygon class="cls-12" points="316.96 127.34 297.33 138.68 297.31 131.74 316.94 120.41 316.96 127.34"/>
        <polygon class="cls-4" points="303.45 120.68 297.29 124.24 297.29 123.37 303.45 119.81 303.45 120.68"/>
        <polygon class="cls-4" points="303.45 119.17 297.28 122.73 297.28 121.85 303.44 118.3 303.45 119.17"/>
        <polygon class="cls-4" points="303.44 117.65 297.28 121.21 297.28 120.33 303.44 116.78 303.44 117.65"/>
        <polygon class="cls-4" points="303.44 116.14 297.28 119.69 297.27 118.82 303.43 115.26 303.44 116.14"/>
        <polygon class="cls-4" points="303.43 113.74 303.43 114.62 297.27 118.18 297.27 117.3 303.43 113.74"/>
        <polygon class="cls-4" points="367.89 94.03 370.82 92.33 370.83 93.21 367.89 94.9 367.89 94.03"/>
        <polygon class="cls-4" points="370.82 91.69 367.08 93.84 367.08 92.97 370.82 90.81 370.82 91.69"/>
        <polygon class="cls-4" points="367.88 91 370.82 89.3 370.82 90.17 367.88 91.87 367.88 91"/>
        <polygon class="cls-4" points="370.83 94.72 367.09 96.88 367.09 96 370.83 93.85 370.83 94.72"/>
        <polygon class="cls-4" points="367.9 97.05 370.83 95.36 370.84 96.24 367.9 97.94 367.9 97.05"/>
        <polygon class="cls-4" points="361.76 97.57 360.64 96.93 360.64 96.93 359.94 98.15 359.54 98.85 359.05 98.57 360.64 95.82 362.25 96.72 361.76 97.57"/>
        <polygon class="cls-4" points="360.66 101.48 359.06 100.56 359.06 100.56 359.54 99.73 360.65 100.37 361.76 98.45 361.76 98.45 362.25 98.72 360.66 101.48 360.66 101.48"/>
        <polygon class="cls-4" points="327.49 120.38 330.43 118.69 330.43 119.57 327.49 121.26 327.49 120.38"/>
        <polygon class="cls-4" points="330.42 118.05 326.69 120.21 326.68 119.33 330.42 117.17 330.42 118.05"/>
        <polygon class="cls-4" points="327.48 117.36 330.42 115.66 330.42 116.54 327.48 118.23 327.48 117.36"/>
        <polygon class="cls-4" points="330.42 115.02 326.68 117.17 326.68 116.3 330.41 114.14 330.42 115.02"/>
        <polygon class="cls-4" points="327.47 114.33 330.41 112.63 330.41 113.5 327.47 115.2 327.47 114.33"/>
        <polygon class="cls-4" points="321.83 120.06 321.35 120.9 320.24 120.26 319.13 122.18 318.64 121.9 320.23 119.14 321.83 120.06"/>
        <polygon class="cls-4" points="320.25 123.7 321.36 121.78 321.84 122.05 320.25 124.81 318.65 123.89 319.13 123.06 320.25 123.7"/>
        <path class="cls-14" d="M316.96,127.34l6.62-3.82-.02-6.94-6.62,3.82.02,6.94ZM318.65,123.89l.48-.83h0l1.12.64,1.11-1.92.48.28-1.59,2.76-1.6-.92ZM318.64,121.9l1.59-2.75,1.6.91-.48.84-1.12-.64-1.11,1.92-.48-.28Z"/>
        <polygon class="cls-4" points="367.16 120.27 370.9 118.11 370.9 118.98 367.16 121.14 367.16 120.27"/>
        <polygon class="cls-4" points="370.9 117.47 367.16 119.63 367.16 118.76 370.89 116.6 370.9 117.47"/>
        <polygon class="cls-4" points="370.89 115.96 367.15 118.12 367.15 117.24 370.89 115.08 370.89 115.96"/>
        <polygon class="cls-4" points="367.16 121.79 370.9 119.63 370.9 120.5 367.17 122.66 367.16 121.79"/>
        <polygon class="cls-4" points="367.17 123.3 370.91 121.14 370.91 122.02 367.17 124.17 367.17 123.3"/>
        <polygon class="cls-4" points="360.73 126.15 360.73 126.15 360.73 126.15 361.84 124.23 362.33 124.5 360.73 127.26 359.13 126.35 359.62 125.51 360.73 126.15"/>
        <polygon class="cls-4" points="361.83 123.34 360.72 122.71 359.61 124.62 359.12 124.35 360.71 121.59 362.32 122.51 361.83 123.34"/>
        <path class="cls-14" d="M357.44,129.79l6.62-3.82-.02-6.94-6.62,3.82.02,6.94ZM362.32,122.51l-.49.84h0l-1.12-.64-1.1,1.92-.49-.27,1.59-2.76h0l1.61.92ZM359.13,126.35l.49-.84,1.11.63h0l1.11-1.91h0l.49.27-1.6,2.76-1.6-.91Z"/>
        <polygon class="cls-4" points="330.49 139.29 326.75 141.45 326.74 140.56 330.48 138.41 330.49 139.29"/>
        <polygon class="cls-4" points="330.49 140.8 326.75 142.96 326.75 142.08 330.49 139.93 330.49 140.8"/>
        <polygon class="cls-4" points="330.5 143.83 326.76 145.99 326.76 145.12 330.5 142.96 330.5 143.83"/>
        <polygon class="cls-4" points="330.49 142.31 326.75 144.47 326.75 143.6 330.49 141.44 330.49 142.31"/>
        <polygon class="cls-4" points="330.5 145.35 326.76 147.5 326.76 146.63 330.5 144.47 330.5 145.35"/>
        <polygon class="cls-12" points="317.03 153.12 297.4 164.45 297.38 157.52 317.01 146.18 317.03 153.12"/>
        <polygon class="cls-4" points="320.32 150.59 318.72 149.68 319.2 148.85 320.32 149.48 321.43 147.56 321.91 147.84 320.32 150.59"/>
        <path class="cls-14" d="M323.64,142.36l-6.62,3.82.02,6.94,6.62-3.82-.02-6.94ZM321.91,145.84l-.48.83-1.12-.64-1.11,1.92h0s-.48-.28-.48-.28h0l1.59-2.76,1.6.92ZM321.91,147.84l-1.59,2.75h0l-1.6-.91.48-.83,1.12.63,1.11-1.91.48.28Z"/>
        <polygon class="cls-4" points="321.91 145.84 321.43 146.67 320.31 146.04 320.31 146.04 319.2 147.96 319.2 147.96 318.72 147.68 318.72 147.68 320.31 144.92 321.91 145.84"/>
        <polygon class="cls-4" points="370.06 106.81 367.13 108.5 367.12 107.63 370.06 105.93 370.06 106.81"/>
        <polygon class="cls-4" points="370.85 101.8 367.11 103.96 367.11 103.08 370.85 100.92 370.85 101.8"/>
        <polygon class="cls-4" points="370.05 100.74 367.11 102.44 367.11 101.56 370.04 99.87 370.05 100.74"/>
        <polygon class="cls-4" points="370.06 103.77 367.12 105.47 367.11 104.6 370.05 102.9 370.06 103.77"/>
        <polygon class="cls-4" points="370.86 104.83 367.12 106.99 367.12 106.11 370.86 103.95 370.86 104.83"/>
        <polygon class="cls-4" points="370.93 131.05 367.17 133.23 367.16 128.89 370.92 126.72 370.93 131.05"/>
      </g>
      <g>
        <polygon class="cls-4" points="302.74 99.62 302.74 100.49 297.27 103.65 297.27 102.77 302.74 99.62"/>
        <polygon class="cls-4" points="302.75 104.97 297.28 108.13 297.28 107.26 302.75 104.11 302.75 104.97"/>
        <polygon class="cls-4" points="302.75 101.99 297.28 105.14 297.27 104.27 302.74 101.11 302.75 101.99"/>
        <polygon class="cls-4" points="302.75 103.48 297.28 106.63 297.28 105.77 302.75 102.61 302.75 103.48"/>
      </g>
      <path class="cls-6" d="M288.4,97.73l79.16-45.7c.59-.34,1.12-.38,1.52-.19h0s.04.02.04.02c.02.01.04.02.07.04l5.86,3.31c-.41-.2-.95-.16-1.54.19l-79.16,45.7c-.61.35-1.17.96-1.58,1.65l-5.95-3.38c.41-.69.96-1.28,1.57-1.64Z"/>
      <path class="cls-1" d="M292.77,102.74c-.42.71-.68,1.52-.68,2.25l.22,76.5c0,.72.26,1.22.67,1.45l-5.9-3.34s-.07-.04-.11-.06h-.02s0-.01,0-.01c-.37-.25-.6-.72-.6-1.4l-.22-76.5c0-.73.27-1.55.69-2.27l5.95,3.38Z"/>
    </g>
    <g>
      <path d="M119.26,294.77l33.35-19.26c.99-.57,1.79-.11,1.78,1.03v.33c-.02,1.14-.82,2.53-1.81,3.1l-33.33,19.24c-.99.57-1.79.11-1.79-1.03v-1.14c0-1.14.8-1.7,1.79-2.27Z"/>
      <g>
        <g>
          <path d="M117.47,308.31c-.11,0-.21-.06-.27-.15-.09-.15-.03-.34.11-.42l63.79-36.83c.14-.09.34-.04.42.11.09.15.03.34-.11.42l-63.79,36.83s-.1.04-.15.04Z"/>
          <path d="M117.47,312.19c-.11,0-.21-.06-.27-.15-.09-.15-.03-.34.11-.42l23.5-13.57c.15-.08.34-.03.42.11.09.15.03.34-.11.42l-23.5,13.57s-.1.04-.15.04Z"/>
          <path d="M144.33,296.68c-.11,0-.21-.06-.27-.15-.09-.15-.03-.34.11-.42l13.43-7.75c.14-.08.34-.04.42.11.09.15.03.34-.11.42l-13.43,7.75s-.1.04-.15.04Z"/>
          <path d="M161.07,287.01c-.11,0-.21-.06-.27-.15-.09-.15-.03-.34.11-.42l20.18-11.65c.14-.08.34-.04.42.11.09.15.03.34-.11.42l-20.18,11.65s-.1.04-.15.04Z"/>
          <path d="M117.47,316.07c-.11,0-.21-.06-.27-.15-.09-.15-.03-.34.11-.42l10.07-5.82c.14-.08.34-.04.42.11.09.15.03.34-.11.42l-10.07,5.82s-.1.04-.15.04Z"/>
          <path d="M130.9,308.31c-.11,0-.21-.06-.27-.15-.09-.15-.03-.34.11-.42l23.5-13.57c.15-.08.34-.04.42.11.09.15.03.34-.11.42l-23.5,13.57s-.1.04-.15.04Z"/>
          <path d="M157.76,292.8c-.11,0-.21-.06-.27-.15-.09-.15-.03-.34.11-.42l23.5-13.57c.15-.08.34-.03.42.11.09.15.03.34-.11.42l-23.5,13.57s-.1.04-.15.04Z"/>
        </g>
        <g>
          <path d="M117.47,319.94c-.11,0-.21-.06-.27-.15-.09-.15-.03-.34.11-.42l63.79-36.83c.14-.08.34-.04.42.11.09.15.03.34-.11.42l-63.79,36.83s-.1.04-.15.04Z"/>
          <path d="M117.47,323.82c-.11,0-.21-.06-.27-.15-.09-.15-.03-.34.11-.42l23.5-13.57c.15-.08.34-.03.42.11.09.15.03.34-.11.42l-23.5,13.57s-.1.04-.15.04Z"/>
          <path d="M144.33,308.31c-.11,0-.21-.06-.27-.15-.09-.15-.03-.34.11-.42l13.43-7.75c.14-.08.34-.04.42.11.09.15.03.34-.11.42l-13.43,7.75s-.1.04-.15.04Z"/>
          <path d="M161.07,298.64c-.11,0-.21-.06-.27-.15-.09-.15-.03-.34.11-.42l20.18-11.65c.14-.08.34-.04.42.11.09.15.03.34-.11.42l-20.18,11.65s-.1.04-.15.04Z"/>
          <path d="M117.47,327.7c-.11,0-.21-.06-.27-.15-.09-.15-.03-.34.11-.42l10.07-5.82c.14-.08.34-.04.42.11.09.15.03.34-.11.42l-10.07,5.82s-.1.04-.15.04Z"/>
          <path d="M130.9,319.94c-.11,0-.21-.06-.27-.15-.09-.15-.03-.34.11-.42l23.5-13.57c.15-.08.34-.03.42.11.09.15.03.34-.11.42l-23.5,13.57s-.1.04-.15.04Z"/>
          <path d="M157.76,304.43c-.11,0-.21-.06-.27-.15-.09-.15-.03-.34.11-.42l23.5-13.57c.15-.08.34-.03.42.11.09.15.03.34-.11.42l-23.5,13.57s-.1.04-.15.04Z"/>
        </g>
      </g>
    </g>
    <g>
      <g>
        <path d="M186.53,268.95c-.11,0-.21-.06-.27-.15-.09-.15-.03-.34.11-.42l63.79-36.83c.14-.09.34-.04.42.11.09.15.03.34-.11.42l-63.79,36.83s-.1.04-.15.04Z"/>
        <path d="M186.53,272.82c-.11,0-.21-.06-.27-.15-.09-.15-.03-.34.11-.42l23.5-13.57c.15-.08.34-.03.42.11.09.15.03.34-.11.42l-23.5,13.57s-.1.04-.15.04Z"/>
        <path d="M213.39,257.32c-.11,0-.21-.06-.27-.15-.09-.15-.03-.34.11-.42l13.43-7.75c.14-.08.34-.04.42.11.09.15.03.34-.11.42l-13.43,7.75s-.1.04-.15.04Z"/>
        <path d="M230.14,247.65c-.11,0-.21-.06-.27-.15-.09-.15-.03-.34.11-.42l20.18-11.65c.14-.08.34-.04.42.11.09.15.03.34-.11.42l-20.18,11.65s-.1.04-.15.04Z"/>
        <path d="M186.53,276.7c-.11,0-.21-.06-.27-.15-.09-.15-.03-.34.11-.42l10.07-5.82c.14-.08.34-.04.42.11.09.15.03.34-.11.42l-10.07,5.82s-.1.04-.15.04Z"/>
        <path d="M199.96,268.95c-.11,0-.21-.06-.27-.15-.09-.15-.03-.34.11-.42l23.5-13.57c.15-.08.34-.04.42.11.09.15.03.34-.11.42l-23.5,13.57s-.1.04-.15.04Z"/>
        <path d="M226.82,253.44c-.11,0-.21-.06-.27-.15-.09-.15-.03-.34.11-.42l23.5-13.57c.15-.08.34-.03.42.11.09.15.03.34-.11.42l-23.5,13.57s-.1.04-.15.04Z"/>
      </g>
      <g>
        <path d="M186.53,280.58c-.11,0-.21-.06-.27-.15-.09-.15-.03-.34.11-.42l63.79-36.83c.14-.08.34-.04.42.11.09.15.03.34-.11.42l-63.79,36.83s-.1.04-.15.04Z"/>
        <path d="M186.53,284.46c-.11,0-.21-.06-.27-.15-.09-.15-.03-.34.11-.42l23.5-13.57c.15-.08.34-.03.42.11.09.15.03.34-.11.42l-23.5,13.57s-.1.04-.15.04Z"/>
        <path d="M213.39,268.95c-.11,0-.21-.06-.27-.15-.09-.15-.03-.34.11-.42l13.43-7.75c.14-.08.34-.04.42.11.09.15.03.34-.11.42l-13.43,7.75s-.1.04-.15.04Z"/>
        <path d="M230.14,259.28c-.11,0-.21-.06-.27-.15-.09-.15-.03-.34.11-.42l20.18-11.65c.14-.08.34-.04.42.11.09.15.03.34-.11.42l-20.18,11.65s-.1.04-.15.04Z"/>
        <path d="M186.53,288.33c-.11,0-.21-.06-.27-.15-.09-.15-.03-.34.11-.42l10.07-5.82c.14-.08.34-.04.42.11.09.15.03.34-.11.42l-10.07,5.82s-.1.04-.15.04Z"/>
        <path d="M199.96,280.58c-.11,0-.21-.06-.27-.15-.09-.15-.03-.34.11-.42l23.5-13.57c.15-.08.34-.03.42.11.09.15.03.34-.11.42l-23.5,13.57s-.1.04-.15.04Z"/>
        <path d="M226.82,265.07c-.11,0-.21-.06-.27-.15-.09-.15-.03-.34.11-.42l23.5-13.57c.15-.08.34-.03.42.11.09.15.03.34-.11.42l-23.5,13.57s-.1.04-.15.04Z"/>
      </g>
    </g>
    <g>
      <path class="cls-19" d="M259.01,243.14l21.74-12.55c.99-.57,1.79-.11,1.78,1.03v.33c-.02,1.14-.82,2.53-1.81,3.1l-21.71,12.54c-.99.57-1.79.11-1.79-1.03v-1.14c0-1.14.8-1.7,1.79-2.27Z"/>
      <path class="cls-18" d="M259.01,243.14l21.74-12.55c.99-.57,1.79-.11,1.78,1.03v.33c-.02,1.14-.82,2.53-1.81,3.1l-21.71,12.54c-.99.57-1.79.11-1.79-1.03v-1.14c0-1.14.8-1.7,1.79-2.27Z"/>
    </g>
  </g>
  <g id="Character">
    <g>
      <g>
        <path d="M117.3,268.65c-.11,0-.21-.06-.27-.15-.09-.15-.03-.34.11-.42l151.23-87.18c.14-.09.34-.04.42.11.09.15.03.34-.11.42l-151.23,87.19s-.1.04-.15.04Z"/>
        <path d="M117.3,272.53c-.11,0-.21-.06-.27-.15-.09-.15-.03-.34.11-.42l23.5-13.57c.15-.08.34-.03.42.11.09.15.03.34-.11.42l-23.5,13.57s-.1.04-.15.04Z"/>
        <path d="M144.16,257.02c-.11,0-.21-.06-.27-.15-.09-.15-.03-.34.11-.42l13.43-7.75c.14-.08.34-.04.42.11.09.15.03.34-.11.42l-13.43,7.75s-.1.04-.15.04Z"/>
        <path d="M160.9,247.35c-.11,0-.21-.06-.27-.15-.09-.15-.03-.34.11-.42l107.37-62.06c.14-.08.34-.04.42.11.09.15.03.34-.11.42l-107.37,62.06s-.1.04-.15.04Z"/>
        <path d="M117.3,276.41c-.11,0-.21-.06-.27-.15-.09-.15-.03-.34.11-.42l10.07-5.82c.14-.08.34-.04.42.11.09.15.03.34-.11.42l-10.07,5.82s-.1.04-.15.04Z"/>
        <path d="M130.73,268.65c-.11,0-.21-.06-.27-.15-.09-.15-.03-.34.11-.42l23.5-13.57c.15-.08.34-.04.42.11.09.15.03.34-.11.42l-23.5,13.57s-.1.04-.15.04Z"/>
        <path d="M157.59,253.14c-.11,0-.21-.06-.27-.15-.09-.15-.03-.34.11-.42l110.66-63.85c.15-.08.34-.03.42.11.09.15.03.34-.11.42l-110.66,63.85s-.1.04-.15.04Z"/>
      </g>
      <g>
        <path d="M117.3,280.28c-.11,0-.21-.06-.27-.15-.09-.15-.03-.34.11-.42l150.77-86.79c.14-.08.34-.04.42.11.09.15.03.34-.11.42l-150.77,86.79s-.1.04-.15.04Z"/>
        <path d="M117.3,284.16c-.11,0-.21-.06-.27-.15-.09-.15-.03-.34.11-.42l116.17-66.48c.15-.08.34-.03.42.11.09.15.03.34-.11.42l-116.17,66.48s-.1.04-.15.04Z"/>
        <path d="M236.58,215.8c-.11,0-.21-.06-.27-.15-.09-.15-.03-.34.11-.42l13.43-7.75c.14-.08.34-.04.42.11.09.15.03.34-.11.42l-13.43,7.75s-.1.04-.15.04Z"/>
        <path d="M253.33,206.13c-.11,0-.21-.06-.27-.15-.09-.15-.03-.34.11-.42l14.35-8.32c.14-.08.34-.04.42.11.09.15.03.34-.11.42l-14.35,8.32s-.1.04-.15.04Z"/>
        <path d="M117.3,288.04c-.11,0-.21-.06-.27-.15-.09-.15-.03-.34.11-.42l10.07-5.82c.14-.08.34-.04.42.11.09.15.03.34-.11.42l-10.07,5.82s-.1.04-.15.04Z"/>
        <path d="M130.73,280.28c-.11,0-.21-.06-.27-.15-.09-.15-.03-.34.11-.42l117.34-66.41c.15-.08.34-.03.42.11.09.15.03.34-.11.42l-117.34,66.41s-.1.04-.15.04Z"/>
        <path d="M251.16,211.92c-.11,0-.21-.06-.27-.15-.09-.15-.03-.34.11-.42l16.74-9.52c.15-.08.34-.03.42.11.09.15.03.34-.11.42l-16.74,9.52s-.1.04-.15.04Z"/>
      </g>
    </g>
    <g id="Note">
      <g>
        <path class="cls-11" d="M151.44,391.36c-2.97,1.72-21.27,12.28-34.16,19.71-3.63-1.76-12.37-5.5-14.66-9.96l-3.27-32.49,47.56-27.46,4.54,50.2Z"/>
        <path class="cls-2" d="M151.44,391.36c-2.97,1.72-21.27,12.28-34.16,19.71-3.63-1.76-12.37-5.5-14.66-9.96l-3.27-32.49,47.56-27.46,4.54,50.2Z"/>
        <g>
          <path d="M142.66,356.61c-.65.86-1.46,2.18-2.65,2.28-.32.03-.66-.06-.95-.23.08-.69-.12-1.64-.99-1.5-.05,0-.12.07-.14.12-.13.59.1,1.12.5,1.5-.29,1.18-.78,2.32-1.46,3.33-.33.49-.71,1.03-1.24,1.33-.3.17-.67.25-.97.03-.12-.09-.21-.21-.25-.34.03-.16.06-.31.09-.47.04-.23-.35-.6-.52-.33-.01.02-.02.04-.03.06,0,0,0,0,0,0,0,0,0,.01,0,.02-.09.18-.13.36-.11.54-.15.74-.34,1.46-.6,2.17-.26.69-.64,1.76-1.46,1.95-.87.2-1.19-.9-1.19-1.55,0-.95.3-1.86,0-2.79-.07-.2-.44-.43-.55-.14-.89,2.38-1.79,4.76-2.68,7.15-.31.83-.73,2.61-1.98,2.27-.61-.17-.93-.68-1.1-1.27.25-.51.48-1.03.7-1.55.25-.59.49-1.18.71-1.78.23-.62.54-1.29.61-1.95.05-.43-.11-.88-.53-1.07-.44-.2-.86.05-1.15.38-.38.44-.57,1.07-.73,1.62-.19.67-.31,1.37-.35,2.07-.03.66-.02,1.42.15,2.11-.43.91-.88,1.92-1.57,2.64-.44.46-1.05.85-1.62.37-.29-.24-.54-.6-.94-.66-.42-.07-.64.26-.77.61-.23.64-.43,1.3-.63,1.95-.45-.43-.35-1.54-1.17-1.57-.5-.02-.68.47-.83.85-.2.52-.4,1.04-.6,1.56-.09-.69-.18-1.38-.26-2.08-.02-.18-.35-.43-.47-.19-.51,1.01-1.03,2.02-1.54,3.04-.24.48-.49.96-.73,1.43-.13.26-.37.96-.7,1.27.46-1.68.78-3.39.91-5.13.06-.81.18-1.71.03-2.52-.1-.54-.42-1.03-.99-1.13-.69-.13-1.46.33-2.01.7-.58.39-1.09.9-1.49,1.46-.82,1.14-1.22,2.5-1.15,3.9,0,.14.23.25.23.06-.02-1.26.39-2.5,1.13-3.52.68-.94,1.83-1.99,3.03-2.14,1.03-.13.88,1.12.85,1.79-.03.79-.11,1.57-.21,2.36-.19,1.51-.51,3-.94,4.46-.05.16.14.31.27.34.43.11.73-.18.95-.53.35-.57.62-1.21.93-1.81.51-1,1.02-2.01,1.53-3.01.1.75.19,1.51.29,2.26.02.17.38.44.48.19.25-.64.49-1.28.74-1.92.08-.21.45-1.52.8-1.06.4.54.36,1.26,1.08,1.55.08.03.23.02.26-.08.24-.72.43-1.47.71-2.17.08-.2.11-.46.43-.37.1.03.23.2.31.27.19.18.37.36.61.48,1,.48,1.96-.51,2.45-1.28.32-.51.61-1.05.89-1.59.1.2.22.39.38.56.68.75,1.85.96,2.58.16.45-.49.64-1.18.87-1.78l.93-2.47c.47-1.25.94-2.5,1.41-3.76-.06.69-.2,1.39-.02,2.08.19.72.7,1.44,1.5,1.5.89.07,1.5-.72,1.85-1.44.37-.76.63-1.59.83-2.42.2.18.44.31.7.36,1.14.21,1.99-1.01,2.51-1.83.62-.96,1.09-2.04,1.36-3.15.32.16.67.27,1.01.28,1.45.04,2.42-1.35,3.02-2.49.09-.17-.17-.53-.32-.32ZM124.17,368.94c.01-1.14.23-2.36.74-3.4.1-.21.28-.5.5-.62.44-.23.42.3.35.59-.13.54-.34,1.08-.53,1.61-.31.86-.66,1.7-1.04,2.53-.01-.25-.02-.5-.02-.71Z"/>
          <path d="M142.43,372.42c-.23.19-.55.21-.77,0-.13-.13-.44-.24-.58-.05-.55.74-.72,1.61-1.04,2.45-.28.74-1,1.86-1.95,1.52-.6-.21-.91-.92-1.04-1.54.29-1.08.49-2.19.58-3.31.03-.36-.57-.52-.72-.2-.51,1.03-.8,2.24-.61,3.39,0,0,0,0,0,0-.3,1.12-.71,2.2-1.22,3.25-.25.52-.53,1.03-.83,1.52-.28.45-.58,1.03-1.07,1.3-.81.45-1.46-.11-1.87-.8.26-.57.52-1.15.77-1.72.64-1.43,1.39-2.87,1.77-4.4.21-.87.58-3.18-.89-3.17-1.17,0-1.9,1.6-2.29,2.49-.55,1.26-.82,2.66-.76,4.04.04.9.18,1.94.61,2.79-.22.52-.52,1.37-1.19,1.22-.75-.16-.91-1.15-1.03-1.76-.04-.22-.5-.5-.63-.2-.56,1.33-1.1,2.67-1.69,3.98-.17.39-.39.68-.83.4-.24-.16-.46-.38-.66-.59-.5-.53-.89-1.16-1.16-1.84-.09-.23-.53-.39-.62-.07-.64,2.3-1.66,4.45-3,6.42-.69-1.09-.92-2.4-.67-3.65.12-.37.24-.74.34-1.1.08-.3-.42-.58-.56-.26-.17.38-.29.78-.37,1.18-.56,1.67-1.29,3.3-2.26,4.77-.52.79-1.18,1.57-2.08,1.93-.84.34-1.89.26-2.52-.44-.2-.22-.36.07-.2.26.59.68,1.49.92,2.36.79,1.04-.16,1.87-.85,2.51-1.65.88-1.12,1.58-2.42,2.14-3.76.14.93.5,1.82,1.09,2.57.12.15.4.29.54.08,1.35-1.9,2.37-3.99,3.07-6.21.24.43.52.84.86,1.21.44.48,1.13,1.22,1.86,1.07.74-.16.97-1.3,1.22-1.89.29-.68.58-1.37.87-2.05.33.84.92,1.59,1.94,1.39.59-.11.89-.63,1.12-1.12.06.06.11.13.17.19.92.86,2.28.9,3.11-.09,1.01-1.21,1.72-2.82,2.26-4.29.07-.19.13-.39.19-.59.25.42.59.78,1.03.98.93.41,1.89-.01,2.46-.79.67-.91.75-2.08,1.31-3.03.48.22,1.03.18,1.47-.19.31-.26-.29-.67-.58-.44ZM131.69,372.77c.23-.42.48-.88.84-1.2.25-.22.58-.45.74-.03.12.3.08.74.06,1.06-.08,1.19-.54,2.3-1.02,3.38-.46,1.03-.92,2.06-1.38,3.09-.01-.03-.02-.07-.03-.1-.55-2.07-.23-4.33.79-6.2Z"/>
          <path d="M139.88,386.97c-.86.7-2.06.9-2.89,1.65-.45.4-.68.95-1.02,1.44-.18.26-.41.5-.71.61-.39.14-.57-.1-.81-.36-.85-.92-1.92-.41-2.44.58-.53,1.01-1.03,3.23-2.63,2.75-.58-.17-1.12-.53-1.75-.35-.59.17-.91.72-1.17,1.24-.16.33.46.66.62.34.17-.33.36-.76.71-.94.41-.22.84.04,1.23.18.7.27,1.37.26,2-.18.62-.43.97-1.1,1.26-1.78.22-.51.86-2.32,1.62-1.49.47.5.95.87,1.67.64.7-.22,1.07-.81,1.43-1.4.44-.72.96-1.08,1.71-1.43.34-.15.69-.3.99-.52.28-.2.31-.36.44-.65.06-.12-.12-.42-.26-.31Z"/>
          <path d="M144.12,385.15s-.04-.09-.08-.12c-.02-.02-.04-.03-.06-.05-.04-.03-.08-.04-.12-.05-.03,0-.06,0-.09,0-.03,0-.05.02-.07.04-.03.03-.04.06-.05.1,0,.04,0,.08.02.12v.04s.05.09.08.13c.03.03.06.06.09.08.03.02.06.03.09.04.03,0,.06,0,.08-.02,0,0,.01,0,.02-.01.01,0,.02-.01.03-.02.03-.02.05-.07.05-.1,0,0,0,0,0-.01,0-.02,0-.04,0-.05,0-.04,0-.08-.02-.12Z"/>
        </g>
        <path class="cls-21" d="M102.62,401.11c1.16,2.53,10.01,3.36,14.1,1.53,0,0-1.35,6.07.57,8.43,0,0-3.51.12-8.93-3.41-5.42-3.53-5.73-6.55-5.73-6.55Z"/>
        <polygon class="cls-21" points="146.91 341.16 99.35 368.62 99.35 359.81 146.91 332.35 146.91 341.16"/>
      </g>
    </g>
  </g>
</svg>