<?xml version="1.0" encoding="UTF-8"?>
<svg xmlns="http://www.w3.org/2000/svg" viewBox="0 0 414.98 414.98">
  <defs>
    <style>
      .cls-1 {
        opacity: .2;
      }

      .cls-1, .cls-2, .cls-3, .cls-4 {
        fill: #fff;
      }

      .cls-5 {
        fill: #fafafa;
      }

      .cls-6 {
        opacity: .05;
      }

      .cls-7, .cls-8 {
        fill: #263238;
      }

      .cls-9 {
        opacity: .07;
      }

      .cls-10, .cls-4 {
        opacity: .3;
      }

      .cls-11 {
        fill: #37474f;
      }

      .cls-12 {
        opacity: .25;
      }

      .cls-3 {
        opacity: .5;
      }

      .cls-8 {
        opacity: .9;
      }

      .cls-13 {
        fill: #e0e0e0;
      }

      .cls-14 {
        opacity: .55;
      }

      .cls-15 {
        fill: #cc2936;
      }

      .cls-16 {
        opacity: .15;
      }

      .cls-17 {
        fill: #ebebeb;
      }

      .cls-18 {
        fill: #f5f5f5;
      }

      .cls-19 {
        opacity: .1;
      }

      .cls-20 {
        fill: #e6e6e6;
      }

      .cls-21 {
        opacity: .7;
      }
    </style>
  </defs>
  <g id="Floor">
    <circle class="cls-16" cx="207.49" cy="207.49" r="207.49"/>
    <g id="Video_Camera" data-name="Video Camera">
      <g>
        <g>
          <g>
            <path d="M255.38,151.58c-1.36-.79-3.24-.69-5.32.51-4.17,2.39-7.55,8.23-7.56,13.03,0,2.35.8,4.02,2.12,4.82.44.27,5.76,2.99,6.18,3.24,1.36.8,3.24.69,5.33-.51,4.17-2.39,7.55-8.23,7.56-13.03,0-2.37-.82-4.04-2.15-4.84-.44-.26-5.73-2.98-6.15-3.22Z"/>
            <path d="M243.37,168.69c.04.07.08.13.13.2-.05-.07-.1-.13-.14-.21h0s0,0,0,0Z"/>
            <path class="cls-7" d="M248.6,168.32c0,4.8,3.36,6.76,7.52,4.36,4.17-2.39,7.55-8.23,7.56-13.03,0-4.8-3.36-6.76-7.52-4.36-4.17,2.39-7.55,8.23-7.56,13.03Z"/>
          </g>
          <path class="cls-16" d="M250.62,173.08s-.05-.03-.08-.04c-.02-.01-.04-.02-.06-.03-.04-.02-.08-.04-.13-.07-.03-.02-.06-.04-.1-.06-.07-.04-.15-.08-.23-.12-.16-.09-.33-.19-.51-.28-.6-.33-3.64-1.82-4.15-2.11-.16-.09-.3-.17-.42-.24-.15-.08-.26-.15-.32-.19-.17-.1-.33-.22-.48-.35-.07-.06-.14-.13-.21-.19-.11-.11-.22-.23-.31-.36-.05-.05-.08-.11-.12-.16-.05-.06-.09-.13-.13-.2,0,0,0,0,0,0h0c-.55-.9-.87-2.09-.86-3.56,0-1.6.38-3.31,1.03-4.97.08-.21.17-.42.26-.63.07-.16.13-.31.21-.46.07-.16.15-.31.22-.46,0,0,0,0,0-.01l6.06,3.27c-1.06,2.1-1.7,4.38-1.7,6.46,0,1.45.3,2.63.84,3.52.32.52.71.94,1.18,1.24Z"/>
        </g>
        <path class="cls-11" d="M289,176.84c0,3.26-2.3,7.22-5.13,8.85-.82.47-1.6.7-2.28.7-.49,0-.94-.12-1.33-.34h0s-26.4-14.94-26.4-14.94l-.08-.04c-.14-.09-.27-.19-.4-.3-.67-.61-1.06-1.64-1.06-2.99,0-3.26,2.3-7.22,5.13-8.85,1.18-.68,2.26-.84,3.12-.57.15.04.28.1.42.17h.02s.14.1.14.1l26.34,14.9h0c.93.54,1.5,1.68,1.5,3.32Z"/>
        <path class="cls-16" d="M278.13,178.62c-.47,1.19-.74,2.42-.74,3.57,0,1.05.22,1.91.62,2.55l-3.41-1.97-.08-.04s0,0,0,0l-18.71-10.5-.08-.05-.02-.02s-.01,0-.02,0h0s-1.81-1.05-1.81-1.05c0,0,0,0,0,0h-.02c-.91-.56-1.47-1.7-1.47-3.31,0-1.08.26-2.24.7-3.36l25.07,14.21Z"/>
      </g>
      <g>
        <path class="cls-11" d="M370.1,146.16h0c0-.36-.24-.72-.72-1l-61.55-35.53c-.96-.55-2.51-.55-3.46,0l-38.79,22.4c-.48.28-.72.64-.72,1h0v15.01c0,.36.24.72.72,1l61.55,35.53c.96.55,2.51.55,3.46,0l38.79-22.4c.48-.28.72-.64.72-1h0v-6.92s.27-.16.27-.16c-.17-.28-.26-.62-.27-1.01v-6.93ZM364.61,149.91h0s0,0,0,0h0ZM270.34,136.78h0s0,0,0,0h0Z"/>
        <path d="M265.58,134.02l61.55,35.53c.96.55,2.51.55,3.47,0l38.79-22.4c.96-.55.96-1.45,0-2l-61.55-35.53c-.96-.55-2.51-.55-3.47,0l-38.79,22.4c-.96.55-.96,1.45,0,2Z"/>
        <path class="cls-7" d="M327.12,169.55l-61.55-35.53c-.47-.28-.71-.64-.71-1v15.01c0,.36.24.72.71,1l61.55,35.53c.47.28,1.1.42,1.73.42v-15.01c-.62,0-1.26-.14-1.73-.42Z"/>
      </g>
      <g>
        <path d="M383.1,163.75v41.04c0,1.1-.78,2.45-1.73,3l-37.79,21.81c-.95.55-2.5.55-3.46,0l-1.06-.62-2.31-1.34v-.54l-2.78-1.6-.46.26h0l-2.31-1.34-.46-.26s0,0-.02,0l-.12-.07c-.36-.2-.69-.52-.97-.9-.24-.31-.44-.67-.57-1.06-.02-.07-.05-.15-.07-.23-.09-.27-.13-.54-.13-.81v-43.04l.27-.15,41.24-23.81c.17.29.4.54.73.73l10.27,5.93c.95.55,1.73,1.9,1.73,3Z"/>
        <path class="cls-7" d="M343.59,229.6c-.54.31-1.14.47-1.74.47s-1.19-.16-1.72-.46l-1.06-.62-2.31-1.34v-.54l-2.78-1.6-.46.26h0l-2.31-1.34-.46-.26s0,0-.02,0c-.43-.26-.8-.58-1.09-.97-.24-.31-.44-.67-.57-1.06-.02-.07-.05-.15-.07-.23-.09-.31-.13-.64-.13-.98l-.17-50.97.17,6.94c0,.35.1.7.27,1,.17.3.42.55.73.73l12.51,7.23c-.3.46-.45,1.04-.5,1.7v41.04l1.73,1Z"/>
        <path class="cls-7" d="M273.73,189.4c-.96-.55-1.73-1.9-1.73-3v-14.89s60.1,34.7,60.1,34.7v16.89l-58.37-33.7Z"/>
        <path class="cls-11" d="M381.37,162.75l-37.78,21.81c-.96.55-1.73,1.9-1.73,3v41.04c0,1.1.78,1.55,1.73,1l37.78-21.81c.96-.55,1.73-1.9,1.73-3v-41.04c0-1.1-.78-1.55-1.73-1Z"/>
      </g>
      <g>
        <path class="cls-15" d="M271.97,150.85c-.9.52-1.62,1.83-1.62,2.94v22.27c0,1.1.78,2.45,1.73,3l51.79,29.9c.96.55,2.46.54,3.36-.02.9-.56,1.63-1.92,1.63-3.02v-22.19c0-1.1-.78-2.45-1.73-3l-51.79-29.83c-.96-.55-2.46-.58-3.36-.06Z"/>
        <path class="cls-15" d="M272.08,152.79l51.8,29.9c.96.55,1.73,1.9,1.73,3v22.27c0,1.1-.78,1.55-1.74,1l-51.79-29.9c-.96-.55-1.73-1.9-1.73-3v-22.27c0-1.1.78-1.55,1.73-1Z"/>
        <path class="cls-16" d="M272.08,152.79l51.8,29.9c.96.55,1.73,1.9,1.73,3v22.27c0,1.1-.78,1.55-1.74,1l-51.79-29.9c-.96-.55-1.73-1.9-1.73-3v-22.27c0-1.1.78-1.55,1.73-1Z"/>
        <path class="cls-9" d="M328.85,183.73v22.19c0,1.1-.73,2.46-1.62,3.02-.82.52-2.14.57-3.09.15.83.34,1.46-.13,1.46-1.13v-22.27c0-.55-.18-1.17-.5-1.7h0s3.28-1.9,3.28-1.9c.29.52.47,1.11.47,1.64Z"/>
        <path class="cls-20" d="M290.89,167.4c2.93,1.69,11.24,6.49,14.17,8.18.57.33,1.04,1.14,1.03,1.8v1.34c-.01.66-.48.93-1.05.6l-14.15-8.17c-.57-.33-1.04-1.14-1.04-1.8v-1.35c0-.66.47-.93,1.04-.6Z"/>
      </g>
      <g>
        <g>
          <path class="cls-15" d="M289.84,192.19c0-.55-.39-1.22-.87-1.5l-3.13-1.81c-.24-.14-.46-.15-.61-.06-.16.09-1.47.85-1.63.94-.15.09-.25.28-.25.56v1.75c0,.55.39,1.22.87,1.5l3.13,1.81c.24.14.46.15.61.06.16-.09,1.47-.85,1.63-.94.16-.09.25-.28.25-.56v-1.75Z"/>
          <path class="cls-15" d="M284.22,189.82l3.13,1.81c.48.28.87.95.87,1.5v1.75c0,.55-.39.78-.87.5l-3.13-1.81c-.48-.28-.87-.95-.87-1.5v-1.75c0-.55.39-.78.87-.5Z"/>
          <path class="cls-16" d="M289.84,192.2v1.75c0,.27-.1.47-.26.56-.14.08-1.27.74-1.57.9.13-.1.2-.28.2-.53v-1.75c0-.27-.1-.58-.25-.85l1.62-.94c.15.27.25.58.25.85Z"/>
          <path class="cls-12" d="M289.59,191.35l-1.62.94c-.15-.27-.38-.51-.62-.65l-3.14-1.81c-.22-.13-.42-.15-.58-.09.28-.16,1.44-.83,1.59-.91.15-.1.37-.08.61.06l3.14,1.81c.24.14.46.38.62.66Z"/>
        </g>
        <g>
          <path class="cls-15" d="M299.59,197.83c0-.55-.39-1.22-.87-1.5l-3.13-1.81c-.24-.14-.46-.15-.61-.06-.16.09-1.47.85-1.63.94-.15.09-.25.28-.25.56v1.75c0,.55.39,1.22.87,1.5l3.13,1.81c.24.14.46.15.61.06.16-.09,1.47-.85,1.63-.94.16-.09.25-.28.25-.56v-1.75Z"/>
          <path class="cls-15" d="M293.97,195.46l3.13,1.81c.48.28.87.95.87,1.5v1.75c0,.55-.39.78-.87.5l-3.13-1.81c-.48-.28-.87-.95-.87-1.5v-1.75c0-.55.39-.78.87-.5Z"/>
          <path class="cls-16" d="M299.59,197.83v1.75c0,.27-.1.47-.26.56-.14.08-1.27.74-1.57.9.13-.1.2-.28.2-.53v-1.75c0-.27-.1-.58-.25-.85l1.62-.94c.15.27.25.58.25.85Z"/>
          <path class="cls-12" d="M299.35,196.98l-1.62.94c-.15-.27-.38-.51-.62-.65l-3.14-1.81c-.22-.13-.42-.15-.58-.09.28-.16,1.44-.83,1.59-.91.15-.1.37-.08.61.06l3.14,1.81c.24.14.46.38.62.66Z"/>
        </g>
        <g>
          <path class="cls-15" d="M309.35,203.47c0-.55-.39-1.22-.87-1.5l-3.13-1.81c-.24-.14-.46-.15-.61-.06-.16.09-1.47.85-1.63.94-.15.09-.25.28-.25.56v1.75c0,.55.39,1.22.87,1.5l3.13,1.81c.24.14.46.15.61.06.16-.09,1.47-.85,1.63-.94.16-.09.25-.28.25-.56v-1.75Z"/>
          <path class="cls-15" d="M303.72,201.09l3.13,1.81c.48.28.87.95.87,1.5v1.75c0,.55-.39.78-.87.5l-3.13-1.81c-.48-.28-.87-.95-.87-1.5v-1.75c0-.55.39-.78.87-.5Z"/>
          <path class="cls-16" d="M309.35,203.47v1.75c0,.27-.1.47-.26.56-.14.08-1.27.74-1.57.9.13-.1.2-.28.2-.53v-1.75c0-.27-.1-.58-.25-.85l1.62-.94c.15.27.25.58.25.85Z"/>
          <path class="cls-12" d="M309.1,202.62l-1.62.94c-.15-.27-.38-.51-.62-.65l-3.14-1.81c-.22-.13-.42-.15-.58-.09.28-.16,1.44-.83,1.59-.91.15-.1.37-.08.61.06l3.14,1.81c.24.14.46.38.62.66Z"/>
        </g>
      </g>
      <g>
        <path d="M339.06,200.97v28.02l-2.31-1.34v-.54l-2.78-1.6-.46.26h0l-2.31-1.34v-28.03c0-1.1.78-1.55,1.73-1l4.42,2.55c.95.55,1.73,1.9,1.73,3Z"/>
        <path class="cls-7" d="M336.75,217.23v9.89l-2.78-1.6-.46.26h0v-10.43c0-.36.2-.54.49-.48.06,0,.13.04.2.08l1.87,1.08c.38.22.69.76.69,1.2Z"/>
        <path class="cls-11" d="M336.75,217.23v9.89l-2.78-1.6v-10.43c0-.08,0-.15.02-.22.06,0,.13.04.2.08l1.87,1.08c.38.22.69.76.69,1.2Z"/>
        <g>
          <path class="cls-15" d="M334.92,216.91l-.36.21.02.03c-.04.07-.06.15-.06.26,0,.35.25.78.55.96.09.05.18.08.26.07l.02.03.36-.21h0c.1-.06.16-.18.16-.36,0-.35-.25-.78-.55-.96-.15-.09-.29-.1-.39-.04Z"/>
          <path class="cls-16" d="M334.92,216.91l-.36.21.02.03c-.04.07-.06.15-.06.26,0,.35.25.78.55.96.09.05.18.08.26.07l.02.03.36-.21h0c.1-.06.16-.18.16-.36,0-.35-.25-.78-.55-.96-.15-.09-.29-.1-.39-.04Z"/>
          <path class="cls-15" d="M335.5,218.11c0,.35-.25.49-.55.32-.3-.18-.55-.6-.55-.96s.25-.49.55-.32.55.6.55.96Z"/>
        </g>
        <g>
          <path class="cls-15" d="M334.66,200.66l-.79.45.04.07c-.09.14-.14.34-.14.57,0,.77.54,1.71,1.21,2.1.2.12.4.17.56.16l.04.07.79-.45h0c.22-.13.35-.4.35-.78,0-.77-.54-1.71-1.21-2.1-.33-.19-.64-.21-.86-.08Z"/>
          <path class="cls-16" d="M334.66,200.66l-.79.45.04.07c-.09.14-.14.34-.14.57,0,.77.54,1.71,1.21,2.1.2.12.4.17.56.16l.04.07.79-.45h0c.22-.13.35-.4.35-.78,0-.77-.54-1.71-1.21-2.1-.33-.19-.64-.21-.86-.08Z"/>
          <path class="cls-15" d="M335.95,203.3c0,.77-.54,1.09-1.21.7-.67-.39-1.21-1.33-1.21-2.1s.54-1.09,1.21-.7c.67.39,1.21,1.33,1.21,2.1Z"/>
        </g>
        <g>
          <path class="cls-15" d="M334.92,220.71l-.36.21.02.03c-.04.07-.06.15-.06.26,0,.35.25.78.55.96.09.05.18.08.26.07l.02.03.36-.21h0c.1-.06.16-.18.16-.36,0-.35-.25-.78-.55-.96-.15-.09-.29-.1-.39-.04Z"/>
          <path class="cls-16" d="M334.92,220.71l-.36.21.02.03c-.04.07-.06.15-.06.26,0,.35.25.78.55.96.09.05.18.08.26.07l.02.03.36-.21h0c.1-.06.16-.18.16-.36,0-.35-.25-.78-.55-.96-.15-.09-.29-.1-.39-.04Z"/>
          <path class="cls-15" d="M335.5,221.91c0,.35-.25.49-.55.32-.3-.18-.55-.6-.55-.96s.25-.49.55-.32.55.6.55.96Z"/>
        </g>
        <g>
          <path class="cls-7" d="M334.84,206.26l-.49.28.02.04c-.05.09-.09.21-.09.35,0,.48.34,1.06.75,1.3.13.07.24.1.35.1l.02.04.49-.28h0c.14-.08.22-.25.22-.49,0-.48-.34-1.06-.75-1.3-.21-.12-.39-.13-.53-.05Z"/>
          <path class="cls-11" d="M335.63,207.9c0,.48-.34.67-.75.43-.41-.24-.75-.82-.75-1.3s.34-.67.75-.43c.41.24.75.82.75,1.3Z"/>
        </g>
        <g>
          <path class="cls-7" d="M334.84,210.37l-.49.28.02.04c-.05.09-.09.21-.09.35,0,.48.34,1.06.75,1.3.13.07.24.1.35.1l.02.04.49-.28h0c.14-.08.22-.25.22-.49,0-.48-.34-1.06-.75-1.3-.21-.12-.39-.13-.53-.05Z"/>
          <path class="cls-11" d="M335.63,212c0,.48-.34.67-.75.43-.41-.24-.75-.82-.75-1.3s.34-.67.75-.43c.41.24.75.82.75,1.3Z"/>
        </g>
      </g>
      <g>
        <g>
          <path class="cls-15" d="M349.16,177.07c0-.29-.22-.66-.49-.81l-4.6-2.65c-.27-.16-.71-.16-.98,0l-6.35,3.65c-.27.16-.48.52-.47.82.01.3.24.67.51.82l4.58,2.63c.27.16.71.16.98,0l6.33-3.66c.27-.16.49-.52.49-.81Z"/>
          <path class="cls-1" d="M349.16,177.07c0-.29-.22-.66-.49-.81l-4.6-2.65c-.27-.16-.71-.16-.98,0l-6.35,3.65c-.27.16-.48.52-.47.82.01.3.24.67.51.82l4.58,2.63c.27.16.71.16.98,0l6.33-3.66c.27-.16.49-.52.49-.81Z"/>
          <path class="cls-15" d="M348.67,176.82l-6.35,3.65c-.27.16-.71.16-.98,0l-4.6-2.65c-.27-.16-.27-.41,0-.56l6.35-3.65c.27-.16.71-.16.98,0l4.6,2.65c.27.16.27.41,0,.56Z"/>
          <path class="cls-3" d="M348.67,176.82l-6.35,3.65c-.27.16-.71.16-.98,0l-4.6-2.65c-.27-.16-.27-.41,0-.56l6.35-3.65c.27-.16.71-.16.98,0l4.6,2.65c.27.16.27.41,0,.56Z"/>
          <path class="cls-16" d="M341.37,181.53l-4.58-2.63c-.27-.16-.5-.52-.51-.82-.01-.27.16-.6.4-.78-.2.16-.18.38.07.52l4.6,2.65c.13.08.31.12.49.12h0s0,1.07,0,1.07c-.17,0-.34-.04-.47-.12Z"/>
        </g>
        <g>
          <path class="cls-15" d="M347.06,174.97v1.18c0,.22-.16.49-.35.6l-4.73,2.73c-.19.11-.5.11-.69,0l-2.56-1.48c-.19-.11-.35-.37-.35-.57s.16-.46.35-.57l2.56-1.48c.19-.11.46-.34.61-.5l1.65-1.9c.14-.17.42-.21.61-.1l2.56,1.48c.19.11.35.38.35.6Z"/>
          <path class="cls-10" d="M347.06,174.97v1.18c0,.22-.16.49-.35.6l-4.73,2.73c-.19.11-.5.11-.69,0l-2.56-1.48c-.19-.11-.35-.37-.35-.57s.16-.46.35-.57l2.56-1.48c.19-.11.46-.34.61-.5l1.65-1.9c.14-.17.42-.21.61-.1l2.56,1.48c.19.11.35.38.35.6Z"/>
          <path class="cls-15" d="M341.98,178.74l2.56-1.48c.19-.11.46-.34.61-.5l1.65-1.9c.15-.17.11-.39-.08-.5l-2.56-1.48c-.19-.11-.46-.06-.61.1l-1.65,1.9c-.15.17-.42.39-.61.5l-2.56,1.48c-.19.11-.19.29,0,.4l2.56,1.48c.19.11.5.11.69,0Z"/>
          <path class="cls-16" d="M346.71,174.37l-2.56-1.48c-.19-.11-.46-.06-.61.1l-1.65,1.9c-.08.09-.18.19-.3.28l3.25,1.88c.11-.09.22-.19.3-.28l1.65-1.9c.14-.17.11-.39-.08-.5Z"/>
        </g>
        <path class="cls-16" d="M341.6,178.82v.74c-.11,0-.22-.02-.31-.08l-2.55-1.47c-.19-.11-.35-.37-.35-.57,0-.18.13-.4.29-.51-.13.1-.1.25.06.34l2.55,1.47c.09.05.2.08.31.08Z"/>
        <path class="cls-6" d="M344.85,177.04l-3.25-1.88c-.11.09-.22.17-.31.22l-2.56,1.48c-.19.11-.19.29,0,.4l2.56,1.48c.19.11.5.11.69,0l2.56-1.48c.09-.05.2-.13.31-.22Z"/>
      </g>
      <g>
        <g>
          <path class="cls-7" d="M324.52,159.71v-.82h.2c.2-.38.56-.73,1.07-1.03,1.69-.98,4.44-.98,6.13,0,.52.3.87.65,1.07,1.03h.2v.83h0c0,.64-.42,1.28-1.27,1.77-1.69.98-4.44.98-6.13,0-.85-.49-1.27-1.13-1.27-1.77Z"/>
          <path class="cls-11" d="M331.92,160.65c1.69-.98,1.69-2.56,0-3.54-1.69-.98-4.44-.98-6.13,0s-1.69,2.56,0,3.54c1.69.98,4.44.98,6.13,0Z"/>
        </g>
        <g>
          <path class="cls-15" d="M325.49,158.56v-1.43h.15c.16-.29.43-.57.83-.8,1.31-.76,3.44-.76,4.75,0,.4.23.68.51.83.8h.15v1.43h0c0,.5-.33.99-.98,1.37-1.31.76-3.44.76-4.75,0-.66-.38-.98-.88-.98-1.37Z"/>
          <path class="cls-16" d="M325.49,158.56v-1.43h.15c.16-.29.43-.57.83-.8,1.31-.76,3.44-.76,4.75,0,.4.23.68.51.83.8h.15v1.43h0c0,.5-.33.99-.98,1.37-1.31.76-3.44.76-4.75,0-.66-.38-.98-.88-.98-1.37Z"/>
          <path class="cls-15" d="M331.23,158.5c1.31-.76,1.31-1.99,0-2.74-1.31-.76-3.44-.76-4.75,0-1.31.76-1.31,1.99,0,2.74s3.44.76,4.75,0Z"/>
        </g>
      </g>
      <g>
        <path class="cls-7" d="M341.48,154.8l-3.55,2.05c-.36.2-.94.2-1.29,0l-3.55-2.05c-.36-.21-.36-.54,0-.74l3.55-2.05c.36-.21.94-.21,1.29,0l3.55,2.05c.36.2.36.54,0,.74Z"/>
        <path class="cls-11" d="M341.48,154.8l-3.55,2.05c-.36.2-.94.2-1.29,0l-3.55-2.05,3.55-2.05c.36-.2.94-.2,1.29,0l3.55,2.05Z"/>
        <g>
          <path class="cls-15" d="M335.74,154.76v-.66h.07c.07-.13.2-.26.38-.37.6-.35,1.58-.35,2.19,0,.18.11.31.23.38.37h.07v.66h0c0,.23-.15.46-.45.63-.6.35-1.58.35-2.19,0-.3-.17-.45-.4-.45-.63Z"/>
          <path class="cls-16" d="M335.74,154.76v-.66h.07c.07-.13.2-.26.38-.37.6-.35,1.58-.35,2.19,0,.18.11.31.23.38.37h.07v.66h0c0,.23-.15.46-.45.63-.6.35-1.58.35-2.19,0-.3-.17-.45-.4-.45-.63Z"/>
          <path class="cls-15" d="M338.38,154.73c.6-.35.6-.91,0-1.26-.6-.35-1.58-.35-2.19,0s-.6.91,0,1.26c.6.35,1.58.35,2.19,0Z"/>
        </g>
      </g>
      <g>
        <path class="cls-7" d="M348.47,150.77l-3.55,2.05c-.36.2-.94.2-1.29,0l-3.55-2.05c-.36-.21-.36-.54,0-.75l3.55-2.05c.36-.21.94-.21,1.29,0l3.55,2.05c.36.2.36.54,0,.75Z"/>
        <path class="cls-11" d="M348.47,150.77l-3.55,2.05c-.36.2-.94.2-1.29,0l-3.55-2.05,3.55-2.05c.36-.2.94-.2,1.29,0l3.55,2.05Z"/>
        <g>
          <path class="cls-15" d="M342.73,150.72v-.66h.07c.07-.13.2-.26.38-.37.6-.35,1.58-.35,2.19,0,.18.11.31.23.38.37h.07v.66h0c0,.23-.15.46-.45.63-.6.35-1.58.35-2.19,0-.3-.17-.45-.4-.45-.63Z"/>
          <path class="cls-16" d="M342.73,150.72v-.66h.07c.07-.13.2-.26.38-.37.6-.35,1.58-.35,2.19,0,.18.11.31.23.38.37h.07v.66h0c0,.23-.15.46-.45.63-.6.35-1.58.35-2.19,0-.3-.17-.45-.4-.45-.63Z"/>
          <path class="cls-15" d="M345.37,150.7c.6-.35.6-.91,0-1.26-.6-.35-1.58-.35-2.19,0s-.6.91,0,1.26c.6.35,1.58.35,2.19,0Z"/>
        </g>
      </g>
      <g>
        <g>
          <path class="cls-15" d="M378.33,182.52h0s-.41-.24-.41-.24c-2.42-1.28-5.72-1.03-9.35,1.06-7.5,4.31-13.58,14.81-13.6,23.46,0,1.6.2,3.02.59,4.25.52,1.65,1.35,2.95,2.43,3.87.27.22.55.43.84.6h.02s.03.03.05.04l.06.04.22.13,9.1,5.27c-.38-.23-.72-.51-1.05-.8-1.77-1.62-2.81-4.34-2.81-7.94.02-8.64,6.11-19.14,13.6-23.45,3.12-1.79,5.99-2.23,8.27-1.5.39.12.75.27,1.1.46l-9.05-5.24Z"/>
          <path d="M357.97,214.91c.26.23.55.43.84.6l-4.8-2.78s-.02-.01-.02-.02l-.05-.03c-2.41-1.44-3.9-4.46-3.89-8.75.02-8.64,6.11-19.14,13.6-23.45,2.17-1.25,4.23-1.84,6.05-1.84,1.32,0,2.51.31,3.54.91l4.69,2.72c-2.42-1.28-5.72-1.03-9.35,1.06-7.5,4.31-13.58,14.81-13.6,23.46,0,1.6.2,3.02.59,4.25.51,1.65,1.34,2.95,2.43,3.87Z"/>
          <path class="cls-11" d="M406.31,205.22c-.02,8.65-6.11,19.14-13.6,23.45-2.17,1.25-4.23,1.85-6.05,1.84-1.3,0-2.49-.31-3.51-.9h-.02s-14.67-8.52-14.67-8.52l-.2-.11c-.38-.23-.72-.51-1.05-.8-1.77-1.62-2.81-4.34-2.81-7.94.02-8.64,6.11-19.14,13.6-23.45,3.12-1.79,5.99-2.23,8.27-1.5.39.12.75.27,1.1.46l.06.03.38.23,14.52,8.41h0c2.46,1.42,3.98,4.46,3.97,8.79Z"/>
        </g>
        <g>
          <path class="cls-11" d="M363.56,217.16c-.07,0-.14-.02-.2-.06l-5.13-2.95c-.2-.11-.26-.36-.15-.56.11-.2.36-.26.56-.15l5.13,2.95c.2.11.26.36.15.56-.07.13-.21.2-.35.2Z"/>
          <path class="cls-11" d="M362.55,213.52c-.07,0-.14-.02-.2-.06l-5.13-2.95c-.2-.11-.26-.36-.15-.56.11-.2.36-.26.56-.15l5.13,2.95c.2.11.26.36.15.56-.08.13-.21.2-.35.2Z"/>
          <path class="cls-11" d="M362.18,210.06c-.07,0-.14-.02-.2-.06l-5.13-2.95c-.2-.11-.26-.36-.15-.56.11-.2.36-.26.56-.15l5.13,2.95c.2.11.26.36.15.56-.08.13-.21.2-.35.2Z"/>
          <path class="cls-11" d="M362.37,206.91c-.07,0-.14-.02-.2-.06l-5.13-2.95c-.2-.11-.26-.36-.15-.56.11-.2.36-.26.56-.15l5.13,2.95c.2.11.26.36.15.56-.08.13-.21.2-.35.2Z"/>
          <path class="cls-11" d="M363.24,203.9c-.07,0-.14-.02-.2-.06l-5.14-2.95c-.2-.11-.26-.36-.15-.56.11-.2.36-.26.56-.15l5.14,2.95c.2.11.26.36.15.56-.08.13-.21.2-.35.2Z"/>
          <path class="cls-11" d="M364.45,200.92c-.07,0-.14-.02-.2-.06l-5.14-2.95c-.2-.11-.26-.36-.15-.56.11-.2.36-.26.56-.15l5.14,2.95c.2.11.26.36.15.56-.08.13-.21.2-.35.2Z"/>
          <path class="cls-11" d="M365.95,198.04c-.07,0-.14-.02-.2-.06l-5.14-2.95c-.2-.11-.26-.36-.15-.56.11-.2.36-.26.56-.15l5.14,2.95c.2.11.26.36.15.56-.08.13-.21.2-.35.2Z"/>
          <path class="cls-11" d="M367.72,195.31c-.07,0-.14-.02-.2-.06l-5.13-2.95c-.2-.11-.26-.36-.15-.56.11-.2.36-.26.56-.15l5.13,2.95c.2.11.26.36.15.56-.08.13-.21.2-.35.2Z"/>
          <path class="cls-11" d="M369.72,192.8c-.07,0-.14-.02-.2-.06l-5.14-2.95c-.2-.11-.26-.36-.15-.56.11-.2.36-.26.56-.15l5.14,2.95c.2.11.26.36.15.56-.08.13-.21.2-.35.2Z"/>
          <path class="cls-11" d="M371.91,190.57c-.07,0-.14-.02-.2-.06l-5.13-2.95c-.2-.11-.26-.36-.15-.56.11-.2.36-.26.56-.15l5.13,2.95c.2.11.26.36.15.56-.08.13-.21.2-.35.2Z"/>
          <path class="cls-11" d="M374.26,188.68c-.07,0-.14-.02-.2-.06l-5.13-2.95c-.2-.11-.26-.36-.15-.56.11-.2.36-.26.56-.15l5.13,2.95c.2.11.26.36.15.56-.08.13-.21.2-.35.2Z"/>
          <path class="cls-11" d="M377.06,187.02c-.07,0-.14-.02-.2-.06l-5.13-2.95c-.2-.11-.26-.36-.15-.56.11-.2.36-.26.56-.15l5.13,2.95c.2.11.26.36.15.56-.08.13-.21.2-.35.2Z"/>
          <path class="cls-11" d="M380.33,185.93c-.07,0-.14-.02-.2-.06l-5.13-2.95c-.2-.11-.26-.36-.15-.56.11-.2.36-.26.56-.15l5.13,2.95c.2.11.26.36.15.56-.08.13-.21.2-.35.2Z"/>
        </g>
        <path class="cls-16" d="M377.83,210.11c-1.25,3.16-1.96,6.42-1.97,9.46,0,2.79.59,5.07,1.64,6.77l-9.04-5.23-.2-.11s0,0-.02,0l-9.08-5.27-.22-.13-.06-.04s-.03,0-.05-.02h-.02s-4.8-2.79-4.8-2.79c-.02,0-.02-.02-.02-.02l-.06-.03c-2.41-1.44-3.9-4.47-3.89-8.75,0-2.86.68-5.94,1.85-8.91l25.94,15.08Z"/>
        <g>
          <g>
            <path d="M401.26,191.19c-2.93-1.71-6.99-1.49-11.48,1.1-8.99,5.17-16.29,17.76-16.31,28.12-.01,5.08,1.74,8.67,4.57,10.41.96.59,7.34,4.05,8.25,4.58,2.93,1.72,7,1.5,11.5-1.09,8.99-5.17,16.29-17.76,16.31-28.12,0-5.12-1.76-8.72-4.64-10.45-.94-.56-7.28-4.02-8.19-4.55Z"/>
            <path d="M375.35,228.1c.09.15.18.29.28.43-.11-.15-.21-.29-.31-.44h.02s0,.02,0,.02Z"/>
            <path class="cls-11" d="M381.54,224.89c-.02,10.37,7.25,14.58,16.24,9.42,8.99-5.17,16.29-17.76,16.31-28.12.02-10.37-7.25-14.58-16.24-9.42-8.99,5.17-16.29,17.76-16.31,28.12Z"/>
            <path class="cls-7" d="M390.52,232.51c-4.51,0-4.98-5.33-4.98-7.61.02-8.92,6.57-20.22,14.3-24.66,1.91-1.1,3.73-1.68,5.26-1.67,4.51,0,4.98,5.33,4.98,7.61-.02,8.92-6.57,20.22-14.3,24.66-1.91,1.1-3.73,1.68-5.26,1.67h0Z"/>
            <path class="cls-15" d="M404.76,200.83c0-.59-.03-1.38-.15-2.22-1.42.11-3.05.65-4.76,1.63-7.73,4.45-14.28,15.74-14.3,24.66,0,.59.03,1.38.15,2.22,1.42-.11,3.05-.65,4.76-1.63,7.73-4.45,14.28-15.74,14.3-24.66Z"/>
            <path class="cls-3" d="M404.76,200.83c0-.59-.03-1.38-.15-2.22-1.42.11-3.05.65-4.76,1.63-7.73,4.45-14.28,15.74-14.3,24.66,0,.59.03,1.38.15,2.22,1.42-.11,3.05-.65,4.76-1.63,7.73-4.45,14.28-15.74,14.3-24.66Z"/>
            <path class="cls-3" d="M395.65,205.24c3.05-3.69,6.99-4.91,7.6-3.54.61,1.37-1.33,14.69-14.21,22.51,0,0,6.97-6.01,10.36-13.58,1.98-4.43.18-8.06-3.75-5.39Z"/>
          </g>
          <path class="cls-16" d="M385.89,235.18c-.05-.03-.11-.06-.16-.09-.05-.03-.08-.05-.13-.07-.08-.05-.17-.09-.27-.15-.06-.05-.14-.08-.22-.13-.15-.08-.32-.17-.49-.26-.34-.19-.71-.4-1.1-.61-1.29-.71-2.77-1.52-3.88-2.14-.34-.2-.65-.37-.91-.51-.32-.18-.56-.33-.7-.41-.36-.22-.71-.47-1.03-.75-.15-.13-.3-.27-.44-.42-.24-.24-.47-.5-.67-.77-.1-.12-.18-.23-.26-.34-.1-.14-.19-.28-.28-.43,0,0,0,0,0,0h-.02c-1.19-1.93-1.87-4.52-1.86-7.68,0-3.45.82-7.14,2.23-10.72.18-.46.37-.92.57-1.36.15-.34.29-.67.45-1,.15-.34.32-.66.48-.99,0,0,0-.02,0-.03l8,4.64c-2.29,4.54-3.67,9.44-3.67,13.93,0,3.12.64,5.68,1.81,7.6.69,1.12,1.54,2.02,2.55,2.69Z"/>
        </g>
      </g>
      <g>
        <g>
          <path class="cls-7" d="M309.17,123.91v-1.15h.27c.28-.52.78-1.02,1.49-1.43,2.36-1.36,6.18-1.36,8.54,0,.72.41,1.21.91,1.49,1.43h.27v1.15h0c0,.89-.59,1.78-1.77,2.46-2.36,1.36-6.18,1.36-8.54,0-1.18-.68-1.77-1.57-1.77-2.47Z"/>
          <path class="cls-11" d="M319.48,125.23c2.36-1.36,2.36-3.57,0-4.93-2.36-1.36-6.18-1.36-8.54,0-2.36,1.36-2.36,3.57,0,4.93s6.18,1.36,8.54,0Z"/>
        </g>
        <path class="cls-7" d="M348.41,120.24l-27.58-15.92c-1.46-.84-3.22-.84-4.68,0-1.46.85-2.34,2.37-2.34,4.06v13.87c0,.2.14.4.42.54.54.32,1.43.32,1.98,0,.26-.14.4-.34.41-.54v-13.87c0-.68.35-1.29.94-1.62.59-.34,1.29-.34,1.88,0l27.58,15.92c.67.38,1.53.15,1.91-.51.38-.67.16-1.53-.51-1.92Z"/>
        <g>
          <path class="cls-15" d="M386.12,140.23h0c-1.72-2.97-33.36-23.35-41.57-28.1-.84-.54-2.02-.5-3.34.26-2.54,1.47-4.6,5.04-4.6,7.97,0,1.52.55,2.56,1.44,3.02,8.28,4.77,40.97,22.17,45.42,21.97,1.8,0,3.25-1.46,3.25-3.25,0-.7-.23-1.34-.6-1.87Z"/>
          <path class="cls-19" d="M386.57,143.02c-.92,1.3-2.55,1.97-7.66-.26-4.75-2.07-32.37-18.19-42.14-23.87-.1.5-.16.99-.16,1.46,0,1.52.55,2.56,1.44,3.02,8.28,4.77,40.97,22.17,45.42,21.97,1.47,0,2.71-.99,3.1-2.33Z"/>
        </g>
      </g>
      <g>
        <path class="cls-15" d="M311.31,155.17c0-.29.22-.66.49-.81l4.6-2.65c.27-.16.71-.16.98,0l3.28,1.9c.27.16.48.52.47.82-.01.3-.24.67-.51.82l-4.58,2.63c-.27.16-.71.16-.98,0l-3.26-1.91c-.27-.16-.49-.52-.49-.81Z"/>
        <path class="cls-1" d="M311.31,155.17c0-.29.22-.66.49-.81l4.6-2.65c.27-.16.71-.16.98,0l3.28,1.9c.27.16.48.52.47.82-.01.3-.24.67-.51.82l-4.58,2.63c-.27.16-.71.16-.98,0l-3.26-1.91c-.27-.16-.49-.52-.49-.81Z"/>
        <path class="cls-15" d="M311.8,154.93l3.28,1.9c.27.16.71.16.98,0l4.6-2.65c.27-.16.27-.41,0-.56l-3.28-1.9c-.27-.16-.71-.16-.98,0l-4.6,2.65c-.27.16-.27.41,0,.56Z"/>
        <path class="cls-3" d="M311.8,154.93l3.28,1.9c.27.16.71.16.98,0l4.6-2.65c.27-.16.27-.41,0-.56l-3.28-1.9c-.27-.16-.71-.16-.98,0l-4.6,2.65c-.27.16-.27.41,0,.56Z"/>
        <path class="cls-16" d="M316.04,157.89l4.58-2.63c.27-.16.5-.52.51-.82.01-.27-.16-.6-.4-.78.2.16.18.38-.07.52l-4.6,2.65c-.13.08-.31.12-.49.12h0s0,1.07,0,1.07c.17,0,.34-.04.47-.12Z"/>
      </g>
      <g>
        <path class="cls-15" d="M281.98,138.32c0-.29.22-.66.49-.81l4.6-2.65c.27-.16.71-.16.98,0l3.28,1.9c.27.16.48.52.47.82-.01.3-.24.67-.51.82l-4.58,2.63c-.27.16-.71.16-.98,0l-3.26-1.91c-.27-.16-.49-.52-.49-.81Z"/>
        <path class="cls-1" d="M281.98,138.32c0-.29.22-.66.49-.81l4.6-2.65c.27-.16.71-.16.98,0l3.28,1.9c.27.16.48.52.47.82-.01.3-.24.67-.51.82l-4.58,2.63c-.27.16-.71.16-.98,0l-3.26-1.91c-.27-.16-.49-.52-.49-.81Z"/>
        <path class="cls-15" d="M282.47,138.08l3.28,1.9c.27.16.71.16.98,0l4.6-2.65c.27-.16.27-.41,0-.56l-3.28-1.9c-.27-.16-.71-.16-.98,0l-4.6,2.65c-.27.16-.27.41,0,.56Z"/>
        <path class="cls-3" d="M282.47,138.08l3.28,1.9c.27.16.71.16.98,0l4.6-2.65c.27-.16.27-.41,0-.56l-3.28-1.9c-.27-.16-.71-.16-.98,0l-4.6,2.65c-.27.16-.27.41,0,.56Z"/>
        <path class="cls-16" d="M286.71,141.04l4.58-2.63c.27-.16.5-.52.51-.82.01-.27-.16-.6-.4-.78.2.16.18.38-.07.52l-4.6,2.65c-.13.08-.31.12-.49.12h0s0,1.07,0,1.07c.17,0,.34-.04.47-.12Z"/>
      </g>
      <g>
        <path d="M289.51,129.51v7.45l-2.91,1.68v-9.89c0-.51.36-.71.8-.46l2.12,1.22Z"/>
        <path class="cls-11" d="M318.63,141.86v12.06l-2.78,1.61-1.87-1.08v-9.89c0-.51-.36-1.13-.8-1.38l-22.84-13.18-2.95-1.7c-.44-.25-.8-.05-.8.46v9.89l-1.88-1.08v-12.06c0-.05,0-.11.01-.16.06-.48.39-1,.79-1.23l1.19-.69c.44-.25,1.15-.25,1.6,0l29.53,17.05c.44.26.8.88.8,1.38Z"/>
        <path class="cls-7" d="M315.85,143.47v12.06l-1.87-1.08v-9.89c0-.51-.36-1.13-.8-1.38l-22.84-13.18-2.95-1.7c-.44-.25-.8-.05-.8.46v9.89l-1.88-1.08v-12.06c0-.05,0-.11.01-.16.07-.39.4-.53.79-.3l29.53,17.05c.44.26.8.88.8,1.38Z"/>
      </g>
    </g>
    <g>
      <path class="cls-18" d="M207.52,388.59l44.61-25.8c4.6-2.66,6.9-6.13,6.9-9.61,0-3.48.02-6.21.02-6.21l-41.98-23.83c-2.45-1.42-4.44-4.86-4.44-7.69v-55.01l-77.93,45.03v55.01c0,2.83,1.99,6.28,4.44,7.69l35.07,20.42c9.2,5.31,24.11,5.31,33.31,0Z"/>
      <path class="cls-16" d="M153.41,370.22v6.18l-14.28-8.23c-2.44-1.41-4.44-4.85-4.44-7.69v-55l14.85-8.56c.31,3.77.64,7.67.95,11.46l-10.41,6.03v42.97c0,2.85,1.97,6.28,4.44,7.69l8.9,5.15Z"/>
      <path class="cls-20" d="M140.07,357.39c0,2.83,1.99,6.28,4.44,7.69l29.69,17.31c9.2,5.31,24.11,5.31,33.31,0l44.64-25.79c9.2-5.31,9.2-13.92,0-19.23l-29.71-17.32c-2.45-1.42-4.44-4.86-4.44-7.69v-42.98s-77.93,45.03-77.93,45.03v42.98Z"/>
      <path class="cls-16" d="M231.49,325.28h0s-9.05-5.23-9.05-5.23c-2.45-1.42-4.44-4.86-4.44-7.69v-42.98l-77.93,45.03v42.98c0,2.83,1.99,6.28,4.44,7.69l8.89,5.13,78.08-44.93Z"/>
    </g>
    <path class="cls-2" d="M47.24,391.31c2.88,1.66,7.69,1.57,10.76-.2,38.31-22.12,218.08-125.91,256.38-148.02,3.07-1.77,5.55-6.07,5.55-9.61V18.78c0-3.54-2.33-7.76-5.21-9.42s-7.69-1.57-10.76.2L47.59,157.58c-3.07,1.77-5.55,6.08-5.55,9.62v214.69c0,3.54,2.33,7.76,5.2,9.42Z"/>
    <path class="cls-6" d="M58,391.1l256.38-148.02c3.07-1.77,5.55-6.08,5.55-9.62V18.77c0-3.54-2.48-4.98-5.55-3.2L58.01,163.59c-3.07,1.77-5.55,6.07-5.55,9.62v214.69c0,3.54,2.48,4.97,5.55,3.2Z"/>
    <path class="cls-17" d="M52.45,369.01v18.89c0,3.54,2.49,4.97,5.55,3.2l256.38-148.02c3.07-1.77,5.55-6.08,5.55-9.62v-18.89L52.45,369.01Z"/>
    <path class="cls-15" d="M59.79,351.44v-175.76c0-2.18,1.53-4.82,3.42-5.91L309.18,27.75c1.89-1.09,3.41-.21,3.41,1.97v175.77c.01,2.18-1.52,4.82-3.4,5.91L63.2,353.41c-1.89,1.09-3.41.21-3.41-1.97Z"/>
    <path class="cls-13" d="M59.79,351.44v-175.76c0-2.18,1.53-4.82,3.42-5.91L309.18,27.75c1.89-1.09,3.41-.21,3.41,1.97v175.77c.01,2.18-1.52,4.82-3.4,5.91L63.2,353.41c-1.89,1.09-3.41.21-3.41-1.97Z"/>
    <path class="cls-6" d="M43.67,161.71l10.41,6c-1,1.74-1.62,3.72-1.64,5.49v214.7c0,3.23,2.19,5.04,5.56,3.21-3.36,1.95-8.14,1.71-10.76.2-2.87-1.67-5.21-5.18-5.21-8.75v-215.36c0-1.77.64-3.74,1.64-5.49Z"/>
  </g>
  <g id="Video_Window" data-name="Video Window">
    <g>
      <g id="Window-2" data-name="Window">
        <g id="Window-3" data-name="Window">
          <g>
            <path class="cls-15" d="M71.27,196.12c-1.33-.77-2.41-2.72-2.41-4.36v-14.08c0-1.64,1.15-3.63,2.57-4.45L299.4,41.55c1.42-.82,3.65-.86,4.98-.09,1.33.77,2.41,2.72,2.4,4.36v14.09c0,1.64-1.14,3.63-2.56,4.45L76.24,196.02c-1.42.82-3.65.86-4.98.09Z"/>
            <path class="cls-1" d="M306.76,45.4c-.18-1.33-1.26-1.82-2.54-1.07L76.24,176.01c-.7.42-1.34,1.12-1.82,1.92l-4.82-2.79c.47-.81,1.1-1.5,1.81-1.91L299.41,41.55c1.41-.82,3.64-.87,4.97-.09,1.22.71,2.23,2.4,2.38,3.94Z"/>
            <path class="cls-16" d="M74.43,177.93c-.46.79-.75,1.71-.75,2.53v7.76l-4.83-2.79v-7.75c0-.11,0-.2.02-.31.02-.24.05-.42.1-.64.13-.53.35-1.1.64-1.59l4.82,2.79Z"/>
            <path class="cls-15" d="M306.79,45.81v7.76s-153.44,88.65-153.44,88.65c-1.41.82-71.18,41.09-72.59,41.91l-7.07,4.08v-7.76c0-1.64,1.15-3.63,2.56-4.45L304.22,44.33c1.41-.82,2.56-.15,2.56,1.48Z"/>
            <g>
              <path class="cls-2" d="M299.76,50.69c.92-.53,1.66-.1,1.66.96s-.74,2.35-1.66,2.87c-.92.53-1.66.1-1.66-.96s.74-2.35,1.66-2.87Z"/>
              <path class="cls-2" d="M293.78,54.13c.92-.53,1.66-.1,1.66.96s-.74,2.35-1.66,2.87-1.66.1-1.66-.96.74-2.35,1.66-2.87Z"/>
              <path class="cls-2" d="M287.81,57.58c.92-.53,1.66-.1,1.66.96s-.74,2.35-1.66,2.87c-.92.53-1.66.1-1.66-.96s.74-2.35,1.66-2.87Z"/>
            </g>
          </g>
          <path class="cls-13" d="M76.24,360.77s-.65.48-2.02.61c-1.06.1-2.16-.06-2.95-.52-1.34-.77-2.41-2.72-2.41-4.35v-171.08s4.82,2.79,4.82,2.79v171.07c0,1.16.58,1.83,1.43,1.83.12,0,.58-.04,1.14-.35Z"/>
          <g>
            <path class="cls-5" d="M75.1,360.61c-.85,0-.91-1.01-.91-1.33v-170.78s78.7-45.44,79.41-45.85l152.68-88.21v170.19c0,1.45-1.06,3.29-2.31,4.01l-227.98,131.67c-.32.19-.62.28-.89.28Z"/>
            <path class="cls-17" d="M305.77,55.34v169.31c0,1.27-.96,2.94-2.06,3.57l-227.98,131.68c-.32.19-.53.21-.63.21-.35,0-.4-.51-.4-.82v-170.48l6.56-3.79c1.39-.81,71.88-41.5,72.59-41.91l151.92-87.76M306.79,53.57l-153.45,88.65s-71.18,41.09-72.59,41.91l-7.07,4.08v171.07c0,1.16.58,1.83,1.42,1.83.34,0,.73-.11,1.14-.35l227.98-131.67c1.42-.82,2.56-2.81,2.56-4.45V53.57h0Z"/>
          </g>
        </g>
      </g>
      <g id="AVI">
        <path class="cls-13" d="M89.01,191.6l37.76-21.8c.7-.4,1.26-.08,1.26.73v60.02c0,.81-.57,1.78-1.26,2.19l-37.76,21.8c-.7.4-1.26.08-1.26-.73v-60.02c0-.81.57-1.78,1.26-2.19Z"/>
        <g>
          <g>
            <path d="M131.3,171.81c-.23-.14-.55-.12-.9.09l-37.76,21.8c-.7.4-1.26,1.38-1.26,2.19v60.02c0,.4.14.69.37.82.23.13,2.14,1.24,2.37,1.37.23.13.54.11.89-.09l37.76-21.8c.7-.4,1.26-1.38,1.26-2.19v-60.02c0-.4-.14-.68-.36-.81-.23-.14-2.15-1.23-2.37-1.37Z"/>
            <path class="cls-11" d="M96.12,197.16l-4.37-2.52c-.23.4-.37.84-.37,1.25v60.02c0,.4.14.69.37.82.23.13,2.14,1.24,2.37,1.37.23.13.54.11.89-.09l1.11-.64v-60.2Z"/>
          </g>
          <g>
            <path class="cls-15" d="M95.01,195.06l37.76-21.8c.7-.4,1.26-.08,1.26.73v60.02c0,.81-.57,1.78-1.26,2.19l-37.76,21.8c-.7.4-1.26.08-1.26-.73v-60.02c0-.81.57-1.78,1.26-2.19Z"/>
            <g class="cls-14">
              <path class="cls-2" d="M95.01,195.06l37.76-21.8c.7-.4,1.26-.08,1.26.73v60.02c0,.81-.57,1.78-1.26,2.19l-37.76,21.8c-.7.4-1.26.08-1.26-.73v-60.02c0-.81.57-1.78,1.26-2.19Z"/>
            </g>
          </g>
          <g>
            <path class="cls-15" d="M93.75,197.25v45.06s5.83-3.36,5.83-3.36v-46.52s-1.09.63-1.09.63l-3.48,2.01c-.7.4-1.26,1.38-1.26,2.19Z"/>
            <g>
              <g class="cls-10">
                <polygon points="94.99 196.96 98.33 195.03 98.33 200.01 94.99 201.94 94.99 196.96"/>
              </g>
              <g class="cls-10">
                <polygon points="94.99 203.28 98.33 201.35 98.33 206.33 94.99 208.26 94.99 203.28"/>
              </g>
              <g class="cls-10">
                <polygon points="94.99 209.6 98.33 207.67 98.33 212.65 94.99 214.58 94.99 209.6"/>
              </g>
              <g class="cls-10">
                <polygon points="94.99 215.92 98.33 213.99 98.33 218.97 94.99 220.9 94.99 215.92"/>
              </g>
              <g class="cls-10">
                <polygon points="94.99 222.24 98.33 220.32 98.33 225.29 94.99 227.22 94.99 222.24"/>
              </g>
              <g class="cls-10">
                <polygon points="94.99 228.56 98.33 226.64 98.33 231.62 94.99 233.54 94.99 228.56"/>
              </g>
              <g class="cls-10">
                <polygon points="94.99 234.88 98.33 232.96 98.33 237.94 94.99 239.86 94.99 234.88"/>
              </g>
            </g>
          </g>
          <g>
            <path class="cls-15" d="M134.03,173.99c0-.81-.57-1.13-1.26-.73l-4.56,2.64v46.52l5.83-3.37v-45.06Z"/>
            <g>
              <g class="cls-10">
                <polygon points="129.45 177.07 132.79 175.14 132.79 180.12 129.45 182.05 129.45 177.07"/>
              </g>
              <g class="cls-10">
                <polygon points="129.45 183.39 132.79 181.46 132.79 186.44 129.45 188.37 129.45 183.39"/>
              </g>
              <g class="cls-10">
                <polygon points="129.45 189.71 132.79 187.78 132.79 192.76 129.45 194.69 129.45 189.71"/>
              </g>
              <g class="cls-10">
                <polygon points="129.45 196.03 132.79 194.1 132.79 199.08 129.45 201.01 129.45 196.03"/>
              </g>
              <g class="cls-10">
                <polygon points="129.45 202.35 132.79 200.42 132.79 205.4 129.45 207.33 129.45 202.35"/>
              </g>
              <g class="cls-10">
                <polygon points="129.45 208.67 132.79 206.74 132.79 211.72 129.45 213.65 129.45 208.67"/>
              </g>
              <g class="cls-10">
                <polygon points="129.45 214.99 132.79 213.06 132.79 218.04 129.45 219.97 129.45 214.99"/>
              </g>
            </g>
          </g>
          <path class="cls-15" d="M134.03,234.01v-14.96l-40.29,23.26v14.96c0,.81.57,1.13,1.26.73l37.76-21.8c.7-.4,1.26-1.38,1.26-2.19Z"/>
          <g>
            <path class="cls-2" d="M109.72,235.72c.14-.08.24-.08.32,0,.07.07.12.16.15.26l2.25,8.72c.03.09.04.16.04.21,0,.09-.02.19-.07.29-.05.1-.1.16-.16.2l-1.3.75c-.14.08-.24.09-.29.04-.06-.06-.09-.12-.11-.2l-.29-1.15-2.75,1.59-.29,1.49c-.01.09-.05.2-.11.33-.06.12-.16.22-.29.3l-1.3.75c-.06.04-.12.03-.16-.01-.04-.04-.07-.11-.07-.21,0-.05.01-.14.04-.26l2.25-11.32c.03-.13.08-.28.15-.44.07-.16.18-.28.32-.36l1.67-.97ZM108.04,243.64l1.67-.97-.84-3.33-.84,4.3Z"/>
            <path class="cls-2" d="M114.97,243.83c-.27.15-.45.05-.55-.32l-2.11-8.73c-.01-.07-.02-.11-.03-.13,0-.02,0-.04,0-.06,0-.1.02-.19.07-.29.04-.09.1-.16.16-.2l1.3-.75c.14-.08.24-.09.29-.03.06.06.09.12.11.2l1.44,6.17,1.44-7.83c.01-.09.05-.2.11-.33.06-.12.16-.23.29-.31l1.3-.75c.06-.04.11-.03.16.01.04.04.07.11.07.21,0,.02,0,.04,0,.07,0,.02-.01.08-.03.16l-2.11,11.16c-.1.48-.28.8-.55.95l-1.36.79Z"/>
            <path class="cls-2" d="M120.25,240.78c-.08.04-.14.04-.2-.01-.05-.05-.08-.14-.08-.26v-10.28c0-.12.03-.23.08-.35.05-.12.12-.2.2-.24l1.35-.78c.08-.04.14-.04.2.01.05.05.08.14.08.25v10.28c0,.12-.03.23-.08.35-.05.12-.12.2-.2.24l-1.35.78Z"/>
          </g>
          <g>
            <path class="cls-2" d="M109.81,219.72c-.96,0-1.85-.23-2.64-.68-1.89-1.09-2.93-3.35-2.93-6.35,0-5.98,4.22-13.28,9.4-16.26h0c2.61-1.5,5.08-1.73,6.97-.63,1.89,1.09,2.93,3.35,2.93,6.35,0,5.98-4.22,13.28-9.4,16.26-1.52.88-2.99,1.32-4.33,1.32ZM114.15,197.29c-4.91,2.83-8.9,9.74-8.9,15.4,0,2.63.86,4.58,2.43,5.49,1.57.91,3.69.68,5.97-.64,4.91-2.83,8.9-9.73,8.9-15.4,0-2.63-.86-4.58-2.43-5.49-1.57-.91-3.69-.68-5.97.64h0Z"/>
            <path class="cls-2" d="M109.59,204.51v10.71c0,.56.3.67.67.25l9.71-11.21c.37-.43.21-.77-.35-.77h-9c-.56,0-1.02.46-1.02,1.02Z"/>
          </g>
        </g>
      </g>
      <g id="MOV">
        <path class="cls-13" d="M141.52,161.28l37.76-21.8c.7-.4,1.26-.08,1.26.73v60.02c0,.81-.57,1.78-1.26,2.19l-37.76,21.8c-.7.4-1.26.08-1.26-.73v-60.02c0-.81.57-1.78,1.26-2.19Z"/>
        <g>
          <g>
            <path d="M183.81,141.49c-.23-.14-.55-.12-.9.09l-37.76,21.8c-.7.4-1.26,1.38-1.26,2.19v60.02c0,.4.14.69.37.82.23.13,2.14,1.24,2.37,1.37.23.13.54.11.89-.09l37.76-21.8c.7-.4,1.26-1.38,1.26-2.19v-60.02c0-.4-.14-.68-.36-.81-.23-.14-2.15-1.23-2.37-1.37Z"/>
            <path class="cls-11" d="M148.63,166.84l-4.37-2.52c-.23.4-.37.84-.37,1.25v60.02c0,.4.14.69.37.82.23.13,2.14,1.24,2.37,1.37.23.13.54.11.89-.09l1.11-.64v-60.2Z"/>
          </g>
          <g>
            <path class="cls-15" d="M147.53,164.74l37.76-21.8c.7-.4,1.26-.08,1.26.73v60.02c0,.81-.57,1.79-1.26,2.19l-37.76,21.8c-.7.4-1.26.08-1.26-.73v-60.02c0-.81.57-1.78,1.26-2.19Z"/>
            <g class="cls-14">
              <path class="cls-2" d="M147.53,164.74l37.76-21.8c.7-.4,1.26-.08,1.26.73v60.02c0,.81-.57,1.79-1.26,2.19l-37.76,21.8c-.7.4-1.26.08-1.26-.73v-60.02c0-.81.57-1.78,1.26-2.19Z"/>
            </g>
          </g>
          <g>
            <path class="cls-15" d="M146.26,166.93v45.06s5.83-3.36,5.83-3.36v-46.52s-1.09.63-1.09.63l-3.48,2.01c-.7.4-1.26,1.38-1.26,2.19Z"/>
            <g>
              <g class="cls-10">
                <polygon points="147.51 166.64 150.85 164.71 150.85 169.69 147.51 171.62 147.51 166.64"/>
              </g>
              <g class="cls-10">
                <polygon points="147.51 172.96 150.85 171.03 150.85 176.01 147.51 177.94 147.51 172.96"/>
              </g>
              <g class="cls-10">
                <polygon points="147.51 179.28 150.85 177.35 150.85 182.33 147.51 184.26 147.51 179.28"/>
              </g>
              <g class="cls-10">
                <polygon points="147.51 185.6 150.85 183.67 150.85 188.65 147.51 190.58 147.51 185.6"/>
              </g>
              <g class="cls-10">
                <polygon points="147.51 191.92 150.85 189.99 150.85 194.97 147.51 196.9 147.51 191.92"/>
              </g>
              <g class="cls-10">
                <polygon points="147.51 198.24 150.85 196.32 150.85 201.29 147.51 203.22 147.51 198.24"/>
              </g>
              <g class="cls-10">
                <polygon points="147.51 204.56 150.85 202.64 150.85 207.62 147.51 209.54 147.51 204.56"/>
              </g>
            </g>
          </g>
          <g>
            <path class="cls-15" d="M186.55,143.67c0-.81-.57-1.13-1.26-.73l-4.56,2.64v46.52l5.83-3.37v-45.06Z"/>
            <g>
              <g class="cls-10">
                <polygon points="181.96 146.75 185.31 144.82 185.31 149.8 181.96 151.72 181.96 146.75"/>
              </g>
              <g class="cls-10">
                <polygon points="181.96 153.07 185.31 151.14 185.31 156.12 181.96 158.05 181.96 153.07"/>
              </g>
              <g class="cls-10">
                <polygon points="181.96 159.39 185.31 157.46 185.31 162.44 181.96 164.37 181.96 159.39"/>
              </g>
              <g class="cls-10">
                <polygon points="181.96 165.71 185.31 163.78 185.31 168.76 181.96 170.69 181.96 165.71"/>
              </g>
              <g class="cls-10">
                <polygon points="181.96 172.03 185.31 170.1 185.31 175.08 181.96 177.01 181.96 172.03"/>
              </g>
              <g class="cls-10">
                <polygon points="181.96 178.35 185.31 176.42 185.31 181.4 181.96 183.33 181.96 178.35"/>
              </g>
              <g class="cls-10">
                <polygon points="181.96 184.67 185.31 182.74 185.31 187.72 181.96 189.65 181.96 184.67"/>
              </g>
            </g>
          </g>
          <path class="cls-15" d="M186.55,203.69v-14.96l-40.29,23.26v14.96c0,.81.57,1.13,1.26.73l37.76-21.8c.7-.4,1.26-1.38,1.26-2.19Z"/>
          <g>
            <path class="cls-2" d="M162.33,189.4c-.96,0-1.85-.23-2.64-.68-1.89-1.09-2.93-3.35-2.93-6.35,0-5.98,4.22-13.28,9.4-16.26h0c2.61-1.5,5.08-1.73,6.97-.63,1.89,1.09,2.93,3.35,2.93,6.35,0,5.98-4.22,13.28-9.4,16.26-1.52.88-2.99,1.32-4.33,1.32ZM166.66,166.97c-4.91,2.83-8.9,9.74-8.9,15.4,0,2.63.86,4.58,2.43,5.49,1.57.91,3.69.68,5.97-.64,4.91-2.83,8.9-9.73,8.9-15.4,0-2.63-.86-4.58-2.43-5.49-1.57-.91-3.69-.68-5.97.64h0Z"/>
            <path class="cls-2" d="M162.1,174.19v10.71c0,.56.3.67.67.25l9.71-11.21c.37-.43.21-.77-.35-.77h-9c-.56,0-1.02.46-1.02,1.02Z"/>
          </g>
          <g>
            <path class="cls-2" d="M158.78,215.74c-.06-.06-.1-.12-.14-.18l-.97-2.06v5.27c0,.12-.03.23-.08.35-.05.12-.12.2-.2.24l-1.35.78c-.08.04-.14.04-.2-.01-.05-.05-.08-.14-.08-.25v-10.28c0-.12.03-.23.08-.35.05-.12.12-.2.2-.24l1.2-.69c.14-.08.24-.08.31,0,.07.08.11.14.13.18l1.67,3.44,1.67-5.37c.02-.06.07-.18.13-.33.07-.16.17-.28.31-.35l1.2-.69c.08-.04.14-.04.2.02.05.05.08.14.08.25v10.28c0,.12-.03.23-.08.35-.06.12-.12.2-.2.24l-1.35.78c-.08.04-.14.04-.2-.01-.05-.05-.08-.14-.08-.25v-5.27l-.97,3.19c-.03.1-.08.22-.14.34-.06.12-.14.22-.24.28l-.66.38c-.1.06-.18.06-.24,0Z"/>
            <path class="cls-2" d="M164.16,208.46c.02-.61.11-1.21.25-1.83.15-.61.36-1.19.63-1.73.27-.55.6-1.04.99-1.5.39-.45.84-.83,1.35-1.12.5-.29.95-.44,1.34-.43.39,0,.72.12,1,.35.27.23.48.56.63,1,.15.44.23.95.25,1.53.01.45.02.92.02,1.42s0,.97-.02,1.41c-.02.61-.11,1.21-.25,1.82-.15.61-.36,1.19-.63,1.74-.27.55-.6,1.05-1,1.5s-.84.82-1.34,1.11c-.51.29-.96.44-1.35.45-.39,0-.72-.12-.99-.35-.27-.24-.48-.57-.63-1.01-.15-.44-.23-.95-.25-1.53-.01-.43-.02-.89-.02-1.39s0-.98.02-1.44ZM168.69,208.59c0-.2.01-.41.02-.65,0-.24.01-.48.01-.72s0-.48-.01-.7c0-.22-.01-.42-.02-.6-.01-.26-.05-.48-.11-.67-.06-.19-.14-.33-.25-.44-.11-.1-.24-.16-.4-.16-.16,0-.34.05-.56.18-.21.12-.4.28-.56.47-.16.19-.29.39-.4.62-.11.23-.19.47-.25.72-.06.26-.09.52-.11.79-.01.19-.02.4-.03.63,0,.23,0,.47,0,.71s0,.48,0,.71c0,.23.01.44.03.62.03.51.15.89.36,1.11.21.23.53.22.96-.03.43-.25.74-.6.95-1.07.21-.47.33-.98.36-1.53Z"/>
            <path class="cls-2" d="M173.77,209.89c-.27.16-.45.05-.55-.32l-2.11-8.73c-.01-.07-.02-.11-.02-.13,0-.02,0-.04,0-.06,0-.1.02-.19.07-.29.04-.09.1-.16.16-.2l1.3-.75c.14-.08.24-.09.29-.04.06.06.09.12.11.2l1.44,6.17,1.44-7.83c.01-.09.05-.2.11-.32.06-.12.16-.23.29-.31l1.3-.75c.06-.04.12-.03.16.01.04.04.07.11.07.21,0,.02,0,.04,0,.07,0,.02-.01.08-.03.16l-2.11,11.16c-.1.48-.28.8-.55.95l-1.36.79Z"/>
          </g>
        </g>
      </g>
      <g id="MP4">
        <path class="cls-13" d="M194.04,130.96l37.76-21.8c.7-.4,1.26-.08,1.26.73v60.02c0,.81-.57,1.78-1.26,2.19l-37.76,21.8c-.7.4-1.26.08-1.26-.73v-60.02c0-.81.57-1.78,1.26-2.19Z"/>
        <g>
          <g>
            <path d="M236.33,111.17c-.23-.14-.55-.12-.9.09l-37.76,21.8c-.7.4-1.26,1.38-1.26,2.19v60.02c0,.4.14.69.37.82.23.13,2.14,1.24,2.37,1.37.23.13.54.11.89-.09l37.76-21.8c.7-.4,1.26-1.38,1.26-2.19v-60.02c0-.4-.14-.68-.36-.81-.23-.14-2.15-1.23-2.37-1.37Z"/>
            <path class="cls-11" d="M201.15,136.52l-4.37-2.52c-.23.4-.37.84-.37,1.25v60.02c0,.4.14.69.37.82.23.13,2.14,1.24,2.37,1.37.23.13.54.11.89-.09l1.11-.64v-60.2Z"/>
          </g>
          <g>
            <path class="cls-15" d="M200.04,134.42l37.76-21.8c.7-.4,1.26-.08,1.26.73v60.02c0,.81-.57,1.78-1.26,2.19l-37.76,21.8c-.7.4-1.26.08-1.26-.73v-60.02c0-.81.57-1.78,1.26-2.19Z"/>
            <g class="cls-14">
              <path class="cls-2" d="M200.04,134.42l37.76-21.8c.7-.4,1.26-.08,1.26.73v60.02c0,.81-.57,1.78-1.26,2.19l-37.76,21.8c-.7.4-1.26.08-1.26-.73v-60.02c0-.81.57-1.78,1.26-2.19Z"/>
            </g>
          </g>
          <g>
            <path class="cls-15" d="M198.78,136.61v45.06s5.83-3.36,5.83-3.36v-46.52s-1.09.63-1.09.63l-3.48,2.01c-.7.4-1.26,1.38-1.26,2.19Z"/>
            <g>
              <g class="cls-10">
                <polygon points="200.02 136.32 203.36 134.39 203.36 139.37 200.02 141.3 200.02 136.32"/>
              </g>
              <g class="cls-10">
                <polygon points="200.02 142.64 203.36 140.72 203.36 145.69 200.02 147.62 200.02 142.64"/>
              </g>
              <g class="cls-10">
                <polygon points="200.02 148.96 203.36 147.04 203.36 152.01 200.02 153.94 200.02 148.96"/>
              </g>
              <g class="cls-10">
                <polygon points="200.02 155.28 203.36 153.36 203.36 158.34 200.02 160.26 200.02 155.28"/>
              </g>
              <g class="cls-10">
                <polygon points="200.02 161.6 203.36 159.68 203.36 164.66 200.02 166.58 200.02 161.6"/>
              </g>
              <g class="cls-10">
                <polygon points="200.02 167.93 203.36 166 203.36 170.98 200.02 172.9 200.02 167.93"/>
              </g>
              <g class="cls-10">
                <polygon points="200.02 174.25 203.36 172.32 203.36 177.3 200.02 179.23 200.02 174.25"/>
              </g>
            </g>
          </g>
          <g>
            <path class="cls-15" d="M239.06,113.35c0-.81-.57-1.13-1.26-.73l-4.56,2.64v46.52l5.83-3.37v-45.06Z"/>
            <g>
              <g class="cls-10">
                <polygon points="234.48 116.43 237.82 114.5 237.82 119.48 234.48 121.41 234.48 116.43"/>
              </g>
              <g class="cls-10">
                <polygon points="234.48 122.75 237.82 120.82 237.82 125.8 234.48 127.73 234.48 122.75"/>
              </g>
              <g class="cls-10">
                <polygon points="234.48 129.07 237.82 127.14 237.82 132.12 234.48 134.05 234.48 129.07"/>
              </g>
              <g class="cls-10">
                <polygon points="234.48 135.39 237.82 133.46 237.82 138.44 234.48 140.37 234.48 135.39"/>
              </g>
              <g class="cls-10">
                <polygon points="234.48 141.71 237.82 139.78 237.82 144.76 234.48 146.69 234.48 141.71"/>
              </g>
              <g class="cls-10">
                <polygon points="234.48 148.03 237.82 146.1 237.82 151.08 234.48 153.01 234.48 148.03"/>
              </g>
              <g class="cls-10">
                <polygon points="234.48 154.35 237.82 152.42 237.82 157.4 234.48 159.33 234.48 154.35"/>
              </g>
            </g>
          </g>
          <path class="cls-15" d="M239.06,173.37v-14.96l-40.29,23.26v14.96c0,.81.57,1.13,1.26.73l37.76-21.8c.7-.4,1.26-1.38,1.26-2.19Z"/>
          <g>
            <path class="cls-2" d="M214.84,159.08c-.96,0-1.85-.23-2.64-.68-1.89-1.09-2.93-3.35-2.93-6.35,0-5.98,4.22-13.28,9.4-16.26h0c2.61-1.5,5.08-1.73,6.97-.63,1.89,1.09,2.93,3.35,2.93,6.35,0,5.98-4.22,13.28-9.4,16.26-1.52.88-2.99,1.32-4.33,1.32ZM219.18,136.65c-4.91,2.83-8.9,9.74-8.9,15.4,0,2.63.86,4.58,2.43,5.49,1.57.91,3.69.68,5.97-.64,4.91-2.83,8.9-9.73,8.9-15.4,0-2.63-.86-4.58-2.43-5.49-1.57-.91-3.69-.68-5.97.64h0Z"/>
            <path class="cls-2" d="M214.62,143.87v10.71c0,.56.3.67.67.25l9.71-11.21c.37-.43.21-.77-.35-.77h-9c-.56,0-1.02.46-1.02,1.02Z"/>
          </g>
          <g>
            <path class="cls-2" d="M211.17,185.48c-.06-.06-.1-.12-.14-.18l-.97-2.06v5.27c0,.12-.03.23-.08.35-.05.12-.12.2-.2.24l-1.35.78c-.08.04-.14.04-.2-.01-.06-.05-.08-.14-.08-.25v-10.28c0-.12.03-.23.08-.35.05-.12.12-.2.2-.24l1.2-.69c.14-.08.24-.08.31,0,.07.08.11.14.13.18l1.67,3.44,1.67-5.37c.02-.06.07-.18.13-.33.07-.16.17-.28.31-.35l1.2-.69c.08-.04.14-.04.2.02.05.05.08.14.08.25v10.28c0,.12-.03.23-.08.35-.06.12-.12.2-.2.24l-1.35.78c-.08.04-.14.04-.2-.01-.05-.05-.08-.14-.08-.25v-5.27l-.97,3.19c-.03.1-.08.22-.14.34-.06.12-.14.22-.24.28l-.66.38c-.1.06-.18.06-.24,0Z"/>
            <path class="cls-2" d="M220.02,172.04c.44-.25.84-.41,1.19-.45.35-.05.65.01.9.18.25.17.44.45.57.84.13.39.2.89.2,1.51s-.07,1.21-.2,1.76c-.13.54-.33,1.04-.57,1.49-.25.45-.55.86-.9,1.22-.35.36-.75.67-1.19.92l-1.32.76v3.25c0,.12-.03.23-.08.35-.06.12-.12.2-.2.24l-1.35.78c-.08.04-.14.04-.2-.01-.05-.05-.08-.14-.08-.25v-10.28c0-.12.03-.23.08-.35.05-.12.12-.2.2-.24l2.96-1.71ZM218.7,177.78l1.27-.73c.29-.17.53-.4.72-.71.19-.3.28-.68.28-1.13s-.09-.71-.28-.8c-.19-.09-.43-.05-.72.12l-1.27.73v2.51Z"/>
            <path class="cls-2" d="M227.28,178.98c-.08.04-.14.04-.2-.01-.06-.05-.08-.14-.08-.25v-1.62l-3.25,1.88c-.08.04-.14.04-.2-.01-.06-.05-.08-.14-.08-.26v-1.69c0-.28.04-.53.13-.76l3.09-7.78c.06-.15.12-.26.17-.33.05-.07.12-.13.21-.18l1.56-.9c.08-.04.14-.04.2.01.06.05.08.14.08.25v6.11l.89-.51c.08-.04.14-.04.2.01.05.05.08.14.08.25v1.69c0,.12-.03.23-.08.35-.06.12-.12.2-.2.24l-.89.51v1.62c0,.12-.03.23-.08.35-.06.12-.12.2-.2.24l-1.35.78ZM227.06,174.52v-2.93l-1.51,3.8,1.51-.87Z"/>
          </g>
        </g>
      </g>
      <g id="MKV">
        <path class="cls-13" d="M246.55,100.64l37.76-21.8c.7-.4,1.26-.08,1.26.73v60.02c0,.81-.57,1.78-1.26,2.19l-37.76,21.8c-.7.4-1.26.08-1.26-.73v-60.02c0-.81.57-1.79,1.26-2.19Z"/>
        <g>
          <g>
            <path d="M288.84,80.85c-.23-.14-.55-.12-.9.09l-37.76,21.8c-.7.4-1.26,1.38-1.26,2.19v60.02c0,.4.14.69.37.82.23.13,2.14,1.24,2.37,1.37.23.13.54.11.89-.09l37.76-21.8c.7-.4,1.26-1.38,1.26-2.19v-60.02c0-.4-.14-.68-.36-.81-.23-.14-2.15-1.23-2.37-1.37Z"/>
            <path class="cls-11" d="M253.66,106.2l-4.37-2.52c-.23.4-.37.84-.37,1.25v60.02c0,.4.14.69.37.82.23.13,2.14,1.24,2.37,1.37.23.13.54.11.89-.09l1.11-.64v-60.2Z"/>
          </g>
          <g>
            <path class="cls-15" d="M252.55,104.11l37.76-21.8c.7-.4,1.26-.08,1.26.73v60.02c0,.81-.57,1.78-1.26,2.19l-37.76,21.8c-.7.4-1.26.08-1.26-.73v-60.02c0-.81.57-1.78,1.26-2.19Z"/>
            <g class="cls-14">
              <path class="cls-2" d="M252.55,104.11l37.76-21.8c.7-.4,1.26-.08,1.26.73v60.02c0,.81-.57,1.78-1.26,2.19l-37.76,21.8c-.7.4-1.26.08-1.26-.73v-60.02c0-.81.57-1.78,1.26-2.19Z"/>
            </g>
          </g>
          <g>
            <path class="cls-15" d="M251.29,106.29v45.06s5.83-3.36,5.83-3.36v-46.52s-1.09.63-1.09.63l-3.48,2.01c-.7.4-1.26,1.38-1.26,2.19Z"/>
            <g>
              <g class="cls-10">
                <polygon points="252.53 106 255.87 104.08 255.87 109.06 252.53 110.98 252.53 106"/>
              </g>
              <g class="cls-10">
                <polygon points="252.53 112.33 255.87 110.4 255.87 115.38 252.53 117.3 252.53 112.33"/>
              </g>
              <g class="cls-10">
                <polygon points="252.53 118.65 255.87 116.72 255.87 121.7 252.53 123.63 252.53 118.65"/>
              </g>
              <g class="cls-10">
                <polygon points="252.53 124.97 255.87 123.04 255.87 128.02 252.53 129.95 252.53 124.97"/>
              </g>
              <g class="cls-10">
                <polygon points="252.53 131.29 255.87 129.36 255.87 134.34 252.53 136.27 252.53 131.29"/>
              </g>
              <g class="cls-10">
                <polygon points="252.53 137.61 255.87 135.68 255.87 140.66 252.53 142.59 252.53 137.61"/>
              </g>
              <g class="cls-10">
                <polygon points="252.53 143.93 255.87 142 255.87 146.98 252.53 148.91 252.53 143.93"/>
              </g>
            </g>
          </g>
          <g>
            <path class="cls-15" d="M291.58,83.03c0-.81-.57-1.13-1.26-.73l-4.56,2.64v46.52l5.83-3.37v-45.06Z"/>
            <g>
              <g class="cls-10">
                <polygon points="286.99 86.11 290.33 84.18 290.33 89.16 286.99 91.09 286.99 86.11"/>
              </g>
              <g class="cls-10">
                <polygon points="286.99 92.43 290.33 90.5 290.33 95.48 286.99 97.41 286.99 92.43"/>
              </g>
              <g class="cls-10">
                <polygon points="286.99 98.75 290.33 96.82 290.33 101.8 286.99 103.73 286.99 98.75"/>
              </g>
              <g class="cls-10">
                <polygon points="286.99 105.07 290.33 103.14 290.33 108.12 286.99 110.05 286.99 105.07"/>
              </g>
              <g class="cls-10">
                <polygon points="286.99 111.39 290.33 109.47 290.33 114.44 286.99 116.37 286.99 111.39"/>
              </g>
              <g class="cls-10">
                <polygon points="286.99 117.71 290.33 115.79 290.33 120.77 286.99 122.69 286.99 117.71"/>
              </g>
              <g class="cls-10">
                <polygon points="286.99 124.03 290.33 122.11 290.33 127.09 286.99 129.01 286.99 124.03"/>
              </g>
            </g>
          </g>
          <path class="cls-15" d="M291.58,143.05v-14.96l-40.29,23.26v14.96c0,.81.57,1.13,1.26.73l37.76-21.8c.7-.4,1.26-1.38,1.26-2.19Z"/>
          <g>
            <path class="cls-2" d="M267.36,128.76c-.96,0-1.85-.23-2.64-.68-1.89-1.09-2.93-3.35-2.93-6.35,0-5.98,4.22-13.28,9.4-16.26h0c2.61-1.5,5.08-1.73,6.97-.63,1.89,1.09,2.93,3.35,2.93,6.35,0,5.98-4.22,13.28-9.4,16.26-1.52.88-2.99,1.32-4.33,1.32ZM271.69,106.33c-4.91,2.83-8.9,9.74-8.9,15.4,0,2.63.86,4.58,2.43,5.49,1.57.91,3.69.68,5.97-.64,4.91-2.83,8.9-9.73,8.9-15.4,0-2.63-.86-4.58-2.43-5.49-1.57-.91-3.69-.68-5.97.64h0Z"/>
            <path class="cls-2" d="M267.13,113.55v10.71c0,.56.3.67.67.25l9.71-11.21c.37-.43.21-.77-.35-.77h-9c-.56,0-1.02.46-1.02,1.02Z"/>
          </g>
          <g>
            <path class="cls-2" d="M263.92,155.02c-.06-.06-.11-.12-.14-.18l-.97-2.07v5.27c0,.12-.03.23-.08.35-.06.12-.12.2-.2.24l-1.35.78c-.08.04-.14.04-.2-.01-.05-.05-.08-.14-.08-.25v-10.28c0-.12.03-.23.08-.35.06-.12.12-.2.2-.24l1.2-.69c.14-.08.24-.08.31,0,.07.08.11.13.13.18l1.67,3.44,1.67-5.37c.02-.07.07-.17.13-.33.07-.16.17-.28.31-.36l1.2-.69c.08-.04.14-.04.2.01.05.05.08.14.08.25v10.28c0,.12-.03.23-.08.35-.05.12-.12.2-.2.24l-1.35.78c-.08.04-.14.04-.2-.01-.06-.05-.08-.14-.08-.25v-5.27l-.97,3.19c-.04.11-.08.22-.14.34-.06.12-.14.22-.24.28l-.66.38c-.1.06-.18.06-.24,0Z"/>
            <path class="cls-2" d="M275.66,150.53s.03.08.03.16c0,.09-.02.19-.07.28-.05.1-.1.16-.16.2l-1.64.95c-.1.06-.17.07-.24.04-.06-.03-.12-.08-.19-.16l-1.95-2.66v3.72c0,.12-.03.23-.08.35s-.12.2-.2.24l-1.35.78c-.08.04-.14.04-.2-.01-.06-.05-.08-.14-.08-.26v-10.28c0-.12.03-.23.08-.35.05-.12.12-.2.2-.24l1.35-.78c.08-.04.14-.04.2.01s.08.14.08.25v3.36l1.82-4.49c.03-.08.08-.18.13-.3.05-.12.15-.21.28-.29l1.61-.93c.06-.04.12-.03.16.01.04.04.07.11.07.21,0,.07,0,.14-.03.19l-2.55,6.28,2.73,3.71Z"/>
            <path class="cls-2" d="M278.68,149.31c-.27.16-.45.05-.55-.32l-2.11-8.73c-.01-.07-.02-.11-.03-.13,0-.02,0-.04,0-.06,0-.1.02-.19.07-.29.05-.09.1-.16.16-.2l1.3-.75c.14-.08.24-.09.3-.03.06.06.09.12.11.2l1.44,6.17,1.44-7.83c.01-.09.05-.2.11-.33.06-.12.16-.23.29-.3l1.3-.75c.06-.04.12-.03.16.01.05.04.07.11.07.21,0,.02,0,.04,0,.07,0,.02-.01.08-.03.16l-2.11,11.16c-.1.48-.28.8-.55.95l-1.36.79Z"/>
          </g>
        </g>
      </g>
      <g id="AVI-2" data-name="AVI">
        <path class="cls-13" d="M89.01,273.72l37.76-21.8c.7-.4,1.26-.08,1.26.73v60.02c0,.81-.57,1.79-1.26,2.19l-37.76,21.8c-.7.4-1.26.08-1.26-.73v-60.02c0-.81.57-1.78,1.26-2.19Z"/>
        <g>
          <g>
            <path d="M131.3,253.92c-.23-.14-.55-.12-.9.09l-37.76,21.8c-.7.4-1.26,1.38-1.26,2.19v60.02c0,.4.14.69.37.82.23.13,2.14,1.24,2.37,1.37.23.13.54.11.89-.09l37.76-21.8c.7-.4,1.26-1.38,1.26-2.19v-60.02c0-.4-.14-.68-.36-.81-.23-.14-2.15-1.24-2.37-1.37Z"/>
            <path class="cls-11" d="M96.12,279.28l-4.37-2.52c-.23.4-.37.84-.37,1.25v60.02c0,.4.14.69.37.82.23.13,2.14,1.24,2.37,1.37.23.13.54.11.89-.09l1.11-.64v-60.2Z"/>
          </g>
          <g>
            <path class="cls-15" d="M95.01,277.18l37.76-21.8c.7-.4,1.26-.08,1.26.73v60.02c0,.81-.57,1.78-1.26,2.19l-37.76,21.8c-.7.4-1.26.08-1.26-.73v-60.02c0-.81.57-1.78,1.26-2.19Z"/>
            <g class="cls-14">
              <path class="cls-2" d="M95.01,277.18l37.76-21.8c.7-.4,1.26-.08,1.26.73v60.02c0,.81-.57,1.78-1.26,2.19l-37.76,21.8c-.7.4-1.26.08-1.26-.73v-60.02c0-.81.57-1.78,1.26-2.19Z"/>
            </g>
          </g>
          <g>
            <path class="cls-15" d="M93.75,279.37v45.06s5.83-3.36,5.83-3.36v-46.52s-1.09.63-1.09.63l-3.48,2.01c-.7.4-1.26,1.38-1.26,2.19Z"/>
            <g>
              <g class="cls-10">
                <polygon points="94.99 279.08 98.33 277.15 98.33 282.13 94.99 284.06 94.99 279.08"/>
              </g>
              <g class="cls-10">
                <polygon points="94.99 285.4 98.33 283.47 98.33 288.45 94.99 290.38 94.99 285.4"/>
              </g>
              <g class="cls-10">
                <polygon points="94.99 291.72 98.33 289.79 98.33 294.77 94.99 296.7 94.99 291.72"/>
              </g>
              <g class="cls-10">
                <polygon points="94.99 298.04 98.33 296.11 98.33 301.09 94.99 303.02 94.99 298.04"/>
              </g>
              <g class="cls-10">
                <polygon points="94.99 304.36 98.33 302.43 98.33 307.41 94.99 309.34 94.99 304.36"/>
              </g>
              <g class="cls-10">
                <polygon points="94.99 310.68 98.33 308.75 98.33 313.73 94.99 315.66 94.99 310.68"/>
              </g>
              <g class="cls-10">
                <polygon points="94.99 317 98.33 315.07 98.33 320.05 94.99 321.98 94.99 317"/>
              </g>
            </g>
          </g>
          <g>
            <path class="cls-15" d="M134.03,256.11c0-.81-.57-1.13-1.26-.73l-4.56,2.64v46.52l5.83-3.37v-45.06Z"/>
            <g>
              <g class="cls-10">
                <polygon points="129.45 259.18 132.79 257.26 132.79 262.23 129.45 264.16 129.45 259.18"/>
              </g>
              <g class="cls-10">
                <polygon points="129.45 265.5 132.79 263.58 132.79 268.56 129.45 270.48 129.45 265.5"/>
              </g>
              <g class="cls-10">
                <polygon points="129.45 271.82 132.79 269.9 132.79 274.88 129.45 276.8 129.45 271.82"/>
              </g>
              <g class="cls-10">
                <polygon points="129.45 278.15 132.79 276.22 132.79 281.2 129.45 283.12 129.45 278.15"/>
              </g>
              <g class="cls-10">
                <polygon points="129.45 284.47 132.79 282.54 132.79 287.52 129.45 289.45 129.45 284.47"/>
              </g>
              <g class="cls-10">
                <polygon points="129.45 290.79 132.79 288.86 132.79 293.84 129.45 295.77 129.45 290.79"/>
              </g>
              <g class="cls-10">
                <polygon points="129.45 297.11 132.79 295.18 132.79 300.16 129.45 302.09 129.45 297.11"/>
              </g>
            </g>
          </g>
          <path class="cls-15" d="M134.03,316.13v-14.96l-40.29,23.26v14.96c0,.81.57,1.13,1.26.73l37.76-21.8c.7-.4,1.26-1.38,1.26-2.19Z"/>
          <g>
            <path class="cls-2" d="M106.14,328.24c-.06-.06-.1-.12-.14-.18l-.97-2.07v5.27c0,.12-.03.23-.08.35-.05.12-.12.2-.2.24l-1.35.78c-.08.04-.14.04-.2-.01-.05-.05-.08-.14-.08-.26v-10.28c0-.12.03-.23.08-.35.05-.12.12-.2.2-.24l1.2-.69c.14-.08.24-.08.31,0,.07.08.11.14.13.18l1.67,3.44,1.67-5.37c.02-.07.07-.18.13-.33.07-.16.17-.28.31-.36l1.2-.69c.08-.04.14-.04.2.01.05.05.08.14.08.25v10.28c0,.12-.03.23-.08.35-.06.12-.12.2-.2.24l-1.35.78c-.08.04-.14.04-.2-.01-.05-.05-.08-.14-.08-.26v-5.27l-.97,3.19c-.03.11-.08.22-.14.34-.06.12-.14.22-.24.28l-.66.38c-.1.06-.18.06-.24,0Z"/>
            <path class="cls-2" d="M114.99,314.8c.44-.25.84-.41,1.19-.46.35-.05.65.01.9.18.25.17.44.45.57.84.13.39.2.89.2,1.51s-.07,1.21-.2,1.76c-.13.54-.33,1.04-.57,1.49-.25.45-.55.86-.9,1.22-.35.36-.75.67-1.19.92l-1.32.76v3.25c0,.12-.03.23-.08.35-.06.12-.12.2-.2.24l-1.35.78c-.08.04-.14.04-.2-.01-.05-.05-.08-.14-.08-.25v-10.28c0-.12.03-.23.08-.35.06-.12.12-.2.2-.24l2.96-1.71ZM113.67,320.54l1.27-.73c.29-.17.53-.4.72-.71.19-.3.28-.68.28-1.13s-.09-.71-.28-.8c-.19-.09-.43-.05-.72.12l-1.27.73v2.51Z"/>
            <path class="cls-2" d="M122.25,321.74c-.08.04-.14.04-.2-.01-.06-.05-.08-.14-.08-.26v-1.62l-3.25,1.88c-.08.04-.14.04-.2-.01-.06-.05-.08-.14-.08-.25v-1.69c0-.28.04-.53.13-.76l3.09-7.78c.06-.15.12-.26.17-.33.05-.07.12-.13.21-.18l1.56-.9c.08-.04.14-.04.2.01.05.05.08.14.08.25v6.11l.89-.51c.08-.04.14-.04.2.01.05.05.08.14.08.25v1.69c0,.12-.03.23-.08.35-.06.12-.12.2-.2.24l-.89.51v1.62c0,.12-.03.23-.08.35-.06.12-.12.2-.2.24l-1.35.78ZM122.03,317.28v-2.93l-1.51,3.8,1.51-.87Z"/>
          </g>
          <g>
            <path class="cls-2" d="M109.81,301.84c-.96,0-1.85-.23-2.64-.68-1.89-1.09-2.93-3.35-2.93-6.35,0-5.98,4.22-13.28,9.4-16.26h0c2.61-1.5,5.08-1.73,6.97-.63,1.89,1.09,2.93,3.35,2.93,6.35,0,5.98-4.22,13.28-9.4,16.26-1.52.88-2.99,1.32-4.33,1.32ZM114.15,279.41c-4.91,2.83-8.9,9.74-8.9,15.4,0,2.63.86,4.58,2.43,5.49,1.57.91,3.69.68,5.97-.64,4.91-2.83,8.9-9.73,8.9-15.4,0-2.63-.86-4.58-2.43-5.49-1.57-.91-3.69-.68-5.97.64h0Z"/>
            <path class="cls-2" d="M109.59,286.62v10.71c0,.56.3.67.67.25l9.71-11.21c.37-.43.21-.77-.35-.77h-9c-.56,0-1.02.46-1.02,1.02Z"/>
          </g>
        </g>
      </g>
      <g id="MOV-2" data-name="MOV">
        <path class="cls-13" d="M141.52,243.4l37.76-21.8c.7-.4,1.26-.08,1.26.73v60.02c0,.81-.57,1.78-1.26,2.19l-37.76,21.8c-.7.4-1.26.08-1.26-.73v-60.02c0-.81.57-1.78,1.26-2.19Z"/>
        <g>
          <g>
            <path d="M183.81,223.6c-.23-.14-.55-.12-.9.09l-37.76,21.8c-.7.4-1.26,1.38-1.26,2.19v60.02c0,.4.14.69.37.82.23.13,2.14,1.24,2.37,1.37.23.13.54.11.89-.09l37.76-21.8c.7-.4,1.26-1.38,1.26-2.19v-60.02c0-.4-.14-.68-.36-.81-.23-.14-2.15-1.23-2.37-1.37Z"/>
            <path class="cls-11" d="M148.63,248.95l-4.37-2.52c-.23.4-.37.84-.37,1.25v60.02c0,.4.14.69.37.82.23.13,2.14,1.24,2.37,1.37.23.13.54.11.89-.09l1.11-.64v-60.2Z"/>
          </g>
          <g>
            <path class="cls-15" d="M147.53,246.86l37.76-21.8c.7-.4,1.26-.08,1.26.73v60.02c0,.81-.57,1.78-1.26,2.19l-37.76,21.8c-.7.4-1.26.08-1.26-.73v-60.02c0-.81.57-1.78,1.26-2.19Z"/>
            <g class="cls-14">
              <path class="cls-2" d="M147.53,246.86l37.76-21.8c.7-.4,1.26-.08,1.26.73v60.02c0,.81-.57,1.78-1.26,2.19l-37.76,21.8c-.7.4-1.26.08-1.26-.73v-60.02c0-.81.57-1.78,1.26-2.19Z"/>
            </g>
          </g>
          <g>
            <path class="cls-15" d="M146.26,249.05v45.06s5.83-3.36,5.83-3.36v-46.52s-1.09.63-1.09.63l-3.48,2.01c-.7.4-1.26,1.38-1.26,2.19Z"/>
            <g>
              <g class="cls-10">
                <polygon points="147.51 248.76 150.85 246.83 150.85 251.81 147.51 253.74 147.51 248.76"/>
              </g>
              <g class="cls-10">
                <polygon points="147.51 255.08 150.85 253.15 150.85 258.13 147.51 260.06 147.51 255.08"/>
              </g>
              <g class="cls-10">
                <polygon points="147.51 261.4 150.85 259.47 150.85 264.45 147.51 266.38 147.51 261.4"/>
              </g>
              <g class="cls-10">
                <polygon points="147.51 267.72 150.85 265.79 150.85 270.77 147.51 272.7 147.51 267.72"/>
              </g>
              <g class="cls-10">
                <polygon points="147.51 274.04 150.85 272.11 150.85 277.09 147.51 279.02 147.51 274.04"/>
              </g>
              <g class="cls-10">
                <polygon points="147.51 280.36 150.85 278.43 150.85 283.41 147.51 285.34 147.51 280.36"/>
              </g>
              <g class="cls-10">
                <polygon points="147.51 286.68 150.85 284.75 150.85 289.73 147.51 291.66 147.51 286.68"/>
              </g>
            </g>
          </g>
          <g>
            <path class="cls-15" d="M186.55,225.79c0-.81-.57-1.13-1.26-.73l-4.56,2.64v46.52l5.83-3.37v-45.06Z"/>
            <g>
              <g class="cls-10">
                <polygon points="181.96 228.86 185.31 226.93 185.31 231.91 181.96 233.84 181.96 228.86"/>
              </g>
              <g class="cls-10">
                <polygon points="181.96 235.18 185.31 233.26 185.31 238.23 181.96 240.16 181.96 235.18"/>
              </g>
              <g class="cls-10">
                <polygon points="181.96 241.5 185.31 239.58 185.31 244.56 181.96 246.48 181.96 241.5"/>
              </g>
              <g class="cls-10">
                <polygon points="181.96 247.82 185.31 245.9 185.31 250.88 181.96 252.8 181.96 247.82"/>
              </g>
              <g class="cls-10">
                <polygon points="181.96 254.15 185.31 252.22 185.31 257.2 181.96 259.12 181.96 254.15"/>
              </g>
              <g class="cls-10">
                <polygon points="181.96 260.47 185.31 258.54 185.31 263.52 181.96 265.45 181.96 260.47"/>
              </g>
              <g class="cls-10">
                <polygon points="181.96 266.79 185.31 264.86 185.31 269.84 181.96 271.77 181.96 266.79"/>
              </g>
            </g>
          </g>
          <path class="cls-15" d="M186.55,285.8v-14.96l-40.29,23.26v14.96c0,.81.57,1.13,1.26.73l37.76-21.8c.7-.4,1.26-1.38,1.26-2.19Z"/>
          <g>
            <path class="cls-2" d="M162.33,271.52c-.96,0-1.85-.23-2.64-.68-1.89-1.09-2.93-3.35-2.93-6.35,0-5.98,4.22-13.28,9.4-16.26h0c2.61-1.5,5.08-1.73,6.97-.63,1.89,1.09,2.93,3.35,2.93,6.35,0,5.98-4.22,13.28-9.4,16.26-1.52.88-2.99,1.32-4.33,1.32ZM166.66,249.08c-4.91,2.83-8.9,9.74-8.9,15.4,0,2.63.86,4.58,2.43,5.49,1.57.91,3.69.68,5.97-.64,4.91-2.83,8.9-9.73,8.9-15.4,0-2.63-.86-4.58-2.43-5.49-1.57-.91-3.69-.68-5.97.64h0Z"/>
            <path class="cls-2" d="M162.1,256.3v10.71c0,.56.3.67.67.25l9.71-11.21c.37-.43.21-.77-.35-.77h-9c-.56,0-1.02.46-1.02,1.02Z"/>
          </g>
          <g>
            <path class="cls-2" d="M158.89,297.79c-.06-.06-.1-.12-.14-.18l-.97-2.07v5.27c0,.12-.03.23-.08.35-.05.12-.12.2-.2.24l-1.35.78c-.08.04-.14.04-.2-.01s-.08-.14-.08-.25v-10.28c0-.12.03-.23.08-.35s.12-.2.2-.24l1.2-.69c.14-.08.24-.08.31,0,.07.08.11.13.13.18l1.67,3.44,1.67-5.37c.02-.07.07-.17.13-.33.07-.16.17-.28.31-.36l1.2-.69c.08-.04.14-.04.2.01.05.05.08.14.08.25v10.28c0,.12-.03.23-.08.35-.06.12-.12.2-.2.24l-1.35.78c-.08.04-.14.04-.2-.01-.05-.05-.08-.14-.08-.25v-5.27l-.97,3.19c-.03.11-.08.22-.14.34-.06.12-.14.22-.24.28l-.66.38c-.1.06-.18.06-.24,0Z"/>
            <path class="cls-2" d="M170.64,293.29s.03.08.03.16c0,.09-.02.19-.07.28-.04.1-.1.16-.16.2l-1.64.95c-.1.06-.17.07-.24.04-.06-.03-.12-.08-.19-.16l-1.95-2.66v3.72c0,.12-.03.23-.08.35-.06.12-.12.2-.2.24l-1.35.78c-.08.04-.14.04-.2-.01-.05-.05-.08-.14-.08-.26v-10.28c0-.12.03-.23.08-.35.06-.12.12-.2.2-.24l1.35-.78c.08-.04.14-.04.2.01.05.05.08.14.08.25v3.36l1.82-4.49c.03-.08.08-.18.13-.3.06-.12.15-.21.28-.29l1.61-.93c.06-.04.12-.03.16.01.05.04.07.11.07.21,0,.07-.01.14-.03.19l-2.55,6.28,2.73,3.71Z"/>
            <path class="cls-2" d="M173.65,292.07c-.27.16-.45.05-.55-.32l-2.11-8.73c-.01-.07-.02-.11-.03-.13,0-.02,0-.04,0-.06,0-.1.02-.19.07-.29s.1-.16.16-.2l1.3-.75c.14-.08.24-.09.29-.03.06.06.09.12.11.2l1.44,6.17,1.44-7.83c.01-.09.05-.2.11-.33.06-.12.16-.23.29-.3l1.3-.75c.06-.04.12-.03.16.01.04.04.07.11.07.21,0,.02,0,.04,0,.07,0,.02-.01.08-.03.16l-2.11,11.16c-.1.48-.28.8-.55.95l-1.36.79Z"/>
          </g>
        </g>
      </g>
      <g id="MP4-2" data-name="MP4">
        <path class="cls-13" d="M194.04,213.08l37.76-21.8c.7-.4,1.26-.08,1.26.73v60.02c0,.81-.57,1.78-1.26,2.19l-37.76,21.8c-.7.4-1.26.08-1.26-.73v-60.02c0-.81.57-1.78,1.26-2.19Z"/>
        <g>
          <g>
            <path d="M236.33,193.29c-.23-.14-.55-.12-.9.09l-37.76,21.8c-.7.4-1.26,1.38-1.26,2.19v60.02c0,.4.14.69.37.82.23.13,2.14,1.24,2.37,1.37.23.13.54.11.89-.09l37.76-21.8c.7-.4,1.26-1.38,1.26-2.19v-60.02c0-.4-.14-.68-.36-.81-.23-.14-2.15-1.24-2.37-1.37Z"/>
            <path class="cls-11" d="M201.15,218.64l-4.37-2.52c-.23.4-.37.84-.37,1.25v60.02c0,.4.14.69.37.82.23.13,2.14,1.24,2.37,1.37.23.13.54.11.89-.09l1.11-.64v-60.2Z"/>
          </g>
          <g>
            <path class="cls-15" d="M200.04,216.54l37.76-21.8c.7-.4,1.26-.08,1.26.73v60.02c0,.81-.57,1.78-1.26,2.19l-37.76,21.8c-.7.4-1.26.08-1.26-.73v-60.02c0-.81.57-1.78,1.26-2.19Z"/>
            <g class="cls-14">
              <path class="cls-2" d="M200.04,216.54l37.76-21.8c.7-.4,1.26-.08,1.26.73v60.02c0,.81-.57,1.78-1.26,2.19l-37.76,21.8c-.7.4-1.26.08-1.26-.73v-60.02c0-.81.57-1.78,1.26-2.19Z"/>
            </g>
          </g>
          <g>
            <path class="cls-15" d="M198.78,218.73v45.06s5.83-3.36,5.83-3.36v-46.52s-1.09.63-1.09.63l-3.48,2.01c-.7.4-1.26,1.38-1.26,2.19Z"/>
            <g>
              <g class="cls-10">
                <polygon points="200.02 218.44 203.36 216.51 203.36 221.49 200.02 223.42 200.02 218.44"/>
              </g>
              <g class="cls-10">
                <polygon points="200.02 224.76 203.36 222.83 203.36 227.81 200.02 229.74 200.02 224.76"/>
              </g>
              <g class="cls-10">
                <polygon points="200.02 231.08 203.36 229.15 203.36 234.13 200.02 236.06 200.02 231.08"/>
              </g>
              <g class="cls-10">
                <polygon points="200.02 237.4 203.36 235.47 203.36 240.45 200.02 242.38 200.02 237.4"/>
              </g>
              <g class="cls-10">
                <polygon points="200.02 243.72 203.36 241.79 203.36 246.77 200.02 248.7 200.02 243.72"/>
              </g>
              <g class="cls-10">
                <polygon points="200.02 250.04 203.36 248.12 203.36 253.09 200.02 255.02 200.02 250.04"/>
              </g>
              <g class="cls-10">
                <polygon points="200.02 256.36 203.36 254.44 203.36 259.41 200.02 261.34 200.02 256.36"/>
              </g>
            </g>
          </g>
          <g>
            <path class="cls-15" d="M239.06,195.47c0-.81-.57-1.13-1.26-.73l-4.56,2.64v46.52l5.83-3.37v-45.06Z"/>
            <g>
              <g class="cls-10">
                <polygon points="234.48 198.54 237.82 196.62 237.82 201.6 234.48 203.52 234.48 198.54"/>
              </g>
              <g class="cls-10">
                <polygon points="234.48 204.87 237.82 202.94 237.82 207.92 234.48 209.84 234.48 204.87"/>
              </g>
              <g class="cls-10">
                <polygon points="234.48 211.19 237.82 209.26 237.82 214.24 234.48 216.17 234.48 211.19"/>
              </g>
              <g class="cls-10">
                <polygon points="234.48 217.51 237.82 215.58 237.82 220.56 234.48 222.49 234.48 217.51"/>
              </g>
              <g class="cls-10">
                <polygon points="234.48 223.83 237.82 221.9 237.82 226.88 234.48 228.81 234.48 223.83"/>
              </g>
              <g class="cls-10">
                <polygon points="234.48 230.15 237.82 228.22 237.82 233.2 234.48 235.13 234.48 230.15"/>
              </g>
              <g class="cls-10">
                <polygon points="234.48 236.47 237.82 234.54 237.82 239.52 234.48 241.45 234.48 236.47"/>
              </g>
            </g>
          </g>
          <path class="cls-15" d="M239.06,255.49v-14.96l-40.29,23.26v14.96c0,.81.57,1.13,1.26.73l37.76-21.8c.7-.4,1.26-1.38,1.26-2.19Z"/>
          <g>
            <path class="cls-2" d="M214.84,241.2c-.96,0-1.85-.23-2.64-.68-1.89-1.09-2.93-3.35-2.93-6.35,0-5.98,4.22-13.28,9.4-16.26h0c2.61-1.5,5.08-1.73,6.97-.63,1.89,1.09,2.93,3.35,2.93,6.35,0,5.98-4.22,13.28-9.4,16.26-1.52.88-2.99,1.32-4.33,1.32ZM219.18,218.77c-4.91,2.83-8.9,9.74-8.9,15.4,0,2.63.86,4.58,2.43,5.49,1.57.91,3.69.68,5.97-.64,4.91-2.83,8.9-9.73,8.9-15.4,0-2.63-.86-4.58-2.43-5.49-1.57-.91-3.69-.68-5.97.64h0Z"/>
            <path class="cls-2" d="M214.62,225.99v10.71c0,.56.3.67.67.25l9.71-11.21c.37-.43.21-.77-.35-.77h-9c-.56,0-1.02.46-1.02,1.02Z"/>
          </g>
          <g>
            <path class="cls-2" d="M211.17,267.6c-.06-.06-.1-.12-.14-.18l-.97-2.07v5.27c0,.12-.03.23-.08.35-.05.12-.12.2-.2.24l-1.35.78c-.08.04-.14.04-.2-.01-.06-.05-.08-.14-.08-.25v-10.28c0-.12.03-.23.08-.35.05-.12.12-.2.2-.24l1.2-.69c.14-.08.24-.08.31,0,.07.08.11.13.13.18l1.67,3.44,1.67-5.37c.02-.07.07-.17.13-.33.07-.16.17-.28.31-.36l1.2-.69c.08-.05.14-.04.2.01.05.05.08.14.08.25v10.28c0,.12-.03.23-.08.35-.06.12-.12.2-.2.24l-1.35.78c-.08.04-.14.04-.2-.01s-.08-.14-.08-.25v-5.27l-.97,3.19c-.03.11-.08.22-.14.34-.06.12-.14.22-.24.28l-.66.38c-.1.06-.18.06-.24,0Z"/>
            <path class="cls-2" d="M220.02,254.16c.44-.25.84-.41,1.19-.45.35-.05.65,0,.9.18.25.17.44.45.57.84.13.39.2.89.2,1.51s-.07,1.21-.2,1.75c-.13.54-.33,1.04-.57,1.49-.25.45-.55.86-.9,1.22-.35.36-.75.67-1.19.92l-1.32.76v3.25c0,.12-.03.23-.08.35-.06.12-.12.2-.2.24l-1.35.78c-.08.04-.14.04-.2-.01-.05-.05-.08-.14-.08-.26v-10.28c0-.12.03-.23.08-.35.05-.12.12-.2.2-.24l2.96-1.71ZM218.7,259.9l1.27-.73c.29-.17.53-.4.72-.71.19-.3.28-.68.28-1.13s-.09-.71-.28-.8c-.19-.09-.43-.05-.72.12l-1.27.73v2.51Z"/>
            <path class="cls-2" d="M227.28,261.1c-.08.04-.14.04-.2-.01-.06-.05-.08-.14-.08-.25v-1.62l-3.25,1.88c-.08.04-.14.04-.2-.01-.06-.05-.08-.14-.08-.25v-1.69c0-.28.04-.53.13-.76l3.09-7.78c.06-.15.12-.26.17-.33.05-.07.12-.12.21-.18l1.56-.9c.08-.04.14-.04.2.01.06.05.08.14.08.25v6.11l.89-.51c.08-.04.14-.04.2.01.05.05.08.14.08.25v1.69c0,.12-.03.23-.08.35-.06.12-.12.2-.2.24l-.89.51v1.62c0,.12-.03.23-.08.35-.06.12-.12.2-.2.24l-1.35.78ZM227.06,256.63v-2.93l-1.51,3.8,1.51-.87Z"/>
          </g>
        </g>
      </g>
      <g id="MKV-2" data-name="MKV">
        <path class="cls-13" d="M246.55,182.76l37.76-21.8c.7-.4,1.26-.08,1.26.73v60.02c0,.81-.57,1.78-1.26,2.19l-37.76,21.8c-.7.4-1.26.08-1.26-.73v-60.02c0-.81.57-1.78,1.26-2.19Z"/>
        <g>
          <g>
            <path d="M288.84,162.97c-.23-.14-.55-.12-.9.09l-37.76,21.8c-.7.4-1.26,1.38-1.26,2.19v60.02c0,.4.14.69.37.82.23.13,2.14,1.24,2.37,1.37.23.13.54.11.89-.09l37.76-21.8c.7-.4,1.26-1.38,1.26-2.19v-60.02c0-.4-.14-.68-.36-.81-.23-.14-2.15-1.23-2.37-1.37Z"/>
            <path class="cls-11" d="M253.66,188.32l-4.37-2.52c-.23.4-.37.84-.37,1.25v60.02c0,.4.14.69.37.82.23.13,2.14,1.24,2.37,1.37.23.13.54.11.89-.09l1.11-.64v-60.2Z"/>
          </g>
          <g>
            <path class="cls-15" d="M252.55,186.22l37.76-21.8c.7-.4,1.26-.08,1.26.73v60.02c0,.81-.57,1.78-1.26,2.19l-37.76,21.8c-.7.4-1.26.08-1.26-.73v-60.02c0-.81.57-1.78,1.26-2.19Z"/>
            <g class="cls-14">
              <path class="cls-2" d="M252.55,186.22l37.76-21.8c.7-.4,1.26-.08,1.26.73v60.02c0,.81-.57,1.78-1.26,2.19l-37.76,21.8c-.7.4-1.26.08-1.26-.73v-60.02c0-.81.57-1.78,1.26-2.19Z"/>
            </g>
          </g>
          <g>
            <path class="cls-15" d="M251.29,188.41v45.06s5.83-3.36,5.83-3.36v-46.52s-1.09.63-1.09.63l-3.48,2.01c-.7.4-1.26,1.38-1.26,2.19Z"/>
            <g>
              <g class="cls-10">
                <polygon points="252.53 188.12 255.87 186.19 255.87 191.17 252.53 193.1 252.53 188.12"/>
              </g>
              <g class="cls-10">
                <polygon points="252.53 194.44 255.87 192.52 255.87 197.49 252.53 199.42 252.53 194.44"/>
              </g>
              <g class="cls-10">
                <polygon points="252.53 200.76 255.87 198.84 255.87 203.82 252.53 205.74 252.53 200.76"/>
              </g>
              <g class="cls-10">
                <polygon points="252.53 207.08 255.87 205.16 255.87 210.14 252.53 212.06 252.53 207.08"/>
              </g>
              <g class="cls-10">
                <polygon points="252.53 213.4 255.87 211.48 255.87 216.46 252.53 218.38 252.53 213.4"/>
              </g>
              <g class="cls-10">
                <polygon points="252.53 219.73 255.87 217.8 255.87 222.78 252.53 224.7 252.53 219.73"/>
              </g>
              <g class="cls-10">
                <polygon points="252.53 226.05 255.87 224.12 255.87 229.1 252.53 231.03 252.53 226.05"/>
              </g>
            </g>
          </g>
          <g>
            <path class="cls-15" d="M291.58,165.15c0-.81-.57-1.13-1.26-.73l-4.56,2.64v46.52l5.83-3.37v-45.06Z"/>
            <g>
              <g class="cls-10">
                <polygon points="286.99 168.23 290.33 166.3 290.33 171.28 286.99 173.21 286.99 168.23"/>
              </g>
              <g class="cls-10">
                <polygon points="286.99 174.55 290.33 172.62 290.33 177.6 286.99 179.53 286.99 174.55"/>
              </g>
              <g class="cls-10">
                <polygon points="286.99 180.87 290.33 178.94 290.33 183.92 286.99 185.85 286.99 180.87"/>
              </g>
              <g class="cls-10">
                <polygon points="286.99 187.19 290.33 185.26 290.33 190.24 286.99 192.17 286.99 187.19"/>
              </g>
              <g class="cls-10">
                <polygon points="286.99 193.51 290.33 191.58 290.33 196.56 286.99 198.49 286.99 193.51"/>
              </g>
              <g class="cls-10">
                <polygon points="286.99 199.83 290.33 197.9 290.33 202.88 286.99 204.81 286.99 199.83"/>
              </g>
              <g class="cls-10">
                <polygon points="286.99 206.15 290.33 204.22 290.33 209.2 286.99 211.13 286.99 206.15"/>
              </g>
            </g>
          </g>
          <path class="cls-15" d="M291.58,225.17v-14.96l-40.29,23.26v14.96c0,.81.57,1.13,1.26.73l37.76-21.8c.7-.4,1.26-1.38,1.26-2.19Z"/>
          <g>
            <path class="cls-2" d="M267.36,210.88c-.96,0-1.85-.23-2.64-.68-1.89-1.09-2.93-3.35-2.93-6.35,0-5.98,4.22-13.28,9.4-16.26h0c2.61-1.5,5.08-1.73,6.97-.63,1.89,1.09,2.93,3.35,2.93,6.35,0,5.98-4.22,13.28-9.4,16.26-1.52.88-2.99,1.32-4.33,1.32ZM271.69,188.45c-4.91,2.83-8.9,9.74-8.9,15.4,0,2.63.86,4.58,2.43,5.49,1.57.91,3.69.68,5.97-.64,4.91-2.83,8.9-9.73,8.9-15.4,0-2.63-.86-4.58-2.43-5.49-1.57-.91-3.69-.68-5.97.64h0Z"/>
            <path class="cls-2" d="M267.13,195.67v10.71c0,.56.3.67.67.25l9.71-11.21c.37-.43.21-.77-.35-.77h-9c-.56,0-1.02.46-1.02,1.02Z"/>
          </g>
          <g>
            <path class="cls-2" d="M263.92,237.14c-.06-.06-.11-.12-.14-.18l-.97-2.06v5.27c0,.12-.03.23-.08.35-.06.12-.12.2-.2.24l-1.35.78c-.08.04-.14.04-.2-.01-.05-.05-.08-.14-.08-.25v-10.28c0-.12.03-.23.08-.35.06-.12.12-.2.2-.24l1.2-.69c.14-.08.24-.08.31,0,.07.08.11.14.13.18l1.67,3.44,1.67-5.37c.02-.06.07-.18.13-.33.07-.16.17-.28.31-.35l1.2-.69c.08-.04.14-.04.2.02.05.05.08.14.08.25v10.28c0,.12-.03.23-.08.35-.05.12-.12.2-.2.24l-1.35.78c-.08.04-.14.04-.2-.01-.06-.05-.08-.14-.08-.25v-5.27l-.97,3.19c-.04.1-.08.22-.14.34-.06.12-.14.22-.24.28l-.66.38c-.1.06-.18.06-.24,0Z"/>
            <path class="cls-2" d="M275.66,232.64s.03.08.03.16c0,.09-.02.19-.07.29-.05.1-.1.16-.16.2l-1.64.95c-.1.06-.17.07-.24.04-.06-.03-.12-.08-.19-.16l-1.95-2.66v3.72c0,.12-.03.23-.08.35-.05.12-.12.2-.2.24l-1.35.78c-.08.04-.14.04-.2-.01-.06-.05-.08-.14-.08-.25v-10.28c0-.12.03-.23.08-.35.05-.12.12-.2.2-.24l1.35-.78c.08-.04.14-.04.2.01.05.05.08.14.08.25v3.36l1.82-4.49c.03-.08.08-.18.13-.3.05-.12.15-.21.28-.29l1.61-.93c.06-.04.12-.03.16,0,.04.04.07.11.07.21,0,.07,0,.14-.03.19l-2.55,6.28,2.73,3.71Z"/>
            <path class="cls-2" d="M278.68,231.43c-.27.16-.45.05-.55-.32l-2.11-8.73c-.01-.07-.02-.11-.03-.13,0-.02,0-.04,0-.06,0-.1.02-.19.07-.29.05-.09.1-.16.16-.2l1.3-.75c.14-.08.24-.09.3-.04.06.06.09.12.11.2l1.44,6.17,1.44-7.83c.01-.09.05-.2.11-.32.06-.12.16-.23.29-.31l1.3-.75c.06-.04.12-.03.16.01.05.04.07.11.07.21,0,.02,0,.04,0,.07,0,.02-.01.08-.03.16l-2.11,11.16c-.1.48-.28.8-.55.95l-1.36.79Z"/>
          </g>
        </g>
      </g>
      <g id="Video_Window-2" data-name="Video Window">
        <g id="Window-4" data-name="Window">
          <path class="cls-21" d="M370.01,79.11c-.01-.13-.03-.24-.06-.35.01-.03,0-.05-.01-.07-.01-.13-.05-.24-.09-.34-.05-.18-.13-.34-.23-.49-.02-.08-.07-.14-.13-.2-.04-.05-.06-.1-.11-.14-.08-.1-.15-.18-.25-.25,0,0-.01-.01-.03-.03-.1-.08-.21-.14-.33-.19-.69-.33-1.58-.24-2.57.33l-192.12,110.54c-2.1,1.22-3.82,4.18-3.82,8.44v163.77c0,2.02,2.18,3.28,3.93,2.27l192.02-110.55c2.1-1.22,3.82-4.17,3.82-6.62V79.58c0-.16-.01-.33-.02-.48Z"/>
          <g>
            <path class="cls-15" d="M368.78,77.05c-.69-.33-1.58-.24-2.57.33l-192.12,110.54c-2.1,1.22-3.82,4.18-3.82,6.62v7.4l-4.87-2.86v-7.32c0-2.43,1.7-5.39,3.81-6.6l192.13-110.54c1.09-.64,2.07-.65,2.77-.23.69.41,3.86,2.23,4.67,2.66Z"/>
            <path class="cls-15" d="M370.03,79.56c-.01-2.41-1.72-3.39-3.81-2.17l-192.12,110.54c-2.11,1.22-3.82,4.18-3.82,6.61v7.41s199.75-114.93,199.75-114.93v-7.45Z"/>
            <path class="cls-4" d="M366.21,77.38l-192.12,110.54c-1.04.61-2,1.64-2.69,2.83l-4.85-2.81c.68-1.18,1.62-2.2,2.66-2.79l192.12-110.54c1.09-.64,2.07-.65,2.77-.23.68.42,3.85,2.22,4.66,2.65-.67-.32-1.57-.23-2.56.34Z"/>
            <path class="cls-16" d="M165.4,199.1v-7.34c0-1.24.46-2.6,1.16-3.82l4.86,2.8c-.71,1.2-1.14,2.56-1.14,3.79v7.41l-4.89-2.85Z"/>
          </g>
          <g>
            <path class="cls-2" d="M354.98,87.4c-.8.46-1.45,1.84-1.45,3.07s.65,1.86,1.45,1.4c.8-.46,1.45-1.84,1.45-3.07s-.65-1.86-1.45-1.4Z"/>
            <path class="cls-2" d="M360.21,84.38c-.8.46-1.45,1.84-1.45,3.07s.65,1.86,1.45,1.4c.8-.46,1.45-1.84,1.45-3.07s-.65-1.86-1.45-1.4Z"/>
            <path class="cls-2" d="M365.43,81.36c-.8.46-1.45,1.84-1.45,3.07s.65,1.86,1.45,1.4c.8-.46,1.45-1.84,1.45-3.07s-.65-1.86-1.45-1.4Z"/>
          </g>
          <path class="cls-8" d="M171.65,362.44l-.2-.11-4.02-2.33c-1.09-.62-1.82-1.72-1.99-2.96-.02-.19-.04-.37-.04-.56v-157.4l4.88,2.86v158.19c0,.36.08.67.18.94.37.96,1.19,1.37,1.19,1.37Z"/>
        </g>
        <g id="Bar">
          <path class="cls-15" d="M370.04,245.24v-18.99l-199.76,115.33v18.55c0,2.02,2.18,3.28,3.92,2.27l192.02-110.55c2.1-1.22,3.82-4.17,3.82-6.62Z"/>
          <g>
            <path class="cls-2" d="M194.94,342.58v-7.34c0-.53.34-1.09.66-1.09l6.46-.06c.43,0,.43.93,0,1.42l-6.46,7.4c-.32.37-.66.2-.66-.33Z"/>
            <g>
              <path class="cls-2" d="M209.99,333.89v-7.34c0-.53.34-1.09.66-1.09l6.46-.06c.43,0,.43.93,0,1.42l-6.46,7.4c-.32.37-.66.2-.66-.33Z"/>
              <path class="cls-2" d="M217.93,330.06h0c-.27.16-.49,0-.49-.37v-7.53c0-.36.22-.79.49-.94h0c.27-.16.49,0,.49.37v7.53c0,.36-.22.79-.49.94Z"/>
            </g>
            <g>
              <path class="cls-2" d="M187.33,346.97v-7.34c0-.53-.34-.69-.66-.33l-6.46,7.4c-.43.49-.43,1.42,0,1.42l6.46-.06c.32,0,.66-.56.66-1.09Z"/>
              <path class="cls-2" d="M179.4,352.31h0c.27-.16.49-.58.49-.94v-7.53c0-.36-.22-.53-.49-.37h0c-.27.16-.49.58-.49.94v7.53c0,.36.22.53.49.37Z"/>
            </g>
            <path class="cls-2" d="M334.82,262.35c-.1,0-.2-.03-.28-.08-.18-.1-.28-.29-.28-.49v-8.37c0-.2.11-.39.28-.49l11.11-6.41c.18-.1.39-.1.57,0,.18.1.28.29.28.49v8.37c0,.2-.11.39-.28.49l-11.11,6.41c-.09.05-.19.08-.28.08ZM335.39,253.74v7.06l9.97-5.76v-7.06l-9.97,5.76ZM345.93,255.37h0,0Z"/>
            <path class="cls-2" d="M354.36,245.78c-.31,0-.57-.26-.57-.57v-3.36c0-.2.11-.39.28-.49l2.69-1.55c.27-.16.62-.06.78.21.16.27.06.62-.21.78l-2.4,1.39v3.03c0,.31-.26.57-.57.57Z"/>
            <path class="cls-2" d="M361.68,241.56c-.31,0-.57-.26-.57-.57v-2.37l-1.84,1.06c-.27.16-.62.06-.78-.21s-.06-.62.21-.78l2.69-1.55c.18-.1.39-.1.57,0,.18.1.28.29.28.49v3.36c0,.31-.26.57-.57.57Z"/>
            <path class="cls-2" d="M359,249.46c-.2,0-.39-.1-.49-.28-.16-.27-.06-.62.21-.78l2.4-1.39v-3.03c0-.31.26-.57.57-.57s.57.26.57.57v3.36c0,.2-.11.39-.28.49l-2.69,1.55c-.09.05-.19.08-.28.08Z"/>
            <path class="cls-2" d="M354.36,252.13c-.1,0-.2-.03-.28-.08-.18-.1-.28-.29-.28-.49v-3.36c0-.31.26-.57.57-.57s.57.26.57.57v2.37l1.84-1.06c.27-.16.62-.06.78.21.16.27.06.62-.21.78l-2.69,1.55c-.09.05-.19.08-.28.08Z"/>
            <path class="cls-2" d="M319.25,267.57l1.08-.47c.07-.03.13,0,.15.08.07.27.16.51.27.72.03.05,0,.21-.06.34l-.61,1.37c-.06.14-.08.28-.04.31l.87.66s.14-.05.21-.17l.76-1.25c.08-.13.18-.22.23-.21.21.03.43.03.66-.01.06-.01.12.05.12.13l.12,1.38c0,.08.07.12.14.08l1.19-.68c.07-.04.13-.16.14-.26l.12-1.47c0-.1.08-.25.16-.33.2-.2.39-.41.57-.64.08-.1.18-.18.23-.15l.88.43s.14-.07.21-.2l.76-1.46c.07-.14.1-.28.06-.32l-.7-.76s-.03-.18.02-.32c.09-.3.17-.6.24-.9.02-.12.1-.26.18-.31l1.06-.76c.07-.05.13-.17.13-.27v-1.58c0-.09-.05-.15-.12-.12l-1.08.47c-.07.03-.13,0-.15-.08-.07-.27-.16-.51-.27-.72-.03-.05,0-.21.06-.34l.61-1.37c.06-.14.08-.28.04-.31l-.87-.66s-.14.05-.21.17l-.76,1.25c-.08.13-.18.22-.23.21-.21-.03-.43-.03-.66.01-.06.01-.12-.05-.12-.13l-.12-1.38c0-.08-.07-.12-.14-.08l-1.19.68c-.07.04-.13.16-.14.26l-.12,1.47c0,.1-.08.25-.16.33-.2.2-.39.41-.57.64-.08.1-.18.18-.23.15l-.88-.43s-.14.07-.21.2l-.76,1.46c-.07.14-.1.28-.06.32l.7.76s.03.18-.02.32c-.09.3-.17.6-.24.9-.02.12-.1.26-.18.31l-1.06.76c-.07.05-.13.17-.13.27v1.58c0,.09.05.15.12.12ZM321.76,265.14c0-1.47.9-3.19,2-3.83s2,.04,2,1.51-.9,3.19-2,3.83-2-.04-2-1.51Z"/>
          </g>
        </g>
        <g>
          <path class="cls-2" d="M252.51,268.4c-4.15,0-7.99-.98-11.4-2.95-8.16-4.71-12.65-14.46-12.65-27.44,0-25.83,18.22-57.34,40.61-70.24h0c11.26-6.48,21.96-7.46,30.12-2.74,8.16,4.71,12.65,14.46,12.65,27.44,0,25.83-18.22,57.34-40.61,70.24-6.56,3.78-12.93,5.69-18.72,5.69ZM271.23,171.52c-21.2,12.21-38.45,42.05-38.45,66.5,0,11.37,3.73,19.79,10.49,23.7,6.77,3.92,15.93,2.94,25.8-2.75,21.2-12.21,38.45-42.04,38.45-66.5,0-11.37-3.73-19.79-10.49-23.7-6.77-3.91-15.93-2.94-25.8,2.75h0Z"/>
          <path class="cls-2" d="M251.53,202.7v46.26c0,2.43,1.29,2.91,2.88,1.07l41.93-48.41c1.59-1.84.91-3.33-1.52-3.33h-38.89c-2.43,0-4.4,1.97-4.4,4.4Z"/>
        </g>
      </g>
    </g>
  </g>
</svg>