<?xml version="1.0" encoding="UTF-8"?>
<svg id="Device" xmlns="http://www.w3.org/2000/svg" viewBox="0 0 240.38 414.91">
  <defs>
    <style>
      .cls-1 {
        fill: #ffa8a7;
      }

      .cls-2 {
        opacity: .6;
      }

      .cls-3 {
        fill: #fafafa;
      }

      .cls-4 {
        fill: #4f350e;
      }

      .cls-5 {
        fill: #263238;
      }

      .cls-6 {
        fill: #aa6550;
      }

      .cls-7 {
        fill: #3b280b;
      }

      .cls-8 {
        opacity: .3;
      }

      .cls-9 {
        fill: #eb996e;
      }

      .cls-10 {
        fill: #fff;
      }

      .cls-11 {
        fill: #e0e0e0;
      }

      .cls-12 {
        fill: #455a64;
      }

      .cls-13 {
        fill: #cc2936;
      }

      .cls-14 {
        fill: #ffbe9d;
      }

      .cls-15 {
        fill: #7b7d3c;
      }
    </style>
  </defs>
  <g>
    <g>
      <g>
        <g>
          <g>
            <path class="cls-6" d="M75.1,24.41c-.45-10.78-9.11-19.39-19.89-19.81l-1.07-.04c-11.58.23-17.85,10.19-17.3,21.76l-1.69,39.02,26.48,17.2.8-2.26c-.8,0,1.44-13.34,1.36-14.35l.07-2.64s11.17-1.3,11.73-12.4c.27-5.36-.07-16.45-.49-26.48Z"/>
            <path class="cls-4" d="M63.87,63.28s-7.04.3-14.32-4.67c0,0,3.11,8.12,14.23,7.55l.08-2.88Z"/>
            <path class="cls-5" d="M61.43,42.32c0-.1,1.06-.24,2.79-.39.44-.03.85-.1.94-.39.11-.31-.05-.79-.24-1.3-.37-1.07-.76-2.19-1.16-3.37-1.61-4.79-2.75-8.73-2.56-8.79.19-.06,1.65,3.77,3.26,8.56.39,1.18.76,2.31,1.11,3.38.15.5.41,1.07.16,1.72-.13.32-.46.55-.74.61-.28.07-.53.07-.74.07-1.73.03-2.81,0-2.81-.1Z"/>
            <path class="cls-5" d="M56.23,20.69c-.19.46-1.88.17-3.89.34-2.01.12-3.65.65-3.9.22-.11-.2.19-.63.86-1.05.66-.42,1.71-.81,2.92-.9,1.21-.09,2.3.15,3.02.47.72.32,1.08.7,1,.92Z"/>
            <path class="cls-5" d="M72.64,24.63c-.31.38-1.47-.07-2.89-.14-1.41-.12-2.62.16-2.88-.26-.11-.2.09-.58.63-.93.53-.35,1.4-.61,2.37-.54.97.07,1.8.45,2.27.87.48.42.63.82.49,1.01Z"/>
            <path class="cls-10" d="M55.5,28.22s2.02,3.43.36,4.9c-1.66,1.47-5.99.82-6.15-4.7,4.43-2.01,5.79-.2,5.79-.2Z"/>
            <path class="cls-10" d="M72.51,27.84s2.02,3.43.36,4.9c-1.66,1.47-5.99.82-6.15-4.7,4.43-2.01,5.79-.2,5.79-.2Z"/>
            <path class="cls-5" d="M55.87,31.58c0,.84-.71,1.53-1.59,1.54-.87.01-1.58-.65-1.58-1.49,0-.84.71-1.53,1.59-1.54.88-.01,1.58.66,1.58,1.49Z"/>
            <path class="cls-5" d="M55.71,28.05c-.18.22-1.45-.58-3.15-.46-1.7.1-2.89,1.06-3.09.87-.1-.09.07-.47.59-.91.51-.43,1.39-.88,2.46-.95,1.06-.07,1.98.26,2.52.62.55.37.76.73.67.83Z"/>
            <path class="cls-5" d="M72.88,28.27c-.2.2-1.37-.74-3.08-.8-1.7-.09-2.99.74-3.17.53-.09-.1.13-.46.69-.84.55-.37,1.48-.72,2.54-.68,1.06.05,1.94.47,2.44.89.51.42.67.8.57.89Z"/>
            <path class="cls-5" d="M72.69,31.58c0,.84-.71,1.53-1.59,1.54-.87.01-1.58-.65-1.58-1.49,0-.84.71-1.53,1.59-1.54.88-.01,1.58.66,1.58,1.49Z"/>
          </g>
          <path class="cls-5" d="M56.37,43.31c.28,0,.21,1.85,1.75,3.22,1.53,1.38,3.51,1.25,3.52,1.51.02.12-.45.34-1.29.33-.82,0-2-.31-2.94-1.15-.94-.84-1.31-1.93-1.34-2.7-.04-.78.18-1.23.31-1.21Z"/>
        </g>
        <path class="cls-5" d="M71.54,8.38s.66-1.54-.76-2.61c-.49-.37-1.58-.32-2.15-.55-.87-.34-1.63-.92-2.42-1.42-2.44-1.54-5.31-2.41-8.2-2.47-.47,0-.94,0-1.4-.1-.46-.1-.88-.3-1.32-.48-3.74-1.51-8.3-.73-11.32,1.93-.45.39-.87.83-1.39,1.11-.57.31-1.22.43-1.84.63-2.53.81-4.39,2.92-6.11,4.94-1.44,1.69-2.98,3.87-2.2,5.95.11.3.27.6.23.91-.05.37-.37.63-.64.9-1.54,1.5-1.84,4.11-.68,5.93-.95.35-1.42,1.63-.93,2.51.14.26.36.5.39.8.04.38-.23.7-.43,1.02-.91,1.4-.78,3.4.31,4.67l1.82,3.19,3.7,6.5c1.94-.32,4.03-3.49,4.58-8.25.62-5.36,1.12-11.59.15-16.91-.06-.31-.11-.65.04-.92.23-.39.77-.44,1.22-.47,3.87-.27,7.42-3.16,8.48-6.89,2.06,1.74,5.19,2.08,7.57.82.17-.09.35-.19.54-.21.47-.05.84.39,1.14.75,1.51,1.86,3.66,3.18,5.99,3.7.52.11,1.05.2,1.52.45.53.29.92.78,1.32,1.23.69.76,1.47,1.44,2.32,2.01.57.38,1.22.72,1.9.64,1.16-.14,1.83-1.43,1.94-2.6.28-2.88.03-5.17-3.39-6.74Z"/>
        <path class="cls-5" d="M31.83,24.05c.19-1.83-.44-3.73-1.69-5.07-1.25-1.35-3.1-2.12-4.93-2.06-1.09.03-2.24.39-2.93,1.24-.69.85-.74,2.25.09,2.96-.99-.7-2.6-.15-2.96,1.01-.36,1.16.66,2.52,1.87,2.5-1.26.34-1.6,2-1.35,3.29.18.93.59,1.88,1.38,2.4.79.52,2.03.43,2.52-.38.02,1.59,1.93,2.6,3.48,2.27,1.55-.33,2.74-1.55,3.75-2.77.14-.17.3-.35.51-.42.24-.08.49,0,.74-.02.73-.08,1.04-.95,1.11-1.68.19-2.08-.39-4.21-1.6-5.91"/>
        <path class="cls-13" d="M30.56,19.86c.09,0,.17.73.23,1.92,0,.29.09.61-.06,1.06-.2.44-.5.63-.67.94-.37.6-.51,1.41-.46,2.28.02.43.08.86.14,1.27.03.21.08.39.1.66.04.26-.15.64-.35.76-.62.47-1.05.97-1.37,1.45-.64.95-.81,1.68-.9,1.66-.07,0-.06-.79.52-1.89.29-.54.76-1.15,1.37-1.66.12-.12.12-.13.12-.29,0-.14-.07-.37-.1-.58-.08-.43-.14-.88-.17-1.35-.05-.93.11-1.9.6-2.62.24-.37.58-.62.67-.83.1-.21.08-.56.1-.86.05-1.19.13-1.92.22-1.92Z"/>
        <path class="cls-12" d="M30.06,24.45c.02-.07.48.16,1.14-.17.32-.17.65-.46.85-.92.2-.46.28-1.04.24-1.68l-.03-.59.48.36c.78.59,2.29.19,2.83-.99.32-.62.44-1.33.44-1.98v-.31s.31,0,.31,0c1.7,0,3.32-.34,3.97-1.1.32-.38.4-.81.38-1.08-.02-.28-.1-.43-.06-.45.02-.02.17.1.26.42.09.31.07.84-.28,1.35-.35.51-1.01.89-1.75,1.1-.74.22-1.6.37-2.52.37l.31-.31c0,.72-.1,1.53-.49,2.28-.67,1.45-2.62,2.02-3.73,1.14l.45-.23c0,.7-.1,1.37-.39,1.9-.27.54-.73.88-1.13,1.02-.85.29-1.32-.11-1.27-.13Z"/>
        <path class="cls-12" d="M34.54,9.67s-.1-.29.06-.8c.16-.49.59-1.2,1.46-1.64.43-.21.97-.36,1.55-.28.3.03.56.13.74.1.16-.01.3-.15.49-.38.36-.54,1.05-.89,1.64-1.1.6-.23,1.24-.49,1.98-.58,1.44-.18,2.8.56,3.48,1.58l-.35-.11c1.85-.68,3.58-.14,4.48.55.46.36.71.79.76,1.11.06.32-.03.48-.06.48-.06.01.01-.73-.91-1.29-.85-.54-2.46-.94-4.05-.29l-.21.09-.14-.19c-.59-.84-1.74-1.44-2.93-1.29-.62.07-1.23.31-1.83.53-.6.22-1.09.44-1.41.89-.17.22-.47.55-.89.57-.38.02-.64-.12-.86-.14-.46-.09-.91,0-1.29.16-.77.32-1.21.91-1.42,1.32-.21.43-.23.71-.29.71Z"/>
        <path class="cls-12" d="M59.53,1.43s.46-.11,1.12.3c.31.22.66.66.6,1.27-.03.62-.91,1.27-1.65.66l.42-.45c.29.24.55.54.76.89.38.64.53,1.37.48,2.01-.05.65-.28,1.19-.55,1.58-.55.8-1.13,1.01-1.16.94-.06-.08.4-.41.78-1.17.39-.73.57-1.96-.09-3.05-.17-.29-.38-.54-.61-.75l.42-.45c.07.08.25.11.4.04.16-.07.24-.18.28-.34.07-.33-.11-.68-.32-.88-.46-.41-.9-.52-.87-.61Z"/>
        <path class="cls-12" d="M29.79,26.87c.05-.04.25.31.84.47.28.08.66.08,1-.12.34-.19.64-.59.67-1.06l.02-.48.39.29c.51.39,1.3.57,2.04.37.74-.19,1.4-.85,1.61-1.68.07-.28.08-.49.06-.83,0-.16.04-.46.27-.64.22-.17.41-.17.54-.21.53-.1,1.02-.31,1.45-.58.86-.53,1.46-1.26,1.83-1.93.74-1.38.61-2.43.73-2.42.05-.03.37,1.06-.33,2.62-.35.76-.97,1.6-1.92,2.22-.47.31-1.02.56-1.63.69-.15.03-.26.06-.28.08,0,0-.03.03-.03.16.02.26,0,.66-.08.98-.26,1.05-1.11,1.88-2.08,2.1-.95.23-1.89-.04-2.51-.55l.41-.18c-.08.68-.52,1.17-.99,1.39-.48.23-.97.16-1.29.02-.67-.3-.78-.75-.74-.75Z"/>
        <path class="cls-12" d="M19.59,23.99s-.08-.18.12-.42c.17-.2.69-.49,1.22-.05l-.34.03c.25-.49.77-1.02,1.52-1.27.75-.26,1.74-.12,2.46.48.23.18.42.4.57.63l-.45-.08c.64-.46,1.41-.58,2.05-.46.65.11,1.15.48,1.45.84.62.75.56,1.38.5,1.37-.09.03-.2-.53-.8-1.08-.3-.27-.72-.52-1.24-.58-.51-.06-1.12.06-1.6.42l-.26.2-.19-.28c-.12-.17-.27-.34-.44-.48-.57-.46-1.31-.58-1.91-.42-.61.16-1.06.55-1.32.93l-.17.25-.17-.22c-.19-.24-.59-.17-.75-.06-.18.11-.23.25-.27.24Z"/>
        <path class="cls-12" d="M23.56,17.88s-.03-.17.16-.39c.19-.22.6-.37,1.07-.34.98.05,2.09.77,3.03,1.76.94,1.02,1.43,2.21,1.61,3.08.18.88.09,1.44.02,1.44-.18.04-.34-2.2-2.09-4.09-.86-.91-1.84-1.62-2.61-1.74-.81-.18-1.11.33-1.18.28Z"/>
        <path class="cls-12" d="M72.07,8.74c.02-.06.32.09.32.56,0,.22-.08.49-.32.73-.21.24-.81.4-1.14-.11l.52-.1c-.02.68-.5,1.51-1.36,1.78-.36.12-.74.13-1.08.05l.37-.29c-.02.47-.1.95-.29,1.35-.18.4-.51.7-.8.82-.63.28-1.03-.02-.98-.07.02-.08.37.02.79-.28.44-.27.68-.95.67-1.85v-.36s.37.07.37.07c.24.05.5.03.76-.05.59-.18.95-.74,1.01-1.23l.2-1.61.32,1.51c.02.08.22.14.36.02.15-.11.25-.28.29-.43.09-.3-.04-.47,0-.52Z"/>
      </g>
      <path class="cls-12" d="M29.8,30.89c.08.03-.33,1.53-1.07,3.94-.17.59-.52,1.36-1.24,1.79-.69.43-1.54.61-2.4.62-.87,0-1.82-.17-2.65-.73-.84-.53-1.42-1.55-1.41-2.63,0-.61.22-1.23.62-1.67l.27.52c-1.91.18-3.61-1.02-4.21-2.5-.59-1.5-.29-2.98.27-3.99.59-1.01,1.47-1.53,2.11-1.62.65-.09.98.14.96.15-.01.06-.35-.08-.91.07-.55.14-1.31.66-1.79,1.6-.46.91-.68,2.3-.13,3.57.53,1.25,2.04,2.26,3.63,2.1l.8-.08-.53.61c-.28.32-.45.77-.45,1.25,0,.86.44,1.66,1.13,2.11.68.47,1.52.65,2.3.66.79,0,1.55-.14,2.13-.48.6-.33.88-.91,1.09-1.49.85-2.36,1.41-3.82,1.49-3.79Z"/>
      <path class="cls-5" d="M51.81,17.28s-.27.03-.67-.18c-.4-.21-.94-.66-1.26-1.44-.33-.75-.32-1.94.45-2.81.71-.83,2.06-1.47,3.39-.84.33.18.6.58.57,1.01,0,.46-.48.83-.84.82-.73.03-1.25-.33-1.67-.71-.83-.8-1.01-1.97-.7-2.77.29-.81.85-1.25,1.25-1.45.41-.21.67-.2.68-.16.02.05-.22.12-.55.37-.32.24-.77.69-.96,1.38-.2.67,0,1.59.67,2.21.32.3.81.56,1.2.52.19-.03.27-.1.28-.24,0-.16-.08-.32-.27-.43-.87-.44-2.05,0-2.63.68-.64.69-.7,1.61-.47,2.28.22.69.65,1.14.98,1.39.33.25.56.34.54.39Z"/>
      <g>
        <path class="cls-6" d="M37.43,34.57c-.19-.09-7.54-2.55-7.59,5.05-.05,7.6,7.59,6.08,7.61,5.86.01-.22-.01-10.91-.01-10.91Z"/>
        <path class="cls-4" d="M35.15,42.59s-.13.09-.36.19c-.22.1-.59.16-.99.01-.8-.3-1.47-1.58-1.5-2.95-.01-.69.13-1.35.38-1.89.24-.55.6-.94,1-1.01.4-.09.69.15.78.37.1.21.05.36.09.38.02.02.16-.13.1-.44-.03-.15-.12-.33-.3-.48-.18-.15-.45-.23-.73-.2-.59.04-1.12.57-1.39,1.17-.31.6-.49,1.34-.47,2.12.04,1.53.81,2.97,1.91,3.29.53.14.98-.02,1.21-.19.24-.19.28-.36.25-.37Z"/>
      </g>
    </g>
    <g>
      <g>
        <path class="cls-13" d="M64.11,371.9l-6.42,22.61s20.82,14.12,20.04,18.41l-44.28-10.87,8.56-35.64,22.1,5.49Z"/>
        <path class="cls-11" d="M44.47,389.22c-.91.02-1.74.84-1.76,1.76-.01.91.81,1.76,1.73,1.76.91,0,1.94-.96,1.85-1.87-.09-.91-1.11-1.86-2-1.63"/>
        <g class="cls-2">
          <path class="cls-10" d="M33.45,402.04l1-3.56,42.08,11.75s1.76,1.34,1.2,2.68l-44.28-10.87Z"/>
        </g>
        <path class="cls-5" d="M58.46,394.45c-.06.21-1.17.05-2.4.48-1.25.4-2.02,1.2-2.2,1.07-.19-.09.45-1.3,1.95-1.8,1.5-.51,2.74.07,2.65.25Z"/>
        <path class="cls-5" d="M62.64,397.52c0,.22-1.03.36-1.99,1.09-.98.71-1.41,1.65-1.62,1.59-.21-.02-.05-1.32,1.16-2.21,1.2-.9,2.5-.68,2.45-.47Z"/>
        <path class="cls-5" d="M63.91,403.72c-.21,0-.24-1.16.6-2.2.84-1.05,1.97-1.27,2.02-1.07.08.21-.73.68-1.42,1.55-.7.85-.99,1.75-1.21,1.72Z"/>
        <path class="cls-5" d="M59.36,389.14c-.14.17-1.06-.37-2.3-.58-1.24-.24-2.29-.07-2.36-.28-.09-.19,1.04-.76,2.5-.48,1.46.26,2.31,1.2,2.16,1.35Z"/>
      </g>
      <g>
        <path class="cls-13" d="M48.62,377.76l-.92,23.48s23.56,8.82,23.81,13.18l-45.6-.15-.06-36.65,22.77.14Z"/>
        <path class="cls-11" d="M33.6,399.22c-.88.24-1.5,1.23-1.29,2.12.2.89,1.2,1.52,2.09,1.3.89-.22,1.66-1.39,1.36-2.25-.3-.86-1.52-1.54-2.32-1.11"/>
        <g class="cls-2">
          <path class="cls-10" d="M25.91,414.27l.14-3.69,43.67,1.53s2.03.89,1.79,2.32l-45.6-.15Z"/>
        </g>
        <path class="cls-5" d="M48.43,401.01c0,.22-1.12.32-2.22,1.03-1.12.68-1.68,1.65-1.89,1.56-.2-.04.13-1.37,1.48-2.21,1.34-.85,2.68-.58,2.63-.38Z"/>
        <path class="cls-5" d="M53.21,403.01c.05.22-.92.59-1.67,1.53-.79.92-.98,1.93-1.2,1.92-.21.03-.36-1.27.61-2.42.96-1.16,2.27-1.25,2.27-1.03Z"/>
        <path class="cls-5" d="M55.91,408.74c-.2.05-.51-1.07.07-2.28.57-1.22,1.62-1.7,1.71-1.51.13.18-.55.84-1.01,1.84-.48,1-.55,1.93-.77,1.96Z"/>
        <path class="cls-5" d="M48.05,395.64c-.09.2-1.11-.11-2.37-.03-1.26.06-2.24.47-2.36.28-.13-.16.83-.98,2.31-1.06,1.48-.09,2.53.63,2.41.8Z"/>
      </g>
      <path class="cls-5" d="M47.69,394.52s-.09.66-.13,1.83c-.04,1.17-.07,2.85-.09,4.89v.15s.14.06.14.06c2.34.93,5.21,2.07,8.26,3.39,3.97,1.7,7.48,3.42,9.98,4.74,1.16.63,2.15,1.17,2.94,1.6.69.39,1.08.59,1.1.56.02-.03-.33-.29-.99-.73-.66-.44-1.64-1.05-2.87-1.76-2.46-1.41-5.97-3.2-9.95-4.91-3.06-1.32-5.95-2.43-8.32-3.31l.14.21c-.02-2.03-.06-3.71-.09-4.89-.04-1.17-.08-1.83-.13-1.83Z"/>
    </g>
    <g>
      <g>
        <path class="cls-5" d="M19.68,205.1l.07,15.19,5.3,72.3s-2.95,35.1-4.77,54.91c-1.58,17.21,1.26,47.15,1.26,47.15l29.02-.13,9.94-99.94,6.17-62.33,11.09-28.4-58.09,1.25Z"/>
        <polygon class="cls-5" points="92.64 203.42 90.99 305.54 61.96 381.22 60.63 385.78 43.28 381.66 55.38 202.83 92.64 203.42"/>
        <path class="cls-12" d="M66.6,233s.01.14.01.42c0,.3-.01.71-.02,1.23-.03,1.11-.07,2.7-.13,4.73-.1,4.11-.37,10.05-.75,17.39-.81,14.67-2.36,34.93-4.8,57.21-2.41,22.3-5.09,42.43-7.05,56.99-1,7.26-1.8,13.14-2.36,17.24-.29,2.01-.51,3.58-.67,4.68-.08.51-.14.92-.19,1.22-.05.27-.07.41-.08.41,0,0,0-.14.03-.42.03-.3.08-.71.13-1.22.13-1.1.32-2.68.57-4.7.52-4.1,1.27-9.99,2.19-17.26,1.86-14.57,4.48-34.71,6.89-57,2.45-22.28,4.05-42.52,4.96-57.18.43-7.33.76-13.27.92-17.37.1-2.03.17-3.62.23-4.73.03-.52.05-.93.07-1.23.02-.28.03-.42.04-.42Z"/>
      </g>
      <path class="cls-12" d="M64.89,227.07s-.03.1.1.21c.12.1.38.18.66.03.29-.16.43-.54.48-.92.06-.4.12-.82.18-1.27.26-1.88.58-4.47.9-7.34.32-2.87.58-5.47.75-7.36.16-1.89.23-3.06.15-3.06-.07,0-.27,1.15-.53,3.02s-.58,4.47-.9,7.34c-.32,2.87-.58,5.47-.75,7.36-.11.92-.02,1.78-.39,2.05-.18.13-.39.11-.49.06-.11-.05-.14-.13-.16-.12Z"/>
      <path class="cls-12" d="M61.8,208.7s-.15-.08-.44-.04c-.28.05-.7.22-1.04.63-.34.39-.6,1.09-.33,1.8.26.69.96,1.27,1.82,1.32.9.05,1.6-.6,1.87-1.24.3-.66.17-1.4-.16-1.82-.32-.44-.76-.62-1.05-.64-.3-.02-.44.07-.44.1-.02.07.69-.03,1.17.75.23.36.28.9.03,1.41-.23.5-.77.95-1.39.91-.62-.03-1.18-.47-1.39-.96-.22-.5-.07-1.04.17-1.39.52-.75,1.2-.74,1.18-.83Z"/>
      <path class="cls-12" d="M79.61,210.46c.14.05.56-.88.75-2.1.2-1.23.09-2.24-.06-2.24-.15,0-.28.97-.47,2.15-.19,1.18-.37,2.14-.22,2.19Z"/>
      <path class="cls-12" d="M76.41,210.47c.15.03.46-.97.71-2.23.24-1.26.32-2.31.18-2.33-.15-.03-.46.97-.71,2.23-.24,1.26-.32,2.31-.18,2.33Z"/>
      <path class="cls-12" d="M44.23,210.47c.15.03.42-.64.61-1.5.19-.86.23-1.58.08-1.62-.15-.03-.42.64-.61,1.5-.19.86-.23,1.58-.08,1.61Z"/>
      <path class="cls-12" d="M41.07,211.57c.14.04.66-1.22.89-2.88.24-1.66.11-3.02-.04-3.02-.15,0-.26,1.33-.5,2.94-.23,1.61-.51,2.91-.36,2.96Z"/>
      <path class="cls-12" d="M19.26,222.33s.29.18.87.34c.58.17,1.46.31,2.55.26,2.16-.07,5.19-1.16,7.51-3.58,2.3-2.43,3.41-5.32,3.98-7.37.29-1.04.46-1.89.55-2.48.09-.59.11-.92.08-.93-.09-.02-.33,1.29-.99,3.3-.66,2-1.79,4.77-4.01,7.1-2.22,2.32-5.08,3.41-7.15,3.58-2.1.19-3.37-.33-3.39-.22Z"/>
    </g>
    <g>
      <g>
        <path class="cls-12" d="M64.74,79.78s5.8,3.05,7.3,4.15,13.63,37.98,13.63,37.98l-.59,47.71,15.74,55.61-9.94,5.21-6.95-30.67-20.07-113.67.88-6.31Z"/>
        <path class="cls-12" d="M32.7,59.19l-5.21,9.78-22.78,17.35,14.63,91.81-8.95,62.28h65.34s11.08-26.07,9.13-45.95c-1.96-19.88-12.06-73.01-12.06-73.01-10.3-23.25-23.88-43.82-40.09-62.25Z"/>
        <path class="cls-11" d="M33.1,59.65l2-5.29,24.55,22.62,3.7-6.19,1.38,9-.88,6.31s10.87,27.88,12.09,33.84c1.23,5.96,4.57,44.8,4.57,44.8l-21.57-61.65-25.86-43.43Z"/>
        <path class="cls-5" d="M58.73,77.55c.05.03-.44.79-1.02,2.24-.57,1.45-1.2,3.65-1.12,6.37l.02.7-.41-.57c-1.99-2.75-4.51-6.06-7.39-9.49-3.74-4.46-7.39-8.27-10.08-10.96-1.31-1.29-2.4-2.35-3.23-3.16-.77-.74-1.18-1.16-1.16-1.19.02-.03.48.34,1.3,1.04.81.7,1.96,1.73,3.35,3.04,2.77,2.63,6.48,6.41,10.23,10.89,2.89,3.44,5.39,6.78,7.34,9.58l-.39.13c-.03-2.79.68-5.03,1.32-6.47.33-.73.64-1.27.86-1.63.23-.36.37-.53.38-.52Z"/>
        <path class="cls-5" d="M63.18,85.59c-.14.05-.78-1.5-1.42-3.46-.65-1.96-1.06-3.58-.92-3.63.14-.05.78,1.5,1.42,3.46.65,1.96,1.06,3.58.92,3.63Z"/>
        <path class="cls-5" d="M80.53,164.73s-.11-.29-.27-.87c-.17-.62-.39-1.46-.67-2.51-.57-2.23-1.39-5.38-2.38-9.26-1.97-7.87-4.68-18.66-7.66-30.59-2.93-11.94-5.58-22.75-7.52-30.63-.93-3.89-1.68-7.05-2.22-9.3-.24-1.07-.44-1.91-.58-2.53-.13-.58-.18-.89-.17-.89.02,0,.11.29.27.87.17.62.39,1.45.67,2.51.57,2.23,1.39,5.38,2.38,9.26,1.97,7.87,4.68,18.67,7.67,30.6,2.93,11.94,5.58,22.75,7.52,30.63.93,3.89,1.68,7.05,2.22,9.3.24,1.07.44,1.91.58,2.53.13.58.18.89.17.89Z"/>
        <path class="cls-5" d="M78.66,159.41s-.06-.07-.17-.22c-.12-.17-.27-.39-.45-.67-.41-.62-.98-1.49-1.7-2.6-1.48-2.3-3.6-5.58-6.21-9.63-5.23-8.21-12.46-19.54-20.53-32.18l-.07-.11.04-.12c.33-.95.69-1.96,1.05-2.99.65-1.84,1.29-3.66,1.92-5.46l.39.31c-1.84,1.21-3.64,2.4-5.4,3.56l-.27.18-.11-.3c-4.58-11.95-9.23-22.13-12.73-29.3-1.75-3.59-3.19-6.43-4.19-8.39-.49-.95-.87-1.7-1.14-2.24-.12-.24-.21-.43-.29-.58-.06-.13-.09-.2-.08-.21,0,0,.05.06.12.18.09.15.19.34.33.56.3.53.7,1.27,1.22,2.2,1.05,1.93,2.54,4.75,4.33,8.32,3.58,7.14,8.3,17.3,12.91,29.26l-.38-.12c1.76-1.16,3.56-2.35,5.39-3.57l.65-.43-.26.74c-.63,1.79-1.27,3.61-1.92,5.46-.36,1.02-.72,2.04-1.05,2.98l-.03-.23c8.01,12.68,15.19,24.04,20.39,32.27,2.55,4.09,4.62,7.4,6.07,9.72.69,1.13,1.23,2.01,1.62,2.65.17.28.3.51.41.69.09.16.13.24.13.25Z"/>
        <path class="cls-5" d="M64.35,193.94s-.03.19-.13.57c-.11.44-.25,1.01-.43,1.73-.4,1.59-.97,3.83-1.69,6.64l-.03.11h-.12c-7.49.4-19.25.96-32.44,1.55l-.8.04-.42.02.16-.39c1.14-2.68,2.26-5.28,3.32-7.77l.28.35c-.08-1.02-.03-.28-.05-.51h.01s.03,0,.03,0h.05s.11-.01.11-.01l.22-.02.43-.03.86-.07c.57-.04,1.13-.09,1.69-.13,1.12-.09,2.22-.17,3.29-.26,2.15-.17,4.21-.33,6.16-.48,3.89-.29,7.35-.55,10.25-.77,2.85-.2,5.14-.36,6.78-.47.76-.04,1.36-.08,1.82-.1.41-.02.64-.02.63,0,0,.02-.21.05-.63.1-.46.05-1.06.11-1.81.19-1.63.15-3.92.36-6.76.63-2.9.25-6.35.55-10.24.89-1.95.16-4.01.34-6.16.52-1.08.09-2.17.18-3.29.27-.56.05-1.12.09-1.69.14l-.86.07-.43.03-.22.02h-.11s-.06.01-.06.01h-.03s-.02,0-.02,0c-.02-.23.01.51-.07-.51l.28.35c-1.06,2.49-2.17,5.1-3.31,7.78l-.25-.37.8-.04c13.19-.59,24.96-1.07,32.45-1.35l-.15.12c.78-2.74,1.4-4.92,1.85-6.47.21-.73.38-1.31.51-1.75.12-.4.19-.62.2-.63Z"/>
        <path class="cls-5" d="M80.16,161.69s.18.59.42,1.67c.24,1.08.55,2.65.9,4.6.71,3.9,1.56,9.3,2.26,15.3.69,6.01,1.1,11.46,1.29,15.42.1,1.98.16,3.58.17,4.69.02,1.11.01,1.72-.02,1.72-.04,0-.1-.61-.18-1.71-.09-1.19-.2-2.77-.34-4.67-.29-3.94-.75-9.39-1.44-15.38-.69-5.99-1.48-11.4-2.1-15.3-.3-1.89-.55-3.45-.73-4.63-.17-1.09-.25-1.7-.21-1.71Z"/>
      </g>
      <path class="cls-13" d="M43.27,141.17s-.02-.26-.02-.75c.01-.54.02-1.25.04-2.14.02-1.86.02-4.55-.15-7.87-.35-6.63-1.53-15.79-4.53-25.49-1.48-4.85-3.25-9.35-5.11-13.33-1.88-3.96-3.66-7.52-5.78-10.07-2.08-2.58-4.39-4.06-6.09-4.77-1.71-.71-2.76-.77-2.75-.83,0,0,.07,0,.19,0,.12.01.31.02.56.07.49.07,1.2.24,2.08.57,1.75.66,4.15,2.12,6.3,4.72,2.19,2.57,4.02,6.14,5.93,10.1,1.89,3.99,3.68,8.51,5.17,13.38,3.01,9.74,4.14,18.97,4.4,25.62.12,3.33.07,6.03-.02,7.89-.06.89-.1,1.6-.14,2.14-.04.49-.07.75-.08.74Z"/>
      <path class="cls-13" d="M44.38,195.28c-.15,0-.34-4.86-.44-10.87-.1-6.01-.06-10.87.09-10.88.15,0,.34,4.86.44,10.87.1,6,.06,10.87-.09,10.88Z"/>
      <path class="cls-13" d="M21.56,240.62s-.03-.22-.04-.63c0-.47,0-1.07,0-1.81,0-1.57.03-3.85.1-6.66.13-5.63.43-13.4.98-21.97.55-8.57,1.24-16.32,1.83-21.92.29-2.8.55-5.06.75-6.62.1-.73.18-1.33.24-1.8.06-.41.1-.62.12-.62.02,0,.01.22-.01.63-.04.47-.08,1.07-.14,1.81-.14,1.63-.34,3.88-.58,6.64-.49,5.6-1.13,13.35-1.68,21.91-.55,8.56-.91,16.33-1.13,21.95-.11,2.76-.2,5.02-.27,6.66-.04.74-.07,1.34-.09,1.81-.03.41-.05.63-.07.63Z"/>
      <path class="cls-13" d="M41.83,240.12s-.07-.5-.11-1.41c-.04-.91-.07-2.23-.09-3.86-.04-3.26-.01-7.76.15-12.74.16-4.97.43-9.47.67-12.72.12-1.63.24-2.94.34-3.85.1-.91.17-1.41.2-1.4.04,0,.04.51,0,1.42-.04,1.01-.1,2.3-.17,3.85-.15,3.25-.36,7.75-.52,12.72-.16,4.97-.24,9.46-.3,12.72-.03,1.55-.06,2.85-.08,3.86-.03.91-.06,1.42-.09,1.42Z"/>
      <path class="cls-13" d="M61.15,239.77s0-.25.03-.73c.05-.53.11-1.22.18-2.08.17-1.86.41-4.45.71-7.63.59-6.44,1.32-15.34,1.9-25.19.57-9.85.88-18.78,1.05-25.24.08-3.19.14-5.79.18-7.66.03-.86.05-1.55.06-2.08.02-.48.04-.73.06-.73.02,0,.03.25.05.73,0,.53.02,1.22.04,2.08.02,1.81.02,4.43-.01,7.66-.07,6.47-.32,15.41-.89,25.27-.58,9.86-1.37,18.76-2.05,25.2-.34,3.22-.64,5.82-.88,7.61-.12.86-.21,1.54-.28,2.06-.07.47-.11.72-.13.72Z"/>
      <path class="cls-13" d="M97.26,227.09s-.12-.24-.29-.72c-.18-.53-.42-1.23-.72-2.11-.62-1.83-1.47-4.5-2.43-7.83-.99-3.32-2.05-7.3-3.17-11.74-1.09-4.44-2.21-9.35-3.26-14.53-1.03-5.18-1.88-10.14-2.57-14.67-.65-4.53-1.18-8.62-1.49-12.07-.18-1.72-.3-3.28-.4-4.65-.11-1.37-.19-2.55-.22-3.52-.04-.93-.06-1.67-.09-2.23-.01-.51-.01-.78,0-.78.02,0,.05.27.1.77.05.56.11,1.3.19,2.22.07.96.17,2.14.31,3.51.12,1.37.27,2.92.48,4.64.36,3.44.93,7.51,1.6,12.03.72,4.51,1.58,9.46,2.61,14.64,1.04,5.17,2.15,10.07,3.21,14.51,1.1,4.44,2.12,8.42,3.06,11.75.92,3.33,1.71,6.02,2.27,7.87.26.89.47,1.6.63,2.14.14.49.2.75.19.76Z"/>
      <path class="cls-13" d="M54.86,124.16c.07-.02.37.91.75,2.43.38,1.53.81,3.66,1.14,6.03.33,2.38.49,4.55.54,6.12.05,1.57,0,2.54-.06,2.55-.08,0-.17-.96-.31-2.52-.15-1.56-.36-3.71-.69-6.07-.33-2.36-.7-4.49-.98-6.03-.28-1.54-.46-2.49-.38-2.51Z"/>
      <path class="cls-13" d="M45.11,83.06c.11.11-1.21,1.51-2.66,3.38-1.46,1.86-2.5,3.47-2.64,3.4-.12-.07.74-1.83,2.22-3.72,1.48-1.9,2.98-3.15,3.08-3.05Z"/>
      <path class="cls-13" d="M61.3,113.58c.12.1-1.41,1.97-3,4.47-1.61,2.49-2.67,4.66-2.81,4.6-.13-.05.74-2.35,2.37-4.88,1.62-2.54,3.35-4.28,3.45-4.19Z"/>
      <path class="cls-13" d="M83.09,125.65s-.08-.14-.19-.43c-.12-.35-.27-.77-.45-1.27-.4-1.19-.93-2.77-1.58-4.69-1.32-3.97-3.16-9.44-5.27-15.47-2.1-6.03-4.07-11.46-5.5-15.39-.69-1.91-1.26-3.48-1.68-4.66-.39-1.1-.59-1.72-.56-1.73.02,0,.09.14.22.42.15.34.32.75.53,1.24.45,1.08,1.08,2.65,1.84,4.6,1.52,3.9,3.54,9.31,5.65,15.35,2.1,6.03,3.89,11.53,5.12,15.53.62,2,1.1,3.62,1.42,4.75.14.51.26.94.36,1.3.08.3.11.46.09.46Z"/>
      <path class="cls-13" d="M48.66,203.43c-.14-.03.2-1.94.77-4.25.57-2.32,1.14-4.16,1.28-4.13s-.2,1.94-.77,4.26c-.57,2.31-1.14,4.16-1.28,4.13Z"/>
    </g>
    <g>
      <path class="cls-6" d="M81.91,124.86l-7.08,9.77-1.55,5.63-6.22,3.49,5.38,14.25,4.06-3.95,23.37-9.81,8.05-9.6s-.93-1.48-2.1-1.37-6.53,4.32-6.53,4.32l-3.5,1.87,8.4-6.66s.12-1.05-1.98-1.17-8.52,3.62-8.52,3.62c0,0-5.72,3.5-7,3.38-1.28-.12-5.95-1.28-5.83-2.92.12-1.63,2.57-3.15,2.92-5.13.35-1.98.93-4.43-1.87-5.72Z"/>
      <g>
        <path class="cls-12" d="M9.03,84.13c-3.61.61-6.48,3.39-7.43,6.92-.79,2.92-1.6,7.31-1.6,12.94s3.79,63.08,4.99,66.67c1.26,3.79,4.82,8.54,9.82,9.45s60.42-15.39,60.42-15.39l-8.86-23.46-32.22,1.82s-2.74-43.81-5.47-49.71c-2.16-4.68-11.53-10.62-19.65-9.25Z"/>
        <path class="cls-5" d="M28.74,95.02c-.09.05-.78-1.19-2.28-2.9-.74-.86-1.73-1.79-2.89-2.72-1.19-.91-2.57-1.8-4.12-2.56-1.56-.74-3.13-1.26-4.58-1.62-1.46-.33-2.8-.51-3.93-.56-2.27-.11-3.67.13-3.69.03,0-.04.34-.11.98-.22.32-.06.71-.12,1.17-.13.46-.02.98-.08,1.56-.05,1.16,0,2.53.15,4.03.46,1.49.34,3.1.86,4.7,1.61,1.59.78,3,1.71,4.2,2.66,1.18.98,2.16,1.95,2.88,2.86.39.43.67.87.93,1.25.27.37.47.71.62.99.31.56.47.88.44.9Z"/>
        <path class="cls-5" d="M19.33,179.57s.09-.04.27-.09c.2-.06.47-.14.8-.24.74-.21,1.78-.5,3.12-.87,2.75-.75,6.71-1.83,11.66-3.17,9.97-2.67,23.93-6.41,39.99-10.72l-.17.34c-2.1-5.56-4.34-11.49-6.65-17.59-.75-1.98-1.49-3.94-2.21-5.86l.26.17c-11.83.52-22.88,1.01-32.44,1.44h-.22s-.02-.21-.02-.21c-1.04-11.31-1.91-20.74-2.52-27.37-.29-3.28-.51-5.87-.67-7.67-.07-.86-.12-1.54-.16-2.02-.01-.21-.02-.38-.03-.52,0-.12,0-.18,0-.18,0,0,.02.06.03.17.02.14.04.3.07.52.05.48.13,1.15.23,2.02.19,1.8.45,4.38.79,7.66.66,6.63,1.59,16.05,2.7,27.36l-.23-.21c9.56-.44,20.6-.96,32.44-1.51h.19s.07.17.07.17c.73,1.93,1.47,3.89,2.22,5.86,2.3,6.11,4.54,12.03,6.64,17.6l.1.27-.27.07c-16.08,4.23-30.05,7.91-40.04,10.54-4.96,1.29-8.93,2.31-11.69,3.03-1.35.34-2.4.6-3.14.79-.34.08-.61.14-.81.19-.18.04-.28.06-.28.05Z"/>
        <path class="cls-5" d="M34.15,143.09c.13.1-1.53,2.37-3.41,5.26-1.91,2.88-3.03,5.43-3.15,5.39-.16-.05.77-2.77,2.71-5.67,1.9-2.92,3.75-5.05,3.85-4.97Z"/>
      </g>
      <path class="cls-13" d="M72.44,157.99s-.11.04-.34.11c-.26.07-.59.15-1.02.26-.9.23-2.22.55-3.93.94-3.42.78-8.39,1.85-14.55,3.04-6.17,1.18-13.51,2.57-21.65,4.13-2.03.41-4.12.83-6.24,1.25-1.06.21-2.13.48-3.26.59-1.12.12-2.36.04-3.4-.58-1.05-.59-1.8-1.61-2.27-2.69-.48-1.08-.74-2.24-.93-3.4-.31-2.31-.62-4.66-.94-7.03-1.27-9.49-2.5-18.53-3.48-26.77-.97-8.24-1.68-15.68-2.11-21.95-.43-6.26-.58-11.34-.62-14.85-.03-1.75,0-3.12,0-4.04,0-.44.01-.79.02-1.05,0-.24.02-.36.02-.36s.02.12.03.36c0,.26.02.61.03,1.05.02.96.05,2.31.09,4.04.1,3.51.32,8.58.79,14.83.47,6.25,1.22,13.68,2.22,21.92,1,8.23,2.25,17.27,3.52,26.76.31,2.37.63,4.71.93,7.02.18,1.14.44,2.26.89,3.27.44,1.02,1.12,1.92,2.05,2.45.92.55,2.03.63,3.1.52,1.07-.11,2.14-.37,3.21-.58,2.13-.42,4.22-.83,6.25-1.24,8.15-1.51,15.49-2.87,21.67-4.02,6.17-1.15,11.14-2.15,14.57-2.88,1.69-.36,3.02-.64,3.95-.84.43-.09.77-.16,1.03-.21.23-.04.35-.06.35-.05Z"/>
      <path class="cls-13" d="M27.2,150.95s-.07-.21-.16-.63c-.09-.47-.21-1.08-.36-1.82-.3-1.59-.71-3.89-1.17-6.74-.93-5.7-2.07-13.59-3.04-22.35-.97-8.76-1.58-16.71-1.91-22.48-.17-2.88-.28-5.21-.33-6.83-.02-.76-.04-1.38-.05-1.86,0-.43,0-.65.02-.65.02,0,.05.22.09.64.04.48.09,1.09.15,1.85.12,1.67.29,3.99.5,6.81.43,5.75,1.1,13.69,2.06,22.44.97,8.75,2.05,16.64,2.89,22.35.42,2.8.76,5.1,1,6.76.11.75.19,1.36.26,1.84.05.42.07.64.06.65Z"/>
      <path class="cls-13" d="M68.12,147.37s-.53.05-1.48.04c-1.05-.01-2.4-.02-4.02-.04-3.4-.02-8.09.03-13.26.32-5.17.3-9.84.77-13.21,1.18-1.61.2-2.95.37-3.99.5-.94.12-1.47.17-1.47.13,0-.04.51-.15,1.44-.33.93-.18,2.29-.41,3.98-.66,3.37-.5,8.04-1.04,13.23-1.34,5.19-.29,9.9-.29,13.3-.17,1.7.06,3.08.13,4.03.21.95.07,1.47.13,1.47.17Z"/>
    </g>
  </g>
  <g>
    <path class="cls-14" d="M124.72,134.81s-1.02,2.38.41,3.67c1.43,1.29,3.94,2.79,3.94,2.79l3.21.23-1.04-3.01-6.52-3.67Z"/>
    <path class="cls-14" d="M141.98,147.32c-.61-.54-10.74-8.84-10.74-8.84l-6.8,2.58-2.24.81s-.68,0-.68,2.18,2.38,3.33,2.38,3.33c0,0-1.29.75-1.5,2.24-.2,1.5,1.97,2.51,1.97,2.51-1.02,3.6,1.84,3.6,1.84,3.6,0,0-.34,1.29.34,2.11.68.82,12.71.88,12.71.88l3.76,2.98,3.07-11.62s-3.51-2.24-4.12-2.78Z"/>
    <g>
      <path class="cls-14" d="M123.52,148.04c.85-1.18,2.2-1.92,3.6-2.31s2.87-.46,4.32-.53c1.52-.07,3.05-.15,4.57-.22.51-.02,1.12,0,1.41.41.28.4.1.98-.26,1.31-.36.33-.85.46-1.32.58-2.42.64-4.63,1.26-7.15,2.07"/>
      <path class="cls-9" d="M128.69,149.35s.32-.17.92-.37c.6-.21,1.48-.49,2.57-.83,1.14-.34,2.43-.74,3.83-1.16.35-.1.69-.23.94-.44.24-.2.39-.55.33-.83-.05-.27-.34-.44-.72-.47-.37-.03-.81.02-1.25.03-3.46.22-6.66.08-8.77.84-2.15.72-2.97,2.01-3.03,1.93-.02-.01.13-.35.59-.81.45-.47,1.22-1.05,2.31-1.47,1.09-.43,2.47-.66,3.98-.75,1.52-.08,3.17-.17,4.9-.26.43-.01.85-.07,1.33-.02.44.02,1.06.3,1.17.88.1.54-.15,1.02-.5,1.32-.36.3-.77.43-1.14.53-1.42.39-2.71.74-3.86,1.05-1.1.29-1.99.52-2.61.67-.62.15-.97.21-.98.18Z"/>
    </g>
    <g>
      <path class="cls-14" d="M126.38,155.72c1.78-.91,3.25-2.33,5.02-3.25,1.73-.9,3.67-1.3,5.58-1.68.11-.02.23-.05.34-.02.2.05.32.26.33.47s-.07.4-.16.58c-.42.85-1.14,1.54-2,1.95-.82.39-1.78.51-2.49,1.08-.51.41-.84.99-1.22,1.53-.38.53-.86,1.05-1.5,1.2"/>
      <path class="cls-9" d="M130.28,157.56s.31-.11.73-.49c.44-.36.79-1.1,1.44-1.96.33-.43.88-.79,1.46-1,.58-.23,1.21-.39,1.76-.71.56-.33,1.06-.81,1.43-1.41.18-.3.36-.65.27-.84-.05-.11-.08-.14-.18-.14-.12.01-.36.07-.54.1-1.55.31-3,.64-4.25,1.15-1.25.49-2.25,1.19-3.11,1.77-1.69,1.21-2.88,1.76-2.91,1.68-.02-.04.25-.2.73-.53.48-.32,1.14-.82,1.97-1.45.83-.62,1.84-1.38,3.14-1.92,1.29-.55,2.78-.91,4.33-1.22.21-.04.35-.08.62-.11.31-.04.63.23.7.48.1.27.04.54-.04.74-.08.2-.18.37-.28.54-.42.67-.99,1.2-1.62,1.56-.64.36-1.3.5-1.85.7-.56.19-1.01.47-1.33.84-.63.76-1.08,1.54-1.59,1.88-.49.36-.86.35-.86.33Z"/>
    </g>
    <g>
      <path class="cls-14" d="M125.06,152.08c2.2-2.36,5.42-3.47,8.56-4.18,1.54-.35,3.1-.61,4.66-.8.26-.03.55-.06.78.07.35.19.47.64.43,1.04-.08.78-.62,1.46-1.28,1.9s-1.42.67-2.18.9c0,0-4.52.94-5.27,1.66"/>
      <path class="cls-9" d="M130.76,152.67s.4-.43,1.32-.76c.91-.35,2.25-.74,3.91-1.12h-.02c1.01-.32,2.24-.68,2.92-1.7.33-.47.5-1.19.19-1.59-.25-.36-1.13-.05-1.81.03-1.8.34-3.54.53-5.07.96-1.53.4-2.87.89-3.94,1.43-2.15,1.06-3.14,2.23-3.21,2.15-.02-.02.19-.33.69-.8.49-.47,1.27-1.1,2.35-1.68,1.07-.59,2.43-1.13,3.98-1.57,1.55-.47,3.3-.68,5.12-1.02.36-.06.72-.12,1.07-.18.18-.02.38-.04.61,0,.22.03.46.16.6.35.29.37.31.81.25,1.19-.06.38-.22.72-.42,1.02-.4.59-.99.99-1.55,1.25-.57.27-1.14.43-1.66.58h-.01s0,0,0,0c-1.65.33-3,.65-3.92.93-.94.25-1.37.55-1.4.53Z"/>
    </g>
    <g>
      <path class="cls-14" d="M122.16,142.07c3.63-.54,7.32-.7,10.98-.48.4.8.2,1.85-.47,2.45-.55.49-1.31.65-2.04.73-2.03.22-4.11-.03-6.13.28"/>
      <path class="cls-9" d="M124.5,145.04c-.02-.07,1.22-.34,3.22-.36.99-.03,2.19-.02,3.44-.24.61-.12,1.24-.37,1.59-.89.18-.26.29-.57.32-.89.02-.16,0-.33-.02-.49-.01-.08-.03-.16-.06-.24-.01-.04-.02-.08-.04-.11l-.02-.06v-.03s-.02-.01-.02-.01h0s0-.01,0-.01c-.2-.13.27.18.22.14-3.02-.18-5.77-.1-7.75.03-1.98.13-3.21.27-3.22.19-.01-.07,1.2-.34,3.19-.56,1.99-.22,4.76-.37,7.81-.18-.05-.03.42.28.22.15h0s0,.01,0,.01v.02s.02.04.02.04l.03.07s.04.1.05.15c.03.1.06.21.08.31.04.21.04.42.02.63-.04.41-.18.81-.42,1.14-.48.69-1.26.96-1.92,1.07-1.35.21-2.54.15-3.54.14-1.99-.08-3.2.06-3.22-.01Z"/>
    </g>
  </g>
  <g>
    <path class="cls-4" d="M180.23,35.13c-.87-1.69-2.74-2.8-4.64-2.76-1.9.05-3.72,1.25-4.5,2.98-.33.73-.5,1.56-1.02,2.18-1.41,1.68-4.59.96-5.75,2.82-1.23,1.97,1.17,4.58.41,6.78-.61,1.76-2.96,2.42-3.59,4.17-.84,2.32,1.85,4.83,1.02,7.15-.71,2-3.63,2.57-4.21,4.61-.64,2.25,2.05,4.28,1.86,6.62-.24,2.99-4.91,4.35-4.68,7.33.13,1.65,1.8,2.85,1.99,4.5.36,3.1-4.51,4.92-4.14,8.02.18,1.45,1.48,2.46,2.6,3.41,1.12.94,2.25,2.27,1.93,3.7-.34,1.5-2.05,2.18-3.04,3.36-1.51,1.81.4,6.86,2.49,7.94l9.37-6.13s-2.43-2.3-.3-4.14c2.13-1.84.89-2.8.9-4.29,0,0,1.89,1.8,1.05,3.51-1.12,2.28.2,4.2.2,4.2l14.04-5.27,2.28-12.86-4.28-47.83Z"/>
    <path class="cls-4" d="M156.55,94.19s-.3.05-.87-.02c-.56-.07-1.42-.26-2.34-.86-.92-.58-1.89-1.65-2.29-3.17-.2-.75-.26-1.61-.1-2.48.16-.88.58-1.74,1.08-2.57.5-.83,1.11-1.65,1.59-2.58.47-.92.85-1.98.72-3.08-.12-1.1-.9-2.03-1.5-3.1-.29-.53-.57-1.16-.48-1.84.07-.68.54-1.28,1.11-1.61.56-.36,1.19-.57,1.77-.84.58-.26,1.16-.59,1.49-1.12.35-.52.39-1.2.25-1.83-.14-.64-.43-1.26-.78-1.85-.36-.58-.78-1.16-1.12-1.79-.34-.63-.65-1.32-.68-2.09-.04-.77.3-1.53.81-2.09.52-.56,1.15-.97,1.78-1.36.62-.4,1.25-.77,1.76-1.26.51-.48.87-1.09.93-1.77.04-.68-.18-1.35-.45-1.99-.28-.64-.62-1.26-.88-1.92-.26-.65-.47-1.38-.34-2.1.06-.36.2-.7.38-1.01.2-.3.43-.56.69-.79,1.01-.91,2.27-1.49,2.85-2.59.29-.53.37-1.15.33-1.75-.04-.6-.18-1.2-.34-1.78-.33-1.15-.66-2.35-.44-3.53.11-.58.39-1.14.83-1.52.43-.39.97-.61,1.49-.74,1.06-.25,2.08-.22,3.02-.39.94-.14,1.8-.53,2.3-1.22.52-.67.83-1.46,1.34-2.06,1.01-1.23,2.41-1.68,3.48-1.75,1.1-.07,1.94.19,2.45.44.26.13.44.24.56.33.12.08.18.13.18.14-.01.02-.24-.18-.76-.41-.51-.23-1.34-.46-2.41-.37-1.05.09-2.4.55-3.34,1.74-.48.58-.77,1.36-1.31,2.08-.53.74-1.47,1.18-2.43,1.33-.97.18-1.99.16-3,.41-.5.12-.99.33-1.37.68-.39.35-.64.84-.74,1.37-.2,1.09.11,2.24.45,3.4.16.59.31,1.2.36,1.84.05.64-.03,1.32-.36,1.92-.66,1.22-1.96,1.8-2.9,2.68-.24.22-.45.46-.63.73-.16.27-.29.57-.33.89-.12.63.07,1.3.32,1.92.26.63.6,1.25.88,1.91.28.65.53,1.38.48,2.15-.06.77-.48,1.48-1.03,1.99-.55.52-1.2.9-1.81,1.3-.62.39-1.23.79-1.71,1.3-.46.52-.75,1.17-.72,1.85.02.68.3,1.34.63,1.94.33.61.74,1.17,1.12,1.78.36.61.67,1.25.82,1.95.15.68.11,1.47-.3,2.08-.4.62-1.04.96-1.63,1.23-.6.28-1.22.48-1.74.81-.53.31-.91.81-.98,1.39-.08.57.16,1.15.44,1.66.56,1.03,1.38,2,1.51,3.21.13,1.19-.28,2.29-.76,3.23-.5.95-1.11,1.76-1.61,2.58-.51.81-.91,1.64-1.08,2.48-.17.84-.12,1.66.07,2.4.37,1.48,1.29,2.52,2.18,3.11.89.6,1.72.81,2.28.9.56.08.86.07.86.09Z"/>
    <path class="cls-7" d="M156.35,104.01s-.07-.03-.17-.14c-.1-.11-.23-.31-.24-.61-.02-.29.07-.67.31-1.03.23-.37.69-.66,1.22-.8.54-.16,1.15-.19,1.8-.3.63-.11,1.36-.38,1.78-.99.2-.31.24-.7.13-1.08-.11-.38-.35-.73-.58-1.11-.22-.38-.48-.8-.49-1.31-.03-.5.18-.99.45-1.41.27-.42.59-.81.87-1.23.27-.41.54-.87.55-1.37.03-.5-.23-.98-.57-1.39-.34-.42-.76-.81-1.12-1.27-.37-.44-.68-1.09-.5-1.74.06-.32.26-.61.5-.83.24-.23.53-.36.81-.5.58-.25,1.18-.41,1.77-.62.58-.21,1.15-.49,1.54-.95.39-.47.49-1.11.37-1.73-.11-.63-.35-1.25-.57-1.89-.22-.64-.46-1.31-.5-2.03-.05-.73.15-1.46.48-2.1.64-1.28,1.67-2.36,2.05-3.72.19-.67.12-1.38-.15-2.05-.25-.67-.63-1.31-.98-1.98-.34-.67-.65-1.4-.64-2.19.01-.8.41-1.52.9-2.08.48-.57,1.03-1.04,1.51-1.56.48-.51.89-1.08,1-1.74.12-.65-.07-1.32-.36-1.93-.28-.61-.65-1.2-.95-1.82-.3-.61-.52-1.31-.46-2.02.07-.71.43-1.32.8-1.85.38-.54.79-1.03,1.08-1.56.3-.53.46-1.12.36-1.69-.18-1.16-1.02-2.14-1.16-3.36-.08-.61.13-1.23.48-1.68.35-.46.79-.81,1.19-1.16.41-.34.79-.69,1.06-1.1.27-.41.41-.88.46-1.35.1-.95-.06-1.89.05-2.79.11-.9.45-1.7.91-2.34.91-1.32,2.25-1.94,3.34-2.1,1.1-.16,1.97.04,2.51.23.54.2.79.38.79.38,0,.02-.27-.14-.81-.32-.54-.17-1.39-.35-2.47-.17-1.06.17-2.34.79-3.2,2.07-.43.63-.76,1.4-.85,2.26-.1.86.06,1.79-.03,2.79-.05.5-.19,1.02-.48,1.47-.3.44-.7.81-1.1,1.16-.4.35-.82.69-1.14,1.12-.32.42-.5.95-.42,1.49.12,1.1.96,2.07,1.18,3.34.12.64-.07,1.33-.39,1.88-.32.57-.73,1.07-1.1,1.59-.36.52-.68,1.09-.74,1.71-.06.62.14,1.25.43,1.85.29.6.65,1.18.95,1.82.3.63.52,1.37.39,2.12-.13.75-.59,1.38-1.08,1.91-.49.53-1.05,1-1.5,1.55-.46.53-.8,1.17-.82,1.87-.01.7.27,1.38.6,2.03.34.66.73,1.3.99,2.01.28.7.36,1.52.15,2.25-.42,1.48-1.47,2.55-2.08,3.78-.32.61-.49,1.27-.45,1.93.04.66.26,1.31.48,1.94.22.64.47,1.27.58,1.95.12.67.01,1.44-.44,1.98-.45.54-1.08.83-1.67,1.04-.6.22-1.2.38-1.75.61-.53.23-1.05.58-1.15,1.12-.15.53.09,1.07.44,1.5.34.44.76.83,1.11,1.28.35.44.65.98.61,1.57-.02.58-.32,1.08-.6,1.5-.3.43-.62.81-.87,1.21-.26.4-.44.84-.42,1.27,0,.44.23.84.44,1.21.22.37.47.74.59,1.17.12.42.07.89-.17,1.24-.48.69-1.25.94-1.91,1.05-.66.1-1.27.13-1.79.27-.52.13-.95.38-1.18.73-.23.34-.33.69-.32.97.03.58.39.74.35.76Z"/>
  </g>
  <path class="cls-14" d="M206.69,46.81c.03-2.1-1.55-3.86-3.64-4.07l-21.45-5.28c-6.86-.68-11.37,7.79-11.77,14.68-.44,7.65-.67,17.01.28,22.71,1.89,11.46,10.7,12.87,10.7,12.87,0-.03-.14,3.54-.21,8.54-.1,6.82,5.46,12.36,12.27,12.25h0c6.41-.11,11.62-5.2,11.87-11.6l1.95-50.09Z"/>
  <path class="cls-5" d="M182.01,68.98c0-.09-.98-.25-2.57-.45-.4-.04-.79-.12-.86-.39-.1-.29.07-.73.26-1.2.37-.98.77-2.01,1.18-3.09,1.63-4.39,2.81-8.01,2.64-8.07-.18-.06-1.65,3.45-3.28,7.84-.39,1.08-.77,2.12-1.13,3.1-.15.46-.41.98-.2,1.59.11.3.41.52.67.59.26.08.49.08.69.09,1.61.08,2.6.08,2.61-.01Z"/>
  <path class="cls-9" d="M180.78,87.71s7.72.45,15.34-4.19c0,0-3.83,7.91-15.32,6.91l-.02-2.72Z"/>
  <path class="cls-4" d="M186.91,53.08c.16.43,1.74.22,3.6.43,1.86.18,3.37.71,3.61.32.11-.19-.15-.59-.76-1-.6-.41-1.56-.8-2.68-.92-1.12-.12-2.14.07-2.81.35-.68.28-1.02.62-.95.82Z"/>
  <path class="cls-4" d="M172.34,50.95c.28.36,1.37-.02,2.68-.05,1.31-.07,2.42.23,2.68-.15.11-.18-.07-.54-.55-.88-.48-.34-1.28-.61-2.18-.58-.9.03-1.68.36-2.13.74-.46.37-.61.74-.49.92Z"/>
  <path class="cls-1" d="M183.71,74.23c-.47-.77-.37-1.84.25-2.5.62-.66,1.69-.83,2.48-.4.52.28.89.76,1.19,1.26.31.52.56,1.15.38,1.73-.15.47-.56.81-1.01,1.02-.69.32-1.51.35-2.2.05-.7-.3-1.24-.94-1.39-1.68"/>
  <path class="cls-10" d="M187.63,71.08c.13.04.16.43-.06.99-.21.56-.72,1.29-1.51,1.8-.8.52-1.67.68-2.26.64-.61-.03-.95-.22-.93-.35.03-.28,1.38-.3,2.65-1.14,1.28-.81,1.86-2.04,2.13-1.95Z"/>
  <g>
    <path class="cls-13" d="M199.48,367.98l12.86,20.7s-16.72,20.02-14.72,24.08l41.03-23.49-18.71-33.08-20.46,11.79Z"/>
    <path class="cls-11" d="M224.01,379.63c.92-.24,1.98.34,2.25,1.25.28.91-.3,1.99-1.22,2.24-.91.25-2.21-.4-2.38-1.34-.17-.93.58-2.17,1.53-2.19"/>
    <g class="cls-2">
      <path class="cls-10" d="M238.65,389.27l-2.02-3.26-38.59,23.74s-1.37,1.84-.43,3.01l41.03-23.49Z"/>
    </g>
    <path class="cls-5" d="M211.55,388.85c.12.2,1.18-.29,2.53-.21,1.36.04,2.36.62,2.5.44.16-.14-.82-1.17-2.46-1.24-1.64-.08-2.72.85-2.57,1.01Z"/>
    <path class="cls-5" d="M208.27,393.09c.07.22,1.13.06,2.29.52,1.18.42,1.88,1.24,2.07,1.12.21-.08-.33-1.33-1.79-1.87-1.45-.55-2.68.04-2.58.23Z"/>
    <path class="cls-5" d="M208.77,399.64c.21-.06-.09-1.22-1.23-2.02-1.14-.81-2.33-.7-2.32-.49-.02.23.93.47,1.85,1.14.94.65,1.48,1.46,1.69,1.37Z"/>
    <path class="cls-5" d="M209.15,383.81c.19.13.95-.67,2.13-1.24,1.16-.6,2.26-.72,2.27-.95.03-.21-1.25-.46-2.63.23-1.38.68-1.96,1.86-1.77,1.96Z"/>
  </g>
  <g>
    <path class="cls-13" d="M201.26,376.48l1.39,24.33s-24.27,9.58-24.45,14.1l47.27-.99-.6-38-23.61.56Z"/>
    <path class="cls-11" d="M217.22,398.46c.92.23,1.57,1.25,1.38,2.17-.19.93-1.22,1.6-2.14,1.39-.92-.21-1.75-1.41-1.45-2.31.3-.9,1.54-1.63,2.39-1.2"/>
    <g class="cls-2">
      <path class="cls-10" d="M225.47,413.92l-.21-3.83-45.24,2.38s-2.09.96-1.82,2.44l47.27-.99Z"/>
    </g>
    <path class="cls-5" d="M201.88,400.59c.01.23,1.17.31,2.32,1.03,1.17.69,1.78,1.68,1.99,1.58.21-.05-.16-1.42-1.57-2.27-1.4-.86-2.79-.55-2.74-.34Z"/>
    <path class="cls-5" d="M196.96,402.74c-.05.22.96.6,1.76,1.56.83.94,1.05,1.99,1.28,1.97.22.03.35-1.32-.67-2.5-1.01-1.18-2.37-1.25-2.37-1.03Z"/>
    <path class="cls-5" d="M194.27,408.73c.21.04.51-1.12-.11-2.37-.61-1.26-1.71-1.73-1.8-1.54-.13.19.59.86,1.08,1.89.52,1.02.6,2,.83,2.01Z"/>
    <path class="cls-5" d="M202.18,395.01c.1.21,1.15-.13,2.46-.07,1.31.03,2.33.45,2.45.25.13-.17-.88-1-2.42-1.05-1.54-.06-2.61.7-2.49.87Z"/>
  </g>
  <g>
    <g>
      <path class="cls-5" d="M166.28,198.32s-2.44,99.94-.49,107.11c1.95,7.17,41.98,80.46,41.98,80.46l24.15-11.86-32.02-77.38,7.07-99.49-40.68,1.17Z"/>
      <path class="cls-5" d="M219.37,189.73s13.88,22.67,11.43,36.27c-1.01,5.58-8.6,17.92-8.6,17.92v66.39s5.85,88.61,5.85,88.61h-28.15l-12.08-78.14s-4.24-7.17-5.86-13.36-6.92-79.35-6.92-79.35l-8.42-29.75,52.76-8.59Z"/>
      <path class="cls-12" d="M224.9,351.32s-.04.67,0,1.87c.04,1.2.12,2.93.24,5.07.24,4.28.67,10.19,1.16,16.71.5,6.52.92,12.43,1.2,16.71.14,2.06.25,3.77.34,5.06.08,1.2.15,1.86.19,1.86.04,0,.05-.67.04-1.86-.01-1.2-.06-2.93-.15-5.08-.17-4.29-.53-10.2-1.03-16.73-.52-6.47-.98-12.33-1.33-16.7-.17-2.06-.32-3.76-.43-5.06-.11-1.19-.19-1.85-.23-1.85Z"/>
    </g>
    <path class="cls-12" d="M215.96,200.53s-.23.34-.75.86c-.52.52-1.33,1.22-2.42,1.96-2.15,1.48-5.6,3.03-9.65,3.27-4.05.24-7.66-.9-9.97-2.12-1.17-.61-2.05-1.21-2.63-1.66-.58-.45-.87-.74-.85-.76.06-.08,1.3.98,3.64,2.09,2.31,1.11,5.84,2.16,9.78,1.93,3.94-.23,7.31-1.68,9.48-3.06,2.19-1.38,3.3-2.57,3.37-2.5Z"/>
    <path class="cls-12" d="M174.87,221.36s.03.12.05.36c.02.27.05.62.09,1.07.07.98.17,2.36.3,4.13.25,3.62.6,8.81,1.04,15.2.9,12.83,2.03,30.57,3.74,50.12.24,2.66.5,5.29.81,7.86.17,1.28.3,2.57.58,3.78.27,1.22.76,2.4,1.18,3.57,1.74,4.68,3.59,9.09,5.37,13.22v.03s.02.03.02.03c1.87,12.04,3.46,22.22,4.58,29.42.58,3.56,1.04,6.38,1.36,8.35.17.94.3,1.68.39,2.21.11.49.17.75.16.75,0,0-.1-.24-.24-.74-.11-.5-.28-1.23-.46-2.2-.38-1.92-.88-4.75-1.5-8.33-1.23-7.16-2.88-17.34-4.77-29.39l.02.06c-1.79-4.13-3.66-8.54-5.41-13.23-.42-1.18-.91-2.35-1.19-3.61-.3-1.28-.43-2.56-.6-3.85-.31-2.58-.58-5.21-.81-7.88-1.71-19.56-2.79-37.3-3.59-50.14-.37-6.4-.67-11.59-.88-15.21-.09-1.77-.16-3.16-.2-4.14-.02-.45-.03-.81-.04-1.08,0-.24,0-.37,0-.37Z"/>
  </g>
  <g>
    <path class="cls-13" d="M164.24,151.23l-17.19-4.71s-4.89,18.24-4.89,18.69,22.88,15.09,22.88,15.09l1.25-11.06-2.04-18.01Z"/>
    <path class="cls-13" d="M204.28,91.2c-12.02,4.48-20,8.32-24.55,3.62,0,0-7.4,2.8-8.89,5.72-4.55,8.91-9.86,21.94-10.35,29.4-.7,10.69,5.26,41.47,5.26,41.47,0,0-2.39,13.28-2.39,16.66,0,5.77,2.92,10.25,2.92,10.25l53.08-8.59-3.22-30.25s12.91-56.61,9.71-60.5l-18.84-6.82-2.74-.96Z"/>
    <g>
      <path class="cls-5" d="M181.45,195.89c-.01.05-.69-.05-1.65-.55-.96-.49-2.17-1.47-3.08-2.87-.9-1.41-1.28-2.91-1.33-4-.06-1.09.14-1.74.19-1.73.09,0,.03.67.18,1.69.14,1.03.55,2.42,1.4,3.75.86,1.33,1.95,2.28,2.83,2.84.87.56,1.49.78,1.47.87Z"/>
      <path class="cls-5" d="M178.54,196c0,.06-.33.17-.89.15-.56-.02-1.33-.21-2.07-.67-.73-.45-1.25-1.06-1.52-1.55-.27-.49-.33-.84-.27-.86.14-.07.71,1.15,2.07,1.97,1.33.85,2.68.81,2.68.97Z"/>
    </g>
    <g>
      <path class="cls-4" d="M178.82,37.07c-.77,1.38,1.84,4.16,3.3,4.76,1.55.63,3.39.45,4.12,1.85.82,1.59-1.2,3.94,1.8,5.81.95.59,2.45-.43,3.22.38.96.99-.47,2.52-.51,3.89-.08,2.67,4.76,3.19,4.92,5.85.1,1.68-1.86,3.15-1.31,4.73.56,1.62,3.23,1.65,3.79,3.28.72,2.09-2.83,3.63-2.53,5.82.29,2.16,3.87,2.39,4.46,4.49.5,1.8-1.59,3.6-1.03,5.37.64,2.03,4.02,1.95,4.79,3.93.94,2.39-2.91,4.85-1.8,7.17.37.78,1.31,1.1,1.83,1.78,1.69,2.21,1.24,6.77-.76,8.47.42.02.88.04,1.35.06,4.11.19,8.04-1.7,10.46-5.02h0l.95,2.67c3.65-.91,6.59-3.08,9.62-5.32,1.52-1.12,3.49-1.43,5.28-.81l.78.27c2.39.33,5.61-.67,7.69-1.87-2.61-.7-3.85-3.67-4.34-6.32-.49-2.66-.72-5.59-2.58-7.55-2.01-2.12-5.7-2.8-6.51-5.61-.64-2.21.95-4.58.39-6.81-.57-2.25-3.09-3.5-3.96-5.65-1.19-2.93,1.02-6.57-.55-9.31-1.71-2.98-6.78-2.87-8.01-6.08-.68-1.77.1-4.07-1.18-5.47-1.02-1.12-2.89-1.06-3.97-2.13-1.59-1.56-.58-4.5-1.94-6.27-1.83-2.38-6-.65-8.43-2.41-1.53-1.11-1.93-3.33-3.44-4.47-2.05-1.55-4.94-.45-7.41.25-1.92.54-3.91.79-5.78,1.47s-3.67,1.9-4.43,3.74c-.76,1.84-.11,4.33,1.73,5.08"/>
      <path class="cls-5" d="M236.3,85.27s.07.06.18.18c.11.12.28.3.49.55.21.25.46.56.7.98.24.41.48.93.53,1.56.04.63-.17,1.36-.72,1.92-.27.28-.65.49-1.09.52-.43.02-.88-.13-1.22-.45-.66-.66-.87-1.66-.92-2.65-.01-1.01.1-2.04.22-3.14.12-1.1.3-2.24.53-3.42.11-.59.25-1.19.39-1.8.14-.6.26-1.22.23-1.85-.02-.62-.24-1.25-.75-1.62-.5-.38-1.18-.46-1.85-.46-.68,0-1.38.06-2.11-.03-.72-.07-1.5-.42-1.93-1.07-.44-.65-.56-1.44-.55-2.2,0-.76.16-1.53.32-2.26.14-.74.27-1.5.21-2.24-.05-.74-.37-1.46-.96-1.94-.58-.49-1.33-.78-2.04-1.18-.72-.38-1.38-1-1.75-1.77-.74-1.56-.62-3.32-.48-4.97.06-.83.11-1.66.03-2.47-.08-.8-.29-1.59-.72-2.25-.89-1.33-2.43-1.99-3.82-2.72-.7-.37-1.4-.75-2.01-1.28-.61-.51-1.09-1.21-1.29-1.99-.19-.78-.14-1.55-.19-2.28-.04-.72-.19-1.45-.69-1.93-.48-.48-1.17-.71-1.84-.88-.68-.18-1.38-.31-2.03-.63-.66-.3-1.18-.87-1.43-1.53-.24-.66-.28-1.34-.29-1.99-.01-1.29.1-2.57-.43-3.62-.51-1.06-1.48-1.76-2.45-2.21-.98-.46-2.01-.66-2.99-.77-.98-.11-1.91-.16-2.78-.25-.87-.09-1.68-.22-2.41-.44-.73-.22-1.35-.54-1.86-.88-1.04-.7-1.59-1.55-1.8-2.16-.22-.62-.19-.97-.19-.97.03,0,.02.35.26.95.23.59.78,1.42,1.81,2.08.51.33,1.12.64,1.83.84.71.21,1.51.32,2.38.4.87.08,1.8.12,2.79.22.99.1,2.05.3,3.06.77,1,.46,2.03,1.18,2.58,2.31.58,1.14.45,2.47.47,3.73,0,.64.05,1.29.28,1.89.24.59.69,1.09,1.29,1.37.6.29,1.28.42,1.97.6.68.18,1.43.4,1.99.96.57.56.75,1.38.78,2.13.05.75,0,1.51.19,2.22.19.7.61,1.33,1.19,1.82.57.49,1.26.87,1.95,1.23.7.36,1.42.71,2.11,1.15.69.43,1.36.97,1.83,1.68.47.72.7,1.56.78,2.4.08.84.03,1.69-.03,2.53-.14,1.65-.24,3.36.45,4.8.34.71.92,1.25,1.61,1.63.68.39,1.45.68,2.09,1.22.66.53,1.02,1.36,1.07,2.16.07.81-.07,1.59-.22,2.33-.16.75-.31,1.47-.32,2.2,0,.72.11,1.45.49,2.02.38.57,1.04.88,1.71.95.68.09,1.38.02,2.08.03.69,0,1.44.08,2.02.53.59.43.85,1.17.86,1.83.02.67-.11,1.31-.25,1.92-.14.61-.28,1.2-.4,1.79-.24,1.17-.41,2.31-.54,3.4-.12,1.09-.24,2.14-.24,3.11.03.96.24,1.93.84,2.52.3.29.7.42,1.08.41.38-.02.73-.2.98-.46.52-.51.73-1.21.7-1.8-.04-.6-.25-1.11-.48-1.52-.23-.41-.47-.73-.67-.98-.2-.24-.35-.43-.47-.57-.11-.13-.16-.19-.15-.2Z"/>
      <path class="cls-7" d="M210.24,100.26s.11-.05.32-.12c.21-.07.53-.18.93-.35.39-.18.88-.43,1.28-.9.37-.46.67-1.24.35-1.97-.16-.36-.52-.61-.93-.77-.42-.16-.89-.25-1.36-.44-.23-.1-.48-.24-.66-.45-.18-.22-.29-.5-.28-.79.02-.6.37-1.09.68-1.57.33-.48.59-.99.67-1.59.08-.59.02-1.22-.23-1.8-.47-1.16-1.78-2.03-3.17-1.96h-.14s0-.13,0-.13c-.02-1.03.5-1.98,1.11-2.8.61-.84,1.36-1.58,1.82-2.53.23-.47.41-.98.45-1.5.05-.52-.07-1.06-.39-1.48-.65-.87-1.84-1.13-2.89-1.7-.53-.27-1.06-.71-1.29-1.32-.24-.62-.13-1.31.11-1.88.46-1.15,1.29-2.16,1.32-3.36,0-.59-.22-1.16-.59-1.65-.36-.49-.84-.9-1.36-1.26-1.02-.72-2.26-1.24-3.25-2.17-.61-.56-1.11-1.31-1.19-2.16-.11-.84.12-1.65.38-2.4.26-.75.58-1.46.77-2.2.11-.36.15-.73.16-1.09-.03-.36-.09-.72-.28-1.02-.33-.64-.99-1.01-1.66-1.3-.67-.3-1.39-.53-2.03-.96-.65-.42-1.11-1.13-1.19-1.89-.1-.76.08-1.48.26-2.15.19-.68.4-1.33.53-1.99.13-.65.16-1.32-.04-1.92-.2-.6-.63-1.09-1.13-1.45-.51-.36-1.08-.62-1.66-.82-1.16-.39-2.37-.56-3.45-1.04-.54-.23-1.05-.54-1.45-.95-.41-.4-.7-.89-.92-1.38-.44-.99-.64-1.98-.99-2.86-.33-.88-.85-1.62-1.49-2.14-1.28-1.07-2.82-1.32-3.95-1.12-1.16.19-1.96.7-2.44,1.09-.48.39-.67.66-.69.65,0,0,.17-.29.64-.7.47-.41,1.27-.95,2.46-1.16,1.17-.23,2.76,0,4.1,1.11.67.54,1.22,1.31,1.57,2.21.36.89.58,1.89,1.01,2.84.22.47.49.93.88,1.3.38.38.86.67,1.38.89,1.04.45,2.24.62,3.44,1.01.6.2,1.19.47,1.74.85.54.38,1.01.92,1.24,1.59.23.67.19,1.39.06,2.07-.13.68-.34,1.35-.53,2.02-.18.67-.34,1.36-.25,2.03.08.67.47,1.28,1.06,1.66.59.39,1.29.62,1.98.92.68.29,1.43.7,1.82,1.44.22.35.29.77.32,1.17,0,.4-.05.81-.16,1.19-.2.77-.52,1.49-.78,2.22-.25.73-.47,1.49-.36,2.25.07.76.51,1.43,1.09,1.96.94.88,2.14,1.39,3.22,2.14.53.38,1.04.81,1.43,1.34.4.52.66,1.18.65,1.85-.05,1.37-.93,2.39-1.35,3.48-.23.54-.31,1.12-.11,1.64.2.52.64.89,1.14,1.16.5.27,1.05.47,1.57.73.53.25,1.05.57,1.41,1.06.36.49.5,1.11.44,1.68-.05.58-.24,1.12-.49,1.61-.49,1-1.26,1.76-1.86,2.57-.6.8-1.09,1.69-1.07,2.62l-.14-.13c1.51-.07,2.9.87,3.41,2.13.53,1.26.23,2.68-.48,3.6-.31.48-.64.95-.66,1.45-.02.51.37.9.81,1.07.44.19.92.28,1.35.46.43.17.83.45,1.01.86.18.4.17.82.08,1.19-.09.37-.27.68-.48.93-.43.49-.94.73-1.34.9-.82.32-1.28.39-1.28.39Z"/>
      <path class="cls-7" d="M229.02,95.42s.25-.26.53-.86c.24-.6.48-1.64,0-2.81-.23-.58-.68-1.13-1.34-1.54-.32-.22-.67-.43-.99-.71-.32-.28-.61-.69-.64-1.18-.07-.98.66-1.81.7-2.79.01-.48-.2-.97-.6-1.3-.39-.34-.89-.59-1.39-.84-.5-.26-1.04-.52-1.5-.95-.47-.41-.78-1.03-.83-1.68-.12-1.3.37-2.55.47-3.85.05-.65,0-1.32-.35-1.88-.35-.55-.94-.93-1.57-1.24-.63-.31-1.32-.55-1.96-.97-.65-.38-1.19-1.09-1.26-1.89-.09-.8.14-1.56.26-2.3.13-.74.17-1.53-.28-2.13-.43-.6-1.18-.91-1.91-1.24-.72-.33-1.53-.73-1.97-1.51-.44-.77-.44-1.69-.28-2.52.15-.84.49-1.63.77-2.42.28-.78.52-1.6.48-2.42-.04-.81-.46-1.58-1.12-2.08-.67-.49-1.5-.75-2.31-.97-.82-.22-1.66-.4-2.47-.7-.8-.29-1.61-.7-2.16-1.38-.57-.65-.92-1.45-1.14-2.25-.41-1.62-.44-3.24-.68-4.78-.13-.77-.29-1.52-.6-2.2-.32-.68-.8-1.24-1.4-1.65-1.25-.77-2.78-.68-4.19-.7-.71,0-1.43-.04-2.12-.2-.69-.16-1.35-.47-1.87-.93-1.04-.93-1.58-2.16-2.23-3.19-.32-.52-.66-1.02-1.08-1.43-.41-.41-.87-.76-1.36-1.03-1.97-1.09-4.16-1.13-5.87-.71-1.74.43-3.09,1.25-4.11,2-1.02.75-1.73,1.44-2.2,1.92-.22.23-.4.41-.53.55-.12.12-.18.19-.19.18,0,0,.05-.07.16-.2.11-.13.28-.32.5-.57.46-.49,1.15-1.2,2.17-1.97,1.01-.76,2.37-1.61,4.14-2.07,1.75-.44,3.98-.43,6.03.69.5.28.99.64,1.42,1.07.44.43.79.94,1.12,1.47.66,1.05,1.21,2.25,2.19,3.12.49.42,1.09.71,1.75.86.66.15,1.35.18,2.06.19.71,0,1.44-.01,2.18.07.74.07,1.51.26,2.17.67.65.44,1.18,1.06,1.52,1.78.33.72.5,1.5.63,2.29.24,1.57.28,3.19.68,4.75.22.77.55,1.52,1.07,2.12.51.62,1.26,1,2.03,1.29.78.28,1.61.47,2.44.69.83.23,1.69.49,2.43,1.02.73.54,1.21,1.43,1.25,2.33.05.9-.22,1.75-.5,2.55-.29.8-.62,1.56-.76,2.37-.15.79-.15,1.63.24,2.3.37.68,1.1,1.05,1.82,1.38.71.33,1.52.65,2.03,1.35.25.34.38.77.41,1.17.03.41-.02.81-.08,1.19-.13.76-.34,1.5-.26,2.21.07.71.51,1.31,1.12,1.67.59.39,1.28.63,1.92.96.64.31,1.29.72,1.68,1.35.39.63.44,1.38.38,2.06-.12,1.35-.6,2.6-.49,3.8.05.6.32,1.14.74,1.52.42.39.94.65,1.44.92.5.26,1.01.51,1.44.89.44.36.69.93.67,1.47-.08,1.09-.8,1.89-.73,2.77.02.43.27.79.57,1.06.3.27.65.49.97.71.66.42,1.14,1.02,1.37,1.62.48,1.22.22,2.29-.05,2.89-.3.61-.59.84-.59.84Z"/>
    </g>
    <path class="cls-5" d="M160.77,140.64s-.11-.47-.22-1.34c-.13-.87-.21-2.13-.26-3.7-.06-3.13.24-7.5,1.43-12.14,1.16-4.65,2.83-8.67,4.11-11.52.64-1.43,1.2-2.56,1.6-3.34.4-.78.64-1.2.67-1.18.03.02-.14.47-.48,1.27-.38.9-.87,2.04-1.44,3.4-1.2,2.88-2.79,6.89-3.94,11.49-1.18,4.6-1.54,8.91-1.57,12.01-.01,3.11.21,5.04.1,5.05Z"/>
    <path class="cls-5" d="M164.27,180.3s0-.23.04-.65c.07-.5.14-1.09.24-1.81.25-1.66.59-3.86.98-6.47v.05c-.2-2.92-.67-6.39-1.45-10.07-.57-2.59-1.11-5.05-1.61-7.31-.48-2.25-.85-4.3-1.09-6.03-.23-1.73-.35-3.14-.4-4.11-.04-.97-.05-1.51-.01-1.52s.11.53.22,1.5c.11.97.29,2.36.56,4.07.29,1.71.68,3.74,1.19,5.98.5,2.24,1.11,4.7,1.65,7.3.78,3.69,1.23,7.2,1.38,10.15v.03s0,.02,0,.02c-.47,2.6-.87,4.78-1.17,6.44-.14.71-.26,1.3-.36,1.79-.09.41-.15.63-.17.63Z"/>
    <g class="cls-8">
      <path d="M196.34,168.55c-1.94-3.81-4.24-7.77-8.08-9.67-2.99-1.48-6.48-1.48-9.82-1.36-4.92.18-9.85.53-14.71,1.33l1.21.69c4.23,3.3,9.4,5.39,14.73,5.97,1.46.16,2.95.21,4.34.69,2.91,1.01,4.83,3.71,7.14,5.74.83.73,1.76,1.4,2.84,1.6,1.08.21,2.34-.16,2.89-1.11.69-1.18.09-2.67-.53-3.89Z"/>
    </g>
    <g>
      <polygon class="cls-12" points="135.41 128.86 162.4 159.41 197.93 160.4 179.08 129.97 135.41 128.86"/>
      <path class="cls-14" d="M192.3,144.83s1.5-.09,1.97,1.02c.46,1.11.11,1.38.93,2.68.82,1.29,2.3,1.57,2.58,4.25.28,2.68.09,5.62.09,5.62,0,0-7.75,6.91-7.47,6.6.28-.31-7.38-6.77-10.89-7.88-3.51-1.11-6.83-2.19-6.83-2.19,0,0-3.97-2.42-7.48-2.7,0,0,.38-1.4,1.3-1.71l-3.42-2.81s0-1.57,1.94-1.02,3.41,1.94,3.41,1.94l-2.21-3.23s1.76-1.3,3.83.37c2.08,1.67,4.57,4.53,4.57,4.53l5.89,1.48s-6.72-6.37-6.81-6.92.65-2.12,2.31-1.38c1.66.74,9.41,6.37,9.41,6.37,0,0,6.4,3.6,6.89,3.14.49-.46,0-8.12,0-8.12Z"/>
      <path class="cls-14" d="M190.15,164.42s2.6,4.52,6.46,7.02l8.29,4.92,6.89-3.38-1.14-13.45-10.19-.72-2.56-1.05-7.75,6.66Z"/>
      <path class="cls-13" d="M205.3,129.93l4.45,24.28s-9.32,2.42-9.82,4.39c0,0,7.26-1.79,8.74,2.76,1.4,4.32-.89,16.23-3.76,15-2.88-1.23-8.29-4.92-8.29-4.92,0,0-.25,9.97,3.69,11.25,3.93,1.29,15.25,2.52,15.25,2.52,0,0,9.03-1.52,9.8-4.94,0,0,10.36-5.88,11.59-11.29,1.23-5.41,3.44-11.93,3.44-11.93,0,0-5.3-55.97-14.53-58.08,0,0-15.47,13.93-16.46,21.31-.98,7.38-4.1,9.64-4.1,9.64Z"/>
      <g>
        <path class="cls-3" d="M145.46,126.18s-7.81-.71-9.25,2.01c-1.44,2.72,1.88,21.99-.8,26.28l34.06,1.34s-.95-25.07,3.21-26.01l6.4.16s.3-2.17-4.52-2.44c-4.83-.27-29.1-1.34-29.1-1.34Z"/>
        <path class="cls-5" d="M145.46,126.18s.06,0,.16,0c.12,0,.28,0,.48,0,.44.01,1.06.03,1.86.06,1.65.06,4.04.16,7.06.27,3.05.13,6.73.28,10.96.46,2.11.09,4.36.19,6.73.29,1.18.07,2.41.04,3.66.31.62.12,1.25.33,1.82.68.55.36,1.1.93,1.07,1.73v.16s-.19,0-.19,0c-2.02-.05-4.18-.1-6.4-.15h.05c-.42.09-.74.5-1,.91-.25.43-.44.91-.6,1.4-.32.99-.53,2.02-.7,3.08-.34,2.12-.52,4.31-.64,6.54-.24,4.47-.25,9.12-.1,13.88v.23s-.22,0-.22,0c-.39-.02-.8-.03-1.22-.05-11.95-.48-23.19-.93-32.83-1.32h-.32s.17-.28.17-.28c.34-.55.51-1.2.65-1.83.14-.64.21-1.29.28-1.93.11-1.29.14-2.55.14-3.79,0-2.47-.13-4.82-.25-7.03-.12-2.21-.25-4.28-.32-6.19-.03-.96-.05-1.88-.03-2.76.04-.88.04-1.73.32-2.52.35-.79,1.07-1.21,1.72-1.5.66-.29,1.33-.42,1.94-.54,1.23-.21,2.29-.24,3.15-.25.86,0,1.51.03,1.95.06.21.02.37.03.5.05.11.01.17.02.17.03,0,0-.06,0-.17,0-.13,0-.29,0-.5-.02-.44-.01-1.1-.03-1.95,0-.85.02-1.91.08-3.12.3-.6.13-1.25.26-1.89.55-.63.28-1.29.7-1.59,1.4-.25.72-.26,1.58-.28,2.45-.01.88.01,1.79.05,2.75.08,1.91.23,3.98.36,6.19.13,2.21.27,4.56.29,7.04,0,1.24-.01,2.52-.13,3.82-.07.65-.14,1.31-.28,1.97-.14.66-.31,1.33-.69,1.95l-.15-.28c9.64.37,20.88.81,32.84,1.27.42.02.84.03,1.22.05l-.22.22c-.14-4.77-.13-9.43.12-13.92.13-2.24.32-4.44.66-6.58.18-1.07.39-2.12.72-3.14.16-.51.36-1.01.64-1.48.28-.45.64-.94,1.25-1.1h.02s.03,0,.03,0c2.22.06,4.38.12,6.4.17l-.19.16c.01-.24-.08-.55-.25-.78-.17-.24-.4-.43-.65-.6-.51-.32-1.1-.52-1.7-.64-1.19-.27-2.42-.24-3.6-.32-2.37-.12-4.62-.23-6.73-.33-4.22-.21-7.91-.4-10.95-.55-3.02-.16-5.41-.29-7.06-.38-.8-.05-1.42-.09-1.86-.11-.2-.01-.35-.03-.48-.04-.11,0-.16-.02-.16-.02Z"/>
      </g>
    </g>
    <path class="cls-5" d="M226.49,101.73c0,.11-1.93-.07-4.98.33-.77.07-1.58.29-2.46.46-.86.26-1.8.48-2.72.9-1.86.76-3.83,1.87-5.48,3.52-1.66,1.63-2.83,3.55-3.67,5.38-.76,1.87-1.25,3.64-1.5,5.16-.11.75-.22,1.43-.32,2.05-.04.58-.08,1.1-.11,1.57-.07.86-.12,1.34-.16,1.34-.04,0-.05-.48-.04-1.35,0-.47.01-.99.02-1.58.06-.61.15-1.31.24-2.09.21-1.54.66-3.36,1.42-5.29.84-1.89,2.03-3.88,3.75-5.57,1.71-1.7,3.75-2.84,5.67-3.59.95-.42,1.92-.63,2.8-.88.9-.16,1.74-.36,2.52-.41.38-.04.75-.07,1.11-.11.35-.02.68-.02.99-.02.62-.01,1.15-.02,1.58.02.87.06,1.34.11,1.34.15Z"/>
    <path class="cls-5" d="M205.7,132.12s.16.46.34,1.29c.19.94.44,2.12.73,3.53.59,2.98,1.38,7.1,2.21,11.66.35,1.96.69,3.84,1,5.57l.06.35-.35-.06c-1.56-.25-3.06-.03-4.27.47-1.23.48-2.19,1.19-2.91,1.82-1.44,1.31-2.01,2.35-2.08,2.3-.02-.01.11-.27.39-.73.3-.45.77-1.09,1.48-1.79.72-.69,1.68-1.46,2.96-1.99,1.26-.56,2.85-.82,4.51-.57l-.28.29c-.32-1.73-.67-3.61-1.04-5.57-.84-4.57-1.56-8.7-2.06-11.7-.23-1.42-.42-2.61-.57-3.55-.12-.84-.17-1.31-.14-1.31Z"/>
    <path class="cls-5" d="M224.06,159.74c-.05.07-.8-.5-2.09-1.25-1.29-.76-3.16-1.67-5.32-2.42-2.16-.75-4.19-1.22-5.66-1.49-1.48-.27-2.41-.37-2.4-.45,0-.06.95-.1,2.46.08,1.51.18,3.58.6,5.78,1.36,2.2.77,4.08,1.75,5.34,2.6,1.27.85,1.94,1.53,1.9,1.57Z"/>
    <path class="cls-5" d="M225.08,156.89c-.07.16-3.2-1.64-7.49-2.42-4.29-.83-7.83-.09-7.85-.26-.01-.06.85-.33,2.29-.49,1.44-.17,3.47-.17,5.66.23,2.18.41,4.08,1.12,5.38,1.75,1.31.63,2.04,1.14,2.01,1.2Z"/>
    <path class="cls-5" d="M236.91,170.16s-.04.09-.14.26c-.1.16-.25.4-.47.7-.43.6-1.1,1.45-2.03,2.45-1.86,2-4.84,4.55-8.81,6.91l.12-.18c-.16,1.03-.93,1.76-1.72,2.3-.8.56-1.71.98-2.65,1.33-1.89.7-3.96,1.18-6.13,1.26-3.83.15-7.39-.58-10.63-.96-1.62-.21-3.24-.59-4.45-1.53-1.21-.92-1.95-2.16-2.4-3.33-.89-2.39-.74-4.47-.7-5.84.04-.69.09-1.23.13-1.59.04-.36.07-.55.09-.55.02,0,.02.19.02.56,0,.42-.02.95-.03,1.59.01,1.36-.06,3.42.84,5.69.46,1.11,1.18,2.28,2.32,3.12,1.12.86,2.65,1.21,4.25,1.4,3.25.35,6.81,1.06,10.54.91,2.11-.08,4.13-.54,5.97-1.22.92-.34,1.79-.74,2.55-1.26.75-.5,1.41-1.17,1.53-1.95l.02-.12.1-.06c3.95-2.31,6.94-4.78,8.84-6.7.95-.96,1.65-1.77,2.11-2.34.46-.57.7-.88.72-.86Z"/>
    <path class="cls-5" d="M206.89,157.76s.24.22.56.7c.32.48.73,1.23,1.08,2.21.73,1.96,1.04,4.91.52,8.03-.24,1.55-.53,3.04-1.01,4.34-.46,1.3-1.11,2.4-1.8,3.19-.69.79-1.39,1.29-1.89,1.58-.51.28-.81.4-.82.37-.07-.1,1.16-.61,2.43-2.19.62-.78,1.21-1.84,1.63-3.11.44-1.26.71-2.72.95-4.26.51-3.07.27-5.91-.35-7.84-.6-1.94-1.38-2.98-1.29-3.03Z"/>
    <g class="cls-8">
      <path d="M227.61,162.41c-1.51-3.07-4.4-5.31-7.59-6.57-3.19-1.25-6.66-1.61-10.08-1.65,7.77,1.3,13.34,3.74,16.03,9.19.26.52.64,1.15,1.22,1.09.41-.04.71-.46.74-.88.03-.41-.13-.82-.31-1.19Z"/>
    </g>
  </g>
  <path class="cls-10" d="M172.09,55.74s-2.02,3.43-.36,4.9c1.66,1.47,5.99.82,6.15-4.7-4.43-2.01-5.79-.2-5.79-.2Z"/>
  <path class="cls-10" d="M187.73,57.08s-2.02,3.43-.36,4.9c1.66,1.47,5.99.82,6.15-4.7-4.43-2.01-5.79-.2-5.79-.2Z"/>
  <g>
    <path class="cls-15" d="M171.98,57.23c-.02.78.62,1.44,1.43,1.48.81.04,1.49-.56,1.51-1.34.02-.78-.62-1.44-1.43-1.48-.81-.04-1.49.56-1.51,1.34Z"/>
    <path class="cls-5" d="M172.09,55.62c.17.2,1.32-.58,2.9-.52,1.58.04,2.71.9,2.89.72.09-.08-.08-.44-.58-.82-.48-.39-1.32-.78-2.3-.81-.99-.03-1.83.3-2.32.65-.5.35-.68.69-.59.78Z"/>
  </g>
  <g>
    <path class="cls-15" d="M187.63,58.75c-.02.78.62,1.44,1.43,1.48.81.04,1.49-.56,1.51-1.34.02-.78-.62-1.44-1.43-1.48-.81-.04-1.49.56-1.51,1.34Z"/>
    <path class="cls-5" d="M187.69,57.2c.18.19,1.3-.64,2.88-.65,1.58-.03,2.75.78,2.92.58.08-.09-.1-.43-.61-.8-.5-.36-1.35-.72-2.34-.71-.99.01-1.81.38-2.29.75-.48.38-.65.72-.56.81Z"/>
  </g>
</svg>