<?xml version="1.0" encoding="UTF-8"?>
<svg xmlns="http://www.w3.org/2000/svg" viewBox="0 0 414.98 414.98">
  <defs>
    <style>
      .cls-1, .cls-2 {
        opacity: .6;
      }

      .cls-3, .cls-4, .cls-5 {
        fill: #fff;
      }

      .cls-3, .cls-6 {
        opacity: .2;
      }

      .cls-7, .cls-8 {
        fill: #fafafa;
      }

      .cls-9 {
        fill: #263238;
      }

      .cls-10 {
        fill: #f0f0f0;
      }

      .cls-11 {
        opacity: .3;
      }

      .cls-12 {
        fill: #37474f;
      }

      .cls-13, .cls-14 {
        opacity: .4;
      }

      .cls-15, .cls-16 {
        fill: #e0e0e0;
      }

      .cls-17 {
        fill: #455a64;
      }

      .cls-2, .cls-18, .cls-14 {
        fill: #cc2936;
      }

      .cls-5 {
        opacity: .25;
      }

      .cls-19 {
        opacity: .15;
      }

      .cls-8 {
        fill-rule: evenodd;
      }

      .cls-16 {
        opacity: .45;
      }

      .cls-20 {
        opacity: .5;
      }
    </style>
  </defs>
  <g id="Floor">
    <circle class="cls-19" cx="207.49" cy="207.49" r="207.49"/>
  </g>
  <g id="Shadows">
    <path id="Shadow" class="cls-15" d="M251.38,371.47c-1.24,0-3.08-.21-4.83-1.22l-10.15-5.86-20.74,5.45c-.49.13-1,.2-1.5.2-2.25,0-4.26-1.27-5.25-3.3-.98-2.03-.73-4.39.67-6.16l6.31-8.02-7.22-4.17c-2.09-1.21-3.34-3.23-3.34-5.42s1.25-4.22,3.34-5.42l119.05-68.73c1.38-.8,3.05-1.22,4.83-1.22s3.44.42,4.83,1.22l37.88,21.87c2.09,1.21,3.33,3.23,3.34,5.42,0,2.19-1.25,4.22-3.33,5.42l-119.05,68.73c-1.75,1.01-3.59,1.22-4.83,1.22Z"/>
  </g>
  <g id="Icon">
    <path id="Icon-2" data-name="Icon" class="cls-18" d="M227.77,48.74c1.46-2.25,3.23-3.49,4.82-3.61l7.98-27.64c-.48-.28-.91-.7-1.27-1.28-1.77-2.87-1.13-8.38,1.42-12.31,2.56-3.93,6.07-4.79,7.84-1.93,1.77,2.87,1.13,8.38-1.42,12.31-1.46,2.25-3.23,3.49-4.82,3.61l-7.98,27.64c.48.28.91.7,1.27,1.28s.61,1.28.78,2.04l17.72-11.87c.12-2.49.95-5.25,2.41-7.5,2.56-3.93,6.07-4.79,7.84-1.93,1.77,2.87,1.13,8.38-1.42,12.31-2.56,3.93-6.07,4.79-7.84,1.93-.36-.58-.61-1.28-.78-2.04l-17.72,11.87c-.12,2.49-.95,5.25-2.41,7.5-2.56,3.93-6.07,4.79-7.84,1.93s-1.13-8.38,1.42-12.31Z"/>
  </g>
  <g id="Button">
    <g id="Button-2" data-name="Button">
      <g>
        <path class="cls-12" d="M167.66,413.91l-37.88-21.87c-1.41-.81-2.54-2.78-2.54-4.41v-5.15c0-1.62,1.14-3.6,2.54-4.41l42.66-24.63c1.41-.81,3.68-.81,5.09,0l37.88,21.87c1.41.81,2.54,2.78,2.54,4.41v5.15c0,1.62-1.14,3.6-2.54,4.41l-42.66,24.63c-1.41.81-3.68.81-5.09,0Z"/>
        <path class="cls-17" d="M172.44,353.44l-42.66,24.63c-1.41.81-1.41,2.13,0,2.94l37.88,21.87c1.41.81,3.68.81,5.09,0l42.65-24.63c1.41-.81,1.41-2.13,0-2.94l-37.88-21.87c-1.41-.81-3.68-.81-5.09,0Z"/>
        <path class="cls-9" d="M170.21,403.49v11.02c-.92,0-1.84-.2-2.55-.6l-37.88-21.88c-1.41-.8-2.55-2.78-2.55-4.4v-5.16c0-1.44.89-3.15,2.08-4.08-.92.8-.77,1.9.47,2.61l37.88,21.88c.7.41,1.62.61,2.55.61Z"/>
        <path class="cls-4" d="M166.64,379.93c.34-1.39,2.74-2.78,5.15-2.97l2.25-.19c1.25-.1,2.4-.77,2.58-1.49.18-.72-.69-1.22-1.93-1.12l-2.25.19c-2.41.2-4.81.93-6.75,2.05-1.95,1.12-3.21,2.51-3.55,3.9l-2.09,8.46c-.71,2.87,2.76,4.87,7.73,4.46l2.25-.19c2.41-.2,4.81-.93,6.75-2.05,1.95-1.12,3.2-2.51,3.55-3.9l.99-4c.18-.72-.69-1.22-1.93-1.11-1.25.1-2.4.77-2.58,1.49l-.99,4c-.34,1.39-2.74,2.77-5.15,2.97l-2.25.19c-2.48.2-4.22-.8-3.86-2.23l2.09-8.46h0ZM183.06,376.02l2.09-8.46c.35-1.39-.27-2.62-1.73-3.46-1.46-.84-3.59-1.2-6-1l-2.26.18c-2.41.2-4.81.93-6.75,2.05-1.94,1.12-3.21,2.51-3.55,3.9l-.9,3.65c-.18.72.69,1.22,1.93,1.12,1.25-.1,2.4-.77,2.58-1.49l.9-3.65c.17-.7.8-1.39,1.77-1.95.97-.56,2.17-.93,3.38-1.02l2.25-.19c1.2-.1,2.27.08,3,.5.73.42,1.04,1.04.86,1.73l-2.09,8.46c-.34,1.39-2.74,2.78-5.15,2.97-1.25.1-2.4.77-2.58,1.49-.18.72.68,1.22,1.93,1.12,2.41-.2,4.81-.93,6.75-2.05,1.95-1.12,3.21-2.51,3.55-3.9h0ZM183.06,376.02"/>
      </g>
      <g id="Arrow">
        <g>
          <path class="cls-4" d="M236.43,368.69l-39.13,3.06c-.81.06-1.46.77-1.46,1.58v2.58c0,.81.59,1.76,1.32,2.12l24.88,12.23c.73.36,1.4,0,1.5-.81l.51-4c.1-.8.84-1.36,1.64-1.24l11.96,1.76c.8.12,1.88-.28,2.41-.9l1.81-2.1c.53-.61.96-1.77.96-2.58v-2.58c0-.81-.65-1.57-1.45-1.68l-5.62-.83s.48-.27,1.07-.6c.59-.33,1.07-1.26,1.07-2.07v-2.58c0-.81-.66-1.42-1.46-1.35Z"/>
          <path class="cls-5" d="M236.43,368.69l-39.13,3.06c-.81.06-1.46.77-1.46,1.58v2.58c0,.81.59,1.76,1.32,2.12l24.88,12.23c.73.36,1.4,0,1.5-.81l.51-4c.1-.8.84-1.36,1.64-1.24l11.96,1.76c.8.12,1.88-.28,2.41-.9l1.81-2.1c.53-.61.96-1.77.96-2.58v-2.58c0-.81-.65-1.57-1.45-1.68l-5.62-.83s.48-.27,1.07-.6c.59-.33,1.07-1.26,1.07-2.07v-2.58c0-.81-.66-1.42-1.46-1.35Z"/>
        </g>
        <path class="cls-3" d="M238.8,380.32v5.51c-.39.13-.81.19-1.17.14l-11.95-1.76c-.31-.05-.6.03-.85.16v-5.55c.26-.13.55-.18.85-.13l11.95,1.76c.36.05.78,0,1.17-.13Z"/>
        <path class="cls-3" d="M222.77,384.86v5.52c-.23.05-.48.01-.74-.12l-24.88-12.23c-.73-.36-1.32-1.31-1.32-2.12v-2.58c0-.61.37-1.16.89-1.43-.18.15-.03.38.43.61l24.88,12.23c.26.13.52.16.74.12Z"/>
        <path class="cls-16" d="M236.43,368.69l-39.13,3.06c-.81.06-.87.4-.15.76l24.88,12.23c.73.36,1.4,0,1.5-.81l.51-4c.1-.81.84-1.36,1.64-1.24l11.96,1.76c.8.12,1.88-.28,2.41-.9l1.81-2.1c.53-.61.31-1.21-.49-1.33l-11.96-1.76c-.8-.12-.88-.54-.17-.93l7.37-4.14c.71-.4.62-.67-.18-.61Z"/>
      </g>
    </g>
    <g id="Speech_Bubble" data-name="Speech Bubble">
      <g id="Speech_Bubble-2" data-name="Speech Bubble">
        <path class="cls-15" d="M208.41,340.73v-5.15c0-1.62,1.14-3.6,2.54-4.41l119.05-68.73c1.41-.81,3.68-.81,5.09,0l37.88,21.87c1.41.81,2.54,2.78,2.54,4.41v5.15c0,1.62-1.14,3.6-2.54,4.41l-119.05,68.73c-1.41.81-3.68.81-5.09,0l-37.88-21.87c-1.41-.81-2.54-2.78-2.54-4.41Z"/>
        <path class="cls-10" d="M375.51,288.72v5.15c0,1.62-1.14,3.6-2.55,4.41l-119.04,68.73c-.7.41-1.62.61-2.55.61v-11.03c.92,0,1.84-.21,2.55-.61l119.04-68.73c1.23-.71,1.39-1.81.47-2.61,1.19.93,2.08,2.64,2.08,4.08Z"/>
        <path class="cls-10" d="M222.76,351.95l-.03-.02-.02.02-9.83,1.91v11.05h0c.02.76.73,1.44,1.61,1.21l22.56-5.92v-11.03l-14.3,2.77Z"/>
        <g>
          <path class="cls-7" d="M251.38,356.13c-.88,0-1.71-.19-2.32-.55l-11.94-6.9-22.74,5.97c-.08.02-.15.03-.23.03-.37,0-.62-.25-.73-.47-.07-.14-.19-.5.1-.87l9.89-12.58-12.24-7.06c-.52-.3-.83-.69-.83-1.07s.3-.77.83-1.07l119.05-68.73c.61-.35,1.43-.55,2.32-.55s1.71.19,2.32.55l37.88,21.87c.52.3.83.69.83,1.07s-.3.77-.83,1.07l-119.05,68.73c-.61.35-1.43.55-2.32.55Z"/>
          <path class="cls-15" d="M332.54,262.74c.79,0,1.55.18,2.09.49l37.88,21.87c.37.21.6.47.6.68s-.23.47-.6.68l-119.05,68.73c-.54.31-1.3.49-2.09.49s-1.55-.18-2.09-.49l-11.78-6.8-.33-.19-.36.1-22.56,5.92s-.08.02-.11.02c-.16,0-.27-.11-.32-.22-.06-.13-.05-.26.05-.38l9.57-12.16.65-.83-.91-.53-11.78-6.8c-.37-.21-.6-.47-.6-.68s.23-.47.6-.68l119.05-68.73c.54-.31,1.3-.49,2.09-.49M332.54,261.83c-.92,0-1.84.2-2.54.61l-119.05,68.73c-1.41.81-1.41,2.13,0,2.94l11.78,6.8-9.57,12.16c-.69.87-.02,2.08.99,2.08.11,0,.22-.01.34-.05l22.56-5.92,11.78,6.8c.7.41,1.62.61,2.55.61s1.84-.2,2.54-.61l119.05-68.73c1.41-.81,1.41-2.13,0-2.94l-37.88-21.87c-.7-.41-1.62-.61-2.55-.61h0Z"/>
        </g>
      </g>
      <g>
        <path class="cls-18" d="M249.15,342.59c-1.13.35-2.13.51-2.98.48-.56-.05-1-.17-1.31-.35-.51-.29-.89-.67-1.14-1.13-.25-.46-.22-.78.11-.97.14-.08.47-.16.97-.24.5-.08.86-.14,1.07-.18,1.07-.2,1.88-.46,2.42-.77.56-.32.91-.68,1.06-1.08.14-.4-.11-.78-.76-1.16-.49-.28-1.02-.46-1.58-.53-.56-.07-1.11-.08-1.65-.02-.53.06-1.26.16-2.19.32-2.16.35-3.98.44-5.47.3-1.49-.15-2.96-.64-4.43-1.49-1.63-.94-2.39-1.98-2.27-3.12.12-1.14,1.04-2.2,2.76-3.19.62-.36,1.36-.68,2.24-.97.88-.29,1.64-.46,2.3-.53.56-.05,1.04.04,1.44.27.47.27.87.62,1.18,1.04.32.42.32.72.01.9-.15.08-.48.19-1.01.33-.98.25-1.7.51-2.17.79-.73.42-1.07.8-1.03,1.13.04.34.25.62.65.85.67.39,1.36.58,2.07.58s1.65-.1,2.83-.3l.98-.16c1.98-.3,3.66-.37,5.04-.21,1.39.16,2.76.64,4.12,1.42,1.01.59,1.74,1.25,2.16,2,.43.75.46,1.53.1,2.35-.36.82-1.2,1.6-2.5,2.35-.89.51-1.9.94-3.03,1.3Z"/>
        <path class="cls-18" d="M258.81,336.27l-18.82-10.86c-.58-.33-.34-.81.71-1.41l.92-.53c1.05-.61,1.87-.74,2.45-.41l7.04,4.07c-.14-.54-.1-1.08.12-1.61.23-.53.7-1,1.43-1.42,1-.58,2.08-.83,3.25-.76s2.37.46,3.6,1.17l9.84,5.68c.58.34.34.81-.71,1.41l-.92.53c-1.05.61-1.87.74-2.45.41l-8.92-5.15c-.47-.27-.9-.43-1.29-.46-.39-.04-.78.05-1.16.27-.51.29-.66.72-.46,1.27l9.44,5.45c.58.34.34.81-.71,1.41l-.92.53c-1.05.61-1.87.74-2.45.41Z"/>
        <path class="cls-18" d="M272.5,328.24c-1.4-.07-2.77-.48-4.09-1.25-3.39-1.96-2.96-4.15,1.28-6.58l-.44-.25c-.58-.34-1.14-.51-1.68-.52-.54,0-1.11.15-1.69.49-.4.23-.7.46-.91.7-.21.24-.41.52-.61.84-.11.23-.23.38-.35.46-.18.1-.52.14-1.01.11-.49-.03-.99-.1-1.51-.21-.52-.11-.87-.22-1.07-.34-.31-.18-.39-.47-.25-.88.14-.41.48-.85.99-1.34.52-.49,1.13-.93,1.84-1.34,1.89-1.09,3.67-1.64,5.36-1.65,1.69,0,3.26.41,4.73,1.26l4.95,2.86c.83.48,1.49.83,1.97,1.06.48.23,1.02.47,1.62.73.29.11.52.21.68.3.29.17.14.51-.45,1.01-.59.51-1.17.92-1.73,1.25-.29.17-.6.22-.94.16-.34-.06-.81-.19-1.43-.4.16.37.15.79-.03,1.27-.18.48-.62.93-1.33,1.33-1.2.69-2.5,1-3.9.93ZM275.28,324.32c.08-.24.06-.47-.07-.71l-3.18-1.84c-1.81,1.05-1.91,2.04-.3,2.97.51.29,1.03.46,1.56.49.53.04,1.01-.07,1.43-.31.29-.17.48-.37.56-.6Z"/>
        <path class="cls-18" d="M285.19,321.05l-8.67-5.01c-.8-.46-1.43-.8-1.9-1.02-.47-.22-1.01-.46-1.6-.72-.31-.12-.52-.21-.65-.28-.29-.17-.14-.5.45-1.01.59-.51,1.16-.92,1.73-1.25.33-.19.68-.25,1.06-.17.38.07.75.18,1.12.31.36.14.61.23.73.28-.38-.51-.59-.97-.62-1.38-.04-.41.21-.76.73-1.07.54-.31,1.07-.44,1.56-.38.5.06.94.2,1.32.42.4.23.84.56,1.32,1,.48.43.62.71.42.82-.11.06-.34.15-.68.27-.34.11-.62.23-.82.34-.34.2-.51.44-.49.72.02.28.17.57.46.86l8.57,4.95c.58.34.33.82-.76,1.44l-.76.44c-1.09.63-1.92.77-2.5.44Z"/>
        <path class="cls-18" d="M294.15,314.95c-2.22-.13-4.52-.88-6.89-2.25-2.68-1.55-4.1-2.94-4.24-4.16s.68-2.35,2.47-3.39c1.78-1.03,3.69-1.41,5.74-1.15,2.05.26,4.26,1.08,6.63,2.45.22.13.35.42.41.88.05.46,0,.74-.19.85l-5.17,2.98c.96.51,1.83.77,2.6.78.77,0,1.48-.18,2.13-.56.4-.23.71-.47.92-.72.22-.25.4-.51.56-.78.15-.27.27-.42.34-.46.18-.1.52-.15,1.01-.13.49.02.98.08,1.47.19.49.1.83.21,1.01.31.42.24.52.58.31,1.03-.21.45-.57.9-1.09,1.37-.52.47-1.03.85-1.54,1.14-2.1,1.21-4.27,1.75-6.48,1.62ZM293.37,308.1c-1.29-.74-2.32-1.21-3.09-1.41-.77-.19-1.41-.14-1.92.15-.49.28-.6.65-.34,1.11.26.46,1.03,1.09,2.3,1.91l3.05-1.76Z"/>
        <path class="cls-18" d="M310.95,306.82c-.34,0-.69-.12-1.07-.34l-17.13-9.89c-.58-.33-.34-.81.71-1.41l1.09-.63c1.05-.61,1.87-.74,2.45-.41l14.66,8.46,4.05-2.34c.29-.17.61-.23.95-.17s.75.21,1.22.49l.84.49c.47.27.75.51.84.71.09.2,0,.38-.3.55l-7.29,4.21c-.34.2-.68.3-1.02.29Z"/>
        <path class="cls-18" d="M305.55,291.08l-1.63-.94c-.58-.34-.26-.85.95-1.55,1.27-.73,2.19-.93,2.77-.6l1.63.94c.58.34.26.85-.95,1.55-1.27.73-2.19.93-2.77.6ZM321.13,300.29l-12.59-7.27c-.58-.34-.33-.82.76-1.44l.76-.44c1.09-.63,1.92-.78,2.5-.44l12.59,7.27c.58.34.33.82-.76,1.44l-.76.44c-1.09.63-1.92.77-2.5.44Z"/>
        <path class="cls-18" d="M327.96,296.35l-8.67-5.01c-1.29-.74-2.25-1.25-2.88-1.51-.63-.26-1.01-.43-1.14-.5-.33-.19-.19-.55.42-1.07.61-.53,1.19-.96,1.75-1.28.34-.2.67-.27.98-.22.31.05.64.16,1.01.31.36.16.65.28.87.36-.2-.58-.19-1.15.03-1.73.22-.57.71-1.08,1.47-1.52,1-.57,2.08-.83,3.24-.75,1.16.07,2.36.47,3.59,1.18l9.84,5.68c.58.34.34.81-.71,1.41l-.93.53c-1.05.61-1.87.74-2.45.41l-8.92-5.15c-.47-.27-.89-.43-1.26-.48s-.75.04-1.13.26c-.49.28-.65.71-.49,1.29l9.43,5.45c.29.17.38.37.27.6-.11.23-.43.5-.95.8l-.95.55c-1.03.6-1.84.73-2.42.39Z"/>
        <path class="cls-18" d="M352.29,282.81c.29.17-.04.52-.98,1.07l-1.52.88c-.34.2-.62.32-.83.35-.21.04-.46.02-.75-.04l-8.65-2.2-.3.17,5.87,3.39c.58.34.34.81-.71,1.41l-.87.5c-1.05.61-1.87.74-2.45.41l-18.82-10.86c-.58-.34-.34-.81.71-1.41l.87-.5c1.05-.61,1.87-.74,2.45-.41l11.31,6.53.14-.08-3.13-4.47c-.13-.2-.16-.35-.1-.45.07-.1.28-.25.64-.46l1.41-.82c.98-.57,1.62-.76,1.93-.58.11.06.24.21.38.44l3.24,4.82,9.43,2.09c.34.07.58.15.71.22Z"/>
      </g>
    </g>
  </g>
  <g id="Device">
    <g id="Mobile">
      <g id="Mobile-2" data-name="Mobile">
        <g>
          <path d="M208.48,302.96V31.51c0-7.41-3.68-9.45-6.95-11.33-3.27-1.89-8.64-3.03-13.29-.35l-118.84,68.61c-4.64,2.68-8.41,9.2-8.41,14.56v271.45c0,5.36,3.36,8.52,6.63,10.41,3.27,1.89,8.96,3.96,13.6,1.28l118.84-68.62c4.64-2.68,8.4-7.09,8.4-14.56Z"/>
          <path class="cls-11" d="M208.48,302.96V31.51c0-7.41-3.68-9.45-6.95-11.33-3.27-1.89-8.64-3.03-13.29-.35l-118.84,68.61c-4.64,2.68-8.41,9.2-8.41,14.56v271.45c0,5.36,3.36,8.52,6.63,10.41,3.27,1.89,8.96,3.96,13.6,1.28l118.84-68.62c4.64-2.68,8.4-7.09,8.4-14.56Z"/>
          <path d="M200.92,305.68l-122.21,70.56.04-272.7-15.29-8.83c-1.52,2.63-2.46,5.6-2.46,8.28v271.45c0,5.36,3.36,8.52,6.63,10.41,3.27,1.89,8.96,3.96,13.6,1.28l118.85-68.62c2.9-1.67,5.77-4.19,7.28-8.12,0,0-.47-.27-.47-.27l-5.96-3.44Z"/>
          <path class="cls-20" d="M200.92,305.68l-122.21,70.56.04-272.7-15.29-8.83c-1.52,2.63-2.46,5.6-2.46,8.28v271.45c0,5.36,3.36,8.52,6.63,10.41,3.27,1.89,8.96,3.96,13.6,1.28l118.85-68.62c2.9-1.67,5.77-4.19,7.28-8.12,0,0-.47-.27-.47-.27l-5.96-3.44Z"/>
        </g>
        <path d="M199.85,29.02l-119.19,68.81c-3.25,1.87-5.9,6.47-5.9,10.21v269.12c0,5.75,4.09,8.11,9.07,5.23l116.02-66.98c3.68-2.12,6.68-7.33,6.68-11.58V32.88c0-4.25-3.01-5.98-6.68-3.86Z"/>
        <path class="cls-6" d="M199.85,29.02l-119.19,68.81c-3.25,1.87-5.9,6.47-5.9,10.21v269.12c0,5.75,4.09,8.11,9.07,5.23l116.02-66.98c3.68-2.12,6.68-7.33,6.68-11.58V32.88c0-4.25-3.01-5.98-6.68-3.86Z"/>
        <g>
          <g>
            <path d="M72.02,137.52c0-2.11-1.39-4.63-3.11-5.62-.83-.48-1.58-.51-2.13-.18-.39.24-1.92,1.09-2.33,1.33-.59.35-.96,1.12-.96,2.21v23.45c0,2.11,1.39,4.63,3.11,5.62.79.46,1.51.5,2.05.22.43-.23,2-1.13,2.4-1.37.59-.35.96-1.12.96-2.21v-23.45Z"/>
            <path class="cls-11" d="M72.02,137.52c0-2.11-1.39-4.63-3.11-5.62-.83-.48-1.58-.51-2.13-.18-.39.24-1.92,1.09-2.33,1.33-.59.35-.96,1.12-.96,2.21v23.45c0,2.11,1.39,4.63,3.11,5.62.79.46,1.51.5,2.05.22.43-.23,2-1.13,2.4-1.37.59-.35.96-1.12.96-2.21v-23.45Z"/>
            <path d="M69.71,138.86v23.45c0,2.11-1.39,3.02-3.11,2.03-1.72-.99-3.11-3.51-3.11-5.62v-23.45c0-2.11,1.39-3.02,3.11-2.03,1.72.99,3.11,3.51,3.11,5.62Z"/>
            <path class="cls-13" d="M69.71,138.86v23.45c0,2.11-1.39,3.02-3.11,2.03-1.72-.99-3.11-3.51-3.11-5.62v-23.45c0-2.11,1.39-3.02,3.11-2.03,1.72.99,3.11,3.51,3.11,5.62Z"/>
          </g>
          <g>
            <path d="M72.02,178.57c0-2.11-1.39-4.63-3.11-5.62-.83-.48-1.58-.51-2.13-.18-.39.23-1.92,1.09-2.33,1.33-.59.35-.96,1.12-.96,2.21v23.45c0,2.11,1.39,4.63,3.11,5.62.79.46,1.51.5,2.05.22.43-.23,2-1.13,2.4-1.37.59-.35.96-1.12.96-2.21v-23.45Z"/>
            <path class="cls-11" d="M72.02,178.57c0-2.11-1.39-4.63-3.11-5.62-.83-.48-1.58-.51-2.13-.18-.39.23-1.92,1.09-2.33,1.33-.59.35-.96,1.12-.96,2.21v23.45c0,2.11,1.39,4.63,3.11,5.62.79.46,1.51.5,2.05.22.43-.23,2-1.13,2.4-1.37.59-.35.96-1.12.96-2.21v-23.45Z"/>
            <path d="M69.71,179.9v23.45c0,2.11-1.39,3.02-3.11,2.03-1.72-.99-3.11-3.51-3.11-5.62v-23.45c0-2.11,1.39-3.02,3.11-2.03,1.72.99,3.11,3.51,3.11,5.62Z"/>
            <path class="cls-13" d="M69.71,179.9v23.45c0,2.11-1.39,3.02-3.11,2.03-1.72-.99-3.11-3.51-3.11-5.62v-23.45c0-2.11,1.39-3.02,3.11-2.03,1.72.99,3.11,3.51,3.11,5.62Z"/>
          </g>
        </g>
      </g>
      <g id="Window-2" data-name="Window">
        <path class="cls-7" d="M200.72,46.52v250.5c0,4.05-2.85,9-6.35,11.01l-107.45,62.04c-3.5,2.04-6.35.4-6.35-3.66V113.94c0-3.28,1.86-7.15,4.45-9.57.2-.18.4-.37.6-.54.42-.33.85-.63,1.29-.88l30.22-17.45s.88-.51,1.97-1.14c1.09-.63,1.97-.13,1.97,1.14s.94,1.74,2.11,1.06l35.22-20.33c1.15-.67,2.11-2.23,2.11-3.48,0-1.17.78-2.6,1.77-3.3.07-.05.14-.09.2-.13l29.56-17.06.63-.37c4.43-2.55,8.04-.47,8.04,4.64Z"/>
        <path class="cls-17" d="M200.72,57.66v-12.05c0-5.1-3.61-7.19-8.04-4.64l-.63.37-29.56,17.06c-.07.04-.14.08-.2.13-.99.7-1.77,2.13-1.77,3.3,0,1.25-.95,2.81-2.11,3.48l-35.22,20.33c-1.16.68-2.11.19-2.11-1.06s-.88-1.77-1.97-1.14c-1.09.62-1.97,1.14-1.97,1.14l-30.22,17.45c-.44.25-.87.55-1.29.88-.2.17-.4.36-.6.54-2.59,2.42-4.45,6.29-4.45,9.57v13.99l120.14-69.36Z"/>
        <g>
          <g>
            <path class="cls-7" d="M98.26,110.67s-.03-.07-.03-.15v-.75l-1.17.68c-.06.04-.1,0-.1-.1v-.27c0-.06,0-.11.01-.15,0-.04.02-.09.04-.14l1.25-3.4c.02-.06.04-.11.06-.13.02-.03.04-.05.08-.07l.16-.09s.08-.03.11,0c.02.03.03.08.03.16v2.62l.26-.15s.08-.03.1,0c.02.03.03.08.03.16v.18c0,.08,0,.14-.03.19-.02.05-.05.08-.1.11l-.26.15v.75c0,.08-.01.14-.03.19-.02.05-.06.09-.11.12l-.2.11s-.08.03-.11,0ZM98.31,109.08v-1.87l-.85,2.36.85-.49Z"/>
            <path class="cls-7" d="M99.65,109.41c-.23-.27-.34-.78-.34-1.53s.12-1.39.35-1.93c.23-.54.55-.93.97-1.17.17-.1.32-.16.47-.18.15-.02.27,0,.36.05.02.01.03.04.03.07,0,.02,0,.05-.01.09l-.11.39s-.03.08-.04.09c0,0-.02,0-.05,0-.17-.07-.37-.04-.6.1-.28.16-.5.43-.66.81-.16.38-.24.85-.24,1.42s.08.96.23,1.15c.15.19.37.21.64.05.1-.06.19-.13.29-.21.09-.08.17-.17.23-.25v-1.22l-.49.28s-.08.03-.1,0c-.02-.03-.03-.08-.03-.16v-.17c0-.08,0-.15.03-.19.02-.04.05-.08.1-.11l.78-.45c.05-.03.09-.03.12,0,.02.03.04.1.04.19v1.74c0,.07,0,.12-.01.15,0,.04-.02.08-.05.12-.23.39-.54.69-.93.92-.42.24-.74.23-.97-.04Z"/>
          </g>
          <g>
            <path class="cls-7" d="M109.53,103.43c0,.58-.3,1.22-.68,1.44-.38.22-.68-.08-.68-.65s.3-1.22.68-1.44c.38-.22.68.08.68.65Z"/>
            <path class="cls-7" d="M108.85,101.06c-.69.4-1.28,1.33-1.58,2.37-.06.21-.03.41.07.48h0c.13.08.32-.09.4-.35.21-.74.63-1.4,1.11-1.68.48-.28.9-.1,1.11.39.08.18.27.13.4-.1h0c.1-.18.13-.42.07-.56-.3-.7-.9-.94-1.58-.55Z"/>
            <path class="cls-7" d="M108.85,99.39c-1.02.59-1.92,1.93-2.43,3.46-.08.23-.05.45.06.52h0c.12.08.31-.07.39-.33.42-1.25,1.15-2.35,1.98-2.83.83-.48,1.57-.23,1.98.54.08.16.27.11.39-.12h0c.11-.2.13-.45.06-.59-.51-.94-1.41-1.24-2.43-.66Z"/>
          </g>
          <g>
            <path class="cls-7" d="M134.93,86.35s-.03-.07-.02-.12c0-.05.02-.1.05-.15l.98-1.75s.05-.08.07-.12c.03-.04.05-.07.08-.09l.35-.2s.06-.02.09,0c.02.02.04.06.04.11v4.48s-.01.1-.04.15c-.02.05-.05.09-.09.1l-.36.21s-.06.02-.09,0c-.02-.02-.04-.06-.04-.11v-3.42l-.64,1.14s-.06.08-.09.09c-.03.01-.06,0-.08-.03l-.21-.29Z"/>
            <path class="cls-7" d="M137.21,85.03s-.03-.07-.02-.12c0-.05.02-.1.05-.15l.98-1.75s.05-.08.07-.12c.02-.04.05-.07.08-.09l.35-.2s.06-.02.09,0c.02.02.04.06.04.11v4.48c0,.05-.01.1-.04.15-.02.05-.05.09-.09.1l-.36.21s-.06.02-.09,0c-.02-.02-.04-.06-.04-.11v-3.42l-.64,1.14s-.06.08-.09.09c-.03.01-.06,0-.08-.03l-.21-.29Z"/>
            <path class="cls-7" d="M140.2,83.11s.06-.02.09,0c.02.02.04.06.04.11v.68c0,.05-.01.1-.04.15-.02.05-.05.09-.09.1l-.42.24s-.06.02-.09,0c-.02-.02-.04-.06-.04-.11v-.68c0-.05.01-.1.04-.15.02-.05.05-.09.09-.1l.42-.24ZM140.2,85.54s.06-.02.09,0c.02.02.04.06.04.11v.68c0,.05-.01.1-.04.15-.02.05-.05.09-.09.1l-.42.24s-.06.02-.09,0c-.02-.02-.04-.06-.04-.11v-.68c0-.05.01-.1.04-.15.02-.05.05-.09.09-.1l.42-.24Z"/>
            <path class="cls-7" d="M142.6,85.2s-.06.02-.09,0c-.02-.02-.04-.06-.04-.11v-.84l-1.4.8s-.06.02-.09,0c-.02-.02-.04-.06-.04-.11v-.49c0-.06.01-.13.03-.19.02-.06.04-.13.07-.2l1.38-3.44c.06-.15.12-.24.18-.28l.34-.2s.06-.02.09,0c.02.02.04.06.04.11v2.77l.39-.22s.06-.02.09,0c.02.02.04.06.04.11v.49c0,.05-.01.1-.04.15-.02.05-.05.09-.09.1l-.39.22v.84s-.01.1-.04.15c-.02.05-.05.09-.09.1l-.36.21ZM142.48,83.38v-1.48l-.77,1.93.77-.44Z"/>
            <path class="cls-7" d="M144.41,79.5c0-.05.01-.1.04-.15.02-.05.05-.09.09-.1l1.69-.98s.06-.02.09,0c.02.02.04.06.04.11v.49s-.01.1-.04.15c-.02.05-.05.09-.09.11l-1.26.73-.05.92c.08-.1.16-.17.24-.23.08-.05.14-.1.2-.13.17-.1.32-.15.47-.17.14-.01.27.02.37.09.1.08.19.2.25.36.06.16.09.37.09.63,0,.3-.03.57-.09.81-.06.25-.15.47-.25.67-.11.2-.23.37-.38.51-.14.15-.3.27-.46.36-.21.12-.38.19-.53.2-.15.01-.27-.02-.37-.09-.1-.07-.17-.17-.22-.31-.05-.14-.08-.29-.08-.47,0-.05,0-.1.03-.15.03-.05.05-.08.09-.1l.36-.21s.06-.02.08,0c.02.02.04.05.05.09.02.1.05.17.09.21.04.04.08.07.13.08.05.01.11,0,.17-.02.06-.02.13-.05.2-.09.17-.1.31-.25.41-.45.11-.2.16-.43.16-.68,0-.21-.05-.35-.16-.43-.1-.08-.24-.07-.41.02-.09.05-.16.1-.21.15-.05.05-.1.1-.13.15-.03.05-.06.09-.09.12-.03.04-.06.07-.1.09l-.41.24s-.06.02-.09,0c-.02-.02-.04-.06-.04-.11l.13-2.43Z"/>
          </g>
          <g>
            <polygon class="cls-7" points="85.31 118.7 85.31 117.26 86.56 116.53 86.56 117.98 85.31 118.7"/>
            <polygon class="cls-7" points="87.19 117.62 87.19 114.73 88.44 114.01 88.44 116.9 87.19 117.62"/>
            <polygon class="cls-7" points="89.07 116.53 89.07 112.2 90.32 111.48 90.32 115.81 89.07 116.53"/>
            <polygon class="cls-7" points="90.94 115.45 90.94 109.67 92.19 108.95 92.19 114.73 90.94 115.45"/>
          </g>
          <g>
            <path class="cls-7" d="M195.37,50.49c-.13-.19-.3-.25-.46-.15l-4.67,2.69c-.3.17-.54.8-.54,1.42v2.63c0,.35.07.64.2.84.06.08.12.14.19.17.09.04.18.03.28-.02l4.67-2.69c.3-.18.54-.8.54-1.42v-2.63c0-.34-.07-.64-.2-.84ZM190.03,57.57c-.05-.07-.07-.21-.07-.38v-2.63c0-.46.19-.95.41-1.08l4.67-2.69c.05-.03.11-.04.15-.02.02.01.04.03.06.05.05.07.08.21.08.38v2.63c0,.46-.19.95-.41,1.08l-4.67,2.69c-.09.05-.16.04-.21-.03Z"/>
            <g>
              <path class="cls-7" d="M191.25,53.43v3.11l-.73.42c-.06.04-.14,0-.14-.08v-2.31c0-.33.14-.71.3-.81l.57-.33Z"/>
              <polygon class="cls-7" points="191.59 53.24 192.47 52.73 192.47 55.83 191.59 56.34 191.59 53.24"/>
              <polygon class="cls-7" points="192.81 52.54 193.69 52.03 193.69 55.15 192.81 55.65 192.81 52.54"/>
              <path class="cls-7" d="M194.9,51.54v2.24c0,.41-.22.8-.58,1l-.3.17v-3.11l.7-.4c.08-.04.18,0,.18.1Z"/>
            </g>
            <path class="cls-7" d="M195.75,51.25c.13-.08.23.3.23.84v.49c0,.54-.11,1.05-.24,1.14l-.24.16v-2.48s.11-.06.24-.14Z"/>
          </g>
          <polygon class="cls-7" points="182.6 59.18 187.15 55.15 185.74 61.06 185.08 58.6 182.6 59.18"/>
        </g>
        <path d="M144.69,65.59l-16.15,9.32c-.96.56-1.74,1.85-1.74,2.9s.78,1.44,1.74.88l16.15-9.32c.96-.56,1.74-1.85,1.74-2.9s-.78-1.44-1.74-.88ZM152.97,60.04c-1.09.63-1.96,2.15-1.96,3.4,0,1.25.88,1.76,1.96,1.13,1.09-.63,1.96-2.15,1.96-3.4,0-1.25-.88-1.76-1.96-1.13Z"/>
        <path class="cls-1" d="M144.69,65.59l-16.15,9.32c-.96.56-1.74,1.85-1.74,2.9s.78,1.44,1.74.88l16.15-9.32c.96-.56,1.74-1.85,1.74-2.9s-.78-1.44-1.74-.88ZM152.97,60.04c-1.09.63-1.96,2.15-1.96,3.4,0,1.25.88,1.76,1.96,1.13,1.09-.63,1.96-2.15,1.96-3.4,0-1.25-.88-1.76-1.96-1.13Z"/>
      </g>
      <g>
        <g id="Video">
          <g>
            <path class="cls-18" d="M92.98,133.13l95.05-54.88c2.16-1.25,3.91-.24,3.91,2.26v79.96c0,2.5-1.75,5.53-3.91,6.78l-95.05,54.88c-2.16,1.25-3.91.24-3.91-2.26v-79.96c0-2.5,1.75-5.53,3.91-6.78Z"/>
            <path class="cls-14" d="M92.98,133.13l95.05-54.88c2.16-1.25,3.91-.24,3.91,2.26v79.96c0,2.5-1.75,5.53-3.91,6.78l-95.05,54.88c-2.16,1.25-3.91.24-3.91-2.26v-79.96c0-2.5,1.75-5.53,3.91-6.78Z"/>
          </g>
          <g>
            <path class="cls-4" d="M132.95,181.46c-2.25,0-4.37-.55-6.28-1.65-5.24-3.03-8.25-9.89-8.25-18.84,0-8.25,2.56-17.42,7.02-25.15,1.48-2.56,3.16-4.94,4.99-7.05h0c2.61-3.02,5.42-5.4,8.37-7.1,5.62-3.25,11.14-3.64,15.53-1.11,5.24,3.03,8.25,9.89,8.25,18.84,0,8.25-2.56,17.42-7.02,25.15-3.6,6.24-8.35,11.26-13.36,14.16-3.18,1.84-6.32,2.76-9.24,2.76ZM132.74,130.76c-1.71,1.97-3.27,4.19-4.66,6.58-4.2,7.28-6.61,15.89-6.61,23.63s2.45,13.74,6.72,16.2c3.41,1.96,7.84,1.57,12.48-1.11,4.56-2.63,8.91-7.26,12.24-13.04,4.2-7.28,6.61-15.89,6.61-23.62s-2.45-13.74-6.72-16.2c-3.4-1.97-7.84-1.57-12.48,1.11-2.65,1.53-5.2,3.7-7.58,6.46h0Z"/>
            <path class="cls-4" d="M152.18,145.46l-17.13,21.31c-1.55,1.92-2.8,1.62-2.8-.69v-21.96c0-2.31,1.25-4.06,2.8-3.93l17.13,1.53c1.55.14,1.55,1.81,0,3.74Z"/>
          </g>
        </g>
        <g id="Video-2" data-name="Video">
          <g>
            <path class="cls-18" d="M188.02,261.2l-95.05,54.87c-2.16,1.25-3.91,4.28-3.91,6.78v37.15l29.38-16.96,3.12-1.8h0s10.68-6.17,10.68-6.17l18.27-10.54h0l8.89-5.14,2.88-1.66,29.64-17.11v-37.15c0-2.49-1.75-3.51-3.91-2.26Z"/>
            <path class="cls-14" d="M188.02,261.2l-95.05,54.87c-2.16,1.25-3.91,4.28-3.91,6.78v37.15l29.38-16.96,3.12-1.8h0s10.68-6.17,10.68-6.17l18.27-10.54h0l8.89-5.14,2.88-1.66,29.64-17.11v-37.15c0-2.49-1.75-3.51-3.91-2.26Z"/>
          </g>
          <g>
            <path class="cls-4" d="M154.33,303.5c-4.39-2.53-9.9-2.13-15.53,1.11-2.94,1.7-5.76,4.08-8.36,7.1-1.83,2.11-3.51,4.49-5,7.06-4.31,7.45-6.84,16.25-7,24.27l3.12-1.8h0c.49-7.01,2.8-14.5,6.52-20.95,1.38-2.39,2.95-4.61,4.65-6.58,2.39-2.76,4.94-4.93,7.59-6.46,4.64-2.68,9.08-3.07,12.48-1.11,3.71,2.14,6.06,6.89,6.6,13.25l2.88-1.66c-.87-6.68-3.67-11.74-7.96-14.22Z"/>
            <path class="cls-4" d="M150.51,324.52l-18.27,10.54v-8.01c0-2.3,1.26-4.07,2.81-3.92l15.46,1.38Z"/>
          </g>
        </g>
        <g>
          <path class="cls-15" d="M91.13,229.51l76.83-44.36c1.08-.62,1.96-.18,1.96.99,0,1.17-.88,2.62-1.96,3.25l-76.94,44.42c-1.08.62-1.93.17-1.9-1.02.03-1.19.93-2.66,2.01-3.28Z"/>
          <path class="cls-15" d="M91.13,237.99l37.51-21.67c1.08-.62,1.96-.18,1.96.99,0,1.17-.88,2.62-1.96,3.25l-37.62,21.73c-1.08.62-1.93.17-1.9-1.02.03-1.19.93-2.66,2.01-3.28Z"/>
          <path class="cls-15" d="M187.61,180.99c-.25,0-.49-.08-.7-.23l-3.17-2.4c-.51-.39-.61-1.11-.22-1.62.39-.51,1.11-.61,1.62-.22l2.08,1.57,2.54-4.85c.3-.57,1-.78,1.56-.49.57.3.78,1,.49,1.56l-3.17,6.06c-.16.3-.44.52-.77.59-.08.02-.17.03-.25.03Z"/>
        </g>
        <g>
          <g>
            <path class="cls-17" d="M89.22,262.93c-.06,0-.12-.02-.17-.04-.11-.06-.17-.17-.17-.29v-6.67c0-.12.06-.23.17-.29l1.69-.97c.1-.06.23-.06.34,0,.1.06.17.17.17.29v6.67c0,.12-.06.23-.17.29l-1.69.98c-.05.03-.11.04-.17.04ZM89.55,256.11v5.89l1.01-.58v-5.89l-1.01.58ZM90.91,261.62h0,0Z"/>
            <path class="cls-17" d="M92.38,261.14c-.06,0-.12-.01-.17-.04-.11-.06-.17-.17-.17-.29v-6.67c0-.12.06-.23.17-.29.61-.35,1.55-2.79,1.81-4.14.23-1.18.8-1.25.95-1.24.25.01.57.22.62.76.06.6-.08,1.93-.17,2.76l1.11-.64h0c.27-.16.56-.16.79,0,.32.21.46.68.38,1.25l-.7,4.98c-.09.63-.42,1.2-.83,1.44l-3.61,2.09c-.05.03-.11.04-.17.04ZM92.72,254.3v5.92l3.11-1.79c.2-.11.44-.5.5-.95l.7-4.98c.05-.39-.05-.58-.09-.6l-.24-.27.17.29-1.54.89c-.14.08-.31.08-.44,0-.15-.1-.22-.28-.19-.49.07-.54.28-2.36.22-3.03,0-.03,0-.05,0-.07-.07.1-.15.29-.21.61-.2,1.02-1.05,3.69-1.97,4.47Z"/>
          </g>
          <g>
            <path class="cls-17" d="M119.71,241.52c-.06,0-.12-.02-.17-.04-.11-.06-.17-.17-.17-.29v-6.67c0-.12.06-.23.17-.29l1.69-.97c.1-.06.23-.06.34,0,.1.06.17.17.17.29v6.67c0,.12-.06.23-.17.29l-1.69.98c-.05.03-.11.05-.17.05ZM120.04,234.7v5.89l1.01-.58v-5.89l-1.01.58Z"/>
            <path class="cls-17" d="M115.67,247.66s-.02,0-.02,0c-.25-.01-.57-.22-.62-.76-.05-.59.07-1.85.17-2.76l-1.11.64h0c-.27.16-.56.16-.79,0-.32-.22-.46-.68-.38-1.25l.7-4.97c.09-.63.42-1.2.83-1.44l3.61-2.09c.1-.06.23-.06.34,0,.1.06.17.17.17.29v6.67c0,.12-.06.23-.17.29-.61.35-1.55,2.79-1.81,4.14-.22,1.13-.74,1.24-.92,1.24ZM115.5,243.25c.09,0,.17.02.23.05.15.1.22.28.19.49-.09.7-.28,2.39-.22,3.03,0,.03,0,.05,0,.07.07-.1.15-.29.22-.61.2-1.02,1.05-3.69,1.97-4.47v-5.92l-3.11,1.79c-.2.11-.44.5-.5.95l-.7,4.98c-.06.39.05.58.09.6l.24.27-.17-.29,1.54-.89c.05-.03.13-.05.21-.05Z"/>
          </g>
          <path d="M183.08,208.13s-.06,0-.09-.01c-.17-.04-.27-.2-.25-.37.88-6.31,4.17-9.29,4.9-9.88v-2.87c0-.14.08-.26.21-.31.12-.05.27-.03.37.07l3.11,2.99c.11.1.13.26.07.39l-3.11,6.58c-.07.14-.23.22-.38.19-.15-.03-.26-.17-.26-.33v-2.6c-1.84,1.07-3.39,3.71-4.25,5.94-.05.13-.18.22-.32.22ZM188.32,195.79v2.23c0,.11-.05.21-.14.27-.03.02-2.76,2.07-4.16,6.74.89-1.54,2.18-3.23,3.83-3.93.11-.04.22-.03.32.03.1.06.15.17.15.28v1.63l2.36-4.99-2.36-2.27Z"/>
          <g>
            <path class="cls-17" d="M159.4,221.97c-.06,0-.12-.02-.17-.05-.11-.06-.17-.17-.17-.29v-2.45c0-.19.15-.34.34-.34s.34.15.34.34v1.86l6.57-3.79v-2.25c0-.19.15-.34.34-.34s.34.15.34.34v2.45c0,.12-.06.23-.17.29l-7.24,4.18c-.05.03-.11.05-.17.05Z"/>
            <path class="cls-17" d="M163.02,216.75c-.19,0-.34-.15-.34-.34v-6.47c0-.19.15-.34.34-.34s.34.15.34.34v6.47c0,.19-.15.34-.34.34Z"/>
            <path class="cls-17" d="M163.02,217.47c-.09,0-.17-.03-.23-.09l-1.88-1.81c-.14-.13-.14-.34,0-.48.13-.13.34-.14.48,0l1.54,1.48,1.68-3.56c.08-.17.28-.24.45-.16.17.08.24.28.16.45l-1.88,3.98c-.05.1-.14.17-.25.19-.02,0-.04,0-.06,0Z"/>
          </g>
          <path class="cls-17" d="M136.74,237.04s-.05,0-.07,0c-.16-.04-.26-.17-.26-.33v-11.87c0-.12.06-.23.17-.29l5.64-3.25c.1-.06.23-.06.34,0,.11.06.17.17.17.29v11.87c0,.14-.08.26-.21.31-.13.05-.27.03-.37-.07l-2.48-2.37-2.62,5.52c-.06.12-.18.19-.31.19ZM137.08,225.03v10.17l2.17-4.58c.05-.1.14-.17.24-.19.11-.02.22.01.3.09l2.25,2.14v-10.5l-4.96,2.86Z"/>
          <path class="cls-15" d="M97.24,267.01l-7.88,4.55c-.5.29-.91-.02-.91-.69v-.18c0-.67.41-1.45.91-1.74l7.88-4.55c.5-.29.91.02.91.69v.18c0,.67-.41,1.45-.91,1.74Z"/>
          <path class="cls-15" d="M121.26,253.14l-7.88,4.55c-.5.29-.91-.02-.91-.69v-.18c0-.67.41-1.45.91-1.74l7.88-4.55c.5-.29.91.02.91.69v.18c0,.67-.41,1.45-.91,1.74Z"/>
          <path class="cls-15" d="M143.5,240.3l-7.88,4.55c-.5.29-.91-.02-.91-.69v-.18c0-.67.41-1.45.91-1.74l7.88-4.55c.5-.29.91.02.91.69v.18c0,.67-.41,1.45-.91,1.74Z"/>
          <path class="cls-15" d="M166.96,226.75l-7.88,4.55c-.5.29-.91-.02-.91-.69v-.18c0-.67.41-1.45.91-1.74l7.88-4.55c.5-.29.91.02.91.69v.18c0,.67-.41,1.45-.91,1.74Z"/>
          <path class="cls-15" d="M191.03,212.86l-7.88,4.55c-.5.29-.91-.02-.91-.69v-.18c0-.67.41-1.45.91-1.74l7.88-4.55c.5-.29.91.02.91.69v.18c0,.67-.41,1.45-.91,1.74Z"/>
        </g>
        <g>
          <g>
            <path d="M94.55,284.41c-1.05-.6-2.37-.5-3.74.29-3.05,1.76-5.54,6.51-5.54,10.57,0,2,.61,3.55,1.68,4.35,0,.01.01.02.02.03.05.04.1.06.15.09.04.02.08.06.12.08.03.02.06.03.09.04.04.02.09.04.13.07.08.04.16.07.25.11.06.02.11.04.17.06.07.02.15.04.22.05.07.01.13.03.2.04.07,0,.13.01.19.02.07,0,.15.02.22.02.71,0,1.47-.23,2.25-.68.19-.11.37-.23.56-.36.03-.02.06-.05.09-.07.16-.11.31-.23.46-.36.02-.01.03-.03.04-.04,1.02-.88,1.97-2.09,2.73-3.53,0,0,0-.01,0-.02,1.02-1.93,1.65-4.15,1.65-6.2,0-2.18-.71-3.84-1.97-4.56ZM91.78,286.58c.18,0,.35.04.49.13.44.25.69.87.69,1.67,0,1.6-.97,3.45-2.16,4.14-.49.28-.95.32-1.3.12-.44-.25-.69-.87-.69-1.67,0-1.6.97-3.45,2.16-4.14.28-.16.56-.24.81-.24ZM94.44,295.26c-.09.16-.17.31-.26.46-.05.09-.11.17-.16.26-.09.13-.17.26-.25.38-.07.1-.14.2-.21.29-.08.1-.15.21-.23.31-.08.11-.17.21-.25.31-.07.08-.14.17-.21.25-.09.1-.19.2-.29.3-.07.07-.13.15-.2.21-.1.1-.2.19-.31.29-.07.06-.13.12-.2.18-.11.09-.23.18-.34.27-.06.04-.12.09-.18.14-.18.13-.36.24-.54.35-.16.09-.32.17-.48.24-.1.04-.19.08-.29.11-.06.02-.12.05-.18.07-.11.04-.22.07-.33.09-.04,0-.09.02-.13.03-.11.02-.21.04-.32.05-.04,0-.09.01-.13.02-.1,0-.19,0-.29,0-.05,0-.11,0-.16,0-.08,0-.16-.02-.24-.03-.07,0-.13-.02-.19-.03-.07-.02-.13-.04-.19-.06-.07-.02-.14-.05-.22-.08-.05-.02-.1-.05-.15-.07-.07-.04-.14-.07-.21-.12-.03-.02-.05-.04-.08-.06v-.12c.17-2.04,1.39-4.21,2.85-5.05l1.77-1.02c.63-.36,1.24-.42,1.71-.18.54.29.89.94.96,1.86v.16c-.02.06-.06.12-.09.19ZM92.44,286.42c-.46-.27-1.04-.22-1.63.12-1.28.74-2.32,2.73-2.32,4.43,0,.93.31,1.64.86,1.96.2.11.42.17.66.17.31,0,.64-.1.98-.29,1.28-.74,2.32-2.73,2.32-4.43,0-.93-.31-1.64-.86-1.96ZM90.81,292.52c-.49.28-.95.32-1.3.12-.44-.25-.69-.87-.69-1.67,0-1.6.97-3.45,2.16-4.14.28-.16.56-.24.81-.24.18,0,.35.04.49.13.44.25.69.87.69,1.67,0,1.6-.97,3.45-2.16,4.14Z"/>
            <g>
              <path class="cls-15" d="M102.2,281.6l37.51-21.67c1.08-.62,1.96-.18,1.96.99,0,1.17-.88,2.62-1.96,3.25l-37.62,21.73c-1.08.62-1.93.17-1.9-1.02.03-1.19.93-2.66,2.01-3.28Z"/>
              <path class="cls-15" d="M101.11,291.15c-.16,0-.31-.08-.39-.23-.13-.22-.05-.49.17-.62l32.11-18.54c.22-.13.49-.05.62.16.13.22.05.49-.16.62l-32.11,18.54c-.07.04-.15.06-.23.06Z"/>
            </g>
          </g>
          <g>
            <path class="cls-18" d="M184.81,241.18s0,0-.01,0c-.59-.27-.99-.94-.99-1.94v-1.86c0-2.12-1.29-3.1-2.88-2.18h0c-1.59.92-2.88,3.39-2.88,5.51v1.66c0,1.05-.36,2.23-.97,3.25,0,0,0,0,0,0-.14.26-.24.57-.24.85h0c0,.53.33.78.73.55l6.73-3.89c.4-.23.73-.85.73-1.39,0-.27-.08-.46-.21-.56ZM180.93,247.49c.76-.44,1.38-1.63,1.38-2.64l-2.77,1.6c0,1.02.62,1.49,1.38,1.05Z"/>
            <path class="cls-2" d="M184.81,241.18s0,0-.01,0c-.59-.27-.99-.94-.99-1.94v-1.86c0-2.12-1.29-3.1-2.88-2.18h0c-1.59.92-2.88,3.39-2.88,5.51v1.66c0,1.05-.36,2.23-.97,3.25,0,0,0,0,0,0-.14.26-.24.57-.24.85h0c0,.53.33.78.73.55l6.73-3.89c.4-.23.73-.85.73-1.39,0-.27-.08-.46-.21-.56ZM180.93,247.49c.76-.44,1.38-1.63,1.38-2.64l-2.77,1.6c0,1.02.62,1.49,1.38,1.05Z"/>
          </g>
          <g>
            <path class="cls-15" d="M85.51,281.98c-.16,0-.31-.08-.39-.23-.13-.22-.05-.49.17-.62l110.1-63.57c.22-.12.49-.05.62.17.13.22.05.49-.16.62l-110.1,63.57c-.07.04-.15.06-.23.06Z"/>
            <path class="cls-15" d="M85.51,309.23c-.16,0-.31-.08-.39-.23-.13-.22-.05-.49.17-.62l110.1-63.57c.22-.13.49-.05.62.17.13.22.05.49-.16.62l-110.1,63.57c-.07.04-.15.06-.23.06Z"/>
          </g>
        </g>
      </g>
    </g>
  </g>
  <g id="Speech_Bubble-3" data-name="Speech Bubble">
    <g id="Speech_Bubble-4" data-name="Speech Bubble">
      <g id="Speech_Bubble-5" data-name="Speech Bubble">
        <g id="Box">
          <g>
            <path d="M221.46,293.09c0,1.45.98,3.21,2.19,3.94l1.78,1.07c1.09.66,2.79.72,4.01.19-1.03.4-1.82-.21-1.82-1.5V88.4c0-.73.24-1.53.64-2.24l-6.16-3.7c-.4.71-.64,1.52-.64,2.24v208.38Z"/>
            <path class="cls-6" d="M221.46,293.09c0,1.45.98,3.21,2.19,3.94l1.78,1.07c1.09.66,2.79.72,4.01.19-1.03.4-1.82-.21-1.82-1.5V88.4c0-.73.24-1.53.64-2.24l-6.16-3.7c-.4.71-.64,1.52-.64,2.24v208.38Z"/>
          </g>
          <g>
            <path class="cls-7" d="M229.51,297.54c-.1.06-.19.11-.29.15h.02s-.06.01-.08.02c-.12.04-.23.06-.33.06-.51,0-.59-.62-.59-.98V88.4c0-.58.2-1.28.56-1.92.34-.64.82-1.17,1.32-1.47L347.88,14.45c.25-.15.48-.22.67-.22.11,0,.4,0,.53.5.03.15.05.32.05.48v208.38c0,1.4,0,2.24-1.67,3.23l-117.96,70.72Z"/>
            <path d="M348.48,14.88c.02.11.04.22.04.32v208.38c0,1.32,0,1.87-1.36,2.67l-117.97,70.73c-.05.03-.11.06-.17.09,0,0,0,0,0,0-.01,0-.03,0-.04.01-.02,0-.04.01-.06.02-.02-.07-.04-.17-.04-.33V88.4c0-.46.18-1.06.49-1.62.28-.52.68-.97,1.07-1.21L348.19,15.01c.13-.08.23-.11.29-.13M348.55,13.58c-.29,0-.63.1-.98.31l-117.77,70.57c-.59.36-1.15.98-1.54,1.7-.4.71-.64,1.52-.64,2.24v208.38c0,1.04.49,1.63,1.21,1.63.17,0,.34-.03.53-.1.02,0,.05-.01.07-.03.14-.05.26-.12.38-.19l117.96-70.72c1.97-1.16,1.98-2.33,1.98-3.79V15.21c0-.21-.02-.42-.07-.64-.16-.63-.58-.98-1.13-.98h0Z"/>
          </g>
          <g>
            <path d="M349.69,14.56c-.26-.97-1.1-1.27-2.11-.67l-117.76,70.57c-.6.36-1.15.98-1.54,1.7l-6.16-3.69c.4-.72.94-1.34,1.54-1.7L341.4,10.2c1.22-.72,3.18-.72,4.38,0l1.79,1.07c1.03.62,1.9,1.99,2.11,3.29Z"/>
            <path class="cls-3" d="M349.69,14.56c-.26-.97-1.1-1.27-2.11-.67l-117.76,70.57c-.6.36-1.15.98-1.54,1.7l-6.16-3.69c.4-.72.94-1.34,1.54-1.7L341.4,10.2c1.22-.72,3.18-.72,4.38,0l1.79,1.07c1.03.62,1.9,1.99,2.11,3.29Z"/>
          </g>
        </g>
        <g>
          <g>
            <path d="M221.46,183.18l-8.74,9.4c-.68.73-.42,1.81.29,2.25h0s6.15,3.69,6.15,3.69h0c.25.15.55.23.88.19l8.8-1.09-1.23-10.75-6.16-3.69Z"/>
            <path class="cls-3" d="M221.46,183.18l-8.74,9.4c-.68.73-.42,1.81.29,2.25h0s6.15,3.69,6.15,3.69h0c.25.15.55.23.88.19l8.8-1.09-1.23-10.75-6.16-3.69Z"/>
          </g>
          <path class="cls-7" d="M228.85,185.54l-9.97,10.73c-.91.98-.13,2.6,1.17,2.44l8.8-1.09v-12.08Z"/>
          <path d="M219.6,196.98c-.15.17-.12.33-.09.45.04.08.14.26.36.26l8.99-1.08v1.02l-8.82,1.08c-1.29.17-2.07-1.46-1.17-2.43l8.74-9.4v-2.7h1.23v2.81s-9.26,9.99-9.26,9.99Z"/>
        </g>
      </g>
      <g id="Content">
        <g>
          <path class="cls-17" d="M243.45,86.24c.59-.34,1.11-.52,1.56-.53.45-.02.82.07,1.12.27.3.19.53.47.68.82.15.35.24.72.26,1.1,0,.16-.02.31-.1.45-.07.14-.16.25-.26.3l-.93.53c-.15.09-.26.11-.34.06-.07-.04-.14-.12-.2-.24-.13-.26-.33-.44-.6-.54-.27-.1-.67,0-1.2.31-.23.13-.45.3-.65.49-.21.19-.39.41-.54.64-.15.23-.28.48-.36.73-.09.25-.13.51-.13.77,0,.31.04.54.13.69.08.15.22.24.42.26.2.03.46,0,.79-.06.33-.07.73-.16,1.22-.27.53-.13.98-.19,1.37-.17.38.02.7.12.94.31.24.19.42.47.54.84.12.37.18.83.18,1.38,0,.61-.09,1.23-.26,1.85-.18.62-.43,1.22-.75,1.78-.33.56-.73,1.09-1.2,1.58-.47.49-1.01.91-1.6,1.25-.49.29-.97.47-1.41.54-.45.08-.85.04-1.2-.1-.35-.14-.63-.4-.84-.77-.21-.37-.33-.84-.36-1.42,0-.16.02-.31.1-.45s.16-.25.26-.3l.93-.53c.15-.09.26-.11.34-.08.08.04.15.12.2.25.06.14.14.27.22.4.09.13.21.21.36.26.15.05.34.05.56.01.22-.04.5-.16.84-.35.26-.15.52-.33.77-.53.25-.2.46-.43.65-.68.18-.25.33-.51.45-.79s.17-.57.17-.88-.06-.51-.19-.63c-.12-.12-.31-.17-.56-.16-.25.01-.56.06-.93.15-.37.09-.8.18-1.28.27-.44.09-.83.12-1.16.09-.33-.03-.6-.15-.82-.35s-.38-.49-.48-.87c-.11-.38-.16-.87-.16-1.48s.09-1.22.26-1.84c.18-.62.42-1.2.73-1.74.31-.54.68-1.04,1.1-1.5.43-.46.89-.83,1.38-1.11Z"/>
          <path class="cls-17" d="M255.17,93.37c0,.15-.04.3-.11.45-.07.15-.15.25-.25.31l-1,.58c-.1.06-.18.05-.25-.02-.07-.07-.11-.18-.11-.33v-5.17c0-.81-.12-1.39-.37-1.74-.25-.35-.63-.37-1.14-.08-.47.27-.83.73-1.1,1.37-.27.64-.4,1.37-.4,2.19v5.17c0,.15-.03.3-.11.45-.07.15-.15.25-.25.31l-1,.58c-.1.06-.18.05-.25-.02-.07-.07-.11-.18-.11-.33v-13.35c0-.15.04-.3.11-.45.07-.15.15-.25.25-.31l1-.58c.1-.06.18-.05.25.02.07.07.11.18.11.33v4.33c.23-.48.5-.93.81-1.34.31-.41.67-.73,1.1-.98.54-.31.99-.44,1.35-.39.36.05.65.23.87.53.22.31.38.72.47,1.25.09.52.14,1.1.14,1.74v5.47Z"/>
          <path class="cls-17" d="M256.93,84.92c.04-.31.12-.66.24-1.06.13-.4.31-.81.54-1.23.23-.42.52-.82.86-1.2.34-.38.73-.7,1.18-.96.45-.26.85-.4,1.22-.43.36-.03.67.06.93.27.26.2.46.53.6.99.14.46.21,1.03.21,1.72v5.98c0,.15-.04.3-.11.45-.07.15-.15.25-.25.31l-1,.58c-.1.06-.18.05-.25-.02-.07-.07-.11-.18-.11-.33v-.67c-.18.5-.45.99-.8,1.47-.35.48-.79.87-1.33,1.18-.38.22-.72.34-1.02.35-.3.02-.55-.06-.75-.23-.2-.17-.36-.41-.47-.74-.11-.32-.17-.71-.17-1.18,0-.94.22-1.79.65-2.57.43-.78,1.01-1.47,1.73-2.08l2.15-1.81c0-.56-.12-.88-.36-.97-.24-.09-.53-.04-.89.17-.22.13-.39.27-.52.44-.12.17-.24.36-.36.59-.08.15-.15.27-.22.35-.07.08-.14.14-.22.19l-1.23.71c-.09.05-.16.05-.22,0-.06-.05-.08-.14-.07-.29ZM259.13,89.39c.3-.17.57-.39.8-.65.23-.26.43-.55.59-.86.16-.31.28-.62.36-.94.08-.32.12-.62.12-.9v-.2l-1.8,1.53c-.36.3-.62.59-.78.87-.16.28-.24.57-.24.88,0,.29.09.44.28.47.19.03.41-.03.67-.18Z"/>
          <path class="cls-17" d="M267.68,78.55c-.53.31-.91.7-1.14,1.2-.23.49-.35,1.15-.35,1.96v5.29c0,.15-.03.3-.11.45-.07.15-.15.25-.25.31l-1,.58c-.1.06-.18.05-.25-.02-.07-.07-.11-.18-.11-.33v-9.48c0-.15.04-.3.11-.45.07-.15.15-.25.25-.31l1-.58c.1-.06.18-.05.25.02.07.07.11.18.11.33v.47c.23-.46.47-.85.73-1.18.26-.33.6-.61,1.02-.86l.59-.34c.1-.06.18-.05.25.02.07.07.1.18.1.33v1.34c0,.15-.03.3-.1.45-.07.15-.15.25-.25.31l-.86.5Z"/>
          <path class="cls-17" d="M269.55,80.32c0-.76.07-1.52.22-2.28.15-.76.37-1.47.65-2.12s.62-1.24,1.02-1.76c.4-.52.85-.92,1.34-1.2.49-.28.94-.4,1.34-.36.4.05.74.22,1.02.53.28.3.5.73.65,1.27.15.54.23,1.16.23,1.85v.92c0,.15-.04.3-.1.45-.07.15-.15.25-.25.31l-4.41,2.55c0,.31.04.56.13.75.08.19.2.32.34.41.14.08.3.11.49.08.19-.03.37-.09.57-.21.28-.16.51-.34.69-.53.18-.19.32-.38.43-.59.1-.16.18-.29.24-.36.06-.08.15-.14.25-.21l1.06-.61c.1-.06.18-.05.26.01.07.07.11.18.1.33,0,.19-.08.48-.2.85-.13.37-.32.77-.58,1.21-.25.43-.57.86-.94,1.28-.37.42-.81.77-1.3,1.06-.49.29-.94.41-1.34.38-.4-.03-.74-.21-1.02-.54-.28-.33-.5-.78-.65-1.37-.15-.59-.22-1.28-.22-2.1ZM272.79,75.4c-.26.15-.47.33-.65.55-.18.22-.33.46-.46.71-.12.25-.22.51-.28.77-.07.26-.11.5-.13.71l2.99-1.72c-.02-.19-.05-.39-.1-.58-.05-.2-.13-.35-.24-.47-.11-.12-.26-.18-.44-.2-.18-.01-.41.06-.69.23Z"/>
        </g>
        <g>
          <g>
            <path class="cls-18" d="M262.48,116.34c0,6.67-4.06,14.42-9.06,17.31-5,2.89-9.06-.18-9.06-6.85s4.06-14.42,9.06-17.31c5-2.89,9.06.18,9.06,6.85Z"/>
            <path class="cls-7" d="M252,129.91l2.27-1.31v-7.58l1.58-.91.17-2.63-1.75,1.01v-1.44c0-.6.09-.89.52-1.14.35-.2,1.23-.71,1.23-.71v-2.63s-1.29.75-1.57.91c-1.69.97-2.45,2.41-2.45,4.3v2.02l-1.18.68v2.57l1.18-.68v7.55Z"/>
            <path class="cls-15" d="M260.56,138.1l-14.29,8.25c-.8.46-1.44-.03-1.44-1.09h0c0-1.06.65-2.3,1.44-2.76l14.29-8.25c.8-.46,1.44.03,1.44,1.09h0c0,1.06-.65,2.3-1.44,2.76Z"/>
          </g>
          <g>
            <path class="cls-18" d="M298.93,95.3c0,6.67-4.06,14.42-9.06,17.31-5,2.89-9.06-.18-9.06-6.85s4.06-14.42,9.06-17.31c5-2.89,9.06.18,9.06,6.85Z"/>
            <path class="cls-7" d="M284.9,107.56c.9.25,1.97.08,3.12-.58,3.78-2.18,5.92-7.68,5.79-11.43.4-.61.74-1.29,1.02-1.99-.37.43-.76.8-1.17,1.1.42-.58.74-1.3.9-2.02-.39.54-.83,1.02-1.29,1.41-.37-.31-.9-.34-1.49,0-1.32.76-2.28,2.95-1.99,4.48-1.69.86-3.2.65-4.2-.41-.53,1.53-.28,2.98.63,3.26-.33.18-.65.24-.92.19-.02,1.27.65,2.06,1.63,1.76-.29.27-.6.47-.92.58.26.93,1.01,1.28,1.9.79-.86,1.39-1.94,2.41-3.02,2.87Z"/>
            <path class="cls-15" d="M297.01,117.06l-14.29,8.25c-.8.46-1.44-.03-1.44-1.09h0c0-1.06.65-2.3,1.44-2.76l14.29-8.25c.8-.46,1.44.03,1.44,1.09h0c0,1.06-.65,2.3-1.44,2.76Z"/>
          </g>
          <g>
            <path class="cls-18" d="M335.38,74.25c0,6.67-4.06,14.42-9.06,17.31-5,2.89-9.06-.18-9.06-6.85s4.06-14.42,9.06-17.31c5-2.89,9.06.18,9.06,6.85Z"/>
            <g>
              <path class="cls-7" d="M326.32,73.9c1.36-.79,1.53-.87,2.07-1.15.5-.26.77-.3.95-.31.24-.01.41.04.59.17.18.14.29.3.38.56.07.2.15.51.18,1.16.02.7.03.92.03,2.74s0,2.04-.03,2.77c-.02.68-.11,1.09-.18,1.37-.09.37-.2.66-.38,1-.18.34-.35.59-.59.85-.18.2-.45.46-.95.78-.54.34-.7.44-2.07,1.23s-1.53.87-2.07,1.15c-.5.26-.77.3-.95.31-.24.01-.41-.04-.59-.17-.18-.14-.29-.3-.38-.56-.07-.2-.15-.51-.18-1.16-.02-.7-.03-.92-.03-2.74s0-2.04.03-2.77c.02-.68.11-1.09.18-1.37.09-.37.2-.66.38-1,.18-.34.35-.59.59-.85.18-.2.45-.46.95-.78.54-.34.7-.44,2.07-1.23M326.32,72.67c-1.39.8-1.56.91-2.11,1.26-.54.35-.92.68-1.24,1.03-.34.37-.62.77-.91,1.31s-.46,1.02-.59,1.55c-.13.51-.21,1.05-.24,1.79-.02.74-.03.98-.03,2.83s0,2.08.03,2.79c.02.71.11,1.16.24,1.52.13.37.31.65.59.87.28.21.57.28.91.26.33-.02.7-.12,1.24-.4.55-.28.72-.37,2.11-1.18,1.39-.8,1.56-.91,2.11-1.26.54-.35.92-.68,1.24-1.03.34-.37.62-.77.91-1.31s.46-1.02.59-1.55c.13-.51.21-1.05.24-1.79.02-.74.03-.98.03-2.83s0-2.08-.03-2.79c-.02-.71-.11-1.16-.24-1.52-.13-.37-.31-.65-.59-.87-.28-.21-.57-.28-.91-.26-.33.02-.7.12-1.24.4-.55.28-.72.37-2.11,1.18"/>
              <path class="cls-7" d="M326.32,75.98c-1.45.84-2.62,3.08-2.62,5.02s1.18,2.82,2.62,1.98c1.45-.84,2.62-3.08,2.62-5.02s-1.18-2.82-2.62-1.98M326.32,81.76c-.94.54-1.7-.03-1.7-1.29s.76-2.71,1.7-3.26c.94-.54,1.7.03,1.7,1.29s-.76,2.71-1.7,3.26"/>
              <path class="cls-7" d="M329.66,73.92c0,.45-.27.98-.61,1.17-.34.2-.61-.01-.61-.46s.27-.98.61-1.17c.34-.2.61.01.61.46"/>
            </g>
            <path class="cls-15" d="M333.46,96.02l-14.29,8.25c-.8.46-1.44-.03-1.44-1.09h0c0-1.06.65-2.3,1.44-2.76l14.29-8.25c.8-.46,1.44.03,1.44,1.09h0c0,1.06-.65,2.3-1.44,2.76Z"/>
          </g>
          <g>
            <path class="cls-18" d="M262.48,163.65c0,6.67-4.06,14.42-9.06,17.31-5,2.89-9.06-.18-9.06-6.85s4.06-14.42,9.06-17.31c5-2.89,9.06.18,9.06,6.85Z"/>
            <g>
              <path class="cls-8" d="M259.01,165.28c-.07-3.89-2.5-5.64-5.49-3.91-2.95,1.7-5.36,6.18-5.49,10.12,0,.11,0,.22,0,.32,0,1.37.29,2.49.79,3.3l-.99,4.47,3.04-3.04c.79.12,1.69-.07,2.65-.63,3.03-1.75,5.49-6.42,5.49-10.44,0-.06,0-.12,0-.18ZM253.52,174.74c-.94.54-1.81.67-2.54.46l-1.77,1.78.58-2.6c-.55-.69-.88-1.74-.88-3.07,0-.2,0-.4.02-.61.23-3.22,2.2-6.79,4.59-8.17,2.42-1.4,4.42-.06,4.6,2.98.01.15.02.31.02.47,0,3.37-2.07,7.3-4.62,8.77Z"/>
              <path class="cls-8" d="M256.04,168.64c-.14-.01-.8-.06-.92-.05-.12,0-.21.03-.3.26-.09.23-.35.78-.43.94-.08.17-.16.22-.29.21-.13-.01-.57.05-1.08-.26-.4-.24-.67-.66-.75-.8-.08-.13,0-.27.06-.4.06-.12.13-.29.2-.43.02-.04.03-.08.05-.11.03-.08.05-.16.08-.26.05-.15.02-.24-.01-.31-.03-.07-.3-.79-.42-1.08-.11-.29-.22-.17-.3-.12-.08.04-.17.08-.26.13-.09.05-.24.18-.36.43-.12.25-.47.88-.47,1.76,0,.21.03.39.07.57.14.55.43.9.48.96.07.08.93,1.44,2.3,1.36,1.37-.08,1.37-.32,1.62-.49.25-.17.8-.89.91-1.37.11-.48.11-.84.08-.89-.03-.05-.12-.05-.26-.06Z"/>
            </g>
            <path class="cls-15" d="M260.56,185.75l-14.29,8.25c-.8.46-1.44-.03-1.44-1.09h0c0-1.06.65-2.3,1.44-2.76l14.29-8.25c.8-.46,1.44.03,1.44,1.09h0c0,1.06-.65,2.3-1.44,2.76Z"/>
          </g>
          <g>
            <path class="cls-18" d="M298.93,142.61c0,6.67-4.06,14.42-9.06,17.31-5,2.89-9.06-.18-9.06-6.85s4.06-14.42,9.06-17.31c5-2.89,9.06.18,9.06,6.85Z"/>
            <path class="cls-7" d="M295.25,139.67l-10.76,6.22c-.24.14-.43.51-.43.82v8.97c0,.32.19.46.43.33l10.76-6.22c.24-.14.43-.51.43-.82v-8.97c0-.32-.19-.46-.43-.33ZM294.05,141.51l-4.18,6.98-4.18-2.16,8.36-4.83ZM284.92,154.61v-7.19l4.68,2.42c.08.04.18.03.27-.03.1-.06.19-.15.27-.29l4.68-7.82v7.19l-9.9,5.72Z"/>
            <path class="cls-15" d="M297.01,164.71l-14.29,8.25c-.8.46-1.44-.03-1.44-1.09h0c0-1.06.65-2.3,1.44-2.76l14.29-8.25c.8-.46,1.44.03,1.44,1.09h0c0,1.06-.65,2.3-1.44,2.76Z"/>
          </g>
          <g>
            <path class="cls-18" d="M335.38,121.56c0,6.67-4.06,14.42-9.06,17.31-5,2.89-9.06-.18-9.06-6.85s4.06-14.42,9.06-17.31c5-2.89,9.06.18,9.06,6.85Z"/>
            <path class="cls-7" d="M326.81,128.3l-2.16,4.57c-.37.77-.96,1.12-1.33.77l-.33-.32c-.36-.34-.36-1.29,0-2.05l1.02-2.16c.18-.39.18-.85,0-1.02-.18-.18-.48,0-.66.38l-1.02,2.16c-.35.75-.55,1.59-.55,2.36,0,.77.2,1.39.55,1.73l.33.32c.73.71,1.92.02,2.66-1.53l2.16-4.57c.35-.75.55-1.59.55-2.36s-.2-1.39-.55-1.73l-.33-.32c-.18-.18-.48,0-.66.38-.18.39-.18.85,0,1.02l.33.32c.36.34.36,1.29,0,2.05h0ZM325.15,124.65c-.35.75-.55,1.59-.55,2.36s.2,1.39.55,1.73c.18.18.48,0,.66-.38.18-.39.18-.85,0-1.02-.36-.34-.36-1.29,0-2.04l2.16-4.57c.18-.38.41-.66.66-.81.25-.15.49-.13.66.04l.33.32c.18.17.28.48.28.86s-.1.81-.28,1.18l-.93,1.97c-.18.39-.18.85,0,1.02.18.18.48,0,.66-.38l.93-1.97c.36-.75.55-1.59.55-2.36s-.2-1.39-.55-1.73l-.33-.32c-.35-.34-.83-.37-1.33-.08-.5.29-.97.86-1.33,1.61l-2.16,4.57h0ZM325.15,124.65"/>
            <path class="cls-15" d="M333.46,143.66l-14.29,8.25c-.8.46-1.44-.03-1.44-1.09h0c0-1.06.65-2.3,1.44-2.76l14.29-8.25c.8-.46,1.44.03,1.44,1.09h0c0,1.06-.65,2.3-1.44,2.76Z"/>
          </g>
        </g>
        <g>
          <path class="cls-15" d="M239.83,276.08c-.24,0-.48-.06-.68-.18-.46-.27-.73-.8-.73-1.46v-52.58c0-1.11.75-2.41,1.71-2.97l81.63-47.13,4.13-15.36c.21-.76.85-1.29,1.64-1.34.8-.05,1.49.4,1.79,1.13l3.65,9.09,3.64-2.1c.57-.33,1.16-.36,1.63-.1.46.27.73.8.73,1.46v52.58c0,1.11-.75,2.41-1.71,2.97l-96.47,55.69c-.31.18-.64.27-.94.27ZM327.63,156.36s-.02,0-.03,0c-.09,0-.38.05-.47.39l-4.26,15.87-.23.13-81.86,47.26c-.57.33-1.07,1.2-1.07,1.85v52.58c0,.24.07.33.09.34.02.01.13.02.34-.1l96.47-55.69c.57-.33,1.07-1.2,1.07-1.85v-52.58c0-.24-.07-.33-.09-.34-.02-.01-.13-.03-.34.1l-4.93,2.84-4.2-10.47c-.12-.29-.37-.33-.49-.33Z"/>
          <g>
            <path class="cls-15" d="M246.76,242.04c-.24,0-.48-.06-.68-.18-.46-.27-.73-.8-.73-1.46v-14.88c0-1.11.75-2.41,1.71-2.97l80.8-46.65c.57-.33,1.16-.36,1.63-.1.46.27.73.8.73,1.46v14.88c0,1.11-.75,2.41-1.71,2.97l-80.8,46.65c-.32.18-.64.28-.95.28ZM247.71,223.66c-.57.33-1.07,1.2-1.07,1.85v14.88c0,.24.07.33.09.34.02.01.13.02.34-.1l80.8-46.65c.57-.33,1.07-1.2,1.07-1.85v-14.88c0-.24-.07-.33-.09-.34-.02,0-.13-.02-.34.1l-80.8,46.65Z"/>
            <g>
              <path class="cls-17" d="M249.01,235.78v-9.69c0-.26.15-.48.46-.65l.24-.14c.3-.17.45-.13.45.13v3.64c.13-.35.29-.67.48-.95.19-.28.4-.49.64-.62.33-.19.59-.17.78.06.19.23.29.68.29,1.34v4.97c0,.27-.15.49-.46.67l-.22.13c-.16.09-.28.13-.35.11-.07-.02-.11-.1-.11-.24v-4.62c0-.6-.15-.81-.46-.64-.13.08-.25.21-.35.4-.1.19-.18.38-.23.56v4.9c0,.14-.04.26-.11.37-.08.11-.19.21-.35.3l-.23.13c-.31.18-.46.13-.46-.14Z"/>
              <path class="cls-17" d="M253.75,233.03c-.2-.2-.3-.65-.3-1.34v-3.96l-.16.09c-.08.05-.15.04-.19-.03-.04-.07-.06-.21-.06-.42v-.21c0-.21.02-.38.06-.49.04-.12.1-.2.19-.25l.16-.09.12-1.43c.02-.28.16-.49.41-.64l.22-.13c.26-.15.39-.09.39.18v1.36l.42-.24c.08-.05.14-.04.18.03.04.07.06.21.06.43v.21c0,.21-.02.38-.06.49-.04.12-.1.2-.18.25l-.42.25v3.93c0,.22.02.37.07.44.04.07.11.08.19.03.05-.03.1-.07.15-.12.05-.05.09-.08.12-.1.07-.04.12.04.17.25.05.2.07.37.07.49,0,.2-.09.4-.27.6-.18.19-.36.35-.56.46-.32.19-.59.18-.79-.02Z"/>
              <path class="cls-17" d="M256.44,231.48c-.2-.2-.3-.65-.3-1.34v-3.96l-.16.09c-.08.05-.15.04-.18-.03-.04-.07-.06-.21-.06-.42v-.21c0-.21.02-.38.06-.49.04-.12.1-.2.18-.25l.16-.09.12-1.43c.02-.28.16-.49.41-.64l.22-.13c.26-.15.39-.09.39.18v1.36l.42-.24c.08-.05.15-.04.19.03.04.07.06.21.06.43v.21c0,.21-.02.38-.06.49-.04.12-.1.2-.19.25l-.42.25v3.93c0,.22.02.37.07.44.04.07.11.08.19.03.05-.03.1-.07.15-.12.05-.05.09-.08.12-.1.07-.04.12.04.17.25.05.2.07.37.07.49,0,.2-.09.4-.27.6-.18.19-.36.35-.55.46-.32.19-.59.18-.79-.02Z"/>
              <path class="cls-17" d="M258.75,233v-7.41c0-.63-.02-1.08-.05-1.35-.03-.27-.05-.43-.05-.5,0-.13.1-.29.31-.47.2-.19.38-.32.53-.41.11-.06.18-.03.22.09.04.12.08.32.12.58.11-.37.25-.69.42-.96.17-.28.36-.47.57-.59.28-.16.52-.15.73.03.21.18.37.52.48,1.02.11.5.17,1.14.17,1.91,0,1.18-.13,2.16-.4,2.96-.27.8-.63,1.33-1.1,1.6-.32.19-.59.18-.81-.03v2.87c0,.27-.16.49-.48.68l-.2.11c-.31.18-.47.14-.47-.13ZM260.89,227.43c.1-.43.16-1.04.16-1.85,0-1.53-.19-2.18-.57-1.96-.22.13-.41.47-.58,1.03v3.55c.14.15.31.17.5.06.22-.13.38-.4.48-.83Z"/>
              <path class="cls-17" d="M262.83,222.44v-1.15c0-.27.15-.49.46-.67l.25-.14c.31-.18.46-.13.46.14v1.15c0,.26-.15.48-.46.65l-.25.15c-.31.18-.46.14-.46-.12ZM262.83,227.8v-1.15c0-.26.15-.48.46-.65l.25-.15c.31-.18.46-.14.46.12v1.15c0,.27-.15.49-.46.67l-.25.15c-.31.18-.46.13-.46-.14Z"/>
              <path class="cls-17" d="M264.11,228.22s0-.13.03-.25l2.15-11.18c.05-.27.19-.47.41-.6l.18-.1c.21-.12.32-.09.32.11,0,.03,0,.12-.03.27l-2.15,11.15c-.05.28-.19.49-.41.61l-.17.1c-.22.13-.32.09-.32-.1Z"/>
              <path class="cls-17" d="M266.99,226.56s0-.13.03-.25l2.15-11.18c.05-.27.19-.47.41-.6l.18-.1c.21-.12.32-.09.32.11,0,.03,0,.12-.03.27l-2.15,11.15c-.05.28-.19.49-.41.61l-.17.1c-.22.13-.32.09-.32-.1Z"/>
              <path class="cls-17" d="M270.86,223.16c-.2-.2-.3-.64-.3-1.31v-8.21c0-.26.16-.48.48-.67l.18-.1c.32-.18.48-.15.48.11v8.19c0,.2.02.34.06.4.04.06.1.07.19.02.04-.02.09-.06.13-.1s.08-.07.1-.09c.07-.04.12.04.17.23.04.19.07.37.07.52,0,.19-.08.38-.24.57-.16.18-.33.33-.53.44-.33.19-.59.19-.79-.01Z"/>
              <path class="cls-17" d="M273.04,221.9v-6.51c0-.27.16-.5.48-.68l.18-.1c.32-.18.48-.14.48.13v6.51c0,.27-.16.49-.48.68l-.18.1c-.32.18-.48.14-.48-.13ZM273.08,213.69v-.78c0-.27.18-.51.54-.71.37-.21.55-.18.55.08v.78c0,.27-.18.51-.54.71-.37.21-.55.18-.55-.08Z"/>
              <path class="cls-17" d="M275.3,220.6v-4.58c0-.64-.02-1.09-.05-1.35-.03-.26-.05-.41-.05-.46,0-.15.1-.32.31-.51.21-.19.39-.33.55-.42.1-.06.17-.05.21.04.04.09.06.2.08.35.01.15.03.27.04.35.13-.38.3-.73.5-1.04.2-.31.42-.53.66-.67.35-.2.61-.18.79.06.18.24.27.69.27,1.34v4.97c0,.27-.15.49-.46.67l-.22.13c-.31.18-.47.14-.47-.13v-4.62c0-.31-.03-.51-.1-.62-.07-.11-.18-.12-.34-.03-.11.07-.22.19-.32.36-.1.17-.19.37-.25.6v4.9c0,.14-.04.26-.11.37s-.19.21-.35.3l-.23.14c-.3.17-.45.13-.45-.14Z"/>
              <path class="cls-17" d="M283.07,216.3c0,.14-.14.29-.42.45l-.4.23c-.11.06-.19.09-.23.08-.04,0-.08-.05-.1-.13l-1.01-2.68-.09.05v3.1c0,.27-.15.49-.45.66l-.22.13c-.31.18-.46.13-.46-.14v-9.69c0-.26.15-.48.46-.65l.22-.13c.3-.17.45-.13.45.13v5.93l.04-.03.96-3.47c.04-.12.08-.21.12-.26.05-.05.12-.11.24-.18l.37-.21c.28-.16.42-.17.42-.02,0,.06-.02.17-.06.33l-1.01,3.55,1.12,2.71c.04.1.05.18.05.23Z"/>
              <path class="cls-17" d="M283.44,215.9v-1.15c0-.26.15-.48.46-.65l.25-.15c.31-.18.46-.14.46.12v1.15c0,.27-.15.49-.46.67l-.25.15c-.31.18-.46.13-.46-.14Z"/>
              <path class="cls-17" d="M286.9,214.11c-.18-.07-.33-.23-.44-.47l-.08.67c-.02.13-.07.23-.14.31-.07.08-.16.16-.28.23l-.09.05c-.3.17-.45.13-.45-.14v-9.69c0-.26.16-.48.47-.66l.2-.11c.31-.18.47-.14.47.12v3.22c.22-.47.5-.8.82-.99.47-.27.83-.16,1.1.33.26.49.4,1.33.4,2.53,0,.77-.06,1.47-.17,2.1-.11.63-.28,1.15-.49,1.57-.21.42-.45.71-.73.87-.2.12-.4.14-.58.07ZM287.57,211.99c.09-.42.14-1.03.14-1.83s-.05-1.37-.16-1.67c-.11-.29-.27-.38-.48-.26-.19.11-.36.33-.51.64v3.61c.17.33.37.43.58.31.2-.11.34-.38.44-.81Z"/>
              <path class="cls-17" d="M290.05,211.63c-.32-.43-.48-1.26-.48-2.48,0-2.52.61-4.13,1.84-4.84,1.09-.63,1.64.28,1.64,2.74,0,.1-.05.28-.16.54-.11.25-.19.4-.25.43l-1.89,1.09c.02.56.1.93.23,1.11.14.17.34.19.6.03.16-.09.29-.2.41-.34.12-.14.23-.28.33-.43.1-.15.16-.23.18-.24.08-.04.17.03.27.22.1.19.15.35.15.48,0,.18-.07.38-.22.61-.15.23-.33.45-.55.66-.22.21-.42.37-.61.48-.68.39-1.18.37-1.5-.06ZM291.98,207.26c0-.67-.05-1.14-.14-1.4-.09-.26-.24-.33-.45-.21-.21.12-.37.36-.48.73-.11.36-.17.9-.2,1.62l1.26-.73Z"/>
              <path class="cls-17" d="M293.16,211.45s0-.13.03-.25l2.15-11.18c.05-.27.19-.47.41-.6l.18-.1c.21-.12.32-.09.32.11,0,.03,0,.12-.03.27l-2.15,11.15c-.05.28-.19.49-.41.61l-.17.1c-.22.13-.32.09-.32-.1Z"/>
              <path class="cls-17" d="M296.25,208.62s0-.11.02-.25l1.48-9.77c.04-.25.2-.46.49-.63l.48-.28c.29-.17.45-.15.5.06l1.47,8.06c.01.12.02.2.02.23,0,.19-.12.35-.37.49l-.36.21c-.26.15-.4.14-.42-.02l-.29-1.74-1.57.91-.29,2.07c-.02.19-.15.35-.39.49l-.36.21c-.26.15-.4.14-.4-.05ZM299.08,203.63l-.49-2.95c-.04-.27-.08-.58-.11-.92l-.05.03c-.03.38-.07.73-.11,1.05l-.48,3.51,1.23-.71Z"/>
              <path class="cls-17" d="M304.33,197.2s0,.11-.02.26l-1.61,10.27c-.04.22-.19.4-.45.55l-.18.1c-.29.17-.43.16-.43-.03,0-.03,0-.11.03-.25l.56-3.36c-.07.03-.12.04-.16.02-.04-.01-.07-.06-.09-.14l-1.09-5.13c-.02-.1-.04-.19-.04-.27,0-.19.14-.37.42-.53l.3-.17c.12-.07.22-.1.28-.1.07,0,.11.05.12.16l.45,2.88c.04.31.09.75.15,1.31l.04-.03c.02-.14.04-.36.06-.65.01-.14.04-.43.09-.84l.47-3.44c.02-.19.17-.36.42-.51l.21-.12c.31-.18.46-.17.46.01Z"/>
              <path class="cls-17" d="M305.35,202.52c-.38-.58-.57-1.73-.57-3.44s.2-3.02.59-4.06c.4-1.04,1-1.8,1.82-2.27.33-.19.61-.29.83-.3.09,0,.15.03.19.1.04.07.05.18.05.33,0,.28-.04.56-.1.84-.07.29-.16.42-.27.41-.2-.01-.42.05-.65.18-.41.24-.72.69-.92,1.36-.2.67-.3,1.57-.3,2.69s.1,1.93.3,2.36c.2.43.52.53.95.28.13-.08.25-.16.35-.26.1-.09.21-.21.34-.35.04-.04.06-.06.08-.07.1-.06.18,0,.23.18.05.18.08.41.08.71,0,.13-.02.25-.05.36-.03.11-.1.22-.19.33-.1.12-.24.26-.41.4-.17.14-.34.27-.53.38-.83.48-1.44.43-1.82-.15Z"/>
              <path class="cls-17" d="M309.26,200.2c-.31-.66-.46-1.81-.46-3.42s.15-2.94.46-3.96c.31-1.02.76-1.7,1.35-2.04s1.04-.18,1.35.48c.31.66.47,1.8.47,3.42s-.16,2.94-.47,3.96c-.31,1.02-.76,1.7-1.35,2.05-.59.34-1.04.18-1.35-.49ZM310.96,198.77c.09-.26.16-.66.21-1.2.05-.55.08-1.28.08-2.21s-.03-1.63-.08-2.12c-.05-.49-.12-.81-.21-.96-.09-.15-.21-.19-.35-.1-.14.08-.26.25-.35.51-.09.26-.16.66-.21,1.21-.05.55-.08,1.28-.08,2.21s.03,1.63.08,2.12c.05.49.12.81.21.96.09.15.21.19.35.1.14-.08.26-.25.35-.51Z"/>
              <path class="cls-17" d="M315.02,197.67v-1.72l-1.98,1.15c-.06.03-.12-.06-.19-.29-.07-.23-.1-.44-.1-.62,0-.06,0-.12.02-.16l2.1-7.35c.04-.13.09-.24.17-.32.08-.08.18-.16.31-.23l.36-.21c.3-.17.45-.13.45.14v5.84l.33-.19c.08-.05.15-.04.19.03.04.07.06.21.06.43v.21c0,.21-.02.38-.06.49-.04.12-.1.2-.19.25l-.33.19v1.72c0,.27-.15.49-.45.66l-.23.14c-.3.17-.45.13-.45-.14ZM315.02,194.54v-1.85c0-.58.03-1.21.08-1.88h-.04s-1.23,4.41-1.23,4.41l1.18-.68Z"/>
              <path class="cls-17" d="M317.54,195.42c-.31-.66-.47-1.8-.47-3.42s.16-2.94.47-3.96c.31-1.02.76-1.7,1.35-2.04.59-.34,1.04-.18,1.35.48.31.66.47,1.8.47,3.42s-.16,2.94-.47,3.96c-.31,1.02-.76,1.7-1.35,2.04-.59.34-1.04.18-1.35-.49ZM319.24,193.99c.09-.26.16-.66.21-1.21.05-.55.08-1.28.08-2.21s-.02-1.63-.08-2.12c-.05-.49-.12-.81-.21-.96-.09-.15-.21-.19-.35-.1-.14.08-.26.25-.35.51-.09.26-.16.66-.21,1.21-.05.55-.08,1.28-.08,2.21s.03,1.63.08,2.12c.05.49.12.81.21.96.09.15.21.19.35.1.14-.08.26-.25.35-.51Z"/>
              <path class="cls-17" d="M321.55,194.05s0-.09.02-.15c.01-.06.02-.11.03-.14l2.01-8.99-2.13,1.23c-.08.05-.15.04-.19-.03-.04-.07-.06-.21-.06-.42v-.21c0-.21.02-.38.06-.49.04-.12.1-.2.19-.25l3.14-1.81s.09.08.15.3c.06.22.09.43.09.61,0,.07,0,.13-.02.19l-2.11,9.46c-.04.2-.19.37-.46.53l-.26.15c-.31.18-.46.18-.46.02Z"/>
            </g>
          </g>
          <g>
            <path class="cls-18" d="M294.79,238.44c-.24,0-.47-.06-.68-.18-.46-.27-.73-.8-.73-1.46v-12.31c0-1.11.75-2.41,1.71-2.97l32.76-18.92c.57-.33,1.16-.37,1.63-.1.46.27.73.8.73,1.46v12.31c0,1.11-.75,2.41-1.71,2.97l-32.76,18.92c-.32.18-.64.28-.95.28ZM328.8,203.62c-.05,0-.15.02-.3.1l-32.76,18.92c-.57.33-1.07,1.2-1.07,1.85v12.31c0,.22.06.33.09.34.03.02.15.01.34-.1l32.76-18.92c.57-.33,1.07-1.2,1.07-1.85v-12.31c0-.24-.07-.33-.09-.34,0,0-.02,0-.04,0Z"/>
            <g>
              <path class="cls-18" d="M307.03,224.62c0-.08.03-.15.06-.21.03-.06.07-.1.11-.12l.47-.27s.08-.02.11,0c.03.03.05.08.04.15-.01.25-.05.52-.12.81-.07.28-.17.57-.31.85-.14.28-.32.54-.53.79-.21.25-.47.46-.78.64-.27.16-.51.23-.71.23-.21,0-.38-.07-.53-.21-.14-.13-.26-.33-.34-.59-.08-.26-.13-.57-.14-.92,0-.22-.01-.47-.01-.75s0-.53.01-.76c.01-.37.06-.73.14-1.08.08-.35.19-.68.34-.98.14-.3.32-.57.53-.82.21-.24.44-.44.71-.6.3-.18.56-.26.78-.26.21,0,.39.06.53.18.14.12.24.28.31.49.07.21.11.43.12.66,0,.07-.01.14-.04.2-.03.06-.07.11-.11.13l-.47.27s-.08.02-.11,0c-.03-.02-.06-.06-.06-.14-.01-.11-.04-.21-.08-.3-.04-.09-.1-.16-.17-.2-.07-.05-.17-.07-.28-.06-.11,0-.25.06-.4.14-.15.09-.28.2-.4.34-.11.14-.21.29-.28.45-.08.16-.13.34-.18.53-.04.19-.07.38-.07.57,0,.23-.01.49-.01.76s0,.53.01.75c0,.19.03.35.07.49.04.14.1.25.18.33.08.08.17.12.28.12.11,0,.25-.03.4-.12.15-.09.28-.19.4-.31.11-.12.21-.25.28-.38.08-.13.14-.27.18-.41.04-.14.07-.27.08-.4Z"/>
              <path class="cls-18" d="M308.38,221.89c.01-.34.05-.68.13-1.02.07-.34.18-.66.32-.96.14-.3.32-.58.53-.83.21-.25.46-.46.75-.63.29-.16.53-.24.74-.24.21,0,.39.08.53.22.14.14.25.34.32.59.07.25.12.54.13.88,0,.11,0,.24,0,.37,0,.14,0,.28,0,.43s0,.29,0,.43c0,.14,0,.27,0,.38-.01.34-.05.68-.13,1.02-.07.34-.18.66-.32.96-.14.3-.32.57-.53.82s-.46.46-.75.62c-.29.17-.54.25-.75.24-.21,0-.39-.08-.53-.21-.14-.14-.25-.33-.32-.59-.07-.26-.11-.55-.13-.88,0-.11,0-.24,0-.37,0-.14,0-.28,0-.43s0-.29,0-.43,0-.27,0-.38ZM311.03,220.41c-.02-.42-.11-.71-.27-.85-.17-.14-.38-.13-.66.02-.27.16-.49.4-.66.74-.17.33-.26.72-.27,1.16,0,.23-.01.49-.01.77s0,.53.01.75c.02.42.11.7.27.84.17.14.38.13.66-.03.27-.16.49-.4.66-.73.16-.33.26-.71.27-1.16,0-.23.01-.49.01-.77s0-.53-.01-.75Z"/>
              <path class="cls-18" d="M314.31,216.11c.47-.27.84-.31,1.1-.12.26.19.39.62.39,1.28s-.13,1.24-.39,1.74c-.26.5-.63.88-1.1,1.16l-.94.54v2.01c0,.07-.02.13-.05.2-.03.07-.07.11-.11.14l-.47.27s-.08.02-.11,0c-.03-.03-.05-.08-.05-.14v-5.82c0-.07.02-.13.05-.2.03-.07.07-.11.11-.14l1.57-.91ZM313.38,219.58l.91-.52c.22-.13.4-.3.53-.51.13-.21.2-.49.2-.82s-.07-.53-.2-.58c-.13-.05-.31-.01-.53.11l-.91.52v1.8Z"/>
              <path class="cls-18" d="M319.42,213.17s.08-.02.11,0c.03.03.05.08.05.14,0,.03,0,.06-.01.09l-1.39,4.55v1.98c0,.07-.01.13-.05.2-.03.07-.07.11-.11.14l-.47.27s-.08.02-.11,0c-.03-.03-.05-.08-.05-.14v-1.98l-1.39-2.95s-.01-.04-.01-.07c0-.07.02-.13.05-.2.03-.07.07-.11.11-.14l.44-.25c.08-.04.14-.05.17-.01.04.04.06.07.07.1l.95,2,.95-3.09s.03-.09.07-.18c.04-.08.1-.15.18-.19l.44-.25Z"/>
            </g>
          </g>
          <g>
            <path class="cls-15" d="M246.76,266.07c-.24,0-.47-.06-.68-.18-.46-.27-.73-.8-.73-1.46v-12.31c0-1.11.75-2.41,1.71-2.97l32.76-18.92c.57-.33,1.16-.36,1.63-.1.46.27.73.8.73,1.46v12.31c0,1.11-.75,2.41-1.71,2.97l-32.76,18.92c-.32.18-.64.28-.95.28ZM280.77,231.25c-.05,0-.15.02-.3.1l-32.77,18.92c-.57.33-1.07,1.2-1.07,1.85v12.31c0,.22.06.33.09.34.03.02.15.01.34-.1l32.76-18.92c.57-.33,1.07-1.2,1.07-1.85v-12.31c0-.24-.07-.33-.09-.34,0,0-.02,0-.04,0Z"/>
            <g>
              <path class="cls-15" d="M255.19,254.45c0-.08.03-.15.06-.21.03-.06.07-.1.11-.12l.47-.27s.08-.02.11,0c.03.03.05.08.04.15-.01.25-.05.52-.12.81-.07.29-.17.57-.31.85-.14.28-.32.54-.53.79-.21.25-.47.46-.78.64-.27.16-.51.23-.71.23-.21,0-.38-.07-.53-.21-.14-.14-.26-.33-.34-.59-.08-.26-.13-.57-.14-.92,0-.22-.01-.47-.01-.75s0-.53.01-.76c.01-.37.06-.73.14-1.08.08-.35.19-.68.34-.98.14-.3.32-.57.53-.82.21-.24.44-.44.71-.6.3-.18.56-.26.78-.26.21,0,.39.06.53.18.14.12.24.28.31.49.07.21.11.43.12.66,0,.07-.01.14-.04.2-.03.06-.07.11-.11.13l-.47.27s-.08.02-.11,0c-.04-.02-.06-.06-.06-.14-.01-.11-.04-.21-.08-.3-.04-.09-.1-.16-.17-.2-.07-.05-.17-.07-.28-.06-.11,0-.25.06-.4.14-.15.09-.29.2-.4.34-.11.14-.21.29-.28.45-.08.16-.13.34-.18.53-.04.19-.07.38-.07.57,0,.23-.01.49-.01.76s0,.53.01.75c0,.19.03.35.07.49.04.14.1.25.18.33.08.08.17.12.28.12.11,0,.25-.03.4-.12.15-.09.28-.19.4-.32.11-.12.21-.25.28-.38.08-.13.14-.27.18-.41.04-.14.07-.27.08-.4Z"/>
              <path class="cls-15" d="M258.56,248.2c.06-.04.11-.04.14,0,.03.03.06.1.08.18l1.43,4.86s0,.04,0,.06c0,.07-.01.13-.05.2-.03.07-.07.11-.11.14l-.42.24c-.08.04-.13.05-.16.02-.03-.03-.05-.07-.06-.11l-.25-.85-1.85,1.07-.25,1.14c-.01.05-.03.12-.06.19-.03.07-.09.13-.16.17l-.42.24s-.08.02-.11,0c-.03-.03-.05-.08-.05-.14,0-.02,0-.05,0-.07l1.43-6.52c.02-.11.05-.21.08-.28.03-.07.08-.12.14-.16l.64-.37ZM258.88,251.97l-.64-2.19-.64,2.94,1.29-.74Z"/>
              <path class="cls-15" d="M263.41,251.71c-.07.04-.12.04-.15,0-.04-.03-.06-.06-.08-.08l-1.64-2.8v3.71c0,.07-.02.13-.05.2-.03.07-.07.11-.11.14l-.47.27s-.08.02-.11,0c-.03-.03-.05-.08-.05-.14v-5.82c0-.07.01-.13.05-.2.03-.07.07-.11.11-.14l.41-.24c.07-.04.12-.04.15,0,.03.03.06.06.07.08l1.64,2.8v-3.71c0-.07.01-.13.05-.2.03-.07.07-.11.11-.14l.47-.27s.08-.02.11,0c.03.03.05.08.05.14v5.82c0,.07-.02.13-.05.2-.03.07-.07.11-.11.14l-.41.24Z"/>
              <path class="cls-15" d="M267.4,247.4c0-.08.03-.15.06-.21.03-.06.07-.1.11-.12l.47-.27s.08-.02.11,0c.03.03.05.08.04.15-.01.25-.05.52-.12.81-.07.29-.17.57-.31.85-.14.28-.32.54-.53.79-.22.25-.47.46-.78.64-.27.16-.51.23-.71.23-.21,0-.38-.07-.53-.21-.14-.14-.26-.33-.34-.59-.08-.26-.13-.57-.14-.92,0-.22-.01-.47-.01-.75s0-.53.01-.76c.02-.37.06-.73.14-1.08.08-.35.19-.68.34-.98.14-.3.32-.57.53-.82.21-.24.44-.44.71-.6.3-.18.56-.26.78-.26.21,0,.39.06.53.18.14.12.24.28.31.49.07.21.11.43.12.66,0,.07-.01.14-.04.2-.03.06-.07.11-.11.13l-.47.27s-.08.02-.11,0c-.04-.02-.06-.06-.07-.14-.01-.11-.04-.21-.08-.3-.04-.09-.1-.16-.18-.2-.07-.05-.17-.07-.28-.06-.11,0-.25.06-.4.14-.15.09-.28.2-.4.34-.11.14-.21.29-.28.45-.08.16-.14.34-.18.53-.04.19-.06.38-.07.57,0,.23-.01.49-.01.76s0,.53.01.75c0,.19.03.35.07.49.04.14.1.25.18.33.07.08.17.12.28.12.11,0,.25-.03.4-.12.15-.09.28-.19.4-.32.11-.12.21-.25.28-.38.07-.13.13-.27.18-.41.04-.14.07-.27.08-.4Z"/>
              <path class="cls-15" d="M271.61,245.85s.08-.02.11,0c.03.03.05.08.05.14v.64c0,.07-.02.13-.05.2-.03.07-.07.11-.11.14l-2.57,1.48s-.08.02-.11,0c-.03-.03-.05-.08-.05-.14v-5.82c0-.07.02-.13.05-.2.03-.07.07-.11.11-.14l2.52-1.45s.08-.02.11,0c.03.03.05.08.05.14v.64c0,.07-.02.13-.05.2-.03.07-.07.11-.11.14l-1.89,1.09v1.43l1.76-1.02s.08-.02.11,0c.03.03.05.08.05.14v.64c0,.07-.01.13-.05.2-.03.07-.07.11-.11.14l-1.76,1.02v1.49l1.93-1.12Z"/>
              <path class="cls-15" d="M275.21,243.77s.08-.02.11,0c.03.03.05.08.05.14v.64c0,.07-.01.13-.05.2-.03.07-.07.11-.11.14l-2.56,1.48s-.08.02-.11,0c-.03-.03-.05-.08-.05-.14v-5.82c0-.07.02-.13.05-.2.03-.07.07-.11.11-.14l.47-.27s.08-.02.11,0c.03.03.05.08.05.14v4.93l1.93-1.11Z"/>
            </g>
          </g>
        </g>
        <path class="cls-15" d="M339.47,33.92l3.24-6.19c.23-.44.06-.99-.38-1.22-.44-.23-.99-.06-1.22.38l-3.1,5.92-2.74-2.07c-.4-.3-.97-.22-1.27.18-.3.4-.22.96.18,1.27l2.98,2.26-3.24,6.19c-.23.44-.06.99.38,1.22.13.07.28.1.42.1.33,0,.64-.18.8-.48l3.1-5.92,2.74,2.07c.16.12.35.18.54.18.27,0,.54-.12.72-.36.3-.4.22-.96-.18-1.27l-2.98-2.26Z"/>
      </g>
    </g>
  </g>
</svg>