<?xml version="1.0" encoding="UTF-8"?>
<svg id="Calque_1" data-name="Calque 1" xmlns="http://www.w3.org/2000/svg" viewBox="0 0 250 250">
  <defs>
    <style>
      .cls-1 {
        fill: #fff;
      }

      .cls-2 {
        fill: #cc2936;
      }
    </style>
  </defs>
  <circle class="cls-2" cx="125" cy="125" r="125.05"/>
  <g>
    <path class="cls-1" d="M174.68,123.71c2.13.89,6.24.94,6.79,3.69.23,1.16-.21,2.94.23,3.84.14.3,2.53,1.73,3.11,2.2.62.49,2.63,2.48,2.99,2.64,1.83.85,3.61-1.64,6.09.47.64.55,3.98,6.32,4.14,7.11.7,3.32-1.3,3.55-2.75,5.89.8,1.61.27,7.29.95,8.11,1.01,1.22,3.47,1.09,3.76,3.75.15,1.43-1.61,7.95-2.5,9.08-1.64,2.08-4.35.45-5.64,1.24-.21.13-2.29,3.41-2.82,4.06-.47.58-1.82,1.59-2.03,2.05-.65,1.43,1.66,3.57-.3,5.94-.77.93-6.37,4.16-7.53,4.35-3.61.58-4.08-2.6-5.62-2.8-2.56.5-5.11.8-7.73.63-.48.12-1.67,3.7-3.83,4.05-1.49.24-8.46-1.64-9.49-2.66-1.54-1.53-.65-3.57-1.12-5.44l-4.06-3.12c-2.01,2.79-4.8,4.12-8.28,3.75,1.63,2.88,1.11,6.28-1.41,8.43-3.31,2.82-6.95.93-10.77.77-2.89,3.54-3.69,8.58-9.22,8.3-2.31-.12-10.98-1.34-12.88-2.12-3.73-1.54-3.92-6.99-5.13-10.34-4.15-.58-9.09-.32-10.74-5.04-.99-2.83-.31-5.06,1.71-7.18-11.05-2.12-7.81-17.84,3.12-15.32.13-1.51-.16-2.97-.41-4.43-2.42-14.09-12.95-21.52-17.17-34.71-.38-1.19-1.65-7.08-1.95-7.43-.45-.53-2.81-.55-3.92-1.39-1.67-1.26-1.25-3.6-1.6-5.43-2.14-.24-4.96-4.12-6.66-4.13s-2.73,1.47-4.83.15c-1-.63-4.63-6.6-4.72-7.8-.18-2.45,1.75-2.9,2.36-4.22.53-1.15-1.27-6.07-.94-7.81-1.11-1.09-3.45-1.64-3.84-3.34s1.07-8.32,2.26-9.49c1.62-1.6,3.83-.43,4.87-1.07.16-.1,1.65-2.7,2.06-3.25s2.39-2.66,2.45-2.83c.41-1.1-2.07-3.76.16-6.12.61-.65,6.58-4.14,7.39-4.2,2.39-.18,3.54,2.53,4.64,2.68,1.4.19,5.7-1.72,7.6-1.2.94-1.53,1.38-3.52,3.42-3.93,1.14-.23,7.34,1.14,8.43,1.74,2.2,1.21,1.33,3.14,1.66,4.9.13.71,3.54,2.95,4.21,2.95s3.35-1.79,4.32-2.22c40.77-18.05,83.29,16.58,72.93,60.14-.21.9-1.96,5.91-1.77,6.17ZM93.19,58.94l-.68-4.8c-.33-.43-6.11-1.94-6.81-1.94-1.24,0-1.97,3.35-2.91,3.83-1.21.63-3.21.3-4.49.51-1.38.23-3.4,1.05-4.49,1.16-2,.19-2.71-3.23-4.84-2.69-.53.13-5.56,3.33-5.71,3.69l.94,4.41c-.83,1.3-2.03,2.35-2.91,3.61-.8,1.13-2.17,4.25-3.34,4.47-1.55.29-3.4-.75-4.28,1.04-.33.68-1.49,5.6-1.43,6.26.02.24.15.59.33.76l3.62,2.16c-.58,2.49,1.88,8.15,1.06,10.03-.48,1.12-2.74,2.06-2.34,3.42.15.5,3.14,5.57,3.42,5.75,1.07.71,3.5-1.1,5.19-.59.38.11,2.84,2.49,3.56,3.01,1.05.76,3.95,1.96,4.16,3.03.46,2.37-1.32,4.92,2.82,4.52-.77-3.8-.18-7.78-.3-11.67-19.93-10.16-8.99-40.47,13.04-34.99,1.05.26,3.47,1.53,4.02,1.58.81.07,4.96-3.82,6.04-4.47l-3.67-2.11ZM124.7,164.33c2.2.13,9.98,2.14,11.53,1.43.37-.17,1.8-1.69,1.81-2.11-.69-2.57-.95-5.18-.92-7.83-.39-1.14-3.86-1.28-4.02-4.44-.05-1.03,1.78-7.35,2.37-8.26,1.8-2.76,4.5-.83,5.94-1.87.41-.3,1.78-2.61,2.33-3.29s2.26-1.99,2.43-2.58c.54-1.82-1.5-3.71.22-6.02.46-.62,6.2-3.85,7.11-4.14,2.99-.94,4.01,1.08,5.99,2.76,1.6-.91,7.28-.45,8.16-1.1.56-.41,1.08-2.16,1.85-2.84.88-.79,2.5-.77,2.92-1.45.64-1.03,1.77-5.56,2.08-6.98,8.34-37.77-26.62-69.67-63.52-58.54-30.73,9.27-44.39,45.22-28.13,73.01,2.04,3.49,4.84,6.49,6.95,9.93,3.7,6.05,6.03,13.17,6.43,20.29l12.98,1.88,5.79-36.99c-5.17-1.69-11.23-.57-15.17-5.21-8.34-9.81,4.2-23.47,14.63-16.2,6.94,4.84,4.16,12.34,3.34,19.32,3-.05,6.33,1.15,9.24,1.26.53.02,1.15.09,1.34-.53.71-6.33.89-13.9,7.87-16.51,11.74-4.4,20.63,10.86,10.93,18.75-5.22,4.25-11.2,1.57-17.19,1.09l-5.29,37.17ZM89.05,67.15c-11.79-5.21-24.59,3.76-23.43,16.71.42,4.72,4.11,10.91,8.74,12.35,1.29-9.66,5.89-18.77,12.2-26.09.43-.5,2.82-2.52,2.49-2.97ZM115.61,122.48c.03-4.16,2.16-8.67.68-12.72-3.47-9.49-18.43-6.13-16.55,4.98,1.2,7.07,10.32,7.23,15.86,7.73ZM130.61,124.98c4.21-.02,8.62,2.18,12.72.68,9.62-3.52,6.11-18.43-4.98-16.55-7.06,1.2-7.13,10.35-7.73,15.87ZM127.77,126.88l-10.26-1.57-5.65,37.17,10.62,1.57,5.29-37.17ZM192.42,138.17c-1.75-.54-3.92,1.15-5.56.39-.62-.28-2.2-2.32-2.98-2.95-.82-.67-3.95-2.49-4.23-2.96-.82-1.37.32-4.34-.74-5.2-.27-.22-6.18-1.98-6.71-2.01-1.8-.09-2.36,3.53-3.61,3.97-3.25-.15-6.51.31-9.67,1.1l-4.1-3.24c-.35,0-6,3.02-6.27,3.31-1.35,1.45.84,3.83,0,5.64-.22.49-3.02,3.18-3.72,4.1-.43.57-1.86,3.14-2.05,3.26-1.02.63-4.02-.39-5.24.54l-2.2,7.02c-.03,1.27,3.8,2.35,4.18,3.83.15.57-.25,1.53-.19,2.35.19,2.4.74,4.79,1.21,7.14l-3.27,3.81,3.4,6.65c.94.94,4.1-1.05,5.54-.39.63.29,2.19,2.33,2.98,2.96s3.91,2.42,4.23,2.96c.81,1.36-.3,4.1.76,5.18.27.28,6.34,2.16,6.91,2.19,1.54.07,2.31-3.66,3.46-4,3.39.19,6.6-.58,9.93-1l3.75,3.12c.36,0,5.98-2.92,6.4-3.29,1.53-1.38-1.17-4.16.05-5.89,1.13-.96,2.15-2.02,3.08-3.17.54-.68,2.55-3.93,2.82-4.06,1.24-.6,3.59.34,4.87-.44.44-.34,2.18-6.04,2.24-6.83.16-1.91-3.09-2.16-3.93-3.73.19-3.4-.58-6.6-1-9.93l3.12-3.76-3.49-6.66ZM134.91,168.5l-43.24-6.6c-6.9.67-7.81,9.45-.76,11.08l49.54,7.33c2.03-.23,4.42-1.2,4.84-3.43-2.09.11-3.76,1.34-5.78,0-1.56-1.03-3.76-6.47-4.6-8.37ZM94.29,175.99c-4.32,1-4.6,6.69-.62,8.29l39.66,5.9c4.99-.07,5.93-7.43.93-8.37l-39.97-5.83ZM124.36,191.24l-22.18-3.13c.78,1.71,1.39,6.57,3,7.47l13.18,2.14c2.85.03,4.34-4.6,6-6.48Z"/>
    <path class="cls-1" d="M164.92,136.94c25.76-2.34,29.03,37.32,3.34,39.29-25.8,1.98-29.06-36.95-3.34-39.29ZM163.98,139.44c-20.37,2.45-18.98,34.67,2.72,34.55,23.64-.14,22.4-37.57-2.72-34.55Z"/>
  </g>
</svg>