<?xml version="1.0" encoding="UTF-8"?>
<svg id="Calque_1" data-name="Calque 1" xmlns="http://www.w3.org/2000/svg" viewBox="0 0 250 250">
  <defs>
    <style>
      .cls-1 {
        fill: #fff;
      }

      .cls-2 {
        fill: #cc2936;
      }
    </style>
  </defs>
  <circle class="cls-2" cx="125" cy="125" r="125.05"/>
  <g>
    <path class="cls-1" d="M114.67,152.5H46.84c-2.25,0-4.09-1.83-4.09-4.09v-44.6c0-2.25,1.83-4.09,4.09-4.09h67.83c2.25,0,4.09,1.83,4.09,4.09v44.6c0,2.25-1.83,4.09-4.09,4.09ZM46.84,102.72c-.6,0-1.09.49-1.09,1.09v44.6c0,.6.49,1.09,1.09,1.09h67.83c.6,0,1.09-.49,1.09-1.09v-44.6c0-.6-.49-1.09-1.09-1.09H46.84Z"/>
    <path class="cls-1" d="M98.84,101.22h-3v-18.5c0-2.01.84-3.96,2.3-5.34,1.37-1.29,3.16-2,5.03-2h29.56v3h-29.56c-1.11,0-2.17.42-2.98,1.18-.86.82-1.36,1.97-1.36,3.15v18.5Z"/>
    <rect class="cls-1" x="117.26" y="123.78" width="16.51" height="3"/>
    <path class="cls-1" d="M132.74,175.88h-29.56c-1.88,0-3.67-.71-5.03-2-1.46-1.38-2.3-3.33-2.3-5.34v-18.5h3v18.5c0,1.19.5,2.34,1.36,3.16.81.76,1.87,1.18,2.98,1.18h29.56v3Z"/>
    <path class="cls-1" d="M201.6,90.55h-64.71c-2.5,0-4.54-2.04-4.54-4.54v-20.46c0-2.5,2.04-4.54,4.54-4.54h64.71c2.5,0,4.54,2.04,4.54,4.54v20.46c0,2.5-2.04,4.54-4.54,4.54ZM136.89,64c-.85,0-1.54.69-1.54,1.54v20.46c0,.85.69,1.54,1.54,1.54h64.71c.85,0,1.54-.69,1.54-1.54v-20.46c0-.85-.69-1.54-1.54-1.54h-64.71Z"/>
    <path class="cls-1" d="M202.71,140.33h-64.71c-2.5,0-4.54-2.04-4.54-4.54v-20.46c0-2.5,2.04-4.54,4.54-4.54h64.71c2.5,0,4.54,2.04,4.54,4.54v20.46c0,2.5-2.04,4.54-4.54,4.54ZM138,113.78c-.85,0-1.54.69-1.54,1.54v20.46c0,.85.69,1.54,1.54,1.54h64.71c.85,0,1.54-.69,1.54-1.54v-20.46c0-.85-.69-1.54-1.54-1.54h-64.71Z"/>
    <path class="cls-1" d="M201.6,189h-64.71c-2.5,0-4.54-2.04-4.54-4.54v-20.46c0-2.5,2.04-4.54,4.54-4.54h64.71c2.5,0,4.54,2.04,4.54,4.54v20.46c0,2.5-2.04,4.54-4.54,4.54ZM136.89,162.45c-.85,0-1.54.69-1.54,1.54v20.46c0,.85.69,1.54,1.54,1.54h64.71c.85,0,1.54-.69,1.54-1.54v-20.46c0-.85-.69-1.54-1.54-1.54h-64.71Z"/>
    <circle class="cls-1" cx="149.34" cy="75.77" r="7.19"/>
    <g>
      <path class="cls-1" d="M196.35,73.13h-32.08c-.83,0-1.5-.67-1.5-1.5s.67-1.5,1.5-1.5h32.08c.83,0,1.5.67,1.5,1.5s-.67,1.5-1.5,1.5Z"/>
      <path class="cls-1" d="M196.35,81.42h-32.08c-.83,0-1.5-.67-1.5-1.5s.67-1.5,1.5-1.5h32.08c.83,0,1.5.67,1.5,1.5s-.67,1.5-1.5,1.5Z"/>
    </g>
    <circle class="cls-1" cx="149.34" cy="125.55" r="7.19"/>
    <g>
      <path class="cls-1" d="M196.35,122.9h-32.08c-.83,0-1.5-.67-1.5-1.5s.67-1.5,1.5-1.5h32.08c.83,0,1.5.67,1.5,1.5s-.67,1.5-1.5,1.5Z"/>
      <path class="cls-1" d="M196.35,131.2h-32.08c-.83,0-1.5-.67-1.5-1.5s.67-1.5,1.5-1.5h32.08c.83,0,1.5.67,1.5,1.5s-.67,1.5-1.5,1.5Z"/>
    </g>
    <circle class="cls-1" cx="149.34" cy="174.23" r="7.19"/>
    <g>
      <path class="cls-1" d="M196.35,171.58h-32.08c-.83,0-1.5-.67-1.5-1.5s.67-1.5,1.5-1.5h32.08c.83,0,1.5.67,1.5,1.5s-.67,1.5-1.5,1.5Z"/>
      <path class="cls-1" d="M196.35,179.87h-32.08c-.83,0-1.5-.67-1.5-1.5s.67-1.5,1.5-1.5h32.08c.83,0,1.5.67,1.5,1.5s-.67,1.5-1.5,1.5Z"/>
    </g>
    <path class="cls-1" d="M45.75,109h-3v-17.26c0-1.22.38-2.4,1.09-3.39,1.09-1.54,2.87-2.45,4.76-2.45h11.03c1.39,0,2.75.57,3.73,1.55l12.74,12.83-2.13,2.11-12.74-12.83c-.42-.42-1-.67-1.6-.67h-11.03c-.92,0-1.79.45-2.32,1.2-.35.48-.53,1.06-.53,1.65v17.26Z"/>
  </g>
</svg>