<?xml version="1.0" encoding="UTF-8"?>
<svg id="Calque_1" data-name="Calque 1" xmlns="http://www.w3.org/2000/svg" viewBox="0 0 250 250">
  <defs>
    <style>
      .cls-1 {
        fill: #fff;
      }

      .cls-2 {
        fill: #cc2936;
      }
    </style>
  </defs>
  <circle class="cls-2" cx="125" cy="125" r="125.05"/>
  <g>
    <path class="cls-1" d="M189.13,50.05c6.61-.58,11.33,3.79,10.83,10.51-.47,6.26-2.59,16.55-3.98,22.88-1.2,5.46-2.98,9.73-6.61,14.02l-33.18,33.32,3.53,53.01c-.17,2.03.43,4.61-.4,6.47-.58,1.31-6.28,7.05-7.63,8.1-2.66,2.05-4.94,2.28-7.7.18l-34.38-34.42h-.65c-5.34,4.4-9.24,13.47-17.04,7.23-2.33-1.86-13.57-13.1-14.58-15.22-3.43-7.17,5.5-10.49,8.67-15.53l-34.54-34.6c-2.1-2.75-1.87-5.04.18-7.7,1.02-1.33,6.6-6.88,7.89-7.51.47-.23.93-.45,1.47-.5,19.41.67,38.8,2.47,58.2,3.51l33.14-33.03c3.66-3.1,7.87-5.32,12.55-6.45,6.59-1.59,17.57-3.68,24.23-4.26ZM190.12,52.33c-7.91,1.76-16.4,2.39-24.24,4.28-12.33,2.96-18.58,13.3-27.43,21.4l33.26,33.51.78-.46c6.67-7.69,17.04-14.26,20.2-24.35,2.67-8.49,2.95-18.94,4.99-27.71-.41-3.88-3.57-6.89-7.57-6.68ZM136.35,80.12c-.43.08-6.09,5.81-6.29,6.2-.13.25-.22.4,0,.65l33.59,32.95c.38-.2,5.88-5.7,6.08-6.08.13-.25.22-.4,0-.65l-33.38-33.07ZM128.12,88.29l-7.88,7.86v.65l33.59,32.95,7.86-7.88-33.56-33.57ZM116.82,96.15l-55.17-3.59c-.55.02-.91.34-1.33.64-1.01.7-6.48,6.17-7.22,7.19-1,1.39-.99,2.26,0,3.63l28.13,27.81,35.58-35.68ZM118.29,98.12l-6.71,6.71,33.56,33.57,6.71-6.71-33.56-33.57ZM109.78,106.63l-8.02,8.02,33.56,33.57,8.02-8.02-33.56-33.57ZM99.95,116.46l-6.71,6.71,33.56,33.57,6.71-6.71-33.56-33.57ZM91.48,125l-8.72,8.66,33.56,33.57c2.1-2.75,6.52-5.64,8.37-8.34.2-.29.47-.44.16-.83l-33.38-33.07ZM153.82,133.16l-35.67,35.59,27.8,28.14c1.37.99,2.24,1,3.63,0,1.03-.74,6.49-6.21,7.19-7.22.29-.42.61-.78.64-1.33l-3.59-55.18ZM87.83,142.34c-2.61,3.71-11.71,8.24-7.87,13.43,3.62,4.9,10.62,9.66,14.6,14.56,4.92,2.98,9.67-5.69,13.08-8.18l-19.81-19.81Z"/>
    <path class="cls-1" d="M76.45,160.4c1.42-.21,1.62,1.11.89,2.23-.79,1.21-6.71,7.05-8,8.05-.32.25-.6.54-.98.69-.7.26-1.24-.53-1.59-1.07-.08-.39.26-.77.46-1.08.78-1.2,6.73-7.09,8-8.05.36-.27.77-.7,1.23-.77Z"/>
    <path class="cls-1" d="M75.46,172.86c2.04-.62,2.06.99,1.08,2.4-.5.71-7.48,7.74-8,8.04-1.67.97-2.82-.15-1.84-1.84,1.87-1.17,7.29-8.16,8.76-8.6Z"/>
    <path class="cls-1" d="M87.57,172.53c1.51-.44,1.75.97,1.1,2.1-.3.51-7.84,8.06-8.35,8.35-.97.56-2.32.54-2.16-.82.13-1.1,8.14-8.17,9.41-9.62Z"/>
    <path class="cls-1" d="M169.47,64.78c15.33-2.08,21.8,17,9.55,24.62-10.88,6.77-24.13-4.39-19.46-16.51,1.47-3.81,5.82-7.56,9.91-8.11ZM170.12,67.07c-13.47,1.96-11.38,23.63,3.48,21.83,13.86-1.68,11.68-24.04-3.48-21.83Z"/>
    <path class="cls-1" d="M145.68,151.55l1.61.11c1.06,1.67.51,3.72.65,5.58.67,9.17,1.29,18.35,1.99,27.52-.02,3.26-2.31,2.69-2.64-.66-.94-9.51-1.71-20.92-2-30.46-.02-.72.1-1.43.4-2.08Z"/>
    <path class="cls-1" d="M98.43,104.29c-.66.3-1.36.42-2.08.4-9.55-.29-20.93-1.06-30.45-2-3.34-.33-3.92-2.62-.66-2.64,5.44-.04,11.83.96,17.36,1.34,4.5.3,9.29.22,13.75.66,1.54.15,2.51.47,2.08,2.25Z"/>
  </g>
</svg>